<svg width="45" height="45" viewBox="0 0 45 45" fill="none" xmlns="http://www.w3.org/2000/svg">
<circle cx="22.5" cy="22.5" r="22.5" fill="white"/>
<g clip-path="url(#clip0_2093_5938)">
<path d="M24.0796 8.70952C23.9889 8.72999 23.8963 8.74119 23.8033 8.74294C23.077 8.8364 22.3643 9.01587 21.6803 9.27759L21.4152 9.38675C21.0329 9.54191 20.6609 9.72124 20.3014 9.92363C20.2398 9.96304 20.1731 9.99378 20.1031 10.015C20.0474 10.0283 20.0028 10.0551 20.0028 10.0707C20.0028 10.0863 19.9717 10.1085 19.9382 10.1241C19.874 10.15 19.8127 10.1829 19.7556 10.2221C19.6913 10.2643 19.6243 10.3023 19.5551 10.3358C19.4795 10.371 19.4085 10.4151 19.3434 10.4672C19.299 10.5057 19.2496 10.5379 19.1964 10.563C18.6184 10.919 18.0681 11.3182 17.5501 11.757C17.2607 12.0169 16.9939 12.3008 16.7526 12.6058C16.7326 12.648 16.7055 12.6865 16.6724 12.7194C16.4651 12.9946 16.279 13.285 16.1155 13.5882C16.0754 13.6818 15.9907 13.8489 15.9373 13.9625C15.7498 14.3582 15.6669 14.7954 15.6967 15.2323C15.6912 15.4279 15.7282 15.6225 15.8051 15.8024C15.882 15.9824 15.997 16.1436 16.1422 16.2749C16.307 16.441 16.5036 16.5722 16.7202 16.6607C16.9369 16.7491 17.1691 16.7929 17.4031 16.7895C17.7609 16.8124 18.1199 16.7717 18.4635 16.6692C18.586 16.6335 18.7531 16.5934 18.8333 16.5689C18.905 16.5535 18.9745 16.5296 19.0405 16.4976C19.1273 16.4531 19.6152 16.2325 19.6375 16.2325C20.1928 15.9416 20.7285 15.6149 21.2415 15.2546C21.7271 14.9293 22.1548 14.6464 22.1927 14.6264C22.2306 14.6063 22.4578 14.4682 22.7028 14.3212C22.9479 14.1741 23.2509 14.0026 23.3712 13.9402L23.7677 13.7308C23.8635 13.6863 24.0395 13.6038 24.1642 13.557C24.289 13.5103 24.4449 13.4434 24.5051 13.4167C24.5652 13.39 24.661 13.3499 24.7122 13.3276C24.9738 13.2451 25.2448 13.1964 25.5187 13.1828C25.8291 13.1416 26.144 13.2108 26.4087 13.3781C26.6733 13.5454 26.8708 13.8003 26.9667 14.0984C27.0387 14.3371 27.0629 14.5877 27.038 14.8358C27.0632 15.2456 26.9993 15.6559 26.8509 16.0387L26.7551 16.2615C26.4802 16.8636 26.1363 17.4318 25.7303 17.9546C25.1512 18.6831 24.5037 19.3545 23.7967 19.9595L23.2865 20.3828C23.1261 20.5142 22.9412 20.6457 22.7385 20.7838C22.6538 20.835 22.5157 20.9264 22.4355 20.9865C22.0472 21.228 21.6431 21.4431 21.2259 21.6303L20.9162 21.7662C20.8544 21.7992 20.7873 21.8211 20.7179 21.8308C20.6526 21.8372 20.5883 21.8514 20.5264 21.8731C20.4719 21.8949 20.4129 21.903 20.3546 21.8968C20.2962 21.8906 20.2403 21.8703 20.1916 21.8376C20.1428 21.8049 20.1028 21.7608 20.075 21.7092C20.0472 21.6575 20.0323 21.5999 20.0318 21.5412C20.0318 21.2316 20.1788 21.0333 21.1078 20.111C22.1125 19.1152 22.2217 18.966 22.2217 18.5895C22.2217 18.213 22.0368 17.9345 21.6202 17.7229C21.4462 17.6301 21.2477 17.5935 21.0521 17.6182C20.7514 17.6016 20.4531 17.6795 20.1989 17.841C20.1387 17.8788 20.0429 17.9278 19.9917 17.9546C19.9515 17.9736 19.9135 17.9967 19.8781 18.0236C19.8781 18.0236 19.7912 18.0905 19.7066 18.1551C19.4297 18.3846 19.178 18.643 18.9558 18.9259C18.7785 19.1727 18.6228 19.4343 18.4902 19.7078C18.2687 20.163 18.1385 20.6572 18.1071 21.1625C18.1071 21.9756 18.5303 22.6261 19.1853 22.811C19.6083 22.8647 20.0365 22.8647 20.4595 22.811C20.8091 22.7328 21.1524 22.6285 21.4865 22.4991C21.5128 22.4789 21.5447 22.4673 21.5778 22.4657C22.1337 22.2346 22.6708 21.9605 23.184 21.6459C23.2709 21.588 23.3689 21.5234 23.4068 21.5011C23.4447 21.4788 23.6296 21.3741 23.8033 21.2605C23.9771 21.1469 24.1442 21.0377 24.1553 21.0377C24.2459 20.9637 24.3403 20.8945 24.4382 20.8306L24.817 20.5699C24.8816 20.5231 25.0575 20.3872 25.2135 20.2625C26.0798 19.5919 26.8708 18.8292 27.5726 17.988C27.6551 17.8877 27.7308 17.7919 27.742 17.7808C27.9085 17.5662 28.0639 17.3431 28.2075 17.1125C28.3046 16.9635 28.3939 16.8096 28.4749 16.6514C28.5462 16.5155 28.6464 16.3306 28.6976 16.2348C28.7489 16.139 28.8514 15.8962 28.9338 15.6867C29.0162 15.4773 29.0942 15.2746 29.1075 15.2412C29.2633 14.7672 29.3774 14.2804 29.4484 13.7865C29.5226 13.1221 29.4766 12.4497 29.3125 11.8016C29.254 11.6129 29.1795 11.4296 29.0897 11.2536C28.7919 10.6053 28.3315 10.045 27.7531 9.62734C27.6752 9.57754 27.6007 9.52246 27.5303 9.46249C27.1477 9.22576 26.7358 9.04003 26.3051 8.91002C26.0708 8.8426 25.8328 8.78904 25.5922 8.74962C25.3494 8.71175 24.9105 8.68724 24.5652 8.68724H24.3892C24.2855 8.68404 24.1818 8.69151 24.0796 8.70952ZM17.0311 29.3471C16.9062 29.3779 16.7798 29.4017 16.6523 29.4184C16.5098 29.4363 16.2447 29.4741 16.0665 29.5009C15.9473 29.5131 15.8295 29.5362 15.7145 29.5699C15.6811 29.5989 15.6766 36.0303 15.7145 36.0771C15.9773 36.1122 16.2427 36.1242 16.5075 36.1127C17.2783 36.1127 17.2828 36.1127 17.3028 36.0259C17.3028 35.9791 17.3162 34.4531 17.3028 32.6353C17.3028 29.3583 17.3028 29.3271 17.216 29.3204C17.1518 29.3187 17.0878 29.3277 17.0266 29.3471H17.0311ZM16.1043 26.6182C15.9 26.6973 15.7256 26.8383 15.6053 27.0214C15.485 27.2063 15.4806 27.2219 15.4806 27.6073V28.0083L15.6254 28.2043C15.7474 28.399 15.937 28.5417 16.1578 28.6053C16.3182 28.6606 16.4896 28.6766 16.6575 28.6518C16.8254 28.6269 16.9848 28.5621 17.1224 28.4627C17.5256 28.2043 17.666 27.5471 17.4209 27.0637C17.3369 26.8943 17.2 26.7567 17.0311 26.6716C16.741 26.5334 16.4084 26.5142 16.1043 26.6182ZM29.9385 30.4811C30.0967 30.5212 30.4286 30.7907 30.4286 30.8731C30.4396 30.925 30.4592 30.9747 30.4865 31.0202C30.5734 31.1917 30.6402 31.7509 30.5801 31.8221C30.5199 31.8934 30.3952 31.8778 29.6311 31.8778H28.7377L28.7155 31.7843C28.6945 31.4649 28.7722 31.1468 28.9382 30.8731C29.0621 30.6802 29.251 30.5379 29.4707 30.4721C29.5564 30.4439 29.6456 30.4275 29.7358 30.4231C29.758 30.4231 29.8494 30.4588 29.9363 30.4811H29.9385ZM29.1254 29.2781C29.0353 29.288 28.9473 29.3121 28.8647 29.3494C28.8392 29.3712 28.807 29.3838 28.7734 29.385C28.6692 29.4124 28.5689 29.4528 28.4749 29.5053C28.1055 29.7199 27.7888 30.0145 27.5481 30.3674C27.3867 30.6243 27.2566 30.8995 27.1605 31.1872C27.1461 31.251 27.1268 31.3136 27.1026 31.3744C27.0892 31.4167 27.0424 31.5793 27.0046 31.7353C26.9044 32.4304 26.9044 33.1364 27.0046 33.8316C27.0781 34.1414 27.1903 34.4408 27.3387 34.7226C27.3437 34.7232 27.3485 34.7247 27.3529 34.7272C27.3573 34.7296 27.3612 34.7329 27.3643 34.7368C27.3674 34.7408 27.3697 34.7453 27.371 34.7501C27.3724 34.7549 27.3728 34.76 27.3722 34.765C27.3722 34.9075 27.8177 35.4778 28.1385 35.7363C28.3494 35.8841 28.5795 36.0025 28.8224 36.0882C29.1682 36.1907 29.5249 36.2521 29.885 36.2709C30.4219 36.2709 31.3887 36.0481 31.7095 35.8254C31.7797 35.7805 31.8543 35.7432 31.9323 35.714C32.0776 35.6595 32.2108 35.577 32.3244 35.4712C32.2251 35.1457 32.0747 34.8382 31.8788 34.56C31.8245 34.5731 31.7741 34.5991 31.7318 34.6358C31.6898 34.6728 31.6393 34.6988 31.5848 34.7115C31.5393 34.7185 31.4964 34.7369 31.46 34.765C31.3153 34.8321 31.1665 34.8901 31.0145 34.9387C30.731 35.0485 30.4262 35.0919 30.1234 35.0657C29.6556 35.0657 29.5754 35.0657 29.4239 34.9877C28.8959 34.7338 28.5929 34.0966 28.5929 33.2345C28.5855 33.1195 28.5855 33.0042 28.5929 32.8892C28.5929 32.8892 29.435 32.8714 30.4531 32.8603L32.3043 32.8402V32.4615C32.2821 31.7219 32.0816 30.7239 31.9145 30.4966C31.8989 30.4744 31.8476 30.3808 31.7986 30.2739C31.5475 29.8325 31.1383 29.5029 30.6536 29.3516C30.1452 29.216 29.6144 29.1864 29.0942 29.2647L29.1254 29.2781ZM20.9051 29.2781C20.1701 29.4459 19.4937 29.8083 18.9469 30.3273L18.7887 30.4721V36.0548C18.7887 36.115 18.8444 36.1194 19.613 36.1105H20.4328L20.4439 33.4773V30.8464L20.5887 30.7328C20.726 30.6151 20.8871 30.5284 21.061 30.4788C21.3819 30.3778 21.7193 30.3399 22.0546 30.3674C22.1592 30.3834 22.2654 30.3871 22.3709 30.3786C22.4404 30.2934 22.4933 30.1959 22.5269 30.0912C22.5825 29.9397 22.6739 29.7437 22.7184 29.6457C22.8432 29.4073 22.8321 29.3471 22.665 29.3093L22.3397 29.2335C21.8664 29.171 21.3863 29.1815 20.9162 29.2647L20.9051 29.2781ZM12.589 32.8246C12.6256 33.1641 12.6383 33.5058 12.6269 33.8471C12.6269 34.9209 12.6424 34.8541 12.3618 35.0011C12.1738 35.0699 11.9726 35.0943 11.7736 35.0724H11.3147L11.1276 34.9432C11.0265 34.8765 10.937 34.7937 10.8625 34.6981C10.7246 34.4698 10.6545 34.207 10.6605 33.9403C10.6664 33.6737 10.748 33.4142 10.8959 33.1922C11.0329 33.0493 11.1963 32.9343 11.3771 32.8536C11.4136 32.8535 11.449 32.8409 11.4773 32.8179C11.5308 32.7622 11.7001 32.7466 12.1457 32.7533C12.462 32.7533 12.56 32.7689 12.5912 32.8157L12.589 32.8246ZM11.4751 29.1823C11.0761 29.2364 10.6836 29.3304 10.3033 29.463C10.261 29.4808 10.1853 29.5075 10.1318 29.5231C9.87826 29.6113 9.63716 29.7319 9.41448 29.8818C9.43281 29.949 9.45666 30.0146 9.48577 30.0778C9.58628 30.3354 9.70773 30.5842 9.84888 30.8219C9.87941 30.8154 9.90873 30.8041 9.93577 30.7885C10.1333 30.6898 10.3381 30.6064 10.5484 30.539C10.662 30.5056 10.7979 30.461 10.8514 30.441C11.1898 30.3569 11.5404 30.3328 11.8873 30.3697C12.3996 30.4521 12.589 30.6905 12.6202 31.2986C12.6358 31.635 12.6358 31.6439 12.5489 31.6662C12.2919 31.69 12.0338 31.6989 11.7759 31.6929C10.8848 31.6929 10.6019 31.7442 10.0204 32.0293C9.76543 32.1586 9.54046 32.3401 9.36009 32.5619C9.17972 32.7837 9.04797 33.0409 8.97339 33.3169C8.88342 33.7168 8.89106 34.1325 8.99567 34.5288C9.33428 35.558 10.1452 36.1573 11.2702 36.2174C12.257 36.2866 13.2364 36.0041 14.0348 35.4199L14.2798 35.2194L14.291 33.2145C14.3021 30.8976 14.291 30.8174 14.0192 30.2516C13.825 29.925 13.5474 29.6559 13.215 29.4719C13.0947 29.4162 12.961 29.3583 12.9187 29.3405C12.4521 29.1956 11.962 29.1419 11.4751 29.1823ZM24.5719 27.4759C23.7321 27.6006 23.458 27.6541 23.4179 27.6986C23.3778 27.7432 23.3912 28.9306 23.3912 31.2363C23.409 34.4575 23.4157 34.7471 23.4781 34.9031C23.5559 35.1633 23.6976 35.4 23.8902 35.5914C24.2868 35.988 24.7813 36.1506 25.6234 36.1506C26.0845 36.1506 26.1491 36.1506 26.1803 36.0816C26.2248 35.7867 26.2338 35.4875 26.2071 35.1905C26.1825 35.0947 26.1692 35.0924 25.884 35.0679C25.741 35.0741 25.599 35.0408 25.4737 34.9717C25.3483 34.9025 25.2444 34.8002 25.1734 34.6759L25.0798 34.5065L25.0665 32.5484C25.0665 31.0892 25.0665 30.5746 25.1021 30.5434C25.1377 30.5122 25.2647 30.4922 25.6679 30.4922C26.2917 30.4922 26.2382 30.5523 26.2249 29.8239V29.3316L25.6947 29.3137C25.5021 29.3117 25.31 29.2953 25.1199 29.2647C25.0821 29.2424 25.0709 29.0108 25.0709 28.3268V27.4179H24.9885C24.9395 27.4179 24.7657 27.4447 24.5808 27.4714L24.5719 27.4759ZM35.0422 27.4001C35.0422 27.4001 34.8573 27.4424 34.6501 27.4759C34.4429 27.5093 34.1021 27.5627 33.8949 27.6006L33.5162 27.6652V31.1427C33.5162 34.9298 33.5162 34.7583 33.739 35.2306C33.8213 35.4012 33.9381 35.5529 34.0821 35.6761C34.483 36.0437 34.8573 36.1573 35.6548 36.1595C36.3343 36.1595 36.3075 36.1863 36.2942 35.5603V35.1147L36.0023 35.088C35.4855 35.0434 35.236 34.834 35.1781 34.4041C35.1625 34.2749 35.1514 32.6575 35.1558 30.813C35.1558 27.6207 35.1558 27.3132 35.06 27.4046L35.0422 27.4001Z" fill="#ED1D24"/>
</g>
<defs>
<clipPath id="clip0_2093_5938">
<rect width="27.3743" height="27.577" fill="white" transform="translate(8.91113 8.6875)"/>
</clipPath>
</defs>
</svg>
