<svg width="45" height="45" viewBox="0 0 45 45" fill="none" xmlns="http://www.w3.org/2000/svg">
<circle cx="22.5" cy="22.5" r="22.5" fill="white"/>
<g clip-path="url(#clip0_2093_5942)">
<path d="M30.915 7.78007C31.4311 7.58673 32.0371 7.44477 32.5581 7.70176C32.8672 7.90245 32.9159 8.31362 32.9305 8.65137C32.9792 9.42476 32.6506 10.1517 32.2952 10.8149C31.6129 11.9739 30.8231 13.0654 29.9365 14.0749C28.734 15.5238 27.5291 16.9702 26.2853 18.3751C26.0419 18.6516 25.7985 18.8988 25.5745 19.1925C26.0127 19.6649 26.4508 20.1397 26.8671 20.6316C25.4066 20.6316 23.9461 20.6316 22.4856 20.6316C22.4467 19.1322 22.4232 17.6319 22.415 16.1308C23.0333 16.5566 23.5177 17.1611 24.1384 17.5674C25.1033 16.84 26.0303 16.0631 26.9157 15.2399C27.7604 14.4543 28.6196 13.676 29.3913 12.8218C30.2528 11.962 31.0162 11.0081 31.6672 9.97788C31.8912 9.63461 32.0206 9.23763 32.042 8.82758C32.0449 8.70803 32.0021 8.59193 31.9224 8.50315C31.8427 8.41438 31.7322 8.35969 31.6136 8.35033C31.0876 8.35749 30.5666 8.45432 30.0728 8.63668C29.1575 8.9517 28.2806 9.3696 27.4586 9.88243C27.566 9.7539 27.6914 9.64178 27.831 9.54958C28.7803 8.83082 29.8166 8.23623 30.915 7.78007Z" fill="#0161B0"/>
<path d="M19.6877 9.59776C20.5186 9.14468 21.4315 8.86399 22.3723 8.77234C23.3131 8.68069 24.2626 8.77994 25.1645 9.06422C26.92 9.61949 28.3945 10.8347 29.2806 12.4564C29.3342 12.5739 29.4267 12.7011 29.3926 12.8333C28.6161 13.6875 27.7617 14.4657 26.9171 15.2514C26.0277 16.0749 25.0966 16.8518 24.1276 17.5789C23.5069 17.1726 23.0225 16.5681 22.4042 16.1422C22.4042 17.6433 22.4277 19.1436 22.4748 20.6431C23.9353 20.6431 25.3957 20.6431 26.8562 20.6431C26.44 20.1536 26.0018 19.6764 25.5637 19.204C25.7755 18.9103 26.0505 18.6631 26.2745 18.3866C27.5256 16.9817 28.7305 15.5353 29.9257 14.0864C30.1806 15.1508 30.2013 16.2584 29.9865 17.3317C29.6086 19.1339 28.5524 20.7194 27.0388 21.7567C25.7944 22.6114 24.3093 23.0405 22.8034 22.9804C21.489 22.9804 20.2257 22.4909 19.1108 21.8105L19.0889 21.791C19.0588 21.7591 19.0263 21.7296 18.9916 21.7028C18.0922 21.0578 17.3444 20.2224 16.8008 19.2554C18.2667 17.6208 19.8446 16.0915 21.523 14.6787C21.7304 14.499 21.9509 14.3354 22.1827 14.1892C22.2849 14.1892 22.3507 14.2895 22.4261 14.3483C22.8423 14.7668 23.2561 15.1902 23.6724 15.6062C23.7478 14.2234 23.6943 12.8382 23.7016 11.4456L23.6188 11.3403C22.4797 11.3036 21.3381 11.3403 20.2111 11.3257C19.965 11.2978 19.716 11.3237 19.4808 11.4015C19.9847 11.8445 20.4545 12.3365 20.9096 12.8284C19.3567 14.46 17.8621 16.1471 16.426 17.8897L16.3237 17.9166C16.2288 17.7614 16.1666 17.5881 16.1412 17.4076C15.8147 15.8882 15.9855 14.3034 16.628 12.8896C17.2632 11.4859 18.3378 10.3298 19.6877 9.59776Z" fill="#BCBDC1"/>
<path d="M19.4713 11.409C19.7065 11.3312 19.9555 11.3053 20.2015 11.3331C21.3407 11.3502 22.4823 11.3111 23.6093 11.3478L23.6921 11.453C23.6921 12.8383 23.7383 14.2235 23.6629 15.6137C23.2466 15.1976 22.8328 14.7742 22.4166 14.3557C22.3411 14.297 22.2754 14.1966 22.1732 14.1966C21.9414 14.3429 21.7209 14.5065 21.5135 14.6861C19.8351 16.0989 18.2572 17.6282 16.7913 19.2628C16.01 20.1757 15.2189 21.1082 14.698 22.1998C14.5592 22.5351 14.3888 22.9511 14.5982 23.2889C14.8611 23.6071 15.3284 23.5581 15.6935 23.4798C16.4238 23.2864 17.064 22.8802 17.7163 22.5179C18.1598 22.283 18.5824 22.0104 18.9796 21.7029C19.0143 21.7297 19.0469 21.7592 19.077 21.7911C18.7109 22.01 18.3611 22.2554 18.0303 22.5253C17.2006 23.1504 16.3022 23.6776 15.3528 24.0966C14.9098 24.2703 14.3962 24.3951 13.941 24.1896C13.7777 24.098 13.6406 23.9657 13.5429 23.8053C13.4453 23.645 13.3904 23.4621 13.3836 23.2742C13.3251 22.6232 13.6148 22.0162 13.8996 21.4533C14.5517 20.2853 15.3138 19.183 16.1755 18.1615C16.2369 18.0922 16.2789 18.0077 16.2972 17.9167L16.3994 17.8898C17.8453 16.1554 19.3472 14.4707 20.905 12.8358C20.445 12.3463 19.98 11.8569 19.4762 11.409H19.4713Z" fill="#DB1920"/>
<path d="M16.5222 29.9677C16.5222 28.58 17.7636 27.3685 19.1243 27.3245C20.0176 27.2706 21.0156 27.4786 21.6119 28.2031C22.1621 28.8492 22.2692 29.7425 22.2253 30.5624C21.6314 30.5796 21.0375 30.582 20.4436 30.5624C20.5045 30.2971 20.4986 30.0207 20.4263 29.7583C20.3541 29.4958 20.2177 29.2557 20.0298 29.0597C19.5892 28.5702 18.6593 28.7684 18.4719 29.4023C18.3186 29.7376 18.5182 30.1023 18.7518 30.3422C19.5673 31.1914 20.648 31.7225 21.4732 32.562C22.0247 33.1249 22.3595 33.8665 22.4176 34.6546C22.4858 35.4328 22.33 36.2968 21.7434 36.8573C21.1568 37.4177 20.3511 37.5915 19.5819 37.6331C18.7007 37.6845 17.7149 37.4814 17.1258 36.7667C16.4759 35.986 16.3445 34.8993 16.4346 33.9154C17.0674 33.9154 17.7027 33.9154 18.3356 33.9154C18.336 34.3779 18.3669 34.8399 18.4281 35.2982C18.449 35.437 18.4974 35.5702 18.5702 35.6899C18.6431 35.8097 18.7391 35.9135 18.8525 35.9954C18.9659 36.0773 19.0945 36.1355 19.2306 36.1667C19.3667 36.1978 19.5077 36.2013 19.6452 36.1769C19.9128 36.109 20.1472 35.9464 20.3054 35.719C20.4636 35.4916 20.5351 35.2145 20.5069 34.9385C20.4707 34.6007 20.3111 34.2884 20.059 34.0623C19.0853 33.3036 18.1117 32.5204 17.1745 31.7225C16.9421 31.4978 16.7628 31.2234 16.6499 30.9197C16.537 30.616 16.4934 30.2906 16.5222 29.9677Z" fill="#21201E"/>
<path d="M9.46387 27.5723C10.6809 27.5723 11.898 27.5723 13.1151 27.5723C13.4756 27.5643 13.8312 27.657 14.1424 27.8402C14.4535 28.0235 14.708 28.2899 14.8774 28.61C15.1476 29.168 15.133 29.8142 15.0672 30.4162C14.982 31.0868 14.6705 31.8186 13.9986 32.0781C14.7021 32.1417 15.0356 32.8784 15.15 33.4927C15.2863 34.2857 15.3618 35.1423 15.0599 35.9108C14.8656 36.3259 14.5642 36.681 14.187 36.9393C13.8099 37.1975 13.3708 37.3495 12.9155 37.3792C11.7666 37.3792 10.6152 37.3792 9.46387 37.3792C9.46387 34.1045 9.46387 30.8307 9.46387 27.5576V27.5723ZM11.3771 28.9013C11.3771 29.7701 11.3771 30.6414 11.3771 31.5102C11.7441 31.5805 12.1235 31.5431 12.47 31.4026C12.6445 31.3221 12.7954 31.1979 12.9084 31.0419C13.0213 30.8859 13.0925 30.7033 13.1151 30.5117C13.1686 30.0614 13.1589 29.5327 12.8035 29.1925C12.4481 28.8523 11.8639 28.8229 11.3844 28.9013H11.3771ZM11.3771 33.0228C11.3771 34.0018 11.3771 34.9538 11.3771 35.9206C11.8639 36.0209 12.4189 36.0527 12.8376 35.7321C13.2562 35.4115 13.339 34.8706 13.3366 34.3884C13.3543 33.9604 13.2118 33.5413 12.9374 33.2137C12.7692 33.0592 12.5683 32.9452 12.3498 32.8803C12.1314 32.8155 11.9011 32.8014 11.6765 32.8392C11.5621 32.8686 11.3284 32.8245 11.3844 33.0228H11.3771Z" fill="#21201E"/>
<path d="M23.8261 27.5723C24.4752 27.5723 25.1243 27.5723 25.7734 27.5723C26.5264 29.558 27.2818 31.5421 28.0396 33.5245C28.089 33.7123 28.1714 33.8897 28.283 34.0482C28.2928 31.8896 28.2928 29.7318 28.283 27.5747C28.8623 27.5747 29.4392 27.5747 30.0137 27.5747C30.0137 30.847 30.0137 34.1217 30.0137 37.3939C29.3419 37.3939 28.67 37.3939 27.9982 37.3939C27.2217 35.2744 26.4501 33.1525 25.659 31.0305C25.659 31.0991 25.6396 31.241 25.6323 31.312C25.6323 33.3352 25.6323 35.3593 25.6323 37.3841C25.0262 37.3841 24.4152 37.3841 23.8115 37.3841C23.8115 34.1094 23.8115 30.8356 23.8115 27.5625L23.8261 27.5723Z" fill="#21201E"/>
<path d="M31.6494 27.5718C32.3042 27.5718 32.9565 27.5718 33.6113 27.5718C33.6113 30.335 33.5918 33.0981 33.6113 35.8613C34.6945 35.8613 35.7777 35.8466 36.8609 35.8613C36.8609 36.3679 36.8609 36.877 36.8609 37.3861C35.1254 37.3861 33.3898 37.3861 31.6543 37.3861C31.6543 34.1114 31.6543 30.8391 31.6543 27.5645L31.6494 27.5718Z" fill="#21201E"/>
</g>
<defs>
<clipPath id="clip0_2093_5942">
<rect width="27.401" height="30.0743" fill="white" transform="translate(9.46387 7.56152)"/>
</clipPath>
</defs>
</svg>
