<svg width="45" height="45" viewBox="0 0 45 45" fill="none" xmlns="http://www.w3.org/2000/svg">
<g clip-path="url(#clip0_2093_5933)">
<path d="M45 22.5C45 10.074 34.926 0 22.5 0C10.074 0 0 10.074 0 22.5C0 34.926 10.074 45 22.5 45C34.926 45 45 34.926 45 22.5Z" fill="#ED1D24"/>
<path d="M32.9757 27.298C31.3198 27.298 30.1816 26.0834 30.1816 24.3467C30.1816 22.6372 31.3444 21.4217 32.9757 21.4217C34.6069 21.4217 35.7715 22.6372 35.7715 24.3713C35.7715 26.0526 34.5823 27.2963 32.9774 27.2963L32.9757 27.298ZM33.0319 17.638C28.7851 17.638 25.9594 20.3327 25.9594 24.3432C25.9594 28.4591 28.6805 31.1011 32.9511 31.1011C37.1962 31.1011 39.992 28.4591 39.992 24.3695C39.992 20.3327 37.2261 17.638 33.0302 17.638H33.0319ZM22.0878 11.7607C20.482 11.7607 19.4722 12.666 19.4722 14.0907C19.4722 15.5427 20.5075 16.4479 22.1625 16.4479C23.7691 16.4479 24.7781 15.5427 24.7781 14.0907C24.7781 12.6423 23.7428 11.7607 22.0878 11.7607ZM22.3726 17.7681H21.8531C20.5875 17.7681 19.6269 18.3622 19.6269 20.1771V28.4652C19.6269 30.3021 20.5567 30.8726 21.9067 30.8726H22.4235C23.6927 30.8726 24.5979 30.2538 24.5979 28.4626V20.1771C24.5979 18.3112 23.7164 17.7681 22.3726 17.7681ZM15.5927 13.8604H14.8421C13.4174 13.8604 12.6413 14.6664 12.6413 16.2695V24.0127C12.6413 26.0069 11.9654 26.7057 10.3913 26.7057C9.14941 26.7057 8.13867 26.1616 7.33447 25.1755C7.25625 25.0744 5.625 25.8487 5.625 27.7691C5.625 29.839 7.56475 31.1081 11.1647 31.1081C15.5408 31.1081 17.8453 28.9082 17.8453 24.0918L17.8462 16.266C17.8462 14.6611 17.0719 13.8604 15.5927 13.8604Z" fill="white"/>
</g>
<defs>
<clipPath id="clip0_2093_5933">
<rect width="45" height="45" fill="white"/>
</clipPath>
</defs>
</svg>
