<svg width="45" height="45" viewBox="0 0 45 45" fill="none" xmlns="http://www.w3.org/2000/svg">
<circle cx="22.5" cy="22.5" r="22.5" fill="white"/>
<g clip-path="url(#clip0_2093_5952)">
<path fill-rule="evenodd" clip-rule="evenodd" d="M11.2784 34.6566L10.5406 36.7991L9.7855 34.6566H8.85449L10.0056 37.7892H11.028L12.1858 34.6566H11.2784ZM16.9141 36.2267C16.9141 36.1156 16.936 36.0055 16.9785 35.9028C17.021 35.8001 17.0834 35.7068 17.162 35.6283C17.2406 35.5497 17.3339 35.4874 17.4366 35.4449C17.5393 35.4024 17.6494 35.3805 17.7605 35.3805C17.985 35.3805 18.2003 35.4697 18.359 35.6284C18.5177 35.7871 18.6069 36.0024 18.6069 36.2269C18.6069 36.4513 18.5177 36.6666 18.359 36.8253C18.2003 36.984 17.985 37.0732 17.7605 37.0732C17.6494 37.0732 17.5393 37.0513 17.4366 37.0088C17.3339 36.9663 17.2405 36.9039 17.1619 36.8253C17.0833 36.7467 17.021 36.6534 16.9784 36.5507C16.9359 36.448 16.914 36.3379 16.9141 36.2267ZM18.5718 33.3784V34.9169C18.5699 34.9159 18.5688 34.9146 18.5673 34.9135C18.3103 34.7241 17.9947 34.6054 17.6547 34.6054C16.7887 34.6054 16.0863 35.3282 16.0863 36.2213C16.0863 37.1139 16.7887 37.8375 17.6547 37.8375C17.9853 37.8375 18.3071 37.7305 18.5718 37.5324V37.7943H19.3769V33.3787H18.5718V33.3784ZM20.7441 36.2267C20.7441 36.1156 20.766 36.0055 20.8086 35.9028C20.8511 35.8001 20.9135 35.7068 20.9921 35.6283C21.0707 35.5497 21.164 35.4874 21.2667 35.4449C21.3694 35.4024 21.4795 35.3805 21.5906 35.3805C21.8151 35.3805 22.0304 35.4696 22.1892 35.6283C22.348 35.787 22.4373 36.0022 22.4374 36.2267C22.4331 36.4484 22.3419 36.6595 22.1836 36.8147C22.0253 36.9699 21.8125 37.0569 21.5908 37.0569C21.3691 37.0569 21.1562 36.9699 20.9979 36.8147C20.8396 36.6595 20.7485 36.4484 20.7441 36.2267ZM22.4023 34.6599V34.9169C22.4005 34.9159 22.399 34.9146 22.3977 34.9135C22.1404 34.7241 21.8251 34.6054 21.4849 34.6054C20.6189 34.6054 19.9168 35.3282 19.9168 36.2213C19.9168 37.1139 20.6189 37.8375 21.4849 37.8375C21.8156 37.8374 22.1374 37.7304 22.4023 37.5324V37.7943H23.2069V34.6601L22.4023 34.6599ZM25.4016 34.6599H24.9198C24.9198 34.6599 24.9175 34.5597 24.9175 34.4699C24.9175 34.2711 24.9175 34.0186 25.2336 34.0186C25.315 34.0186 25.3936 34.0324 25.3936 34.0324V33.3035C25.3936 33.3035 25.2611 33.3003 25.1706 33.3035C24.4304 33.3327 24.1045 33.5856 24.1045 34.3255V34.6601H23.7446V35.3822H24.1045V37.7891H24.92V35.3822H25.4018L25.4016 34.6599ZM30.2759 34.933C30.505 34.7244 30.8385 34.5948 31.1974 34.5948C31.9349 34.5948 32.3577 35.0646 32.3606 35.6846L32.361 36.0363V37.7894H31.5296V35.9604C31.5296 35.5007 31.2091 35.3604 30.9549 35.3604C30.7218 35.3604 30.2749 35.4892 30.2997 36.0511L30.3 36.2585V37.7894H29.4673V34.6598H30.2761V34.933H30.2759ZM33.7658 36.4699C33.8048 36.8638 34.1344 37.1502 34.5369 37.1502C34.8555 37.1502 35.0659 37.0245 35.1908 36.7963H36.0607C35.9222 37.2846 35.3734 37.8358 34.5652 37.8358C33.5926 37.8358 32.9068 37.1118 32.9068 36.2178C32.9068 35.3246 33.642 34.6002 34.5652 34.6002C35.4893 34.6002 36.1461 35.3874 36.1461 36.2178C36.1461 36.391 36.1265 36.4688 36.1265 36.4688L33.7658 36.4699ZM35.2676 35.8643C35.1977 35.5092 34.8996 35.3044 34.5371 35.3044C34.1634 35.3044 33.871 35.522 33.7868 35.8624L35.2676 35.8643ZM14.5633 34.7044C14.4156 34.7365 14.2833 34.8181 14.1883 34.9356C14.0933 35.0532 14.0414 35.1997 14.0411 35.3508C14.0411 35.3579 14.0429 35.3659 14.0431 35.3723C14.5139 35.4726 14.7511 35.7897 14.7511 36.208C14.7511 36.6788 14.3667 37.0594 13.8965 37.0594C13.4263 37.0594 12.9872 36.6673 12.9872 36.0859C12.9872 35.3763 13.5959 34.7101 14.4629 34.6893C14.4786 34.689 14.5032 34.6893 14.5287 34.6906C14.3321 34.6162 14.1236 34.5781 13.9134 34.5784C12.9831 34.5784 12.2286 35.3082 12.2286 36.208C12.2286 37.1086 12.9829 37.838 13.9134 37.838C14.8438 37.838 15.5979 37.1088 15.5979 36.208C15.5982 35.5307 15.171 34.9502 14.5633 34.7044ZM27.2681 34.5923C26.3379 34.5923 25.5833 35.3218 25.5833 36.2223C25.5833 36.8992 26.0103 37.4804 26.6184 37.7262C26.766 37.6939 26.8983 37.6121 26.9932 37.4945C27.0882 37.3768 27.1401 37.2303 27.1406 37.0791C27.1406 37.0727 27.1389 37.0647 27.1383 37.0579C26.6677 36.958 26.4306 36.6403 26.4306 36.2223C26.4306 35.7524 26.8146 35.3712 27.2848 35.3712C27.7547 35.3712 28.1942 35.7636 28.1942 36.344C28.1942 37.0543 27.5855 37.7201 26.7181 37.7406C26.7027 37.7416 26.6781 37.7406 26.6528 37.7397C26.8435 37.812 27.0513 37.8519 27.2682 37.8519C28.1988 37.8519 28.9533 37.1224 28.9533 36.2223C28.953 35.3218 28.1986 34.5923 27.2681 34.5923ZM27.5241 8.11769C25.2268 8.6202 23.4963 10.6644 23.4963 13.1108C23.4963 13.1637 23.5101 13.2263 23.511 13.2787C27.1437 14.0513 28.9755 16.4994 28.9755 19.7285C28.9755 23.3563 26.0083 26.2972 22.3808 26.2972C18.7523 26.2972 15.364 23.2712 15.364 18.7835C15.364 13.3053 20.0599 8.16593 26.7523 8.00346C26.8731 8.00067 27.0647 8.00494 27.2597 8.01397C25.7891 7.45549 24.1867 7.14844 22.5113 7.14844C15.33 7.14844 9.50799 12.7809 9.50799 19.7285C9.50799 26.6759 15.33 32.3079 22.5113 32.3079C29.6922 32.3079 35.5137 26.6759 35.5137 19.7285C35.5137 14.4999 32.2164 10.0166 27.5241 8.11769Z" fill="#CC2131"/>
</g>
<defs>
<clipPath id="clip0_2093_5952">
<rect width="31.6337" height="31.6337" fill="white" transform="translate(6.68262 6.68359)"/>
</clipPath>
</defs>
</svg>
