<svg width="150" height="151" viewBox="0 0 150 151" fill="none" xmlns="http://www.w3.org/2000/svg">
<circle cx="75" cy="75.7847" r="75" fill="#DBAF3E"/>
<circle cx="74.8463" cy="75.6314" r="68.1861" fill="black"/>
<path fill-rule="evenodd" clip-rule="evenodd" d="M39.3389 87.3028L34.7987 58.9306C34.6527 58.0194 34.7727 57.0854 35.1442 56.2406C35.5157 55.3958 36.1229 54.6761 36.8932 54.1678C37.6634 53.6594 38.5639 53.384 39.4867 53.3745C40.4095 53.365 41.3154 53.6219 42.0959 54.1143L56.3212 63.0978L71.2292 46.0111C71.6795 45.495 72.2351 45.0813 72.8587 44.7978C73.4822 44.5143 74.1593 44.3677 74.8442 44.3677C75.5292 44.3677 76.2062 44.5143 76.8298 44.7978C77.4533 45.0813 78.009 45.495 78.4593 46.0111L93.3673 63.0978L107.593 54.1143C108.373 53.6236 109.279 53.3681 110.201 53.3783C111.123 53.3886 112.023 53.6642 112.792 54.1722C113.562 54.6802 114.169 55.399 114.541 56.2429C114.913 57.0867 115.034 58.0198 114.89 58.9306L110.35 87.3028H39.3389ZM109.454 92.8989L108.13 101.17C107.875 102.766 107.06 104.219 105.83 105.267C104.601 106.316 103.038 106.893 101.422 106.893H48.2666C44.9313 106.893 42.0848 104.468 41.5587 101.17L40.2343 92.8989H109.454Z" fill="#DBAF3E"/>
</svg>
