<svg width="27" height="46" viewBox="0 0 27 46" fill="none" xmlns="http://www.w3.org/2000/svg">
<path d="M26.3813 19.9326H0.78125V45.0834H26.3813V19.9326Z" fill="#211C24"/>
<path d="M21.9007 17.4964L21.5863 9.95115H5.55263L5.23828 17.4964H21.9007ZM9.8642 4.74134V8.87328H7.79828V4.74134H9.8642ZM9.8642 3.8431V1.82208C9.8642 1.37291 9.37012 0.96875 8.78633 0.96875C8.24735 0.96875 7.79828 1.37291 7.79828 1.82208V3.8431H9.8642ZM19.5204 4.74134V8.87328H17.4545V4.74134H19.5204ZM19.5204 3.8431V1.82208C19.5204 1.37291 19.0712 0.96875 18.5324 0.96875C17.9934 0.96875 17.4545 1.37291 17.4545 1.82208V3.8431H19.5204Z" fill="#211C24"/>
</svg>
