<svg width="29" height="42" viewBox="0 0 29 42" fill="none" xmlns="http://www.w3.org/2000/svg">
<path d="M24.7845 0H4.21875C2.18331 0 0.527344 1.65596 0.527344 3.69141V38.3086C0.527344 40.344 2.18331 42 4.21875 42H24.7844C26.8198 42 28.4758 40.344 28.4758 38.3086V3.69141C28.4759 1.65596 26.8199 0 24.7845 0ZM14.5016 5.95087C16.7452 5.95087 18.564 7.76967 18.564 10.0133C18.564 12.2569 16.7452 14.0757 14.5016 14.0757C12.258 14.0757 10.4392 12.2569 10.4392 10.0133C10.4392 7.76967 12.258 5.95087 14.5016 5.95087ZM14.5016 36.5438C9.15252 36.5438 4.80076 32.192 4.80076 26.843C4.80076 21.494 9.15252 17.1422 14.5016 17.1422C19.8507 17.1422 24.2025 21.4939 24.2025 26.843C24.2025 32.1921 19.8507 36.5438 14.5016 36.5438Z" fill="#211C24"/>
<path d="M14.5008 22.75C12.2441 22.75 10.4082 24.5859 10.4082 26.8426C10.4082 29.0992 12.2441 30.9352 14.5008 30.9352C16.7575 30.9352 18.5934 29.0992 18.5934 26.8426C18.5934 24.5859 16.7575 22.75 14.5008 22.75Z" fill="#211C24"/>
</svg>
