<svg width="45" height="46" viewBox="0 0 45 46" fill="none" xmlns="http://www.w3.org/2000/svg">
<path d="M8.6725 40.2692C5.48432 36.897 3.70804 32.4323 3.70833 27.7917V13.4167C3.70833 12.3625 4.57083 11.5 5.625 11.5C6.67917 11.5 7.54167 12.3625 7.54167 13.4167V27.2742C6.92833 28.9225 6.58333 30.7242 6.58333 32.5833C6.58333 32.7558 6.58333 32.9475 6.6025 33.1008C6.67917 35.6883 7.44583 38.1417 8.6725 40.2692ZM38.2083 13.8958C37.1542 13.8958 36.2917 14.7583 36.2917 15.8125V27.7917C36.2917 29.6125 35.9467 31.3567 35.3142 32.9667C35.3333 32.8517 35.3333 32.7175 35.3333 32.5833C35.3333 25.185 29.315 19.1667 21.9167 19.1667C14.5183 19.1667 8.5 25.185 8.5 32.5833C8.5 32.7175 8.5 32.8517 8.51917 32.9667C8.71083 40.1925 14.6525 46 21.9167 46C22.3748 46 22.8271 45.977 23.2737 45.931C32.6826 45.2333 40.125 37.3769 40.125 27.7917V15.8125C40.125 14.7583 39.2625 13.8958 38.2083 13.8958ZM20.9392 42.1092C18.5793 41.8702 16.3922 40.7634 14.8021 39.0033C13.212 37.2432 12.3322 34.9553 12.3333 32.5833C12.3333 27.2933 16.6267 23 21.9167 23C27.2067 23 31.5 27.2933 31.5 32.5833C31.5 37.5475 27.7242 41.63 22.8942 42.1092C22.2447 42.1856 21.5886 42.1856 20.9392 42.1092ZM41.5625 1.91667H34.8542C34.0683 1.91667 33.4167 2.56833 33.4167 3.35417V7.66667H43V3.35417C43 2.56833 42.3483 1.91667 41.5625 1.91667ZM7.54167 0H3.70833C3.17167 0 2.75 0.421667 2.75 0.958333V5.75H8.5V0.958333C8.5 0.421667 8.07833 0 7.54167 0Z" fill="#211C24"/>
<path d="M39.6465 17.7295H36.7715C35.3739 17.7285 34.0338 17.1728 33.0456 16.1846C32.0573 15.1963 31.5017 13.8563 31.5007 12.4587V11.0212C31.5007 10.6399 31.6521 10.2743 31.9217 10.0047C32.1913 9.73511 32.5569 9.58366 32.9381 9.58366H43.4798C43.8611 9.58366 44.2267 9.73511 44.4963 10.0047C44.7659 10.2743 44.9173 10.6399 44.9173 11.0212V12.4587C44.9163 13.8563 44.3607 15.1963 43.3724 16.1846C42.3842 17.1728 41.0441 17.7285 39.6465 17.7295ZM8.97982 15.3337H2.27148C1.89024 15.3337 1.5246 15.1822 1.25502 14.9126C0.985435 14.643 0.833984 14.2774 0.833984 13.8962V9.10449C0.833984 8.72324 0.985435 8.35761 1.25502 8.08803C1.5246 7.81844 1.89024 7.66699 2.27148 7.66699H8.97982C9.36107 7.66699 9.7267 7.81844 9.99628 8.08803C10.2659 8.35761 10.4173 8.72324 10.4173 9.10449V13.8962C10.4173 14.2774 10.2659 14.643 9.99628 14.9126C9.7267 15.1822 9.36107 15.3337 8.97982 15.3337Z" fill="#211C24"/>
</svg>
