<svg width="49" height="48" viewBox="0 0 49 48" fill="none" xmlns="http://www.w3.org/2000/svg">
<path d="M41.3396 21.4404H38.76V25.8541C38.7575 26.7117 38.4151 27.5334 37.8079 28.139C37.2006 28.7446 36.3781 29.0848 35.5205 29.0851H13.1779C12.3203 29.0848 11.4977 28.7446 10.8905 28.139C10.2832 27.5334 9.94086 26.7117 9.93836 25.8541V21.4404H7.65869C6.91329 21.4409 6.19856 21.7372 5.67149 22.2643C5.14442 22.7913 4.84811 23.5061 4.84766 24.2515V33.7473C4.85197 37.5259 6.35492 41.1485 9.02681 43.8204C11.6987 46.4923 15.3213 47.9952 19.0999 47.9995H29.8984C33.677 47.9952 37.2996 46.4923 39.9715 43.8204C42.6434 41.1485 44.1463 37.5259 44.1507 33.7473V24.2515C44.1502 23.5061 43.8539 22.7913 43.3268 22.2643C42.7997 21.7372 42.085 21.4409 41.3396 21.4404ZM24.3535 33.7644C25.2981 33.7652 26.2212 34.0461 27.0063 34.5714C27.7914 35.0967 28.4031 35.843 28.7642 36.7158C29.1253 37.5887 29.2195 38.549 29.0351 39.4755C28.8506 40.4019 28.3956 41.2528 27.7277 41.9208C27.0597 42.5887 26.2088 43.0437 25.2823 43.2282C24.3559 43.4127 23.3956 43.3184 22.5227 42.9573C21.6499 42.5962 20.9036 41.9845 20.3783 41.1994C19.853 40.4144 19.5721 39.4912 19.5713 38.5466C19.5713 37.2783 20.0751 36.0619 20.972 35.1651C21.8688 34.2682 23.0851 33.7644 24.3535 33.7644Z" fill="#211C24"/>
<path d="M24.3536 41.6059C24.9595 41.605 25.5516 41.4245 26.055 41.0871C26.5584 40.7498 26.9504 40.2707 27.1815 39.7105C27.4126 39.1504 27.4725 38.5342 27.3534 37.9401C27.2344 37.3459 26.9418 36.8004 26.5127 36.3725C26.0836 35.9446 25.5373 35.6536 24.9428 35.5362C24.3483 35.4188 23.7324 35.4804 23.1728 35.713C22.6133 35.9457 22.1354 36.3391 21.7994 36.8434C21.4634 37.3477 21.2846 37.9403 21.2854 38.5463C21.2875 39.3586 21.6116 40.1369 22.1868 40.7105C22.762 41.2841 23.5413 41.6061 24.3536 41.6059ZM29.9242 19.7261L29.9156 19.2205L29.8728 16.8808H25.1677V19.7261H29.9242ZM12.7409 12.8357C13.6337 13.3215 14.6519 13.5276 15.6634 13.427C16.0156 13.3828 16.3628 13.3053 16.7004 13.1956L16.6661 15.1668H21.3368V5.91093C21.337 5.63065 21.3024 5.35142 21.234 5.07962C20.773 3.45847 19.7606 2.04904 18.3715 1.09447C17.5537 0.477333 16.5772 0.105356 15.5561 0.0219015C14.5349 -0.0615532 13.511 0.146951 12.6038 0.623113C12.4067 0.725955 12.2096 0.845938 11.9953 0.983062C11.3322 1.48228 10.799 2.13389 10.441 2.88276C10.083 3.63163 9.91059 4.45572 9.93846 5.28531V9.27903C9.9255 10.05 10.2111 10.7962 10.7355 11.3616C11.3258 11.9513 12.0019 12.4482 12.7409 12.8357ZM12.8181 4.89108C12.8181 4.66378 12.9083 4.4458 13.0691 4.28507C13.2298 4.12435 13.4478 4.03406 13.6751 4.03406C13.9024 4.03406 14.1204 4.12435 14.2811 4.28507C14.4418 4.4458 14.5321 4.66378 14.5321 4.89108V7.3593C14.5321 7.5866 14.4418 7.80458 14.2811 7.96531C14.1204 8.12603 13.9024 8.21632 13.6751 8.21632C13.4478 8.21632 13.2298 8.12603 13.0691 7.96531C12.9083 7.80458 12.8181 7.5866 12.8181 7.3593V4.89108ZM11.6525 21.4402V25.8538C11.6531 26.0536 11.693 26.2513 11.7699 26.4356C11.8469 26.62 11.9594 26.7874 12.1011 26.9282C12.2427 27.0691 12.4108 27.1807 12.5955 27.2566C12.7803 27.3325 12.9782 27.3713 13.178 27.3707H35.5205C35.7203 27.3713 35.9182 27.3325 36.103 27.2566C36.2878 27.1807 36.4558 27.0691 36.5975 26.9282C36.7391 26.7874 36.8516 26.62 36.9286 26.4356C37.0056 26.2513 37.0455 26.0536 37.046 25.8538V21.4402H11.6525ZM29.8471 15.1668L29.8128 13.1956C30.1531 13.3062 30.5032 13.3837 30.8583 13.427C31.8645 13.5318 32.8785 13.3254 33.7637 12.8357C34.5052 12.4482 35.1841 11.9512 35.7777 11.3616C36.2961 10.7932 36.5781 10.0483 36.5661 9.27903V5.28531C36.594 4.45572 36.4216 3.63163 36.0636 2.88276C35.7056 2.13389 35.1724 1.48228 34.5093 0.983062C34.295 0.845938 34.1065 0.725955 33.9093 0.623113C33.0006 0.146919 31.9754 -0.0615764 30.9529 0.0218643C29.9304 0.105305 28.9525 0.477255 28.133 1.09447C26.7416 2.05422 25.7291 3.46985 25.2706 5.09676C25.2011 5.36253 25.1665 5.63623 25.1677 5.91093V15.1668H29.8471ZM31.981 4.89108C31.981 4.66378 32.0713 4.4458 32.2321 4.28507C32.3928 4.12435 32.6108 4.03406 32.8381 4.03406C33.0654 4.03406 33.2834 4.12435 33.4441 4.28507C33.6048 4.4458 33.6951 4.66378 33.6951 4.89108V7.3593C33.6951 7.5866 33.6048 7.80458 33.4441 7.96531C33.2834 8.12603 33.0654 8.21632 32.8381 8.21632C32.6108 8.21632 32.3928 8.12603 32.2321 7.96531C32.0713 7.80458 31.981 7.5866 31.981 7.3593V4.89108ZM21.3368 19.7261V16.8808H16.6404L16.5889 19.7261H21.3368Z" fill="#211C24"/>
</svg>
