<svg width="39" height="40" viewBox="0 0 39 40" fill="none" xmlns="http://www.w3.org/2000/svg">
<path d="M39 20C38.9775 23.1253 38.5814 26.2368 37.82 29.268C37.806 29.334 37.808 29.398 37.792 29.468C37.756 29.612 37.706 29.75 37.668 29.894C37.614 30.11 37.544 30.318 37.486 30.532C37.298 31.218 37.12 31.908 36.9 32.572L35.958 35.624C35.6093 36.7469 34.9108 37.729 33.9646 38.427C33.0183 39.125 31.8738 39.5023 30.698 39.504C30.1556 39.5039 29.6162 39.4223 29.098 39.262L27.166 38.662C26.7261 38.5279 26.3171 38.3083 25.9622 38.0159C25.6073 37.7235 25.3136 37.3639 25.0979 36.9578C24.8822 36.5516 24.7488 36.107 24.7052 35.6492C24.6616 35.1914 24.7088 34.7295 24.844 34.29L27.812 24.582C27.9465 24.1422 28.1664 23.7332 28.4591 23.3785C28.7518 23.0237 29.1116 22.7301 29.5178 22.5145C29.924 22.2989 30.3687 22.1654 30.8266 22.1217C31.2844 22.078 31.7463 22.125 32.186 22.26L34.07 22.838C34.6851 23.0302 35.2609 23.3309 35.77 23.726C35.9148 22.4891 35.9916 21.2453 36 20C36 15.6239 34.2616 11.4271 31.1673 8.33274C28.0729 5.23839 23.8761 3.5 19.5 3.5C15.1239 3.5 10.9271 5.23839 7.83274 8.33274C4.73839 11.4271 3 15.6239 3 20C3.00884 21.2466 3.08629 22.4919 3.232 23.73C3.74167 23.3358 4.31726 23.0351 4.932 22.842L6.816 22.266C7.25553 22.131 7.71736 22.0839 8.17509 22.1275C8.63282 22.171 9.07749 22.3043 9.48369 22.5197C9.88988 22.7352 10.2496 23.0286 10.5424 23.3831C10.8352 23.7376 11.0552 24.1464 11.19 24.586L14.158 34.298C14.2931 34.7375 14.3402 35.1994 14.2965 35.6571C14.2528 36.1149 14.1191 36.5595 13.9032 36.9655C13.6873 37.3714 13.3934 37.7308 13.0383 38.023C12.6832 38.3151 12.274 38.5343 11.834 38.668L9.904 39.268C9.3858 39.4283 8.84644 39.5099 8.304 39.51C7.12818 39.5083 5.98366 39.131 5.03742 38.433C4.09118 37.735 3.39274 36.7529 3.044 35.63L2.1 32.554C1.88 31.9 1.7 31.2 1.5 30.506C1.444 30.306 1.376 30.106 1.322 29.888C1.286 29.744 1.236 29.61 1.2 29.464C1.184 29.398 1.186 29.334 1.172 29.264C0.413618 26.2337 0.0201609 23.1237 0 20C0 14.8283 2.05446 9.86838 5.71142 6.21142C9.36838 2.55446 14.3283 0.5 19.5 0.5C24.6717 0.5 29.6316 2.55446 33.2886 6.21142C36.9455 9.86838 39 14.8283 39 20Z" fill="#211C24"/>
</svg>
