<svg width="41" height="41" viewBox="0 0 41 41" fill="none" xmlns="http://www.w3.org/2000/svg">
<path d="M13.5 20.5C12.68 20.5 12 19.82 12 19V7C12 6.18 12.68 5.5 13.5 5.5C14.32 5.5 15 6.18 15 7V19C15 19.82 14.32 20.5 13.5 20.5ZM13.5 40.5C12.68 40.5 12 39.82 12 39V31C12 30.18 12.68 29.5 13.5 29.5C14.32 29.5 15 30.18 15 31V39C15 39.82 14.32 40.5 13.5 40.5ZM27.5 40.5C26.68 40.5 26 39.82 26 39V7C26 6.18 26.68 5.5 27.5 5.5C28.32 5.5 29 6.18 29 7V39C29 39.82 28.32 40.5 27.5 40.5Z" fill="#211C24"/>
<path d="M16.6996 5.6C16.6996 6.58 16.2996 7.48 15.6396 8.14C14.9796 8.8 14.0796 9.2 13.0996 9.2H8.59961C9.15961 8.46 9.49961 7.5 9.49961 6.5V4.7C9.49961 3.7 9.15961 2.74 8.59961 2H13.0996C15.0796 2 16.6996 3.62 16.6996 5.6Z" fill="#211C24"/>
<path d="M9.5 4.69961V6.49961C9.5 7.49961 9.16 8.45961 8.6 9.19961C7.08 11.2196 3.96 11.8996 1.06 9.31961C0.74 9.03961 0.5 8.43961 0.5 8.01961V3.33961C0.5 2.93961 0.7 2.39961 0.96 2.11961C3.48 -0.520387 6.52 -0.140386 8.18 1.51961C9.02286 2.36359 9.49742 3.50685 9.5 4.69961ZM24.3 5.59961C24.3 6.57961 24.7 7.47961 25.36 8.13961C26.02 8.79961 26.92 9.19961 27.9 9.19961H32.4C31.84 8.45961 31.5 7.49961 31.5 6.49961V4.69961C31.5 3.69961 31.84 2.73961 32.4 1.99961H27.9C25.92 1.99961 24.3 3.61961 24.3 5.59961Z" fill="#211C24"/>
<path d="M31.5 4.69961V6.49961C31.5 7.49961 31.84 8.45961 32.4 9.19961C33.92 11.2196 37.04 11.8996 39.94 9.31961C40.26 9.03961 40.5 8.43961 40.5 8.01961V3.33961C40.5 2.95961 40.3 2.39961 40.04 2.11961C37.52 -0.520387 34.48 -0.140386 32.82 1.51961C31.9771 2.36359 31.5026 3.50685 31.5 4.69961ZM16.5 21.9996V29.9996C16.5 31.6596 15.16 32.9996 13.5 32.9996C11.84 32.9996 10.5 31.6596 10.5 29.9996V21.9996C10.5 20.3396 11.84 18.9996 13.5 18.9996C15.16 18.9996 16.5 20.3396 16.5 21.9996Z" fill="#211C24"/>
</svg>
