<svg width="43" height="48" viewBox="0 0 43 48" fill="none" xmlns="http://www.w3.org/2000/svg">
<path d="M39.8026 11.9873H35.3371C34.8091 11.9873 34.3811 12.4153 34.3811 12.9433V16.9585H40.7586V12.9433C40.7585 12.4153 40.3305 11.9873 39.8026 11.9873ZM33.4919 19.8266C33.3651 19.8266 33.2435 19.8769 33.1539 19.9666C33.0643 20.0562 33.0139 20.1778 33.0139 20.3046V24.1621C33.0139 25.8357 34.3704 27.1993 36.0511 27.1993H36.1362V42.8148C36.1362 44.2589 34.9656 45.4295 33.5215 45.4295H16.0657C14.6231 45.4295 13.45 44.2565 13.45 42.8148V38.463H10.582V42.8148C10.582 45.8377 13.0418 48.2975 16.0657 48.2975H33.5206C36.5492 48.2975 39.0043 45.8424 39.0043 42.8138V27.1993H39.0884C40.7659 27.1993 42.1256 25.8396 42.1256 24.1621V20.3046C42.1256 20.1778 42.0753 20.0562 41.9856 19.9666C41.896 19.8769 41.7744 19.8266 41.6476 19.8266H33.4919Z" fill="#211C24"/>
<path d="M23.9135 33.9913V1.30635C23.9135 0.422031 23.1945 -0.296875 22.3102 -0.296875H1.72822C0.843906 -0.296875 0.125 0.422031 0.125 1.30635V33.9913C0.125 34.8747 0.843906 35.5946 1.72822 35.5946H22.3102C23.1945 35.5946 23.9135 34.8747 23.9135 33.9913ZM7.24345 30.6989C7.24345 31.4914 6.60106 32.1329 5.80945 32.1329C5.01689 32.1329 4.37545 31.4914 4.37545 30.6989V30.4293C4.37545 29.6377 5.01689 28.9953 5.80945 28.9953C6.60106 28.9953 7.24345 29.6377 7.24345 30.4293V30.6989ZM13.4527 30.6989C13.4527 31.4914 12.8103 32.1329 12.0187 32.1329C11.2271 32.1329 10.5847 31.4914 10.5847 30.6989V30.4293C10.5847 29.6377 11.2271 28.9953 12.0187 28.9953C12.8103 28.9953 13.4527 29.6377 13.4527 30.4293V30.6989ZM16.2051 14.0261L13.3142 20.1168C12.9776 20.828 12.1246 21.1403 11.4041 20.7975C10.688 20.4581 10.384 19.6025 10.7234 18.8874L12.6411 14.8453H9.12776C8.0868 14.8453 7.39295 13.7672 7.82182 12.8195L10.7128 6.44197C11.0397 5.72116 11.8896 5.40082 12.6104 5.72783C13.3322 6.05474 13.6515 6.90466 13.3246 7.62643C11.7715 11.0521 12.1956 10.1165 11.3523 11.9772H14.9096C15.96 11.9773 16.6556 13.0758 16.2051 14.0261ZM19.6621 30.6989C19.6621 31.4914 19.0206 32.1329 18.2281 32.1329C17.4365 32.1329 16.7941 31.4914 16.7941 30.6989V30.4293C16.7941 29.6377 17.4366 28.9953 18.2281 28.9953C19.0206 28.9953 19.6621 29.6377 19.6621 30.4293V30.6989Z" fill="#211C24"/>
</svg>
