<svg width="31" height="42" viewBox="0 0 31 42" fill="none" xmlns="http://www.w3.org/2000/svg">
<path d="M23.3675 4.125L23.06 2.505C22.925 1.80028 22.5486 1.16465 21.9956 0.707452C21.4426 0.250257 20.7475 9.32449e-05 20.03 0H10.97C9.485 0 8.225 1.05 7.94 2.505L7.6325 4.125H23.3675ZM7.6325 37.875L7.94 39.495C8.225 40.95 9.485 42 10.97 42H20.03C21.515 42 22.775 40.95 23.06 39.495L23.3675 37.875H7.6325ZM23.99 6.375H7.01C5.3829 6.375 3.82244 7.02136 2.6719 8.1719C1.52136 9.32244 0.875 10.8829 0.875 12.51V29.49C0.875 31.1171 1.52136 32.6776 2.6719 33.8281C3.82244 34.9786 5.3829 35.625 7.01 35.625H23.99C25.6171 35.625 27.1776 34.9786 28.3281 33.8281C29.4786 32.6776 30.125 31.1171 30.125 29.49V12.51C30.125 10.8829 29.4786 9.32244 28.3281 8.1719C27.1776 7.02136 25.6171 6.375 23.99 6.375ZM21.1625 25.3665C21.0544 25.507 20.9196 25.6248 20.7658 25.7131C20.612 25.8014 20.4423 25.8585 20.2665 25.8811C20.0906 25.9037 19.912 25.8913 19.7409 25.8447C19.5698 25.7981 19.4096 25.7182 19.2695 25.6095L14.675 22.056C14.5122 21.9295 14.3805 21.7676 14.2898 21.5825C14.199 21.3975 14.1517 21.1941 14.1515 20.988V12.8835C14.1515 12.5255 14.2937 12.1821 14.5469 11.9289C14.8001 11.6757 15.1435 11.5335 15.5015 11.5335C15.8595 11.5335 16.2029 11.6757 16.4561 11.9289C16.7093 12.1821 16.8515 12.5255 16.8515 12.8835V20.3265L20.9225 23.475C21.2051 23.694 21.3891 24.0164 21.4341 24.3711C21.4791 24.7258 21.3814 25.0838 21.1625 25.3665Z" fill="#211C24"/>
</svg>
