<svg width="238" height="107" viewBox="0 0 238 107" fill="none" xmlns="http://www.w3.org/2000/svg">
<path d="M158.337 85.0629C155.423 83.4219 152.365 77.9091 152.522 74.8198C154.433 78.1856 156.311 81.495 158.337 85.0629Z" fill="#20A7DB"/>
<path d="M149.863 75.3906C151.114 78.9671 152.984 82.2529 155.252 85.5293C152.623 84.8983 149.461 78.9511 149.863 75.3906Z" fill="#20A7DB"/>
<path d="M159.156 71.1221C160.272 74.5565 161.951 77.7238 163.859 80.8451C162.721 80.7238 162.295 79.9254 161.791 79.237C159.879 76.6235 158.715 73.2681 159.156 71.1221Z" fill="#20A7DB"/>
<path d="M161.335 83.0125C158.681 81.7072 155.658 76.3383 155.775 73.2744C157.396 76.6204 159.226 79.864 161.335 83.0125Z" fill="#20A7DB"/>
<path d="M150.897 86.5956C148.117 84.0669 146.637 80.9531 146.247 77.3823C147.749 80.4632 149.445 83.4593 150.897 86.5956Z" fill="#20A7DB"/>
<path d="M166.754 78.4673C164.23 77.2279 161.909 72.364 162.648 69.6377C163.603 72.9847 165.129 75.7288 166.754 78.4673Z" fill="#20A7DB"/>
<path d="M143.444 78.5493C144.351 81.5239 145.773 84.3075 147.456 87.2774C145.119 86.1 142.823 80.9634 143.444 78.5493Z" fill="#20A7DB"/>
<path d="M169.884 76.3928C167.744 75.2539 166.363 71.8148 167.154 69.6123C167.886 72.0217 168.757 74.1179 169.884 76.3928Z" fill="#20A7DB"/>
<path d="M185.401 66.9813C183.273 65.5547 182.211 63.498 181.35 61.462C181.491 61.1573 181.615 61.1328 181.701 61.2654C182.924 63.1641 184.141 65.0666 185.401 66.9813Z" fill="#20A7DB"/>
<path d="M178.98 63.1875C180.028 64.6226 180.921 66.1442 182.228 67.7674C180.33 67.1288 179.089 65.2931 178.98 63.1875Z" fill="#20A7DB"/>
<path d="M171.325 73.5319C169.949 72.2859 169.654 70.6881 169.849 68.9248C170.475 70.3919 171.101 71.8589 171.727 73.326C171.594 73.3937 171.46 73.4633 171.325 73.5319Z" fill="#20A7DB"/>
<path d="M172.653 68.2036C173.337 68.9844 173.801 69.8151 173.806 70.99C172.543 70.2309 172.518 69.2328 172.653 68.2036Z" fill="#20A7DB"/>
<path d="M86.7843 64.7627C86.1205 66.826 85.8686 68.862 86.0513 70.9394C86.6883 78.1637 92.6295 85.9363 102.269 86.763C109.921 87.4194 116.21 84.9508 121.249 79.7333C122.427 78.5136 123.472 77.196 124.345 75.7751C124.778 75.0716 125.305 74.7895 126.139 75.2437C131.777 78.3189 139.968 74.4293 142.45 69.8194C142.879 69.0219 143.33 68.2347 143.771 67.442C144.396 67.6921 144.228 68.1256 144.164 68.4849C144.056 69.0896 143.958 69.7131 143.714 70.2773C141.267 75.9434 133.422 79.9816 126.792 76.9431C125.698 76.4409 125.391 76.9412 124.963 77.5967C122.583 81.238 119.402 84.1194 115.261 86.0953C109.006 89.0783 102.556 89.9331 95.9588 87.2106C89.6986 84.6263 86.0689 80.0596 84.6659 73.9666C84.1373 71.6701 84.2395 69.4037 84.9632 67.1664C85.2698 66.2185 85.66 65.279 86.7843 64.7627Z" fill="#20A7DB"/>
<path d="M94.7411 80.1516C90.3185 78.2952 87.7479 70.2762 90.4434 66.2944C90.0614 68.9916 90.2834 71.3727 90.9554 73.704C91.6512 76.1153 93.0501 78.2002 94.7411 80.1516Z" fill="#20A7DB"/>
<path d="M52.8804 88.2236C53.8467 90.4741 54.2338 92.558 55.2559 94.4304C56.2851 96.315 57.6602 98.0116 58.9599 99.9836C55.7194 98.7432 52.1062 91.8518 52.8804 88.2236Z" fill="#20A7DB"/>
<path d="M51.2813 99.5445C47.5411 97.0025 46.5934 93.3198 46.4189 89.3428C47.3615 90.9857 47.5514 92.8684 48.3773 94.5593C49.2177 96.2803 50.2975 97.8696 51.2813 99.5445Z" fill="#20A7DB"/>
<path d="M55.8906 89.874C57.5042 93.3508 59.4811 96.6366 61.4612 99.9224C58.1205 97.2432 56.6339 93.7138 55.8906 89.874Z" fill="#20A7DB"/>
<path d="M49.541 89.4609C50.4443 93.027 52.6979 96.0298 54.6077 99.4163C51.873 98.0047 49.0671 92.4204 49.541 89.4609Z" fill="#20A7DB"/>
<path d="M97.8758 91.4897C97.7364 95.0492 99.0083 98.0699 99.86 101.333C97.6569 99.9517 96.3892 93.9217 97.8758 91.4897Z" fill="#20A7DB"/>
<path d="M41.3155 89.2598C42.5719 92.1798 43.6435 95.1242 45.4222 97.7715C44.9989 98.3377 44.7398 97.8505 44.5623 97.6897C43.5939 96.8114 43.0127 95.7026 42.4934 94.5732C41.715 92.8785 41.2453 91.1152 41.3155 89.2598Z" fill="#20A7DB"/>
<path d="M72.2412 96.5507C69.2061 94.43 67.3128 91.7047 67.0723 88.1499C68.3235 91.1884 70.2189 93.8893 72.2412 96.5507Z" fill="#20A7DB"/>
<path d="M100.757 92.1763C101.146 95.0737 101.721 97.9571 102.448 100.993C100.651 99.8059 99.7132 94.8189 100.757 92.1763Z" fill="#20A7DB"/>
<path d="M97.0352 101.607C94.6701 99.0928 94.4306 96.106 94.8177 92.981C95.6271 94.3239 95.529 95.869 95.8759 97.3116C96.2217 98.7552 96.9381 100.111 97.0352 101.607Z" fill="#20A7DB"/>
<path d="M103.411 91.7827C103.576 95.014 104.335 97.7939 104.984 100.755C103.116 99.339 102.181 94.3369 103.411 91.7827Z" fill="#20A7DB"/>
<path d="M59.5293 89.9038C60.6959 93.137 62.9495 95.8407 64.9357 99.0062C62.487 97.7498 59.8617 93.2677 59.5293 89.9038Z" fill="#20A7DB"/>
<path d="M42.9541 98.1403C40.333 96.3789 38.5677 92.0557 39.1447 88.7031C39.7187 90.5727 40.1688 92.0971 40.6561 93.6102C41.1454 95.1347 42.1654 96.456 42.9541 98.1403Z" fill="#20A7DB"/>
<path d="M93.2386 68.3384C93.4399 71.2546 93.9809 74.0599 95.6471 76.6103C93.1767 75.1546 91.9905 71.0618 93.2386 68.3384Z" fill="#20A7DB"/>
<path d="M74.0339 95.0765C71.4509 93.0631 70.0903 90.4628 69.7383 87.3989C70.814 90.1233 72.5556 92.5261 74.0339 95.0765Z" fill="#20A7DB"/>
<path d="M69.9329 96.8611C67.0888 95.6941 65.2698 92.649 65.6848 89.8174C66.4033 92.5108 68.0902 94.7245 69.9329 96.8611Z" fill="#20A7DB"/>
<path d="M39.4648 97.1798C36.8881 94.8861 36.1159 91.9896 36.1231 88.8345C37.0006 91.6952 37.78 94.5889 39.4648 97.1798Z" fill="#20A7DB"/>
<path d="M139.488 80.4819C140.63 82.6816 141.86 84.8163 143.29 87.0875C141.469 86.5166 139.494 83.0023 139.488 80.4819Z" fill="#20A7DB"/>
<path d="M115.514 89.6323C116.267 91.7154 117.172 93.7091 118.028 95.7187C118.057 95.7865 117.936 95.9059 117.885 96.0018C116.214 95.0905 115.071 92.2608 115.514 89.6323Z" fill="#20A7DB"/>
<path d="M136.252 81.2485C137.098 83.2159 138.16 85.0967 138.916 87.0942C136.802 85.6243 136.217 83.5516 136.252 81.2485Z" fill="#20A7DB"/>
<path d="M72.8555 87.186C74.2533 89.1637 75.4498 90.8574 76.7402 92.6828C75.0234 92.2935 73.0289 89.5117 72.8555 87.186Z" fill="#20A7DB"/>
<path d="M119.121 94.2272C117.994 92.4902 117.74 90.5671 117.553 88.6289C117.724 88.5903 117.895 88.5517 118.067 88.5132C118.594 90.3837 119.122 92.2542 119.649 94.1247C119.473 94.1586 119.296 94.1924 119.121 94.2272Z" fill="#20A7DB"/>
<path d="M46.2891 96.1621C44.8778 94.4882 44.5857 92.4869 44.2471 90.4998C44.3916 90.4566 44.5372 90.4124 44.6817 90.3682C45.3372 92.233 45.9917 94.0969 46.6473 95.9618C46.5275 96.0286 46.4078 96.0953 46.2891 96.1621Z" fill="#20A7DB"/>
<path d="M107.194 99.2056C105.786 97.5232 105.43 95.5144 106.097 93.4502C106.462 95.3696 106.827 97.2881 107.194 99.2056Z" fill="#20A7DB"/>
<path d="M65.3995 96.0469C63.8096 94.6983 63.1665 92.9426 63.0312 90.9648C63.9377 92.5974 64.8441 94.2309 65.7494 95.8635C65.6338 95.9246 65.5161 95.9858 65.3995 96.0469Z" fill="#20A7DB"/>
<path d="M75.4228 86.3452C76.4097 87.7258 77.2634 89.1674 77.8952 90.894C76.2889 90.0044 75.3897 88.3662 75.4228 86.3452Z" fill="#20A7DB"/>
<path d="M35.4151 95.0884C33.7128 93.4483 33.3422 91.4405 33.5135 89.2822C34.0834 91.2355 34.4963 93.232 35.4151 95.0884Z" fill="#20A7DB"/>
<path d="M93.9485 101.302C92.6787 99.7105 92.3762 98.1541 92.4484 96.3184C93.2361 97.2785 93.9763 99.7208 93.9485 101.302Z" fill="#20A7DB"/>
<path d="M95.9617 68.6362C95.9752 70.2716 96.3313 71.8788 96.7753 73.6007C95.3062 72.5606 94.9831 70.6158 95.9617 68.6362Z" fill="#20A7DB"/>
<path d="M32.7546 94.2504C31.3898 92.8811 31.14 91.2382 31.4476 89.458C31.8967 91.052 32.3241 92.6517 32.7546 94.2504Z" fill="#20A7DB"/>
<path d="M115.432 96.5216C114.098 95.2454 113.965 93.7107 114.156 92.1025C114.927 93.4944 115.157 95.0188 115.432 96.5216Z" fill="#20A7DB"/>
<path d="M123.08 90.5369C121.94 89.0294 121.857 87.5595 121.924 85.8931C122.669 86.8993 123.204 89.0143 123.08 90.5369Z" fill="#20A7DB"/>
<path d="M136.003 86.5319C134.593 85.3874 134.157 84.3717 134.224 82.3545C135.096 83.9147 135.761 85.1438 136.003 86.5319Z" fill="#20A7DB"/>
<path d="M126.357 83.1309C126.694 84.5152 127.29 85.8553 127.117 87.3007C126.043 86.0368 126.108 84.5904 126.357 83.1309Z" fill="#20A7DB"/>
<path d="M125.022 88.6852C123.942 87.599 123.665 86.2946 124.041 84.4062C124.839 85.8893 124.764 87.3121 125.022 88.6852Z" fill="#20A7DB"/>
<path d="M121.284 91.8684C120.282 90.533 120.009 89.3386 120.15 87.249C120.818 88.9079 121.056 90.39 121.284 91.8684Z" fill="#20A7DB"/>
<path d="M30.398 92.7817C29.1943 91.4444 29.2923 90.2801 29.761 89.0566C29.951 90.172 30.142 91.2873 30.398 92.7817Z" fill="#20A7DB"/>
<path d="M128.933 86.2394C128.031 85.2987 128.235 84.2159 128.351 83.1416C129.063 84.0861 129.136 85.1453 128.933 86.2394Z" fill="#20A7DB"/>
<path d="M108.389 95.6133C108.937 96.4543 109.319 97.3461 109.509 98.6227C108.278 97.6603 108.355 96.6302 108.389 95.6133Z" fill="#20A7DB"/>
<path d="M90.8206 100.468C90.3787 99.7509 90.1692 99.0218 90.5852 97.8892C91.0157 98.9447 90.9734 99.7066 90.8206 100.468Z" fill="#20A7DB"/>
<path d="M27.5163 88.7866C28.1203 89.78 28.2121 90.4959 28.3319 91.5251C27.2551 90.669 27.3006 89.8957 27.5163 88.7866Z" fill="#20A7DB"/>
<path d="M116.233 66.2287C114.229 61.4983 117.25 54.9126 121.502 52.332C120.931 53.6364 120.023 54.4865 119.37 55.4674C118.671 56.5179 118.018 57.5852 117.506 58.7222C116.992 59.8639 116.671 61.0601 116.505 62.2733C116.338 63.4826 116.33 64.7099 116.233 66.2287Z" fill="#20A7DB"/>
<path d="M197.219 63.656C193.315 61.099 191.293 57.5 190.435 53.2822C191.658 54.9816 192.348 56.9367 193.499 58.6784C194.638 60.4031 196.166 61.8711 197.219 63.656Z" fill="#20A7DB"/>
<path d="M187.814 55.7095C189.656 59.0724 191.664 62.3075 194.437 65.3328C191.917 64.8673 188.047 59.1674 187.814 55.7095Z" fill="#20A7DB"/>
<path d="M123.058 54.4648C121 57.9331 119.019 61.1607 119.27 65.2017C117.391 62.8816 119.636 56.5347 123.058 54.4648Z" fill="#20A7DB"/>
<path d="M190.658 66.963C187.795 65.8129 184.903 61.376 184.521 57.6406C185.532 59.4895 186.281 61.107 187.267 62.5938C188.276 64.1173 189.518 65.512 190.658 66.963Z" fill="#20A7DB"/>
<path d="M48.1077 62.7876C47.669 66.2089 47.7144 69.3536 48.9945 72.3959C46.6624 70.6928 46.1256 65.3418 48.1077 62.7876Z" fill="#20A7DB"/>
<path d="M121.517 63.0933C120.565 60.7413 122.609 57.0342 125.605 55.5596C123.95 58.0733 121.786 60.1441 121.517 63.0933Z" fill="#20A7DB"/>
<path d="M199.843 62.2126C197.207 60.3844 195.738 57.9243 194.832 54.9243C195.172 55.0785 195.327 55.1011 195.362 55.1716C196.59 57.66 198.309 59.8832 199.843 62.2126Z" fill="#20A7DB"/>
<path d="M203.305 60.2874C201.119 59.0658 198.727 55.6812 198.544 53.7129C199.961 56.0075 201.841 58.0181 203.305 60.2874Z" fill="#20A7DB"/>
<path d="M25.8565 59.4937C26.3531 61.3839 25.9835 63.3682 26.9725 65.5124C25.1618 64.1939 24.7839 61.7441 25.8565 59.4937Z" fill="#20A7DB"/>
<path d="M206.31 57.7893C204.207 56.3504 203.234 54.2834 202.489 52.0903C203.825 53.9552 205.199 55.7994 206.31 57.7893Z" fill="#20A7DB"/>
<path d="M50.84 69.81C49.6538 68.6194 49.5836 66.5354 50.84 64.5088C50.84 66.479 50.84 68.1191 50.84 69.81Z" fill="#20A7DB"/>
<path d="M24.8537 65.5978C23.1586 63.7658 23.2918 61.6471 23.4848 59.1587C24.4542 60.3906 23.9329 61.522 24.192 62.5179C24.4573 63.5354 24.6359 64.5708 24.8537 65.5978Z" fill="#20A7DB"/>
<path d="M71.2051 52.3203C72.4873 51.6006 73.723 51.8255 74.9391 52.4454C73.6827 52.6411 72.4325 52.6994 71.2051 52.3203Z" fill="#20A7DB"/>
<path d="M206.088 51.1489C207.041 52.584 207.833 53.7746 208.731 55.1279C207.081 54.4949 206.302 53.3222 206.088 51.1489Z" fill="#20A7DB"/>
<path d="M28.0253 64.3036C27.2541 63.162 27.3842 61.9206 27.9117 60.6294C28.0769 61.8228 28.2421 63.0171 28.4072 64.2105C28.2803 64.2416 28.1533 64.2726 28.0253 64.3036Z" fill="#20A7DB"/>
<path d="M53.1133 67.4844C52.4227 66.3484 52.466 65.3835 53.072 64.0811C53.4963 65.3741 53.7895 66.3371 53.1133 67.4844Z" fill="#20A7DB"/>
<path d="M30.9294 61.4185C31.1483 62.3441 31.4983 63.2453 31.4405 64.2689C30.4205 63.4485 30.3121 62.902 30.9294 61.4185Z" fill="#20A7DB"/>
<path d="M22.8239 64.6037C21.7854 63.805 21.8587 62.8868 22.0662 61.8135C22.7537 62.5661 22.7702 62.63 22.8239 64.6037Z" fill="#20A7DB"/>
<path d="M20.2342 61.5425C20.4304 62.7048 20.5873 63.6396 20.7638 64.6826C19.5168 63.7957 19.3898 63.1356 20.2342 61.5425Z" fill="#20A7DB"/>
<path d="M56.102 63.1602C56.0039 63.9983 55.9069 64.8365 55.7758 65.9645C54.8353 64.7368 55.4248 63.9447 56.102 63.1602Z" fill="#20A7DB"/>
<path d="M76.0563 19.0299C76.4342 18.208 76.7573 17.4895 77.0938 16.7757C79.398 11.8836 83.3396 8.40689 88.4001 5.88091C94.8616 2.65526 101.72 0.671905 109.119 0.512033C116.085 0.362505 122.701 1.58882 128.585 5.18782C131.544 6.99719 133.748 9.46863 135.609 12.2156C136.176 13.0545 136.588 13.9977 137.363 14.7529C137.605 14.6043 137.784 14.5413 137.889 14.4237C142.056 9.73006 147.729 7.31412 153.882 5.61101C160.421 3.80069 167.057 3.47343 173.749 4.67247C179.008 5.61477 183.736 7.75329 188.196 10.4062C190.411 11.7247 192.582 13.1156 194.486 14.7886C195.464 15.6491 196.357 15.6848 197.611 15.4046C204.784 13.804 212.006 13.1607 219.305 14.7905C225.166 16.0986 230.08 18.871 234.077 22.9148C239.123 28.0204 238.119 34.8102 233.671 38.6518C230.936 41.0142 227.928 42.832 224.316 43.8242C222.441 44.3395 220.579 44.8991 218.802 45.4126C218.493 45.7652 218.656 46.0201 218.761 46.2759C220.022 49.3398 219.43 52.2353 217.687 54.971C215.668 58.1374 212.713 60.4791 209.454 62.5518C201.847 67.3912 193.355 70.1589 184.276 71.5704C182.154 71.9005 180.022 72.1855 177.866 72.1629C176.947 72.1535 176.583 72.4121 176.503 73.298C176.315 75.3923 175.494 77.2929 174.231 79.0759C169.7 85.468 163.032 88.9579 155.174 90.8529C150.434 91.9955 145.636 92.4337 140.749 91.7736C138.718 91.4989 136.806 90.9403 134.997 90.0667C133.535 89.3595 133.569 89.3962 132.302 90.4758C126.814 95.1572 121.108 99.5791 114.28 102.607C107.959 105.411 101.286 106.714 94.2618 106.21C88.2732 105.78 83.6018 103.368 80.8371 98.3226C80.6998 98.0725 80.545 97.8299 80.4046 97.5816C80.2105 97.2365 79.9596 97.0597 79.5333 97.2985C79.3247 97.4161 79.1017 97.513 78.8829 97.6145C75.1571 99.3562 71.2373 100.661 67.3133 101.973C58.1657 105.032 48.9994 104.721 39.7981 102.266C35.1958 101.038 30.8899 99.2245 27.511 96.0619C22.0096 90.9131 19.3637 84.8313 20.8874 77.5553C20.9339 77.3352 21 77.1189 21.064 76.9036C21.2488 76.2857 20.9958 75.9951 20.299 75.8512C18.321 75.4431 16.375 74.9165 14.4962 74.2158C9.36124 72.3021 5.07078 69.4686 2.17813 65.0241C-2.23414 58.2446 0.294096 48.8348 7.62173 45.2057C10.9242 43.5703 14.4817 42.8245 18.2591 42.9101C19.2749 42.9327 20.5736 43.4132 21.2508 42.7145C21.8021 42.1455 21.6803 41.0311 21.8434 40.1565C22.6817 35.6604 24.0815 31.3673 26.5396 27.332C30.3871 21.0142 36.1219 16.9666 43.5868 14.7877C51.5142 12.4742 59.3436 13.0488 67.1192 15.3942C70.1606 16.314 73.0222 17.6118 76.0563 19.0299ZM54.0032 15.2325C52.8996 15.2917 51.794 15.3284 50.6925 15.4121C45.0197 15.8438 39.9519 17.6418 35.553 20.9691C29.8193 25.3072 26.1008 30.7598 24.4552 37.3936C24.0351 39.0882 23.6717 40.7885 23.3527 42.4991C23.0874 43.921 22.9501 44.0339 21.3499 44.1994C20.4952 44.2878 19.6331 44.3123 18.7763 44.3809C14.5158 44.7232 10.6032 45.9072 7.25731 48.4106C4.11896 50.7579 2.43829 53.7297 2.65818 57.4961C2.94414 62.3834 5.00884 66.4827 9.1527 69.6557C12.2239 72.0077 15.8196 73.4118 19.63 74.4171C22.9315 75.2889 22.4133 74.9823 22.2212 77.7989C21.671 85.8733 25.5692 94.5911 35.9495 98.7092C43.8975 101.863 52.1378 102.674 60.6629 101.307C66.7208 100.334 72.3357 98.2662 77.7391 95.6603C78.2284 95.4243 78.7239 95.1995 79.206 94.954C80.0463 94.5262 80.738 94.6644 81.2759 95.3895C81.7921 96.0854 82.3186 96.7766 82.7996 97.4913C85.4765 101.474 89.4294 103.498 94.4838 103.881C98.7639 104.205 102.967 103.781 107.07 102.699C112.555 101.254 117.552 98.8925 122.112 95.7525C125.402 93.486 128.564 91.0833 131.535 88.4802C132.483 87.6498 133.286 87.3564 134.602 87.9244C138.28 89.5099 142.218 90.093 146.269 89.8729C154.417 89.43 161.755 87.0319 168.085 82.2414C171.482 79.6722 174.051 76.6233 175.108 72.6359C175.5 71.1595 175.586 71.088 177.175 71.0024C183.182 70.6798 188.936 69.2504 194.59 67.5257C201.333 65.468 207.288 62.2104 212.153 57.3832C215.627 53.9375 216.773 50.0987 215.037 45.6223C214.633 44.5831 214.666 44.5097 215.814 44.2746C218.897 43.6436 221.744 42.4615 224.624 41.3321C227.267 40.2948 229.536 38.7986 231.578 36.9892C234.521 34.3804 235.256 31.2959 233.957 27.7627C233.173 25.6317 231.777 23.8928 229.999 22.3788C226.913 19.7512 223.213 18.1525 219.186 17.1735C211.82 15.3829 204.383 15.1563 196.92 16.6252C195.401 16.9243 194.136 16.7108 192.96 15.8362C192.579 15.5532 192.179 15.2908 191.786 15.0228C184.679 10.188 176.88 7.06302 167.859 6.84108C163.79 6.74046 159.738 6.76303 155.763 7.64138C149.821 8.95422 144.487 11.4219 139.68 14.8573C137.015 16.7616 137.034 16.7287 135.053 14.2921C132.925 11.6749 130.614 9.21753 127.634 7.33763C122.66 4.20037 117.04 2.93644 111.123 2.69852C105.066 2.45401 99.3038 3.73957 93.7353 5.88467C86.8785 8.52538 81.3512 12.4526 78.0498 18.7083C77.1207 20.4678 76.9947 20.4123 74.9032 19.6901C68.1557 17.3644 61.3112 15.414 54.0032 15.2325Z" fill="#20A7DB"/>
<path d="M114.694 68.6073C113.458 68.4728 112.863 67.7205 112.373 66.891C110.064 62.9807 109.846 58.9839 111.931 54.9533C114.482 50.0198 118.292 46.0202 123.31 43.0842C129.578 39.4165 136.328 38.3012 143.523 40.5234C143.796 40.3964 143.844 40.1764 143.848 39.9516C143.932 35.3953 146.264 31.801 149.758 28.7615C153.868 25.186 158.711 23.1105 164.496 23.1021C167.019 23.0983 169.358 23.6767 171.519 24.855C173.086 25.7099 174.253 26.8797 174.957 28.4493C174.427 28.6496 174.274 28.2481 174.035 28.0581C170.426 25.2049 166.273 24.0058 161.558 24.8597C154.78 26.086 149.872 29.6164 146.78 35.226C145.677 37.2263 145.27 39.3563 145.768 41.587C145.804 41.7516 145.824 41.919 145.849 42.0855C145.903 42.4673 146.11 42.9196 145.713 43.1886C145.335 43.4444 144.907 43.2187 144.51 43.0428C143.793 42.7259 143.065 42.4278 142.327 42.155C139.236 41.0105 136.09 41.0773 132.917 41.825C125.461 43.5817 119.893 47.6697 115.681 53.4279C114.242 55.3953 113.004 57.4256 112.57 59.819C112.031 62.7804 112.727 65.4785 114.332 68.0355C114.451 68.2255 114.572 68.4164 114.694 68.6073Z" fill="#20A7DB"/>
<path d="M33.6031 86.1733C32.0473 84.1138 32.6853 79.9571 34.9059 77.6681C36.9407 75.571 39.2356 74.6823 43.8161 74.2243C44.004 73.7475 43.6024 73.408 43.4465 73.0177C40.4837 65.6204 41.929 57.2158 49.3413 51.7303C52.8203 49.1564 56.8516 47.9818 61.3073 48.1022C62.4418 48.1323 63.0241 47.8379 63.5702 46.9069C65.6782 43.3126 71.7959 41.539 75.8087 43.2609C75.9749 43.3323 76.168 43.3728 76.3053 43.4762C76.4859 43.6126 76.6924 43.7828 76.5489 44.0367C76.458 44.1985 76.2702 44.2408 76.0823 44.2051C75.8417 44.159 75.6095 44.0762 75.3689 44.0386C70.8431 43.3417 67.1049 44.5737 64.3744 47.9611C63.7426 48.7445 63.1035 49.0172 62.1125 49.0689C60.4566 49.1555 58.8193 49.4178 57.2243 49.8542C50.5832 51.6701 46.6664 55.9857 44.452 61.7035C42.9015 65.7069 43.1781 69.7319 45.0405 73.6554C45.6403 74.9202 45.4183 75.3519 44.1041 75.2654C38.6027 74.9033 33.761 78.9631 33.761 85.4154C33.761 85.6758 33.8632 85.9561 33.6031 86.1733Z" fill="#20A7DB"/>
<path d="M111.069 30.1267C107.823 27.392 104.5 25.6776 100.381 25.5337C96.3663 25.3936 92.7428 26.239 89.5239 28.5205C86.2648 30.8302 84.5201 33.9467 83.5259 37.8504C82.4791 33.3458 87.0246 26.6989 93.6616 24.835C100.81 22.8272 108.794 25.0136 111.069 30.1267Z" fill="#20A7DB"/>
<path d="M113.353 7.26816C113.527 6.76785 113.937 6.80359 114.288 6.77538C115.335 6.69262 116.368 6.7923 117.396 6.98603C122.625 7.97159 127.218 10.0951 131.167 13.3677C131.567 13.6997 132.011 14.026 132.145 14.6542C131.297 14.7624 130.799 14.2132 130.248 13.853C127.14 11.8254 123.808 10.1778 120.275 8.85183C118.054 8.01956 115.708 7.64057 113.353 7.26816Z" fill="#20A7DB"/>
<path d="M207.079 20.7133C210.739 19.2341 221.272 20.4453 226.379 24.4261C223.249 23.4472 220.184 22.282 216.937 21.6406C213.686 20.9983 210.413 20.6146 207.079 20.7133Z" fill="#20A7DB"/>
<path d="M165.631 58.8729C161.919 58.0707 157.663 51.8611 157.895 47.5718C158.532 47.459 158.576 47.9819 158.675 48.2809C159.982 52.2091 162.242 55.5974 165.494 58.4366C165.628 58.5541 165.699 58.698 165.631 58.8729Z" fill="#20A7DB"/>
<path d="M39.595 22.694C37.5881 24.4592 35.4924 25.8877 33.7033 27.6115C31.938 29.3127 30.4421 31.1973 29.0743 33.3706C28.5839 32.7123 28.8822 32.2421 29.067 31.8283C29.6059 30.6274 30.4081 29.5572 31.298 28.5566C33.1293 26.498 35.2983 24.7648 37.713 23.2921C38.2034 22.9921 38.6917 22.6348 39.595 22.694Z" fill="#20A7DB"/>
<path d="M93.8352 9.57373C91.7096 10.7173 89.4828 11.7104 87.511 13.0806C85.5165 14.4668 83.5778 15.9028 81.8672 17.825C82.245 14.747 89.7523 9.59536 93.8352 9.57373Z" fill="#20A7DB"/>
<path d="M172.49 31.3035C167.647 28.7239 162.816 27.5662 157.235 29.4621C160.861 26.3296 170.088 27.4806 172.49 31.3035Z" fill="#20A7DB"/>
<path d="M39.2031 25.8384C42.5201 22.3804 46.9716 21.3488 51.707 20.9341C47.4661 22.404 43.0166 23.429 39.2031 25.8384Z" fill="#20A7DB"/>
<path d="M224.524 26.3295C220.454 25.201 216.447 23.8637 211.969 23.1518C214.867 22.2612 222.246 24.1637 224.524 26.3295Z" fill="#20A7DB"/>
<path d="M188.753 15.9678C185.038 14.2158 181.361 12.412 177.388 11.1904C181.9 11.3193 185.473 13.359 188.753 15.9678Z" fill="#20A7DB"/>
<path d="M119.175 10.943C121.888 10.5838 126.998 12.9866 128.729 15.49C125.375 13.8104 122.329 12.2841 119.175 10.943Z" fill="#20A7DB"/>
<path d="M166.297 55.2897C163.778 54.6803 161.178 50.1719 161.724 47.3901C162.813 50.2274 164.305 52.8643 166.297 55.2897Z" fill="#20A7DB"/>
<path d="M157.138 12.57C153.609 13.5257 150.149 14.6207 146.656 15.6245C149.756 13.4721 153.278 12.5107 157.138 12.57Z" fill="#20A7DB"/>
<path d="M187.277 19.3656C184.056 18.0922 180.834 16.8189 177.612 15.5456C177.666 15.4327 177.721 15.3199 177.774 15.207C181.394 15.6857 184.484 17.2919 187.508 19.0364C187.432 19.1465 187.355 19.2556 187.277 19.3656Z" fill="#20A7DB"/>
<path d="M5.76847 56.2013C5.55167 52.6286 9.00695 49.0493 13.1467 48.4653C9.53655 50.2493 7.23441 52.6766 5.76847 56.2013Z" fill="#20A7DB"/>
<path d="M214.43 25.5068C218.069 24.8483 220.638 26.44 223.689 27.71C222.381 27.8615 217.038 26.5369 214.43 25.5068Z" fill="#20A7DB"/>
<path d="M90.4311 31.8628C88.7484 33.9722 87.332 36.2019 86.3192 38.8896C85.5656 36.3834 87.3557 33.3468 90.4311 31.8628Z" fill="#20A7DB"/>
<path d="M140.886 16.3347C142.846 14.2648 145.343 13.109 148.543 12.6558C147.887 13.2558 142.078 16.1137 140.886 16.3347Z" fill="#20A7DB"/>
<path d="M66.9277 49.063C69.3754 47.0573 72.2516 47.2351 75.2093 47.8588C72.4632 48.284 69.617 48.1881 66.9277 49.063Z" fill="#20A7DB"/>
<path d="M94.1643 12.4702C91.2923 14.0887 88.7589 15.5172 85.9561 17.0971C87.2578 15.1213 91.2923 12.8417 94.1643 12.4702Z" fill="#20A7DB"/>
<path d="M169.3 33.2141C166.724 32.0354 164.14 30.9761 160.94 30.8322C163.501 29.7795 167.164 30.8444 169.3 33.2141Z" fill="#20A7DB"/>
<path d="M128.609 17.9888C126.721 17.0578 124.858 16.0929 122.937 14.7236C125.218 14.7274 127.102 15.8079 128.609 17.9888Z" fill="#20A7DB"/>
<path d="M143.958 18.7892C145.915 17.2981 147.991 16.6293 150.436 16.395C149.658 17.3611 145.798 18.7816 143.958 18.7892Z" fill="#20A7DB"/>
<path d="M167.081 35.804C165.264 34.7823 163.31 34.1822 161.154 33.8745C162.743 32.6243 165.669 33.5839 167.081 35.804Z" fill="#20A7DB"/>
<path d="M30.2939 34.9814C31.3253 33.03 32.6054 31.2432 34.8342 29.5796C34.5854 31.1256 33.4333 31.688 32.8335 32.5579C32.1945 33.4842 31.444 34.3466 30.742 35.2372C30.5933 35.1516 30.4436 35.066 30.2939 34.9814Z" fill="#20A7DB"/>
<path d="M46.9697 19.3661C49.1335 18.098 51.4543 17.7104 53.9267 18.2118C51.6267 18.7 49.2966 19.0199 46.9697 19.3661Z" fill="#20A7DB"/>
<path d="M88.2998 17.721C89.8473 15.8044 91.9389 15.2167 94.2069 14.4512C93.3635 15.5505 90.2231 17.2753 88.2998 17.721Z" fill="#20A7DB"/>
<path d="M8.52539 54.2195C9.63517 51.9352 11.385 50.8838 13.6118 50.0967C13.0843 50.8678 9.92423 53.4446 8.52539 54.2195Z" fill="#20A7DB"/>
<path d="M19.2119 49.8439C16.7745 50.7853 14.8874 51.8705 13.0137 53.1006C13.2201 51.6016 16.4751 49.8044 19.2119 49.8439Z" fill="#20A7DB"/>
<path d="M165.448 47.0059C166.094 48.867 166.76 50.7215 167.984 52.355C166.125 51.5603 164.904 48.9902 165.448 47.0059Z" fill="#20A7DB"/>
<path d="M89.6508 37.6314C89.2523 36.044 90.2589 34.5026 92.4485 33.0073C92.3164 34.0615 91.4771 34.5929 91.0806 35.3208C90.6491 36.1107 90.1309 36.8621 89.6508 37.6314Z" fill="#20A7DB"/>
<path d="M75.128 49.9672C73.3534 50.0246 71.6036 50.2269 69.7412 50.4226C70.8974 49.2514 72.7546 49.0943 75.128 49.9672Z" fill="#20A7DB"/>
<path d="M54.1953 20.2774C55.91 19.4495 57.6702 19.3668 59.4675 19.9867C57.7115 20.1269 55.9854 20.5756 54.1953 20.2774Z" fill="#20A7DB"/>
<path d="M230.075 33.1165C229.513 31.8065 229.032 30.6036 228.688 29.2222C230.323 30.1222 230.832 31.5525 230.075 33.1165Z" fill="#20A7DB"/>
<path d="M230.057 28.7984C229.542 28.0731 229.022 27.3506 228.515 26.6196C228.329 26.3506 228.051 26.1051 228.151 25.7354C229.498 26.0025 230.16 26.8906 230.057 28.7984Z" fill="#20A7DB"/>
<path d="M186.267 16.408C184.664 15.8907 183.118 15.2661 181.567 14.3273C183.175 14.2775 184.695 14.9359 186.267 16.408Z" fill="#20A7DB"/>
<path d="M220.82 29.6219C220.594 29.8298 220.359 29.684 220.147 29.6134C219.062 29.2494 217.983 28.8703 216.831 28.4723C218.029 27.8693 219.423 28.3011 220.82 29.6219Z" fill="#20A7DB"/>
<path d="M208.87 49.6538C209.65 50.6196 210.022 51.7284 210.557 52.9838C209.083 52.271 208.686 51.4839 208.87 49.6538Z" fill="#20A7DB"/>
<path d="M224.797 28.8618C226.432 29.2635 227.081 30.1224 227.585 31.5655C226.571 30.5824 225.809 29.8421 224.797 28.8618Z" fill="#20A7DB"/>
<path d="M92.5117 36.9456C92.5602 35.4564 93.3263 34.8007 94.5176 34.4404C94.0778 35.3228 93.5317 36.1309 92.5117 36.9456Z" fill="#20A7DB"/>
<path d="M44.7959 20.5693C43.7119 21.3953 42.8138 21.7528 41.7783 22.0378C42.2243 20.9315 42.3399 20.8722 44.7959 20.5693Z" fill="#20A7DB"/>
<path d="M59.6851 18.273C58.4948 18.5552 57.4934 18.4386 56.4951 18.2213C57.8836 17.5995 58.2088 17.6089 59.6851 18.273Z" fill="#20A7DB"/>
<path d="M191.484 19.2644C190.606 19.0245 189.801 18.6924 189.198 17.826C190.531 17.7047 190.986 18.5231 191.484 19.2644Z" fill="#20A7DB"/>
<path d="M16.8186 48.0597C16.1279 48.7765 15.2845 48.9242 14.5846 49.2732C14.4019 49.3644 14.2119 49.245 14.1871 49.0832C14.1654 48.9468 14.2233 48.7351 14.3327 48.6561C14.9934 48.1782 15.7202 47.8687 16.8186 48.0597Z" fill="#20A7DB"/>
<path d="M177.989 17.5791C179.152 17.2696 180.11 17.5763 181.165 18.3749C179.83 18.47 178.855 18.2075 177.989 17.5791Z" fill="#20A7DB"/>
<path d="M225.683 26.8271C226.971 26.8761 227.481 27.3643 227.877 28.3605C226.834 28.1507 226.227 27.7716 225.683 26.8271Z" fill="#20A7DB"/>
<path d="M94.6426 16.8013C93.8188 17.6404 93.0528 17.9903 92.0576 18.3083C92.675 17.2425 92.675 17.2425 94.6426 16.8013Z" fill="#20A7DB"/>
<path d="M37.3478 27.6743C36.8822 28.3799 36.2731 28.9443 35.4121 29.346C35.695 28.2134 35.7466 28.1654 37.3478 27.6743Z" fill="#20A7DB"/>
<path d="M152.101 15.9871C153.019 15.2873 153.769 15.3249 154.862 15.3993C153.945 16.0774 153.203 16.1856 152.101 15.9871Z" fill="#20A7DB"/>
<path d="M154.94 11.248C155.623 10.6216 156.272 10.7279 157.137 10.7589C156.444 11.4296 155.803 11.3647 154.94 11.248Z" fill="#20A7DB"/>
<path d="M150.575 11.9801C151.033 11.7149 151.401 11.5446 151.86 11.7045C151.981 12.1504 151.546 12.0686 151.329 12.156C151.12 12.2416 150.866 12.3517 150.575 11.9801Z" fill="#20A7DB"/>
<path d="M229.982 35.2418C229.944 35.4967 229.882 35.778 229.525 35.8062C229.347 35.8203 229.257 35.6275 229.277 35.4713C229.312 35.1994 229.425 34.9257 229.755 34.8834C229.925 34.8617 229.968 35.0743 229.982 35.2418Z" fill="#20A7DB"/>
</svg>
