<svg width="221" height="72" viewBox="0 0 221 72" fill="none" xmlns="http://www.w3.org/2000/svg">
<path d="M201.533 40.6507C201.826 43.3262 201.541 45.5898 200.721 47.7932C198.646 53.3652 194.271 56.6557 188.18 58.167C184.077 59.1845 179.924 59.209 175.769 58.3551C173.673 57.9243 171.542 57.6046 169.551 56.8363C168.836 56.5607 168.491 56.7451 168.435 57.4081C168.019 62.319 160.955 66.6684 154.359 66.1991C150.494 65.9236 146.937 64.7076 143.453 63.2707C141.53 62.4779 141.534 62.4581 140.266 63.9346C136.079 68.8116 130.581 71.3254 123.807 71.7542C118.093 72.1163 112.522 71.6414 107.061 70.0624C104.036 69.1878 101.241 67.953 98.9267 65.9264C98.7058 65.7327 98.4818 65.5361 98.0534 65.5286C97.3824 66.3261 96.8486 67.2853 95.9629 68.0019C93.8403 69.721 91.2688 70.3831 88.5372 70.6483C79.5299 71.521 71.9576 68.9292 65.8574 62.8099C65.7346 62.6867 65.5921 62.5804 65.4527 62.4732C65.4073 62.4384 65.3433 62.4233 65.2576 62.3857C59.7965 66.3261 53.5012 66.4211 47.0397 65.4825C43.507 64.97 40.0827 64.0644 37.0063 62.3105C36.4447 61.9907 35.9244 61.8817 35.2792 62.1365C30.6047 63.9816 26.0014 63.2011 21.457 61.719C17.9635 60.5801 15.0182 58.6983 12.8069 55.9485C12.0812 55.0467 11.2626 54.5416 9.9556 54.3827C7.75359 54.1147 5.68474 53.3783 3.95039 52.0072C0.434203 49.2283 -0.052021 44.9587 2.83547 41.6409C4.36128 39.888 6.25874 38.5855 8.67754 38.025C9.50549 37.8331 10.0815 37.504 10.4078 36.7197C11.4752 34.1467 13.5296 32.3138 16.0382 30.9032C20.34 28.4835 24.9918 27.2534 30.0854 27.7875C30.7761 27.86 31.1054 27.7038 31.3449 27.1509C31.5689 26.6318 31.8683 26.139 32.1284 25.6321C35.37 19.3228 41.0356 15.9834 48.356 14.7476C51.069 14.2897 53.751 14.7514 56.3639 15.4426C58.1313 15.9109 59.877 16.4611 61.6021 17.0479C62.8171 17.4608 63.706 17.2153 64.5164 16.3097C65.9947 14.6574 67.598 13.1151 69.513 11.8596C72.7896 9.71167 76.4153 9.04773 80.3589 9.69098C80.6004 9.73048 80.8554 9.74646 81.0794 9.82828C83.0461 10.5421 84.3386 10.006 85.7612 8.49759C88.9109 5.15814 93.6112 4.47727 97.9935 6.35812C98.6996 6.66094 99.1673 6.85561 99.8806 6.18508C105.165 1.21965 111.723 -0.100706 119 0.910249C124.492 1.67293 129.414 3.85471 134.249 6.21612C135.061 6.61297 135.874 7.01548 136.647 7.47064C137.661 8.06687 138.574 7.98411 139.54 7.35779C140.49 6.74275 141.495 6.19449 142.496 5.64904C149.891 1.62215 157.657 1.54409 165.589 3.98919C170.863 5.61519 175.287 8.55213 179.354 11.9377C180.337 12.7558 181.168 12.9204 182.462 12.5311C187.065 11.1449 191.676 11.4947 196.222 12.8611C202.089 14.6244 206.807 17.7711 210.117 22.5738C211.005 23.8613 211.713 25.2409 211.968 26.7493C212.111 27.591 212.596 27.9615 213.383 28.3029C216.098 29.4822 218.388 31.1242 219.902 33.5608C220.519 34.5539 220.906 35.6015 220.983 36.7385C221.142 39.0839 220.176 40.8688 217.856 42.0067C214.072 43.8613 210.182 43.6826 206.23 42.5701C204.711 42.1403 203.277 41.5234 201.533 40.6507ZM178.722 14.0705C174.259 10.4941 169.745 7.39165 164.252 5.80045C158.619 4.16976 152.923 3.81522 147.255 5.80139C144.712 6.69291 142.375 7.94274 140.171 9.36654C139.189 10.0004 138.433 9.94019 137.48 9.48879C135.189 8.40542 132.879 7.35779 130.566 6.31204C127.477 4.91551 124.315 3.70613 120.921 3.03654C113.287 1.53187 106.254 2.39518 100.215 7.2929C99.4006 7.95402 98.649 8.11671 97.5713 7.59102C93.6741 5.69136 88.5877 6.65623 86.0946 10.0173C84.5853 12.0524 83.0337 12.437 80.5622 11.7844C76.5691 10.7292 72.9063 11.6198 69.6957 14.031C67.9397 15.3495 66.2012 16.6868 64.6042 18.1651C63.7772 18.9306 62.8595 19.1347 61.7528 18.7755C60.6533 18.4181 59.5384 18.1031 58.4327 17.7608C54.5129 16.5476 50.5105 16.0529 46.4688 17.0667C40.1271 18.6579 35.0593 21.7434 32.5362 27.5637C32.0634 28.6546 31.3531 29.1954 30.0266 29.0242C28.0486 28.7684 26.0871 29.0515 24.1597 29.3834C18.5282 30.3558 13.862 32.6909 11.1129 37.5021C10.64 38.3297 9.99998 38.7745 9.07705 39.0341C7.51407 39.4723 6.14827 40.2707 5.06327 41.3456C3.11832 43.2735 1.81756 45.4609 2.74565 48.2079C3.72019 51.095 5.92942 52.9693 9.12765 53.384C11.2677 53.6614 12.7357 54.4655 14.1139 55.8498C17.3162 59.066 21.2536 61.0795 26.0427 61.6719C28.9467 62.0312 31.8156 61.9691 34.6298 61.276C36.0245 60.9328 37.1808 61.0955 38.5001 61.6249C44.3855 63.9901 50.5012 65.2296 56.9802 64.3258C59.3206 63.9995 61.5009 63.2951 63.5119 62.1544C65.2649 61.1603 65.2628 61.1669 66.7834 62.3979C73.0343 67.4621 80.2722 69.8066 88.659 68.9687C92.0616 68.6283 95.1659 67.7395 97.2791 65.0424C97.4567 64.8167 97.6848 64.622 97.9016 64.4236C98.5572 63.8217 99.2292 63.6986 100.009 64.2844C100.623 64.7462 101.283 65.1647 101.955 65.554C105.818 67.7885 110.141 68.8587 114.582 69.5489C119.238 70.273 123.893 70.1047 128.506 69.1577C133.424 68.1477 137.108 65.4637 140.217 61.9936C141.182 60.9168 141.325 60.8999 142.719 61.3701C144.389 61.9343 146.037 62.5606 147.734 63.0487C151.369 64.0945 155.078 64.4396 158.825 63.6073C162.267 62.8428 165.052 61.2591 166.522 58.1519C166.813 57.536 167.197 56.9557 167.484 56.3379C167.886 55.4745 168.489 55.1774 169.526 55.4416C171.003 55.8178 172.503 56.1338 174.011 56.3905C178.463 57.1494 182.921 57.3403 187.352 56.257C193.48 54.7579 197.615 51.4072 199.226 45.6763C199.813 43.5857 199.834 41.4698 199.834 39.3406C199.834 38.1576 200.083 38.0146 201.211 38.4726C201.716 38.6776 202.206 38.9137 202.689 39.1591C204.749 40.2058 206.949 40.897 209.257 41.2986C211.407 41.6729 213.533 41.6607 215.609 40.9168C216.758 40.5049 217.608 39.8325 218.035 38.7613C218.883 36.6397 218.639 34.6855 216.928 32.973C215.543 31.5887 213.949 30.4565 212.001 29.8095C210.847 29.4258 210.171 28.7863 210.055 27.622C209.913 26.1916 209.179 24.9503 208.312 23.7795C205.746 20.3168 202.411 17.6338 198.312 15.7699C189.687 11.8455 181.36 13.1245 175.2 19.0736C173.792 20.4334 172.381 20.9206 170.482 20.3018C170.31 20.2454 170.123 20.2265 169.942 20.1955C166.755 19.6435 163.586 19.6999 160.441 20.4457C156.357 21.4143 152.932 23.4475 149.799 25.9453C149.337 26.3139 148.896 26.7032 148.433 27.07C148.239 27.2242 147.979 27.2957 147.764 27.1415C147.561 26.9957 147.54 26.7578 147.597 26.5264C147.819 25.6114 148.445 24.9127 149.123 24.2628C152.197 21.3203 155.794 19.162 160.191 18.2244C164.281 17.3526 168.335 17.0648 172.253 18.8629C172.637 19.0388 172.946 19.0529 173.204 18.7106C174.615 16.8391 176.485 15.405 178.722 14.0705Z" fill="#20A7DB"/>
<path d="M90.6786 51.4373C89.8466 51.2746 89.6174 50.6493 89.3799 50.1339C87.6487 46.3731 87.3896 42.5343 89.7743 38.9993C93.244 33.8571 98.3438 30.59 105.041 30.1471C109.841 29.8292 114.425 31.0189 118.443 33.5994C119.534 34.3 120.694 34.9263 121.608 36.1338C123.746 32.2254 127.225 30.811 131.512 30.7433C134.702 30.6925 137.545 31.854 139.239 33.8288C138.757 33.8928 138.453 33.5787 138.096 33.4047C135.063 31.9348 131.879 31.7759 128.606 32.5188C126.958 32.8931 125.554 33.6878 124.414 34.8398C123.921 35.3373 123.468 35.8696 123.026 36.4065C121.994 37.6629 121.826 37.7043 120.377 36.7423C119.086 35.8846 117.815 35.0044 116.411 34.2972C111.067 31.6047 105.443 31.2041 99.912 33.3962C93.7705 35.8301 90.1336 40.1899 89.7216 46.4775C89.6432 47.6662 89.862 48.8192 90.307 49.9383C90.4907 50.3953 90.7654 50.8383 90.6786 51.4373Z" fill="#20A7DB"/>
<path d="M44.8048 53.4294C42.961 52.9921 41.5828 51.9858 40.6 50.5141C38.1069 46.7796 38.5591 43.049 40.6455 39.3324C41.1802 38.3807 41.8771 37.523 42.7195 36.7782C46.3967 33.5234 50.7852 31.7536 55.9263 31.62C58.7653 31.5457 61.214 32.4485 63.2963 34.2015C63.6039 34.461 63.8548 34.8005 64.4628 34.9275C65.6913 31.4996 67.8169 28.8119 72.2271 28.7602C74.903 28.7291 77.6563 30.4323 78.5668 32.4043C77.8256 32.2209 77.3868 31.73 76.8469 31.4093C72.5616 28.8646 68.0441 30.0514 65.9112 34.3096C65.6573 34.8165 65.4983 35.362 65.2794 35.8839C64.9852 36.5826 64.532 36.6776 63.8703 36.2206C62.8927 35.5453 61.8975 34.8955 60.8476 34.3077C59.042 33.2977 57.0908 32.93 55.0261 33.1078C51.798 33.3871 48.7979 34.2861 46.087 35.9601C41.8719 38.5632 39.7287 43.2587 40.7157 47.8019C41.2349 50.1849 42.6761 51.9811 44.8048 53.4294Z" fill="#20A7DB"/>
<path d="M116.121 66.7991C115.405 66.3129 115.347 65.6922 115.297 65.1016C115.089 62.6998 115.234 60.3102 115.662 57.9337C115.672 57.8782 115.679 57.8218 115.698 57.7701C115.915 57.203 116.045 56.3246 116.829 56.4714C117.682 56.6312 117.314 57.4644 117.215 58.0456C116.774 60.6384 116.48 63.2424 116.425 65.8662C116.419 66.1408 116.438 66.4229 116.121 66.7991Z" fill="#20A7DB"/>
<path d="M120.278 67.3511C119.493 66.8197 119.445 66.3053 119.398 65.8172C119.159 63.3514 119.256 60.8988 119.861 58.4763C119.942 58.1518 120.062 57.8293 120.211 57.5255C120.34 57.2622 120.596 57.0224 120.915 57.0694C121.353 57.1343 121.483 57.5011 121.397 57.8443C120.963 59.5963 120.801 61.3794 120.632 63.1615C120.509 64.479 120.409 65.7965 120.278 67.3511Z" fill="#20A7DB"/>
<path d="M111.94 66.7069C111.022 65.9424 111.041 65.2963 111.007 64.716C110.892 62.7628 111.104 60.8293 111.639 58.9324C111.729 58.6155 111.896 58.308 112.081 58.0249C112.154 57.9121 112.372 57.8237 112.526 57.8209C112.728 57.8171 112.812 58.0042 112.849 58.1707C112.873 58.2779 112.88 58.3936 112.863 58.5017C112.448 61.1246 112.099 63.753 111.94 66.7069Z" fill="#20A7DB"/>
<path d="M108.289 65.5494C107.606 63.3225 107.798 61.1172 108.684 58.9373C108.789 58.6796 109.023 58.4417 109.375 58.5113C109.781 58.5912 109.727 58.9364 109.692 59.1893C109.398 61.3081 109.082 63.425 108.773 65.5419C108.612 65.5438 108.45 65.5466 108.289 65.5494Z" fill="#20A7DB"/>
<path d="M124.876 58.9043C124.783 61.5046 124.392 63.9149 123.991 66.3421C123.296 66.2434 123.384 65.8305 123.323 65.5371C122.961 63.802 123.227 62.0782 123.536 60.3695C123.636 59.8165 123.811 59.161 124.876 58.9043Z" fill="#20A7DB"/>
<path d="M17.3154 35.2664C19.1891 33.2147 24.7081 31.9278 27.1475 32.9682C25.2542 33.2768 23.6861 33.5007 22.1334 33.7932C20.6045 34.0811 19.1386 34.5976 17.3154 35.2664Z" fill="#20A7DB"/>
<path d="M117.378 17.6033C117.376 15.4328 117.281 13.3084 116.84 11.042C118.705 12.3567 119.026 16.0817 117.378 17.6033Z" fill="#20A7DB"/>
<path d="M26.1571 59.29C24.8842 56.6653 24.8295 53.9221 25.4737 51.1064C26.1168 52.3779 25.8928 53.7631 26.0869 55.092C26.2871 56.4678 26.4751 57.8446 26.6691 59.2214C26.4978 59.2439 26.3274 59.2674 26.1571 59.29Z" fill="#20A7DB"/>
<path d="M132.312 9.27246C131.039 8.2427 129.405 7.938 127.876 7.41419C127.156 7.16873 126.318 7.15839 125.478 6.38818C129.258 6.78598 132.342 8.0264 135.553 9.76148C134.352 10.0455 133.622 9.41917 132.79 9.46149C132.631 9.39942 132.471 9.33641 132.312 9.27246Z" fill="#20A7DB"/>
<path d="M207.811 26.5831C205.202 24.5716 202.93 22.2027 199.76 20.3735C202.269 20.6688 206.9 24.2942 207.811 26.5831Z" fill="#20A7DB"/>
<path d="M177.278 39.7751C175.114 38.9579 173.089 35.1163 173.482 32.4624C174.77 35.1323 175.561 37.6564 177.278 39.7751Z" fill="#20A7DB"/>
<path d="M174.725 40.5475C172.306 39.3954 170.564 36.0673 171.056 33.4219C172.259 35.993 173.162 38.4136 174.725 40.5475Z" fill="#20A7DB"/>
<path d="M81.7785 59.1543C81.7186 61.4856 82.0469 63.7887 82.0552 66.1811C80.5469 65.1721 80.3456 61.1499 81.7785 59.1543Z" fill="#20A7DB"/>
<path d="M181.095 37.2568C180.443 34.8701 179.614 32.535 178.519 29.9893C180.682 31.2071 181.632 33.9898 181.095 37.2568Z" fill="#20A7DB"/>
<path d="M114.468 11.5176C115.308 13.6034 115.687 15.694 114.697 18.0338C114.013 16.8836 113.817 12.5953 114.468 11.5176Z" fill="#20A7DB"/>
<path d="M84.1766 60.0527C84.1766 62.0671 84.1766 64.0824 84.1766 66.2445C83.1123 65.6276 83.1742 64.6975 83.1505 63.8727C83.1123 62.5496 82.7964 61.1408 84.1766 60.0527Z" fill="#20A7DB"/>
<path d="M180.986 28.8013C183.427 30.1207 184.613 32.9579 183.848 35.624C183.52 34.5106 183.195 33.3971 182.863 32.2837C182.527 31.1504 181.718 30.2147 180.986 28.8013Z" fill="#20A7DB"/>
<path d="M112.39 17.944C111.08 16.1008 111.004 14.1372 111.723 11.8613C112.239 12.8337 112.682 16.2757 112.39 17.944Z" fill="#20A7DB"/>
<path d="M176.588 31.9985C177.9 34.0496 178.231 36.4533 179.446 38.5392C177.262 36.8013 176.581 34.5236 176.588 31.9985Z" fill="#20A7DB"/>
<path d="M88.575 65.3648C87.9793 64.0529 87.9556 62.6432 88.1424 61.257C88.2322 60.5912 87.9989 59.3668 89.0426 59.4477C89.693 59.4975 89.2863 60.69 89.2573 61.3737C89.2006 62.6931 89.1201 64.0115 89.0488 65.33C88.8909 65.3422 88.7329 65.3535 88.575 65.3648Z" fill="#20A7DB"/>
<path d="M122.315 10.7178C124.253 12.529 124.485 14.7118 123.189 16.492C122.401 15.5751 123.103 14.5491 122.849 13.6227C122.59 12.6729 122.487 11.6873 122.315 10.7178Z" fill="#20A7DB"/>
<path d="M91.2147 59.2559C91.7546 61.3116 91.6535 63.8752 91.0712 65.2971C90.4116 63.042 90.298 61.1348 91.2147 59.2559Z" fill="#20A7DB"/>
<path d="M105.924 59.084C106.103 60.5031 105.599 63.6742 105.066 64.4707C104.002 62.8118 104.47 59.8739 105.924 59.084Z" fill="#20A7DB"/>
<path d="M128.284 59.6772C128.716 60.6346 128.616 61.2336 128.637 61.8158C128.674 62.8643 128.47 63.9176 128.723 64.9615C128.81 65.3207 128.745 65.6706 128.293 65.7317C127.951 65.7778 127.755 65.4956 127.709 65.2069C127.425 63.4662 127.194 61.7264 128.284 59.6772Z" fill="#20A7DB"/>
<path d="M153.481 55.7729C153.893 57.556 154.635 59.2986 154.762 61.3478C153.069 60.1346 152.553 57.808 153.481 55.7729Z" fill="#20A7DB"/>
<path d="M171.005 40.8774C168.757 39.8843 167.869 38.0251 168.499 35.8057C169.42 37.6686 170.212 39.273 171.005 40.8774Z" fill="#20A7DB"/>
<path d="M20.4379 51.5586C20.7641 53.4959 21.0893 55.4331 21.43 57.4569C19.9227 56.6585 19.3508 53.8006 20.4379 51.5586Z" fill="#20A7DB"/>
<path d="M120.241 17.002C120.083 14.9839 119.781 12.993 119.39 10.8037C121.035 12.1852 121.458 15.2021 120.241 17.002Z" fill="#20A7DB"/>
<path d="M156.834 55.2666C157.482 57.0468 158.221 58.8233 158.437 60.9722C156.756 59.6462 156.202 57.6064 156.834 55.2666Z" fill="#20A7DB"/>
<path d="M109.988 18.8806C108.547 17.5283 108.035 14.9882 108.672 12.9155C109.12 13.7008 109.917 17.2114 109.988 18.8806Z" fill="#20A7DB"/>
<path d="M186.335 33.9136C185.444 31.9481 185.096 29.8293 184.027 27.9287C186.057 29.519 186.74 31.5465 186.335 33.9136Z" fill="#20A7DB"/>
<path d="M22.5555 52.3794C23.1243 53.4082 23.8862 57.1267 23.784 58.3727C22.5658 57.0872 22.0011 54.3345 22.5555 52.3794Z" fill="#20A7DB"/>
<path d="M30.48 52.6138C30.7216 54.9263 30.9332 56.9435 31.1562 59.0688C29.8203 57.9479 29.4177 54.6056 30.48 52.6138Z" fill="#20A7DB"/>
<path d="M161.509 59.8326C159.894 58.6308 159.252 56.2308 159.904 54.1938C160.666 55.9252 161.129 57.7233 161.509 59.8326Z" fill="#20A7DB"/>
<path d="M28.7258 59.1291C27.5593 56.8627 27.7172 54.4627 27.8338 51.8784C28.4202 52.959 28.9374 56.841 28.7258 59.1291Z" fill="#20A7DB"/>
<path d="M185.297 53.8005C183.768 52.8394 182.854 50.7337 182.883 48.2397C183.56 48.8463 185.15 52.5064 185.297 53.8005Z" fill="#20A7DB"/>
<path d="M55.3066 20.0744C58.0961 19.6332 60.2754 21.0217 62.5796 22.032C60.0369 21.7376 57.7306 20.7291 55.3066 20.0744Z" fill="#20A7DB"/>
<path d="M53.7312 61.9032C52.5832 59.8503 52.8826 57.6948 52.9435 55.2178C53.5433 56.2306 54.0265 60.1898 53.7312 61.9032Z" fill="#20A7DB"/>
<path d="M79.0557 65.3698C78.1307 63.4072 78.3393 61.3759 78.4755 59.3493C78.6479 59.338 78.8203 59.3257 78.9927 59.3145C79.1713 61.311 79.3489 63.3075 79.5275 65.305C79.3706 65.3266 79.2126 65.3482 79.0557 65.3698Z" fill="#20A7DB"/>
<path d="M180.118 49.1108C180.744 50.8525 181.369 52.5942 181.995 54.3358C181.862 54.3782 181.728 54.4195 181.593 54.4609C180.1 53.0061 179.891 51.1318 179.647 49.2688C179.804 49.2162 179.961 49.1635 180.118 49.1108Z" fill="#20A7DB"/>
<path d="M185.923 46.9458C186.608 47.638 188.065 50.905 188.395 52.4887C187.039 51.9818 185.96 49.5649 185.923 46.9458Z" fill="#20A7DB"/>
<path d="M86.2262 65.9259C85.4116 63.856 85.3104 61.7993 86.094 59.5762C86.6463 60.6661 86.7485 63.6689 86.2262 65.9259Z" fill="#20A7DB"/>
<path d="M46.9927 39.4072C46.1978 41.4122 45.183 43.3326 44.7752 45.4476C44.1868 43.5818 45.0096 41.2965 46.9927 39.4072Z" fill="#20A7DB"/>
<path d="M150.267 55.6484C150.706 57.5255 151.088 59.1863 151.14 60.9806C149.653 59.964 149.281 57.834 150.267 55.6484Z" fill="#20A7DB"/>
<path d="M93.389 64.5696C92.4372 63.364 92.2369 61.0778 92.9234 59.2524C93.4365 59.9672 93.677 62.7132 93.389 64.5696Z" fill="#20A7DB"/>
<path d="M74.3801 64.4284C73.514 62.4282 73.516 60.3837 73.8805 58.3213C74.0105 58.3129 74.1416 58.3044 74.2717 58.2969C74.4555 60.3329 74.6403 62.3699 74.824 64.4059C74.6764 64.4124 74.5278 64.4209 74.3801 64.4284Z" fill="#20A7DB"/>
<path d="M191.225 50.8647C189.529 49.4249 189.342 47.4679 189.035 45.5522C190.013 47.2384 190.894 48.9566 191.225 50.8647Z" fill="#20A7DB"/>
<path d="M191.72 43.4033C192.49 45.3406 193.154 47.0108 193.87 48.8136C192.312 48.1327 191.258 45.5324 191.72 43.4033Z" fill="#20A7DB"/>
<path d="M188.708 32.7537C187.765 30.9989 187.215 29.2722 185.914 27.5259C188.08 28.3807 189.262 30.7261 188.708 32.7537Z" fill="#20A7DB"/>
<path d="M78.5303 14.7133C80.7364 13.6917 82.6339 13.7548 84.5251 14.875C82.5244 14.8158 80.5248 14.812 78.5303 14.7133Z" fill="#20A7DB"/>
<path d="M49.3106 38.2593C48.6324 40.2248 47.4462 42.0031 46.8257 43.9902C46.5398 41.6683 47.7683 39.906 49.3106 38.2593Z" fill="#20A7DB"/>
<path d="M23.0049 31.3058C24.8765 30.398 26.8669 30.177 29.0782 30.4244C28.9161 30.701 28.8759 30.8628 28.8077 30.8722C26.8927 31.1516 24.9756 31.4159 23.0586 31.6821C23.041 31.557 23.0224 31.431 23.0049 31.3058Z" fill="#20A7DB"/>
<path d="M50.9467 55.8394C50.9096 57.8039 51.2017 59.7703 51.4113 61.9972C50.2024 60.6158 50.0352 58.0343 50.9467 55.8394Z" fill="#20A7DB"/>
<path d="M58.2418 61.654C56.9204 59.8023 56.8925 56.9726 58.1737 54.9629C57.8475 57.3139 58.1262 59.3274 58.2418 61.654Z" fill="#20A7DB"/>
<path d="M177.056 49.6104C177.399 51.2956 177.743 52.9808 178.128 54.872C176.594 53.7426 176.144 51.6859 177.056 49.6104Z" fill="#20A7DB"/>
<path d="M170.814 10.6286C168.674 9.8327 166.533 9.03685 164.393 8.24099C166.932 8.14692 168.981 9.14409 170.814 10.6286Z" fill="#20A7DB"/>
<path d="M18.6539 57.0639C17.1457 55.3335 17.0228 53.6219 17.1147 51.5981C17.8632 52.4953 18.5538 55.0335 18.6539 57.0639Z" fill="#20A7DB"/>
<path d="M190.129 29.4982C189.426 28.2803 188.724 27.0615 187.918 25.6641C189.956 26.2274 190.695 27.4706 190.129 29.4982Z" fill="#20A7DB"/>
<path d="M193.882 41.3965C194.718 42.9171 195.405 44.4726 195.576 46.1767C194.178 44.8375 193.807 43.1786 193.882 41.3965Z" fill="#20A7DB"/>
<path d="M76.8717 64.2777C75.8404 62.5266 76.212 60.6721 76.3029 58.8354C76.8789 59.7298 77.137 62.142 76.8717 64.2777Z" fill="#20A7DB"/>
<path d="M48.8837 55.8115C48.8362 57.9153 48.9302 59.7547 49.0035 61.5942C47.8586 60.1882 47.7997 57.7394 48.8837 55.8115Z" fill="#20A7DB"/>
<path d="M55.8048 61.2684C54.9005 59.3556 54.9965 57.4052 55.6541 55.4453C55.8317 57.3769 55.7811 59.3142 55.8048 61.2684Z" fill="#20A7DB"/>
<path d="M43.3958 43.2939C43.3958 44.5014 43.3318 45.4917 43.4143 46.4726C43.4907 47.3886 43.722 48.2932 43.9057 49.3155C42.3933 47.7788 42.1394 45.1823 43.3958 43.2939Z" fill="#20A7DB"/>
<path d="M146.909 55.9688C147.823 58.1957 148.06 59.4201 147.85 60.5082C146.617 59.5574 146.292 58.1881 146.909 55.9688Z" fill="#20A7DB"/>
<path d="M46.0923 61.4539C45.0817 59.7875 44.9557 58.1079 45.7971 56.3926C45.7599 58.0966 46.272 59.764 46.0923 61.4539Z" fill="#20A7DB"/>
<path d="M128.3 9.00621C126.436 8.45218 124.574 7.89815 122.572 7.30274C123.963 6.84654 126.876 7.59715 128.3 9.00621Z" fill="#20A7DB"/>
<path d="M173.97 13.7084C172.164 13.1355 170.528 12.3557 169.049 11.3228C171.131 11.3914 172.576 12.5457 173.97 13.7084Z" fill="#20A7DB"/>
<path d="M174.693 54.7055C173.361 53.5008 173.452 52.0206 173.839 50.4849C174.408 51.8278 174.626 53.2403 174.693 54.7055Z" fill="#20A7DB"/>
<path d="M99.2705 36.1602C97.9357 37.4852 96.765 38.6466 95.5427 39.8588C95.5035 38.4557 97.0314 36.9069 99.2705 36.1602Z" fill="#20A7DB"/>
<path d="M78.4859 13.1458C77.0313 13.8127 75.4807 14.0874 73.8857 14.1993C75.1617 12.9624 76.8094 12.984 78.4859 13.1458Z" fill="#20A7DB"/>
<path d="M33.2825 33.0825C31.3282 32.8529 29.6 32.6507 27.6768 32.4249C29.247 31.6196 31.8186 31.9188 33.2825 33.0825Z" fill="#20A7DB"/>
<path d="M49.9365 18.1088C51.6802 17.3036 53.3309 17.7965 54.9754 18.4005C53.2669 18.8934 51.6213 18.1559 49.9365 18.1088Z" fill="#20A7DB"/>
<path d="M60.1103 55.7896C60.3498 57.4532 60.2125 59.1262 60.3384 60.7926C59.4867 59.1459 59.5115 57.4757 60.1103 55.7896Z" fill="#20A7DB"/>
<path d="M72.1313 63.0104C71.0267 61.6289 71.3147 60.1223 71.5852 58.6167C72.1881 60.0433 72.0683 61.5348 72.1313 63.0104Z" fill="#20A7DB"/>
<path d="M163.402 57.8031C162.289 56.7066 162.02 55.4314 162.48 54.001C163.17 55.1878 163.553 56.4386 163.402 57.8031Z" fill="#20A7DB"/>
<path d="M43.1578 56.4688C43.3436 57.9151 43.5284 59.3615 43.7142 60.8079C42.5353 59.4537 42.5539 57.9885 43.1578 56.4688Z" fill="#20A7DB"/>
<path d="M150.56 27.4461C151.48 25.8139 152.889 25.0679 154.539 24.3521C153.895 25.3266 152.524 26.3878 150.56 27.4461Z" fill="#20A7DB"/>
<path d="M62.4524 55.769C62.4524 57.2295 62.4524 58.69 62.4524 60.1514C61.513 58.6909 61.6999 57.2295 62.0653 55.769C62.1933 55.769 62.3234 55.769 62.4524 55.769Z" fill="#20A7DB"/>
<path d="M195.961 39.3267C196.607 40.5097 197.252 41.6561 197.289 43.315C195.955 41.9899 195.798 40.6837 195.961 39.3267Z" fill="#20A7DB"/>
<path d="M28.7961 33.9185C27.4272 34.4688 25.9943 34.4876 24.5645 34.544C25.8167 33.5064 27.2878 33.5516 28.7961 33.9185Z" fill="#20A7DB"/>
<path d="M132.189 59.8608C132.332 61.2809 132.394 62.5504 131.953 63.9037C131.107 62.8326 131.196 61.3721 132.189 59.8608Z" fill="#20A7DB"/>
<path d="M91.5532 48.5705C91.0256 46.9126 91.4344 45.4342 92.729 44.1543C92.3367 45.627 91.9454 47.0988 91.5532 48.5705Z" fill="#20A7DB"/>
<path d="M138.721 56.8311C138.958 58.1194 138.606 59.2282 138.236 60.4583C137.444 59.1031 137.595 58.0066 138.721 56.8311Z" fill="#20A7DB"/>
<path d="M102.33 62.9519C101.583 61.8262 101.792 60.7926 102.694 59.6152C103.403 60.9168 102.836 61.9334 102.33 62.9519Z" fill="#20A7DB"/>
<path d="M171.032 51.3149C171.777 52.3692 172.088 53.5184 172.086 54.7353C170.735 53.84 170.859 52.5817 171.032 51.3149Z" fill="#20A7DB"/>
<path d="M132.312 9.27153C132.472 9.33455 132.631 9.39852 132.791 9.46154C133.172 9.80581 133.831 9.83121 134.111 10.5047C132.465 10.3965 131.125 9.75784 129.755 9.14267C130.667 8.66013 131.463 9.30257 132.312 9.27153Z" fill="#20A7DB"/>
<path d="M204.89 26.1446C203.704 25.1534 202.519 24.1622 201.333 23.171C201.419 23.0836 201.505 22.9952 201.591 22.9077C203.223 23.4569 204.195 24.6945 205.226 25.871C205.113 25.9622 205.002 26.0534 204.89 26.1446Z" fill="#20A7DB"/>
<path d="M158.472 24.0737C157.166 24.9872 155.768 25.7473 154.162 26.1565C155.284 24.9345 156.742 24.2769 158.472 24.0737Z" fill="#20A7DB"/>
<path d="M125.456 11.9111C126.182 13.1581 126.591 14.2368 126.185 15.5214C125.302 14.7766 125.105 13.8616 125.456 11.9111Z" fill="#20A7DB"/>
<path d="M167.336 41.4473C166.145 40.4731 165.718 39.4724 165.94 38.0439C166.944 39.212 167.242 39.9351 167.336 41.4473Z" fill="#20A7DB"/>
<path d="M135.071 62.3229C134.508 60.8257 134.791 59.5844 135.374 58.1973C135.819 59.3606 135.701 60.9922 135.071 62.3229Z" fill="#20A7DB"/>
<path d="M41.0422 56.6274C41.0422 57.865 41.0422 59.1026 41.0422 60.3261C40.1874 59.4393 40.0904 58.3578 41.0422 56.6274Z" fill="#20A7DB"/>
<path d="M32.1846 54.4287C32.5811 55.7406 32.5315 57.1211 33.1189 58.7396C31.9162 57.5105 31.7469 56.5879 32.1846 54.4287Z" fill="#20A7DB"/>
<path d="M127.241 11.7202C128.41 13.3067 128.496 14.2838 127.571 15.3728C127.379 14.154 127.016 13.033 127.241 11.7202Z" fill="#20A7DB"/>
<path d="M95.089 63.3627C94.3426 62.0856 94.5852 60.832 95.1809 59.5869C95.4039 60.8518 95.5133 62.1138 95.089 63.3627Z" fill="#20A7DB"/>
<path d="M96.4038 8.40299C95.1216 8.40299 93.8394 8.40299 92.3477 8.40299C93.8012 7.50752 95.0968 7.84144 96.4038 8.40299Z" fill="#20A7DB"/>
<path d="M94.4019 43.2791C94.246 41.7086 95.5024 41.0315 96.3933 40.123C96.5038 40.1926 96.6142 40.2622 96.7236 40.3318C95.9494 41.3146 95.1751 42.2964 94.4019 43.2791Z" fill="#20A7DB"/>
<path d="M64.0936 59.5176C63.3689 58.4164 63.6755 57.2747 63.8128 56.1396C64.3775 57.2277 64.3341 58.3741 64.0936 59.5176Z" fill="#20A7DB"/>
<path d="M215.297 33.9424C216.687 34.5678 217.246 35.6634 217.469 37.1972C216.614 36.7326 216.551 36.0386 216.215 35.5308C215.876 35.0192 215.6 34.4737 215.297 33.9424Z" fill="#20A7DB"/>
<path d="M157.956 22.8731C158.825 21.9907 159.995 21.8439 161.19 21.7583C160.307 22.5749 159.167 22.7922 157.956 22.8731Z" fill="#20A7DB"/>
<path d="M16.4127 55.4039C15.4671 54.4961 15.1739 53.5121 15.8263 52.4077C16.0225 53.4058 16.2176 54.4049 16.4127 55.4039Z" fill="#20A7DB"/>
<path d="M144.259 56.7754C144.417 57.7707 144.776 58.5976 144.643 59.5741C143.474 58.5543 143.419 58.1921 144.259 56.7754Z" fill="#20A7DB"/>
<path d="M69.1376 58.2744C69.6796 59.0703 69.4762 59.8831 69.4814 60.7306C68.4356 59.9207 68.3613 59.4005 69.1376 58.2744Z" fill="#20A7DB"/>
<path d="M96.7743 61.9183C96.3737 61.0246 96.4253 60.1817 96.9715 59.3896C97.2543 60.2589 97.149 61.1018 96.7743 61.9183Z" fill="#20A7DB"/>
<path d="M164.707 53.4048C164.939 54.3455 165.173 55.2853 165.439 56.3615C164.202 55.5064 164.038 54.9241 164.707 53.4048Z" fill="#20A7DB"/>
<path d="M96.166 42.602C96.4303 41.3941 97.3904 40.7384 98.4248 39.9087C97.9798 41.0695 97.6165 41.5173 96.166 42.602Z" fill="#20A7DB"/>
<path d="M69.7959 34.9412C70.3936 33.9816 71.3991 33.5414 72.5574 33.0767C71.8048 34.039 71.5726 34.2027 69.7959 34.9412Z" fill="#20A7DB"/>
<path d="M107.414 18.3568C106.329 17.4772 106.361 16.6898 106.59 15.8535C107.162 16.48 107.52 17.163 107.414 18.3568Z" fill="#20A7DB"/>
<path d="M30.4297 34.2231C31.7604 33.9155 32.6854 33.7367 33.6155 34.6643C32.515 34.796 31.6221 34.7772 30.4297 34.2231Z" fill="#20A7DB"/>
<path d="M98.626 37.9928C99.0286 37.0445 99.9164 36.5986 100.895 36.1113C100.297 37.1395 100.297 37.1395 98.626 37.9928Z" fill="#20A7DB"/>
<path d="M197.748 36.7422C198.33 37.7553 198.368 38.4487 198.421 39.268C197.614 38.46 197.614 38.46 197.748 36.7422Z" fill="#20A7DB"/>
<path d="M104.836 15.5669C105.411 16.3919 105.164 17.1981 105.363 18.1558C104.401 17.2348 104.401 17.2348 104.836 15.5669Z" fill="#20A7DB"/>
<path d="M47.8539 18.5717C47.0631 18.932 46.3105 19.3619 45.1543 19.2594C46.0184 18.3864 46.8381 18.1474 47.8539 18.5717Z" fill="#20A7DB"/>
<path d="M39.4794 56.6895C39.7468 57.4656 39.6404 58.2238 39.3937 58.9735C38.7784 58.1805 38.989 57.4279 39.4794 56.6895Z" fill="#20A7DB"/>
<path d="M67.8435 35.0327C67.6391 35.8408 67.1415 36.4664 66.3549 37.2058C66.2527 35.9593 66.9361 35.4297 67.8435 35.0327Z" fill="#20A7DB"/>
<path d="M53.1138 20.19C52.13 20.4798 51.3206 20.3255 50.4111 19.9059C51.8296 19.4337 51.8296 19.4337 53.1138 20.19Z" fill="#20A7DB"/>
<path d="M46.4454 37.5273C46.2585 38.3166 45.6081 38.7606 44.9805 39.2225C45.0032 38.311 45.6814 37.8876 46.4454 37.5273Z" fill="#20A7DB"/>
<path d="M34.5221 58.1337C33.9533 57.4479 34.0565 56.7471 34.1835 55.7471C34.7152 56.6991 34.8246 57.4065 34.5221 58.1337Z" fill="#20A7DB"/>
<path d="M126.986 36.8084C127.798 35.6701 128.668 35.3964 129.645 35.291C129.026 35.957 128.238 36.3597 126.986 36.8084Z" fill="#20A7DB"/>
<path d="M135.935 33.2958C135.162 33.4294 134.402 33.4058 133.329 33.1528C134.477 32.5771 135.217 32.8047 135.935 33.2958Z" fill="#20A7DB"/>
<path d="M162.972 22.4356C163.729 21.7063 164.642 21.9089 165.658 21.9136C164.346 22.5308 164.346 22.5308 162.972 22.4356Z" fill="#20A7DB"/>
<path d="M126.127 36.3774C125.33 37.2194 124.812 37.7659 124.165 38.4499C124.323 37.1667 124.323 37.1667 126.127 36.3774Z" fill="#20A7DB"/>
<path d="M59.1618 19.3341C58.3576 19.7161 57.8538 19.21 57.2705 19.0369C58.2069 18.6465 58.2069 18.6465 59.1618 19.3341Z" fill="#20A7DB"/>
<path d="M33.1381 31.1608C32.0067 31.4571 31.3584 31.1589 30.5635 30.84C31.4957 30.1147 32.1048 30.7224 33.1381 31.1608Z" fill="#20A7DB"/>
<path d="M206.179 26.8687C207.148 27.2167 207.535 27.8479 207.944 28.6071C206.844 28.0671 206.844 28.0671 206.179 26.8687Z" fill="#20A7DB"/>
<path d="M76.6969 15.3433C75.805 15.9312 75.1835 16.0939 74.1914 16.0826C74.9027 15.1655 75.5995 15.1307 76.6969 15.3433Z" fill="#20A7DB"/>
<path d="M168.918 51.9131C169.303 52.8482 169.576 53.3675 169.324 54.1388C168.537 53.5133 168.565 52.9187 168.918 51.9131Z" fill="#20A7DB"/>
<path d="M82.3676 16.023C81.4075 16.3569 80.8335 16.5281 79.9756 16.2638C80.722 15.6853 81.3414 15.8574 82.3676 16.023Z" fill="#20A7DB"/>
<path d="M62.7934 20.5122C61.9242 20.6468 61.3254 20.4135 60.5264 19.833C61.5959 19.6947 62.2153 19.8772 62.7934 20.5122Z" fill="#20A7DB"/>
<path d="M131.926 34.605C132.594 33.9247 133.374 34.0435 134.136 34.0953C133.464 34.3742 132.828 34.7906 131.926 34.605Z" fill="#20A7DB"/>
<path d="M93.6044 46.0441C93.4918 46.5652 93.3638 47.0883 92.8425 47.6C92.5638 46.8606 92.9416 46.3903 93.3122 45.9331C93.3907 45.8362 93.5404 45.9067 93.6044 46.0441Z" fill="#20A7DB"/>
<path d="M44.6345 47.4448C45.1569 48.2369 45.2147 48.6969 45.0475 49.2886C44.299 48.8512 44.5024 48.3075 44.6345 47.4448Z" fill="#20A7DB"/>
<path d="M6.93934 50.8626C6.4882 50.2069 6.4882 50.2069 6.51194 49.3066C6.9765 49.9501 6.9765 49.9501 6.93934 50.8626Z" fill="#20A7DB"/>
<path d="M166.282 52.439C166.621 53.1765 166.659 53.7024 166.447 54.3919C165.809 53.7701 165.677 53.2518 166.282 52.439Z" fill="#20A7DB"/>
<path d="M123.934 6.03326C123.175 6.22985 122.599 6.23174 122.059 5.59023C122.815 5.36636 123.383 5.39552 123.934 6.03326Z" fill="#20A7DB"/>
<path d="M98.5639 59.6191C99.0264 60.0933 98.917 60.5373 98.5639 61.0067C97.8629 60.5298 98.4782 60.0669 98.5639 59.6191Z" fill="#20A7DB"/>
<path d="M10.6967 51.3953C10.0463 50.9353 10.2084 50.4762 10.2404 49.9287C10.7917 50.3699 10.8784 50.8045 10.6967 51.3953Z" fill="#20A7DB"/>
<path d="M8.51009 51.0044C7.95881 50.5547 8.01765 50.1173 8.01559 49.7495C8.15805 49.582 8.29122 49.5585 8.37071 49.6723C8.64119 50.0609 8.71759 50.4804 8.51009 51.0044Z" fill="#20A7DB"/>
<path d="M215.326 36.2485C216.186 36.9221 216.444 37.4875 216.483 38.2024C215.846 37.5994 215.846 37.5994 215.326 36.2485Z" fill="#20A7DB"/>
<path d="M65.6354 56.1147C65.9173 56.7196 65.942 57.3264 65.7221 58.1241C65.2028 57.3349 65.5012 56.7234 65.6354 56.1147Z" fill="#20A7DB"/>
<path d="M130.773 33.7535C130.367 34.0809 129.951 34.4214 129.333 34.302C129.559 33.555 130.24 33.8072 130.773 33.7535Z" fill="#20A7DB"/>
<path d="M169.799 13.2888C170.797 13.254 171.248 13.5625 171.777 14.0977C170.959 14.1194 170.442 13.888 169.799 13.2888Z" fill="#20A7DB"/>
<path d="M46.466 48.5363C46.3525 48.1158 46.3132 47.8401 46.5393 47.6219C46.6302 47.5344 46.7882 47.5965 46.8098 47.7226C46.8553 47.9935 46.8243 48.256 46.466 48.5363Z" fill="#20A7DB"/>
<path d="M68.5184 36.3682C68.4678 36.8715 68.1354 37.0662 67.6357 37.2929C67.6616 36.7096 67.9599 36.4886 68.5184 36.3682Z" fill="#20A7DB"/>
<path d="M97.3612 9.37403C96.7923 9.59602 96.3402 9.64681 95.792 9.2715C96.3918 8.81342 96.8367 8.86703 97.3612 9.37403Z" fill="#20A7DB"/>
<path d="M70.0851 31.5752C69.6846 32.3155 69.1828 32.4322 68.6729 32.7097C68.7482 31.8442 69.4069 31.9402 70.0851 31.5752Z" fill="#20A7DB"/>
<path d="M101.865 37.4937C101.523 38.0045 101.189 38.2265 100.629 38.3168C100.816 37.7251 101.192 37.5689 101.865 37.4937Z" fill="#20A7DB"/>
<path d="M81.5744 13.1213C81.4866 13.3771 81.2533 13.396 81.0117 13.3771C80.8228 13.3621 80.6483 13.2708 80.6845 13.0808C80.7392 12.7949 81.0148 12.8306 81.2378 12.8532C81.3978 12.8701 81.6033 12.8805 81.5744 13.1213Z" fill="#20A7DB"/>
<path d="M165.322 10.3003C165.794 10.0745 166.348 10.2589 166.308 10.6078C166.267 10.969 165.75 10.7358 165.467 10.5599C165.391 10.5147 165.372 10.3953 165.322 10.3003Z" fill="#20A7DB"/>
<path d="M43.9575 40.9491C43.8821 41.0497 43.815 41.2454 43.6963 41.2765C43.4671 41.3367 43.4103 41.1325 43.4753 40.9914C43.5363 40.8588 43.6942 40.7628 43.8098 40.6509C43.8511 40.7355 43.8935 40.8202 43.9575 40.9491Z" fill="#20A7DB"/>
<path d="M72.2188 32.1289C72.2746 32.1054 72.0681 32.2672 71.8699 32.2596C71.6469 32.2502 71.7151 32.048 71.8266 31.9294C71.9856 31.7601 72.1972 31.6707 72.4398 31.7441C72.6039 31.793 72.6019 31.8928 72.2188 32.1289Z" fill="#20A7DB"/>
<path d="M161.078 23.1883C160.842 23.2974 160.657 23.414 160.452 23.4648C160.342 23.4921 160.273 23.3491 160.369 23.2654C160.481 23.1667 160.63 23.0886 160.779 23.0416C160.836 23.0227 160.936 23.114 161.078 23.1883Z" fill="#20A7DB"/>
</svg>
