<svg width="178" height="59" viewBox="0 0 178 59" fill="none" xmlns="http://www.w3.org/2000/svg">
<path d="M131.878 43.1665C130.459 48.8589 126.521 52.5783 121.086 55.0704C110.867 59.7556 98.6547 58.2697 90.0521 51.4084C88.8907 50.482 88.8979 50.4886 87.7293 51.4497C84.9327 53.75 81.6137 55.1654 78.0634 56.2055C73.1938 57.6321 68.2323 57.6358 63.2172 57.1186C60.658 56.8543 58.1607 56.3447 55.6985 55.6948C54.8943 55.4823 54.2584 55.6186 53.5667 55.9694C46.7099 59.4499 39.8106 59.1969 32.897 56.1152C30.471 55.0337 28.112 53.8102 26.165 52.1052C24.6299 50.7613 23.036 50.5827 21.0332 50.8883C17.325 51.4544 13.5662 51.6115 9.81155 51.1864C7.67871 50.9447 5.64603 50.3918 3.82909 49.3093C1.08717 47.6749 -0.15578 44.9025 0.57719 42.2327C0.846633 41.2509 1.43712 40.4599 2.18558 39.765C5.039 37.1167 8.51388 36.1961 12.4771 36.8816C13.3081 37.0255 13.8491 37.0312 14.4169 36.3719C18.2293 31.9444 27.216 30.3335 32.5377 34.351C32.6234 34.4158 32.769 34.4158 32.8794 34.445C33.0849 34.3867 33.2108 34.2466 33.2088 34.0745C33.154 29.5407 35.4913 25.8448 38.3065 22.3737C40.1751 20.0697 42.4762 18.1249 45.3018 16.7707C45.9872 16.4425 46.5075 16.0673 46.6954 15.2933C47.703 11.1601 50.7123 8.41219 54.5299 6.3442C58.6893 4.09189 63.2853 3.77685 67.9794 4.25741C69.3535 4.39847 70.6315 4.91006 71.827 5.55519C72.2977 5.80911 72.721 5.93794 73.1412 5.46491C76.0483 2.20352 80.0197 0.992254 84.4196 0.876582C89.1065 0.753387 93.2369 2.2731 96.8512 4.9693C98.1117 5.90972 99.3515 6.88024 100.348 8.05859C100.899 8.7103 101.26 8.72819 101.978 8.18274C105.148 5.7715 108.872 4.53106 112.955 4.18686C118.113 3.75051 121.958 5.57777 124.357 9.8125C124.556 10.1633 124.77 10.5075 124.977 10.8535C125.545 10.9222 125.751 10.5056 126.054 10.2733C128.119 8.69056 130.567 8.07084 133.187 8.03322C137.661 7.96927 141.864 8.95012 145.726 11.0397C148.846 12.7278 151.081 15.0977 152.385 18.2048C152.912 19.4603 152.979 19.4603 154.427 19.2957C163.134 18.3036 169.967 21.3882 175.273 27.4699C177.43 29.9432 178.539 32.8444 177.639 36.1161C176.934 38.6807 175.19 40.1412 172.311 40.4816C170.547 40.6904 168.79 40.5916 167.138 39.9822C166.239 39.6502 165.757 39.6672 165.199 40.5136C163.811 42.622 161.724 44.1295 159.352 45.2044C153.261 47.9655 146.914 48.9313 140.254 47.073C137.716 46.3649 135.412 45.2429 133.239 43.8699C132.842 43.6179 132.543 43.2032 131.878 43.1665ZM175.804 33.1726C175.775 31.0595 174.68 29.3347 173.284 27.7708C170.173 24.2837 165.939 22.5628 161.244 21.6317C159.017 21.1907 156.771 21.1032 154.545 21.6073C152.956 21.9665 151.745 21.7183 150.989 20.2587C150.672 19.6474 150.165 19.118 149.753 18.5453C146.601 14.1666 142.199 11.477 136.553 10.5281C133.413 10.0006 130.327 10.01 127.484 11.6548C126.809 12.045 126.267 12.8369 125.452 12.7692C124.534 12.6921 124.204 11.7347 123.591 11.1855C123.502 11.1056 123.431 11.0106 123.345 10.9269C118.409 6.09782 112.603 5.2834 106.161 8.25702C104.919 8.83068 103.899 9.67614 102.813 10.4445C101.599 11.3031 101.418 11.2974 100.272 10.3401C98.5215 8.87772 96.8429 7.35328 94.9517 6.0207C90.1264 2.62107 80.3945 1.3327 74.54 6.71098C73.7337 7.45203 72.9533 7.59591 71.8631 7.12758C68.4821 5.67369 64.903 5.27495 61.2392 5.92384C54.8541 7.05517 50.2477 10.1802 48.2935 16.0108C47.9322 17.0895 47.3799 17.7299 46.332 18.2876C40.0357 21.6411 36.3492 26.7881 34.5426 33.0946C33.6806 36.1048 33.8509 36.071 30.79 34.8616C25.3805 32.725 19.3938 33.1077 15.219 37.9039C14.6399 38.5697 14.0742 38.7766 13.1295 38.5744C10.4516 38.0007 7.82531 38.013 5.29605 39.2665C2.00182 40.8982 1.25956 44.5263 3.78366 47.0561C4.46604 47.7398 8.40138 51.5268 21.4864 49.4786C23.3426 49.188 24.9644 49.1993 26.6162 50.2987C29.5047 52.2209 32.0474 54.1666 35.4077 55.2904C42.5639 57.9941 47.5368 57.5832 53.6297 54.5042C54.7065 54.05 55.7667 54.0274 56.9136 54.2588C62.3159 55.3516 67.7667 55.9995 73.2898 55.1682C78.3638 54.4036 83.0414 52.7005 87.1337 49.8237C89.0373 48.4855 88.9867 48.4263 90.8862 49.7833C90.9843 49.8538 97.7483 55.1146 104.943 55.7418C111.948 56.3757 118.709 54.6491 124.339 50.8403C127.651 48.5984 128.926 46.5022 129.683 42.8054C130.157 40.4872 131.373 40.5192 133.671 41.5226C135.871 42.4837 136.576 43.1007 138.808 44.0147C144.705 46.4316 151.263 46.3987 157.127 44.2414C160.253 43.0912 162.308 41.3834 163.859 38.4851C164.389 37.4948 165.512 37.0979 166.634 37.5606C167.619 37.9678 168.168 37.9274 169.227 37.9763C173.231 38.1578 175.826 36.1838 175.804 33.1726Z" fill="#20A7DB"/>
<path d="M97.7743 23.6104C96.553 23.1204 95.4928 22.4452 94.352 21.8923C86.3523 18.0177 78.3103 19.1152 71.9428 25.1094C70.9486 26.0452 69.939 26.4759 68.5174 26.5088C60.0655 26.7016 53.2438 31.1394 50.1292 38.3675C49.9867 38.6985 50.0352 39.1744 49.4716 39.3136C48.9719 38.9638 49.1433 38.4907 49.2352 38.0722C49.4323 37.1751 49.7555 36.3061 50.2634 35.5143C52.6037 31.8645 55.548 28.7489 59.6898 26.6875C61.9073 25.5834 64.3168 25.2204 66.7676 25.3972C68.918 25.5524 70.3096 24.943 71.8261 23.4355C78.0884 17.208 88.4903 16.4989 95.8448 21.5622C96.6376 22.1076 97.4429 22.6484 97.7743 23.6104Z" fill="#20A7DB"/>
<path d="M143.19 28.9932C142.57 28.8249 142.45 28.2569 142.115 27.8713C140.971 26.5575 139.457 25.8071 137.696 25.4798C135.846 25.1347 134.294 25.8701 133.14 27.5252C131.901 29.3007 131.917 29.2838 130.217 27.938C127.61 25.8738 124.538 25.3011 121.278 26.0638C116.187 27.2543 113.34 30.5355 111.893 34.9771C111.756 35.3975 111.909 35.9015 111.463 36.2363C110.104 34.1524 112.193 29.1766 115.557 26.85C120.35 23.5331 126.075 22.6811 131.42 27.8769C132.732 24.8064 135.144 23.5905 138.625 24.4218C141.21 25.0397 143.002 26.8848 143.19 28.9932Z" fill="#20A7DB"/>
<path d="M102.719 39.9165C100.04 36.7764 96.9441 34.6774 92.537 35.346C88.484 35.9611 85.1805 37.7413 83.1292 41.3628C82.6451 40.4431 82.9909 39.8873 83.3016 39.3644C85.6667 35.3865 90.716 32.4382 96.5735 33.7887C99.3568 34.4301 101.29 36.0532 102.582 38.3441C102.801 38.7325 103.09 39.1397 102.719 39.9165Z" fill="#20A7DB"/>
<path d="M48.7642 40.193C48.0013 40.1554 47.5987 39.7689 47.13 39.5479C44.673 38.393 42.95 38.6131 41.0133 40.3548C40.7913 40.5551 40.5859 40.7704 40.3722 40.9792C39.9262 41.4156 39.4926 41.4927 38.9042 41.1146C37.1843 40.0096 35.5026 40.2626 33.8766 41.3403C32.8071 42.0485 31.8501 42.86 31.0408 43.8146C30.7104 44.2048 30.4647 44.6873 29.8752 44.8349C29.7864 44.6826 29.6688 44.5772 29.6863 44.4964C30.4368 40.9256 35.1093 38.425 38.7029 39.7895C39.6568 40.1516 40.0645 39.8356 40.622 39.3617C42.4286 37.825 44.515 37.714 46.7418 38.3996C47.6575 38.6817 48.311 39.2253 48.7642 40.193Z" fill="#20A7DB"/>
<path d="M62.4082 52.9537C65.5765 52.8605 68.7283 52.8069 72.1133 52.3779C70.3811 53.6018 64.7898 53.9085 62.4082 52.9537Z" fill="#20A7DB"/>
<path d="M38.0177 52.2404C36.9761 52.4276 36.0366 52.0955 35.0704 51.9074C34.5944 51.8143 34.1268 51.5894 33.6261 51.8415C32.89 52.2112 32.3801 52.4775 32.2366 51.262C32.1715 50.7145 30.8367 50.7409 30.3711 50.0278C33.0149 50.4841 35.5184 51.3354 38.0177 52.2404Z" fill="#20A7DB"/>
<path d="M77.5942 49.5537C74.9535 51.0259 72.0298 51.3636 69.002 51.2818C71.7862 50.3862 74.7511 50.215 77.5942 49.5537Z" fill="#20A7DB"/>
<path d="M145.965 42.16C144.055 42.558 140.701 41.7424 138.563 40.3595C139.448 40.3012 144.321 41.4865 145.965 42.16Z" fill="#20A7DB"/>
<path d="M123.771 41.231C123.651 38.974 123.652 36.7358 122.955 34.2192C124.426 36.0051 124.768 39.0643 123.771 41.231Z" fill="#20A7DB"/>
<path d="M116.964 50.6315C118 49.6657 119.447 49.2416 120.571 48.3661C121.616 47.5526 122.661 46.741 123.826 46.0752C122.208 48.4168 119.876 49.8764 116.964 50.6315Z" fill="#20A7DB"/>
<path d="M119.448 51.5015C117.568 52.779 115.369 53.1939 113.056 53.3143C113.863 52.4206 115.087 52.4573 116.137 52.1187C117.171 51.7856 118.216 51.4856 119.256 51.1704C119.321 51.2805 119.384 51.3915 119.448 51.5015Z" fill="#20A7DB"/>
<path d="M99.7529 50.6831C102.265 51.0293 104.829 51.0255 107.308 51.589C104.691 51.9992 102.163 51.7565 99.7529 50.6831Z" fill="#20A7DB"/>
<path d="M101.315 52.9099C98.5186 52.7265 96.4631 51.7142 94.1816 50.4038C95.5031 50.5186 100.075 52.1282 101.315 52.9099Z" fill="#20A7DB"/>
<path d="M93.1104 9.20117C95.3764 9.95257 96.7535 11.2221 98.3103 12.8867C96.6276 12.3403 94.2717 10.6494 93.1104 9.20117Z" fill="#20A7DB"/>
<path d="M85.0908 6.76669C87.6583 6.52025 89.4597 7.3066 91.4057 8.35916C90.2959 8.51343 87.394 7.77222 85.0908 6.76669Z" fill="#20A7DB"/>
<path d="M143.828 43.0698C146.133 43.2062 148.444 43.2467 150.751 43.3539C148.398 44.1968 146.11 43.7114 143.828 43.0698Z" fill="#20A7DB"/>
<path d="M123.92 48.3653C125.099 46.8446 126.297 45.3474 127.578 43.9058C127.065 45.8759 125.72 47.2828 123.92 48.3653Z" fill="#20A7DB"/>
<path d="M71.0625 9.25683C69.1299 9.33772 67.408 9.39132 65.5693 9.0273C67.0993 8.20143 69.2352 8.28234 71.0625 9.25683Z" fill="#20A7DB"/>
<path d="M142.346 16.6416C144.312 17.5153 145.808 18.8177 147.048 20.566C145.715 20.0215 143.378 18.1124 142.346 16.6416Z" fill="#20A7DB"/>
<path d="M158.468 24.2065C160.465 24.2978 162.212 24.9563 163.619 26.4022C161.845 25.8001 160.07 25.1981 158.297 24.596C158.355 24.4662 158.411 24.3364 158.468 24.2065Z" fill="#20A7DB"/>
<path d="M121.397 35.7642C122.149 37.661 122.637 39.5842 121.82 41.6324C121.747 40.6788 121.653 39.7262 121.608 38.7716C121.56 37.7663 121.053 36.8071 121.397 35.7642Z" fill="#20A7DB"/>
<path d="M79.3721 48.2603C81.2189 47.6845 83.0669 47.1097 85.1347 46.4653C83.7018 47.868 81.7134 48.5472 79.3721 48.2603Z" fill="#20A7DB"/>
<path d="M120.1 42.0756C119.796 40.2888 119.807 38.4869 119.457 36.7114C120.693 38.3938 120.607 40.2201 120.1 42.0756Z" fill="#20A7DB"/>
<path d="M59.3086 51.5269C61.6613 51.5269 63.6104 51.5269 65.7536 51.5269C64.3537 52.4309 61.6851 52.4488 59.3086 51.5269Z" fill="#20A7DB"/>
<path d="M89.4844 6.01588C91.4345 5.95473 92.9593 6.78061 94.4758 8.02412C93.1916 8.02976 90.9741 7.1719 89.4844 6.01588Z" fill="#20A7DB"/>
<path d="M84.7711 48.7124C83.2815 50.1329 81.3819 50.513 79.248 50.6146C79.3946 50.3803 79.4318 50.2279 79.5144 50.2044C81.2632 49.6983 83.0182 49.2072 84.7711 48.7124Z" fill="#20A7DB"/>
<path d="M47.3044 21.5039C46.3309 22.875 45.0817 24.0083 43.624 24.9515C44.2021 23.2362 45.7104 22.3371 47.3044 21.5039Z" fill="#20A7DB"/>
<path d="M103.167 53.0887C104.977 52.7247 106.741 53.2458 108.716 53.0822C107.636 54.0003 105.509 53.9871 103.167 53.0887Z" fill="#20A7DB"/>
<path d="M21.2577 48.3594C19.5285 48.9351 17.7776 48.7762 15.6582 48.5579C17.0281 47.9991 18.8316 47.9201 21.2577 48.3594Z" fill="#20A7DB"/>
<path d="M28.2694 39.9288C28.4821 41.5218 28.8805 43.1196 27.7842 44.6854C27.7842 43.0961 27.7842 41.5068 27.7842 39.9175C27.9452 39.9212 28.1073 39.925 28.2694 39.9288Z" fill="#20A7DB"/>
<path d="M157.127 41.3656C158.531 40.5867 159.935 39.8077 161.338 39.0288C160.444 40.5744 159.017 41.3581 157.29 41.7155C157.236 41.5989 157.182 41.4822 157.127 41.3656Z" fill="#20A7DB"/>
<path d="M115.22 10.0391C117.167 10.0607 118.598 11.0371 119.923 12.2081C118.205 11.7792 116.732 10.8828 115.22 10.0391Z" fill="#20A7DB"/>
<path d="M75.0898 44.5277C75.0898 42.9045 75.0898 41.2814 75.0898 39.6582C75.7361 41.2588 76.0314 42.8697 75.4883 44.5098C75.3552 44.5155 75.223 44.5211 75.0898 44.5277Z" fill="#20A7DB"/>
<path d="M84.5557 21.2672C86.4366 20.4243 88.2257 20.8298 90.0034 21.5306C89.0887 21.8589 88.1699 21.604 87.2553 21.5268C86.3551 21.4507 85.4559 21.3547 84.5557 21.2672Z" fill="#20A7DB"/>
<path d="M169.886 29.7286C168.464 28.7672 167.043 27.8048 165.494 26.7578C167.195 26.9271 168.585 27.7851 169.886 29.7286Z" fill="#20A7DB"/>
<path d="M61.1746 31.1929C59.7654 32.3176 58.5751 33.2693 57.1123 34.4373C57.869 32.627 59.0996 31.6631 61.1746 31.1929Z" fill="#20A7DB"/>
<path d="M40.126 53.8209C38.2399 54.3223 36.6656 53.692 35.2822 52.5039C36.8968 52.9432 38.5114 53.3825 40.126 53.8209Z" fill="#20A7DB"/>
<path d="M152.636 36.0082C151.503 34.5674 151.361 33.4803 151.974 31.1255C152.493 32.9866 152.053 34.574 152.636 36.0082Z" fill="#20A7DB"/>
<path d="M93.4263 24.2568C91.7075 23.7074 89.9886 23.1581 88.1396 22.5682C89.9597 22.2587 91.6693 22.7554 93.4263 24.2568Z" fill="#20A7DB"/>
<path d="M30.5834 37.0609C28.8356 36.8634 27.3377 36.3262 25.7334 35.9443C27.0331 35.3084 29.0565 35.7627 30.5834 37.0609Z" fill="#20A7DB"/>
<path d="M161.642 23.3771C163.721 23.1795 165.164 24.0544 166.733 25.1965C165.517 25.1268 162.865 24.1598 161.642 23.3771Z" fill="#20A7DB"/>
<path d="M157.952 30.7324C158.673 32.207 159.119 33.7098 158.218 35.2399C157.888 33.7531 158.247 32.2362 157.952 30.7324Z" fill="#20A7DB"/>
<path d="M65.5937 7.34792C64.1308 7.77684 62.5906 7.57929 60.8604 8.06183C62.1436 6.93872 63.3752 6.76191 65.5937 7.34792Z" fill="#20A7DB"/>
<path d="M153.802 31.5542C154.767 33.1426 154.855 34.7601 153.98 36.3889C153.733 34.7874 154.097 33.1661 153.802 31.5542Z" fill="#20A7DB"/>
<path d="M150.729 36.6106C149.303 35.389 149.318 33.9022 149.614 32.1831C149.838 32.5414 149.641 32.2621 149.888 32.3016C149.933 32.3091 150.009 32.3345 150.011 32.3552C150.121 33.7893 150.413 35.2 150.729 36.6106Z" fill="#20A7DB"/>
<path d="M138.981 13.0562C140.796 13.1201 141.999 14.1963 143.095 15.4597C141.666 14.7814 140.237 14.1022 138.809 13.424C138.866 13.3017 138.923 13.1794 138.981 13.0562Z" fill="#20A7DB"/>
<path d="M77.2612 39.6953C78.181 41.5846 78.1975 42.6924 77.2705 44.2385C77.2674 43.5144 77.2633 42.7893 77.2612 42.0652C77.2602 41.2752 77.2612 40.4853 77.2612 39.6953Z" fill="#20A7DB"/>
<path d="M71.0436 44.6494C70.6813 43.2557 70.6885 41.9448 71.2522 40.4824C71.6434 42.4648 71.5732 43.8237 71.0436 44.6494Z" fill="#20A7DB"/>
<path d="M105.388 18.2855C104.15 17.2059 104.314 16.0615 105.222 14.8906C105.277 16.022 105.333 17.1533 105.388 18.2855Z" fill="#20A7DB"/>
<path d="M12.2718 48.3107C10.1307 48.6474 8.57288 48.0567 6.7002 47.3069C8.35299 47.2646 10.9008 47.7218 12.2718 48.3107Z" fill="#20A7DB"/>
<path d="M114.13 15.1274C114.51 16.5823 115.065 18.0221 114.358 19.5738C113.979 18.8826 114.128 18.1312 114.06 17.4042C113.992 16.6792 113.875 15.9588 113.779 15.2365C113.896 15.1999 114.013 15.1641 114.13 15.1274Z" fill="#20A7DB"/>
<path d="M111.532 19.5044C111.532 18.1539 111.532 16.8044 111.532 15.0693C112.351 16.763 112.385 18.105 111.949 19.4668C111.811 19.4799 111.672 19.4922 111.532 19.5044Z" fill="#20A7DB"/>
<path d="M146.221 17.8857C148.062 18.6494 148.819 19.7553 149.215 21.1405C148.156 20.2697 147.08 19.4111 146.221 17.8857Z" fill="#20A7DB"/>
<path d="M79.2471 39.999C80.2949 41.8075 80.3362 42.4799 79.6177 44.0128C79.4783 42.4977 79.3627 41.2488 79.2471 39.999Z" fill="#20A7DB"/>
<path d="M25.9089 44.4154C25.817 43.0584 26.0957 41.7484 26.2103 40.4224C26.6222 41.7888 26.9185 43.1468 25.9089 44.4154Z" fill="#20A7DB"/>
<path d="M87.6397 5.83229C86.0706 5.66674 84.8524 5.5379 83.4453 5.38928C84.9567 4.6048 85.8496 4.68661 87.6397 5.83229Z" fill="#20A7DB"/>
<path d="M43.5134 23.1099C42.6359 24.3841 41.7471 25.2559 40.7891 26.2321C40.9749 24.7584 41.5427 24.0841 43.5134 23.1099Z" fill="#20A7DB"/>
<path d="M109.378 51.5919C111.437 51.3144 113.11 51.0886 114.963 50.8384C113.739 51.8365 111.824 52.1065 109.378 51.5919Z" fill="#20A7DB"/>
<path d="M139.831 15.7266C138.549 15.5639 137.446 15.0362 136.254 14.4088C137.749 14.0429 138.385 14.2686 139.831 15.7266Z" fill="#20A7DB"/>
<path d="M151.977 41.8208C150.873 42.6383 149.629 42.6204 148.333 42.2884C149.49 41.7917 150.725 41.7559 151.977 41.8208Z" fill="#20A7DB"/>
<path d="M69.2432 44.977C68.4854 43.5682 68.472 42.9541 69.3495 41.3911C69.3495 41.9657 69.3619 42.5394 69.3464 43.114C69.3299 43.7017 69.5219 44.3074 69.2432 44.977Z" fill="#20A7DB"/>
<path d="M148.281 33.4971C148.552 34.5588 148.449 35.6958 149.256 36.6268C147.814 35.9892 147.611 35.377 148.281 33.4971Z" fill="#20A7DB"/>
<path d="M166.634 35.6433C167.737 35.1033 168.934 35.0007 170.437 34.7769C169.184 36.0506 167.909 35.8427 166.634 35.6433Z" fill="#20A7DB"/>
<path d="M153.61 41.1235C155.319 40.1997 156.795 39.751 158.3 39.3662C157.119 40.4734 155.623 40.8779 153.61 41.1235Z" fill="#20A7DB"/>
<path d="M66.6085 29.3516C65.2871 30.0251 63.848 30.2105 62.4141 30.4231C63.6064 29.3694 65.124 29.3807 66.6085 29.3516Z" fill="#20A7DB"/>
<path d="M160.035 34.5756C159.959 33.3248 159.884 32.074 159.809 30.8232C160.358 32.0279 160.797 33.242 160.035 34.5756Z" fill="#20A7DB"/>
<path d="M109.438 15.4243C109.872 16.6309 110.122 17.8459 109.595 19.1578C109.018 18.3114 109.014 18.2446 109.438 15.4243Z" fill="#20A7DB"/>
<path d="M94.8604 37.6106C96.3118 37.4629 97.4609 38.0452 98.8277 39.0979C97.1119 38.8815 96.0021 38.238 94.8604 37.6106Z" fill="#20A7DB"/>
<path d="M107.373 19.2225C106.646 17.9115 106.635 16.6185 107.111 15.2031C107.478 16.2997 107.628 18.0375 107.373 19.2225Z" fill="#20A7DB"/>
<path d="M125.616 27.7817C126.304 28.4346 127.467 28.3461 128.259 29.2257C126.817 29.1552 125.679 28.7497 124.515 28.3744C124.762 27.6923 125.347 28.0536 125.678 27.8344L125.616 27.7817Z" fill="#20A7DB"/>
<path d="M73.0844 40.9351C73.998 42.6636 73.9764 43.382 73.2847 44.55C73.0204 44.3384 73.0916 44.0497 73.0885 43.7883C73.0772 42.8375 73.0844 41.8868 73.0844 40.9351Z" fill="#20A7DB"/>
<path d="M125.079 34.6489C125.969 36.2495 126.363 37.9131 125.871 39.6886C125.608 38.0081 125.343 36.3285 125.079 34.6489Z" fill="#20A7DB"/>
<path d="M16.0526 47.3429C14.8375 47.753 13.6421 47.5705 12.459 47.1105C13.6565 46.9224 14.8489 46.9986 16.0526 47.3429Z" fill="#20A7DB"/>
<path d="M9.3883 46.7902C8.02559 46.936 6.82292 46.6341 5.5459 45.667C7.12746 45.7686 8.30329 46.1411 9.3883 46.7902Z" fill="#20A7DB"/>
<path d="M113.859 8.25457C115.359 7.92911 115.667 8.01001 117.238 9.15099C116.089 9.24693 115.365 9.05504 113.859 8.25457Z" fill="#20A7DB"/>
<path d="M124.055 27.3334C122.983 27.3334 121.913 27.3334 120.891 27.3334C121.677 26.6392 122.08 26.5959 124.055 27.3334Z" fill="#20A7DB"/>
<path d="M45.4141 54.5714C46.6395 54.4444 47.8648 54.3174 49.2296 54.1763C48.1157 55.0718 47.262 55.1951 45.4141 54.5714Z" fill="#20A7DB"/>
<path d="M23.9307 43.7974C23.9936 42.7175 24.0453 41.8351 24.1062 40.7993C24.8959 42.0194 24.8691 42.567 23.9307 43.7974Z" fill="#20A7DB"/>
<path d="M127.681 38.4219C127.421 37.2445 127.162 36.0671 126.901 34.8896C127.905 35.9251 128.295 37.078 127.681 38.4219Z" fill="#20A7DB"/>
<path d="M116.108 38.1548C116.264 39.493 116.855 40.7945 116.49 42.1788C115.734 40.8914 115.731 39.54 116.108 38.1548Z" fill="#20A7DB"/>
<path d="M116.551 16.3418C117.133 17.3456 117.312 18.3173 116.51 19.2797C116.22 18.2976 116.31 17.307 116.551 16.3418Z" fill="#20A7DB"/>
<path d="M155.951 31.2231C156.794 32.7325 156.785 34.2701 156.259 35.8312C155.844 35.0826 156.135 34.2795 156.074 33.5056C156.014 32.7466 155.991 31.9849 155.951 31.2231Z" fill="#20A7DB"/>
<path d="M40.1833 29.0845C40.0976 27.8644 41.0174 27.2905 41.9713 26.7393C41.8381 27.8183 40.9286 28.3987 40.1833 29.0845Z" fill="#20A7DB"/>
<path d="M118.076 37.5576C118.202 38.9062 118.59 40.2058 118.459 41.6391C117.586 40.5754 117.487 39.6153 118.076 37.5576Z" fill="#20A7DB"/>
<path d="M161.895 34.8303C161.726 33.2138 161.596 31.9668 161.465 30.7207C162.061 31.9329 162.773 33.1376 161.895 34.8303Z" fill="#20A7DB"/>
<path d="M136.85 39.5351C135.669 39.7251 134.795 39.1823 133.984 38.4918C135.106 38.4109 136.011 38.8596 136.85 39.5351Z" fill="#20A7DB"/>
<path d="M110.31 9.34443C111.359 8.81674 112.261 9.04153 113.283 9.82884C112.052 10.1468 111.205 9.63038 110.31 9.34443Z" fill="#20A7DB"/>
<path d="M48.8586 18.9795C48.0431 19.8252 47.3204 20.5138 46.2158 20.9334C46.6195 19.5571 47.082 19.2081 48.8586 18.9795Z" fill="#20A7DB"/>
<path d="M25.4521 34.8026C24.4455 35.0453 23.4328 35.1319 22.0928 34.9117C23.3946 34.2231 24.4135 34.2777 25.4521 34.8026Z" fill="#20A7DB"/>
<path d="M122.827 12.9161C121.937 12.4806 121.121 11.998 120.43 11.0903C121.889 11.191 122.435 11.9886 122.827 12.9161Z" fill="#20A7DB"/>
<path d="M136.627 12.9251C135.742 12.9975 134.901 12.8376 133.984 12.3993C135.316 12.0644 135.316 12.0644 136.627 12.9251Z" fill="#20A7DB"/>
<path d="M130.873 29.5372C129.902 29.3246 129.001 28.9925 128.012 28.1289C129.449 28.2343 130.224 28.7799 130.873 29.5372Z" fill="#20A7DB"/>
<path d="M40.1982 52.6899C41.4298 52.7003 42.392 52.9326 43.3841 53.2685C42.0523 53.6692 41.8221 53.6316 40.1982 52.6899Z" fill="#20A7DB"/>
<path d="M29.9099 50.7588C28.6091 50.5867 27.9061 50.1003 27.4209 49.2988C28.3129 49.5114 29.082 49.9028 29.9099 50.7588Z" fill="#20A7DB"/>
<path d="M174.023 34.8325C173.365 35.8673 173.365 35.8673 171.742 36.2069C172.394 35.3499 173.214 35.1006 174.023 34.8325Z" fill="#20A7DB"/>
<path d="M60.7596 10.0448C60.071 10.5735 59.2482 10.7513 58.0889 10.9432C58.9447 9.96114 59.8408 9.9743 60.7596 10.0448Z" fill="#20A7DB"/>
<path d="M120.223 28.3389C121.071 27.6812 121.877 27.8226 123.005 28.338C121.855 28.5952 121.031 28.4699 120.223 28.3389Z" fill="#20A7DB"/>
<path d="M141.943 42.6944C140.874 43.0048 139.977 42.6163 138.841 41.9691C140.158 41.8741 141.05 42.2146 141.943 42.6944Z" fill="#20A7DB"/>
<path d="M97.0068 10.0522C98.0815 10.341 98.5832 10.8217 99.1624 11.7059C98.0443 11.418 97.5292 10.9534 97.0068 10.0522Z" fill="#20A7DB"/>
<path d="M97.9169 50.1154C97.1013 50.3064 96.4324 50.0251 95.8408 49.4946C96.6388 49.3027 97.2954 49.6366 97.9169 50.1154Z" fill="#20A7DB"/>
<path d="M134.906 40.3213C135.829 40.4624 136.641 40.7757 137.542 41.422C136.203 41.628 135.542 40.976 134.906 40.3213Z" fill="#20A7DB"/>
<path d="M18.6367 47.247C19.4172 46.8171 20.2204 46.7672 21.2011 47.1031C20.305 47.802 19.4678 47.5161 18.6367 47.247Z" fill="#20A7DB"/>
<path d="M170.197 27.6149C171.283 27.6017 171.694 28.3571 172.2 29.0128C171.25 28.9009 170.685 28.3035 170.197 27.6149Z" fill="#20A7DB"/>
<path d="M22.8413 35.7243C22.1444 36.0545 21.4311 36.3292 20.3574 36.1806C21.2535 35.4901 21.9927 35.3715 22.8413 35.7243Z" fill="#20A7DB"/>
<path d="M103.478 17.4709C102.775 16.8406 102.739 16.1718 103.268 15.1699C103.788 16.0768 103.463 16.8049 103.478 17.4709Z" fill="#20A7DB"/>
<path d="M67.6743 42.1104C67.6021 42.9871 67.5298 43.8639 67.4493 44.8497C66.8969 43.6701 66.897 43.6701 67.6743 42.1104Z" fill="#20A7DB"/>
<path d="M56.8975 52.5228C57.711 52.44 58.4862 52.488 59.4102 53.0233C58.287 53.297 57.5664 52.9979 56.8975 52.5228Z" fill="#20A7DB"/>
<path d="M94.0977 23.0566C95.3778 23.3116 95.3829 23.3041 96.2315 24.0914C95.9053 24.2495 95.6421 24.0444 95.4067 23.9325C94.9834 23.7321 94.4745 23.6324 94.0977 23.0566Z" fill="#20A7DB"/>
<path d="M99.4297 38.166C100.189 38.3899 100.723 38.8038 101.164 39.4661C99.854 39.0174 99.854 39.0174 99.4297 38.166Z" fill="#20A7DB"/>
<path d="M120.871 50.5086C121.26 49.7861 121.868 49.4888 122.827 49.1182C122.372 50.2658 121.658 50.4794 120.871 50.5086Z" fill="#20A7DB"/>
<path d="M56.8828 9.65667C58.1918 8.64832 58.1939 8.6502 59.6165 8.72827C58.7916 9.26255 58.0865 9.60117 56.8828 9.65667Z" fill="#20A7DB"/>
<path d="M129.35 37.1494C128.742 36.3206 128.623 35.6169 128.243 34.6875C129.284 35.5718 129.284 35.5718 129.35 37.1494Z" fill="#20A7DB"/>
<path d="M114.68 40.5034C114.808 41.0848 114.936 41.6662 115.12 42.4987C114.168 41.7781 114.454 41.1365 114.219 40.5721C114.372 40.5495 114.525 40.5269 114.68 40.5034Z" fill="#20A7DB"/>
<path d="M63.1303 28.7553C62.4169 28.9886 61.7036 29.2219 60.9902 29.4561C61.4445 28.5935 62.2446 28.5361 63.025 28.4326C63.0601 28.5399 63.0952 28.6471 63.1303 28.7553Z" fill="#20A7DB"/>
<path d="M146.786 36.1659C146.24 35.3456 146.215 34.5582 146.786 33.7905C146.786 34.5826 146.786 35.3747 146.786 36.1659Z" fill="#20A7DB"/>
<path d="M29.6279 35.4529C30.6386 35.292 31.1506 35.6024 31.8867 36.1876C30.9328 36.1979 30.3743 36.0323 29.6279 35.4529Z" fill="#20A7DB"/>
<path d="M92.8758 37.635C92.0643 37.7065 91.5265 37.7986 90.8916 37.3998C91.5915 36.9924 92.1005 37.1401 92.8758 37.635Z" fill="#20A7DB"/>
<path d="M46.2533 40.5779C45.5523 40.5196 44.8514 40.4622 44.1504 40.4048C44.8792 39.7887 45.5771 40.0981 46.2781 40.2045C46.2708 40.3286 46.2626 40.4528 46.2533 40.5779Z" fill="#20A7DB"/>
<path d="M20.7893 43.3394C20.1678 42.4617 20.3041 41.8456 20.8213 40.8804C20.9772 41.8597 21.035 42.4806 20.7893 43.3394Z" fill="#20A7DB"/>
<path d="M71.8844 8.02318C70.9078 8.26304 70.3689 8.09466 69.5781 7.78708C70.4463 7.49266 70.9914 7.61401 71.8844 8.02318Z" fill="#20A7DB"/>
<path d="M138.33 26.8595C139.25 26.6196 139.847 27.0137 140.477 27.7221C139.475 27.7955 138.917 27.2884 138.33 26.8595Z" fill="#20A7DB"/>
<path d="M163.281 31.0132C163.648 31.6228 163.869 32.2531 163.61 33.0715C162.961 32.3622 163.468 31.6331 163.281 31.0132Z" fill="#20A7DB"/>
<path d="M164.646 31.3413C165.413 31.8992 165.101 32.6094 165.052 33.282C164.472 32.6979 164.708 31.9989 164.646 31.3413Z" fill="#20A7DB"/>
<path d="M59.786 30.4127C59.4329 30.9 59.022 31.2085 58.3727 31.2876C58.2023 30.8097 58.6659 30.7372 58.9146 30.5745C59.149 30.4202 59.4216 30.249 59.786 30.4127Z" fill="#20A7DB"/>
<path d="M74.8906 52.334C75.5358 51.7884 76.0892 51.6708 76.7468 51.668C76.1356 52.2992 76.1356 52.2992 74.8906 52.334Z" fill="#20A7DB"/>
<path d="M38.4885 42.4173C37.8846 42.327 37.2806 42.2367 36.6777 42.1455C37.3539 41.7795 37.9692 41.8059 38.4885 42.4173Z" fill="#20A7DB"/>
<path d="M29.6192 40.0649C30.1446 40.5927 30.2438 40.9935 29.8422 41.5833C29.4509 41.0414 29.6409 40.6237 29.6192 40.0649Z" fill="#20A7DB"/>
<path d="M65.7896 44.0604C65.3385 43.6361 65.3705 43.258 65.8124 42.8262C66.0539 43.2862 65.8588 43.686 65.7896 44.0604Z" fill="#20A7DB"/>
<path d="M85.7405 22.1998C85.0716 22.419 84.4263 22.4208 83.585 22.2327C84.4377 21.7021 85.1005 21.9674 85.7405 22.1998Z" fill="#20A7DB"/>
<path d="M113.05 41.52C113.421 41.933 113.522 42.3093 113.462 42.7843C112.705 42.5266 113.081 42.0233 113.05 41.52Z" fill="#20A7DB"/>
<path d="M141.292 29.3183C140.26 29.1772 139.804 28.8498 139.284 28.3079C140.132 28.2863 140.534 28.704 141.292 29.3183Z" fill="#20A7DB"/>
<path d="M118.379 18.6507C118.147 18.2358 118.207 17.9226 118.433 17.6385C118.461 17.6027 118.712 17.6385 118.734 17.6884C118.887 18.0261 118.801 18.3271 118.379 18.6507Z" fill="#20A7DB"/>
<path d="M93.7197 36.5899C94.3897 36.2665 94.8274 36.3816 95.547 36.5786C94.7779 36.935 94.3484 36.7313 93.7197 36.5899Z" fill="#20A7DB"/>
<path d="M43.145 54.64C42.9096 54.8837 42.6164 54.8347 42.3315 54.7538C42.0961 54.687 41.8855 54.5318 42.0404 54.2985C42.1828 54.0831 42.475 54.179 42.7042 54.2082C42.9674 54.2421 43.1202 54.3917 43.145 54.64Z" fill="#20A7DB"/>
<path d="M22.5559 43.4492C22.1802 42.6975 22.3288 42.1293 22.5993 41.3457C22.8481 42.1397 22.9028 42.7126 22.5559 43.4492Z" fill="#20A7DB"/>
<path d="M48.1378 41.9744C47.5886 42.1738 47.2551 41.9161 46.8711 41.7336C46.997 41.3337 47.3315 41.4984 47.572 41.5238C47.795 41.5464 48.0789 41.5576 48.1378 41.9744Z" fill="#20A7DB"/>
<path d="M144.47 16.2471C144.805 16.2527 145.007 16.4738 145.152 16.708C145.234 16.8425 145.133 17.0579 144.934 17.0626C144.597 17.0711 144.391 16.8378 144.245 16.5941C144.146 16.4277 144.253 16.2988 144.47 16.2471Z" fill="#20A7DB"/>
<path d="M109.938 53.4408C110.26 53.2009 110.374 53.0645 110.524 53.0155C110.908 52.8885 111.452 52.7051 111.54 53.2197C111.613 53.6515 111.023 53.5057 110.714 53.5659C110.56 53.596 110.379 53.517 109.938 53.4408Z" fill="#20A7DB"/>
<path d="M125.676 27.8349C126.048 27.2648 126.048 27.2648 127.031 27.7089C126.383 27.7437 126.001 27.7644 125.617 27.7832C125.615 27.7822 125.676 27.8349 125.676 27.8349Z" fill="#20A7DB"/>
<path d="M62.5469 9.23338C63.1322 8.91266 63.5741 8.80732 64.1543 9.11958C63.6783 9.41114 63.2489 9.42525 62.5469 9.23338Z" fill="#20A7DB"/>
<path d="M19.2184 42.6429C18.9066 42.2864 18.9551 41.9252 19.1575 41.5498C19.5983 41.8969 19.5074 42.2601 19.2184 42.6429Z" fill="#20A7DB"/>
<path d="M35.996 42.6421C35.6522 43.0117 35.262 42.9136 34.8232 42.8967C35.1598 42.2895 35.5975 42.5903 35.996 42.6421Z" fill="#20A7DB"/>
<path d="M153.243 42.8393C153.588 42.4527 153.975 42.4866 154.409 42.6578C154.066 42.9644 153.708 43.0877 153.243 42.8393Z" fill="#20A7DB"/>
<path d="M95.6085 8.69523C95.8656 8.75638 96.0081 8.90969 95.9595 9.14861C95.9471 9.20975 95.7841 9.28502 95.6911 9.28502C95.431 9.28314 95.2225 9.15613 95.2287 8.90875C95.2328 8.73661 95.4258 8.68677 95.6085 8.69523Z" fill="#20A7DB"/>
<path d="M47.95 53.3469C47.6196 53.6306 47.2975 53.5401 46.96 53.3553C47.2924 53.1197 47.6135 53.1385 47.95 53.3469Z" fill="#20A7DB"/>
<path d="M168.982 36.8946C168.909 36.858 168.755 36.826 168.738 36.7639C168.687 36.5711 168.846 36.4818 169.029 36.4761C169.126 36.4733 169.312 36.5514 169.309 36.5843C169.297 36.7451 169.196 36.8711 168.982 36.8946Z" fill="#20A7DB"/>
<path d="M65.9814 28.094C66.2767 27.7829 66.6205 27.8055 66.9746 27.9205C66.7299 28.4013 66.3066 27.9827 65.9814 28.094Z" fill="#20A7DB"/>
<path d="M101.87 15.7715C102.081 16.1299 102.052 16.3961 101.917 16.65C101.9 16.682 101.668 16.6792 101.641 16.6369C101.47 16.366 101.609 16.1261 101.87 15.7715Z" fill="#20A7DB"/>
<path d="M44.7385 41.1852C44.7612 41.4815 44.5414 41.4636 44.3948 41.4486C44.2461 41.4335 44.0035 41.3621 43.9839 41.2793C43.9405 41.0996 44.1264 40.9829 44.3184 41.0083C44.4732 41.03 44.6146 41.1297 44.7385 41.1852Z" fill="#20A7DB"/>
</svg>
