<svg width="36" height="36" viewBox="0 0 36 36" fill="none" xmlns="http://www.w3.org/2000/svg">
<g clip-path="url(#clip0_419_4547)">
<path d="M11.5869 21.2187C12.9736 21.427 14.6663 21.108 16.5153 20.9974C16.8604 21.0755 17.2054 21.1276 17.5635 21.1276C17.9281 21.1276 18.2861 21.0755 18.6442 20.9909C23.4554 21.2253 27.2054 22.5859 27.2054 12.7943C27.2054 6.14714 22.889 0.75 17.5635 0.75C12.238 0.75 7.92155 6.14714 7.92155 12.7943C7.92155 18.1393 8.94368 20.2161 10.6038 20.9388C10.9098 21.082 11.2419 21.1667 11.5869 21.2187ZM10.0505 9.03776C11.0596 10.4375 13.6768 10.138 15.9359 8.36719C16.5088 7.91797 17.0101 7.40365 17.4137 6.88281C17.4658 6.88932 17.5179 6.89583 17.57 6.90885C17.7913 6.94792 17.9932 7.02604 18.221 7.09766C18.4229 7.19531 18.6442 7.27344 18.8395 7.39714C19.0414 7.5013 19.2236 7.64453 19.4059 7.76823C19.5687 7.91146 19.751 8.04818 19.8877 8.20443C20.0309 8.34766 20.1676 8.50391 20.2717 8.65365C20.3889 8.79687 20.4736 8.94661 20.5582 9.07682C20.6428 9.20703 20.7144 9.32422 20.7535 9.42839C20.8512 9.63021 20.9097 9.7474 20.9097 9.7474C20.9097 9.7474 20.8902 9.6237 20.8512 9.39583C20.8381 9.27865 20.8056 9.14844 20.7665 8.99219C20.7274 8.83594 20.6818 8.65365 20.6038 8.47135C20.5387 8.28255 20.4475 8.08724 20.3434 7.87891C20.2457 7.67057 20.1025 7.46875 19.9657 7.2474C19.8029 7.04557 19.6532 6.82422 19.4579 6.62891C19.2756 6.42057 19.0542 6.24479 18.8394 6.05599C18.6376 5.91276 18.4228 5.75651 18.1949 5.63281C18.2926 5.43099 18.3706 5.22266 18.4357 5.02734C19.243 5.39193 20.0699 5.85417 20.7274 6.51172C23.1428 8.92708 22.1923 11.7331 24.0543 9.8776C24.3473 9.58463 24.5881 9.27865 24.777 8.97266C24.8421 8.97266 24.9072 8.96615 24.9592 8.97917C25.2132 9.04427 25.3759 9.23958 25.4671 9.39583C25.721 9.81901 25.7796 10.431 25.6233 11.043C25.3889 11.9544 24.79 12.4948 24.3082 12.5534L23.9176 12.6055L23.8135 12.9896C22.889 16.3424 20.3955 19.9102 17.5765 19.9102C14.7575 19.9102 12.2705 16.3424 11.3395 12.9896L11.2354 12.6055L10.8447 12.5534C10.3695 12.4883 9.764 11.9479 9.52962 11.043C9.37337 10.431 9.43197 9.81901 9.68587 9.39583C9.74447 9.27865 9.87467 9.12891 10.0505 9.03776ZM24.8096 22.0977C24.0544 23.3867 23.1755 24.474 22.0166 25.0729C19.6208 26.2968 17.837 27.2994 17.837 27.2994L17.8304 27.2929V27.2733L17.8109 27.2863L17.7913 27.2733V27.2929L17.7848 27.2994C17.7848 27.2994 16.0075 26.3098 13.6051 25.0729C12.4463 24.474 11.5739 23.3867 10.8122 22.0977C7.264 23.5429 4.79004 26.8502 4.79004 29.7473V35.7499H30.8317V29.7473C30.8317 26.8568 28.3512 23.543 24.8096 22.0977Z" fill="#20A7DB"/>
</g>
<defs>
<clipPath id="clip0_419_4547">
<rect width="35" height="35" fill="white" transform="translate(0.310547 0.75)"/>
</clipPath>
</defs>
</svg>
