<svg width="150" height="151" viewBox="0 0 150 151" fill="none" xmlns="http://www.w3.org/2000/svg">
<path d="M89.179 144.098H18.5874C11.6344 144.098 5.99805 138.462 5.99805 131.509V18.6875C5.99805 11.7345 11.6344 6.09814 18.5874 6.09814H89.179C96.1318 6.09814 101.768 11.7345 101.768 18.6875V131.509C101.768 138.462 96.1321 144.098 89.179 144.098Z" fill="url(#paint0_linear_1862_682)"/>
<path d="M5.99805 104.552V131.509C5.99805 138.462 11.6344 144.098 18.5874 144.098H89.179C96.1318 144.098 101.768 138.462 101.768 131.509V104.552H5.99805Z" fill="url(#paint1_linear_1862_682)"/>
<path d="M59.1377 109.71L92.9501 143.522C98.0602 141.92 101.768 137.147 101.768 131.509V109.71H59.1377Z" fill="url(#paint2_linear_1862_682)"/>
<path d="M94.6066 27.0632V123.134C94.6066 129.05 89.8104 133.847 83.8937 133.847H23.874C17.9576 133.847 13.1611 129.05 13.1611 123.134V27.0632C13.1611 21.1465 17.9573 16.3503 23.874 16.3503H34.0606C36.3722 16.3503 38.246 18.2242 38.246 20.5358C38.246 22.8474 40.1201 24.7215 42.4317 24.7215H65.336C67.6476 24.7215 69.5217 22.8477 69.5217 20.5358C69.5217 18.2242 71.3958 16.3503 73.7074 16.3503H83.894C89.8101 16.3503 94.6066 21.1465 94.6066 27.0632Z" fill="url(#paint3_linear_1862_682)"/>
<path d="M42.0219 107.755H26.3971C23.8749 107.755 21.8301 105.71 21.8301 103.188V98.537C21.8301 96.0148 23.8749 93.97 26.3971 93.97H42.0219C44.5441 93.97 46.5889 96.0148 46.5889 98.537V103.188C46.5889 105.71 44.5441 107.755 42.0219 107.755Z" fill="url(#paint4_linear_1862_682)"/>
<path d="M94.6066 81.9131V57.906L61.4219 24.7213H42.4317C40.1201 24.7213 38.246 22.8472 38.246 20.5356C38.246 18.2239 36.3722 16.3499 34.0606 16.3499H23.874C17.9576 16.3499 13.1611 21.1463 13.1611 27.0627V81.9131H94.6066Z" fill="url(#paint5_linear_1862_682)"/>
<path d="M94.6053 109.71H59.1377L83.2736 133.846H83.8922C89.8086 133.846 94.6051 129.049 94.6051 123.133L94.6053 109.71Z" fill="url(#paint6_linear_1862_682)"/>
<path d="M48.9929 19.2007H58.7736C59.0589 19.2039 59.3421 19.1505 59.6067 19.0435C59.8712 18.9365 60.1119 18.7781 60.3149 18.5774C60.5178 18.3767 60.6789 18.1378 60.7888 17.8745C60.8988 17.6111 60.9554 17.3286 60.9554 17.0432C60.9554 16.7578 60.8988 16.4752 60.7888 16.2119C60.6789 15.9485 60.5178 15.7096 60.3149 15.5089C60.1119 15.3083 59.8712 15.1499 59.6067 15.0429C59.3421 14.9359 59.0589 14.8824 58.7736 14.8856H48.9929C48.4249 14.892 47.8822 15.1221 47.4828 15.526C47.0834 15.93 46.8594 16.4751 46.8594 17.0432C46.8594 17.6112 47.0834 18.1564 47.4828 18.5603C47.8822 18.9642 48.4249 19.1943 48.9929 19.2007Z" fill="url(#paint7_linear_1862_682)"/>
<path d="M23.8595 123.227H33.0595C33.5977 123.227 34.1139 123.441 34.4945 123.822C34.8751 124.202 35.0889 124.719 35.0889 125.257C35.0889 125.795 34.8751 126.311 34.4945 126.692C34.1139 127.072 33.5977 127.286 33.0595 127.286H23.8595C23.3213 127.286 22.8051 127.072 22.4245 126.692C22.0439 126.311 21.8301 125.795 21.8301 125.257C21.8301 124.719 22.0439 124.202 22.4245 123.822C22.8051 123.441 23.3213 123.227 23.8595 123.227ZM40.0948 127.286C39.5566 127.286 39.0404 127.072 38.6598 126.692C38.2792 126.311 38.0654 125.795 38.0654 125.257C38.0654 124.719 38.2792 124.202 38.6598 123.822C39.0404 123.441 39.5566 123.227 40.0948 123.227H42.3948C42.933 123.227 43.4492 123.441 43.8298 123.822C44.2104 124.202 44.4242 124.719 44.4242 125.257C44.4242 125.795 44.2104 126.311 43.8298 126.692C43.4492 127.072 42.933 127.286 42.3948 127.286H40.0948ZM55.1993 117.726H23.8595C23.3213 117.726 22.8051 117.512 22.4245 117.131C22.0439 116.751 21.8301 116.234 21.8301 115.696C21.8301 115.158 22.0439 114.642 22.4245 114.261C22.8051 113.881 23.3213 113.667 23.8595 113.667H55.1993C55.7375 113.667 56.2537 113.881 56.6343 114.261C57.0149 114.642 57.2287 115.158 57.2287 115.696C57.2287 116.234 57.0149 116.751 56.6343 117.131C56.2537 117.512 55.7375 117.726 55.1993 117.726Z" fill="#678D98"/>
<path d="M119.818 111.488H64.3982C60.5145 111.488 57.0934 108.933 55.9905 105.21L42.2422 58.7896H141.975L128.226 105.21C127.123 108.934 123.702 111.488 119.818 111.488Z" fill="url(#paint8_linear_1862_682)"/>
<path d="M116.914 105.345C119.153 105.345 121.152 103.764 121.598 101.485L127.643 70.6299C128.151 68.0401 126.463 65.5293 123.873 65.0219C121.284 64.5137 118.772 66.2025 118.265 68.7923L112.22 99.6469C111.713 102.237 113.401 104.748 115.99 105.255C116.301 105.316 116.61 105.345 116.914 105.345Z" fill="url(#paint9_linear_1862_682)"/>
<path d="M67.3026 105.346C67.6073 105.346 67.9163 105.317 68.2267 105.256C70.8165 104.749 72.5047 102.238 71.9971 99.6479L65.9518 68.7933C65.4442 66.2037 62.934 64.5155 60.3439 65.0229C57.7541 65.5303 56.0659 68.041 56.5735 70.6308L62.6187 101.486C63.0652 103.765 65.064 105.346 67.3026 105.346Z" fill="url(#paint10_linear_1862_682)"/>
<path d="M99.5466 105.345C102.058 105.345 104.163 103.386 104.312 100.847L106.125 69.9922C106.28 67.3578 104.27 65.0967 101.636 64.942C99.004 64.7872 96.74 66.7974 96.5853 69.4318L94.772 100.287C94.6173 102.921 96.6275 105.182 99.2619 105.337C99.3572 105.343 99.4524 105.345 99.5466 105.345Z" fill="url(#paint11_linear_1862_682)"/>
<path d="M84.6692 105.345C84.7637 105.345 84.8584 105.342 84.9539 105.336C87.5883 105.182 89.5985 102.92 89.4437 100.286L87.6305 69.4313C87.4758 66.7968 85.2163 64.7848 82.5803 64.9414C79.9458 65.0962 77.9356 67.3575 78.0904 69.9917L79.9036 100.847C80.0527 103.386 82.1587 105.345 84.6692 105.345Z" fill="url(#paint12_linear_1862_682)"/>
<path d="M50.0459 85.1392L55.9902 105.21C57.0931 108.934 60.5141 111.489 64.3979 111.489H119.818C123.702 111.489 127.123 108.934 128.226 105.21L134.17 85.1392H50.0459Z" fill="url(#paint13_linear_1862_682)"/>
<path d="M141.977 58.7896L128.229 105.211C127.125 108.933 123.704 111.488 119.819 111.488H94.3131L42.5098 59.6852L42.5071 59.6879L42.2422 58.7896H141.977Z" fill="url(#paint14_linear_1862_682)"/>
<path d="M138.537 60.7011H45.6807C42.6648 60.7011 40.2197 58.256 40.2197 55.2401C40.2197 52.2241 42.6648 49.7791 45.6807 49.7791H138.537C141.553 49.7791 143.998 52.2241 143.998 55.2401C143.998 58.256 141.553 60.7011 138.537 60.7011Z" fill="url(#paint15_linear_1862_682)"/>
<path d="M92.1096 58.2313C91.6343 58.2319 91.1635 58.1386 90.7244 57.9567C90.2853 57.7748 89.8865 57.5079 89.5509 57.1714L57.757 25.3775C56.344 23.9643 56.344 21.6735 57.757 20.2604C59.17 18.8474 61.4611 18.8474 62.8741 20.2604L94.668 52.0546C96.081 53.4676 96.081 55.7586 94.668 57.1717C94.3323 57.5081 93.9335 57.7749 93.4945 57.9567C93.0554 58.1386 92.5848 58.2319 92.1096 58.2313Z" fill="url(#paint16_linear_1862_682)"/>
<defs>
<linearGradient id="paint0_linear_1862_682" x1="5.99805" y1="75.0981" x2="101.768" y2="75.0981" gradientUnits="userSpaceOnUse">
<stop stop-color="#5A5A5A"/>
<stop offset="1" stop-color="#444444"/>
</linearGradient>
<linearGradient id="paint1_linear_1862_682" x1="5.99805" y1="104.552" x2="101.768" y2="104.552" gradientUnits="userSpaceOnUse">
<stop stop-color="#433F43" stop-opacity="0"/>
<stop offset="1" stop-color="#1A1A1A"/>
</linearGradient>
<linearGradient id="paint2_linear_1862_682" x1="59.1377" y1="109.71" x2="101.768" y2="109.71" gradientUnits="userSpaceOnUse">
<stop stop-color="#433F43" stop-opacity="0"/>
<stop offset="1" stop-color="#1A1A1A"/>
</linearGradient>
<linearGradient id="paint3_linear_1862_682" x1="13.1611" y1="75.0983" x2="94.6066" y2="75.0983" gradientUnits="userSpaceOnUse">
<stop stop-color="#EAF6FF"/>
<stop offset="1" stop-color="#B3DAFE"/>
</linearGradient>
<linearGradient id="paint4_linear_1862_682" x1="21.7895" y1="88.4424" x2="42.3867" y2="109.04" gradientUnits="userSpaceOnUse">
<stop stop-color="#B3DAFE"/>
<stop offset="1" stop-color="#4FC123"/>
</linearGradient>
<linearGradient id="paint5_linear_1862_682" x1="13.1611" y1="16.3499" x2="94.6066" y2="16.3499" gradientUnits="userSpaceOnUse">
<stop stop-color="#D8ECFE" stop-opacity="0"/>
<stop offset="1" stop-color="#678D98"/>
</linearGradient>
<linearGradient id="paint6_linear_1862_682" x1="59.1377" y1="109.71" x2="94.6053" y2="109.71" gradientUnits="userSpaceOnUse">
<stop stop-color="#D8ECFE" stop-opacity="0"/>
<stop offset="1" stop-color="#678D98"/>
</linearGradient>
<linearGradient id="paint7_linear_1862_682" x1="46.8594" y1="14.8855" x2="60.9554" y2="14.8855" gradientUnits="userSpaceOnUse">
<stop stop-color="#433F43" stop-opacity="0"/>
<stop offset="1" stop-color="#1A1A1A"/>
</linearGradient>
<linearGradient id="paint8_linear_1862_682" x1="42.2422" y1="58.7896" x2="141.975" y2="58.7896" gradientUnits="userSpaceOnUse">
<stop stop-color="#8AC9FE"/>
<stop offset="1" stop-color="#814AA0"/>
</linearGradient>
<linearGradient id="paint9_linear_1862_682" x1="112.13" y1="64.9316" x2="127.734" y2="64.9316" gradientUnits="userSpaceOnUse">
<stop stop-color="#8AC9FE"/>
<stop offset="1" stop-color="#814AA0"/>
</linearGradient>
<linearGradient id="paint10_linear_1862_682" x1="56.4834" y1="64.9329" x2="72.0872" y2="64.9329" gradientUnits="userSpaceOnUse">
<stop stop-color="#8AC9FE"/>
<stop offset="1" stop-color="#814AA0"/>
</linearGradient>
<linearGradient id="paint11_linear_1862_682" x1="94.7637" y1="64.9336" x2="106.134" y2="64.9336" gradientUnits="userSpaceOnUse">
<stop stop-color="#8AC9FE"/>
<stop offset="1" stop-color="#814AA0"/>
</linearGradient>
<linearGradient id="paint12_linear_1862_682" x1="78.082" y1="64.9329" x2="89.4521" y2="64.9329" gradientUnits="userSpaceOnUse">
<stop stop-color="#8AC9FE"/>
<stop offset="1" stop-color="#814AA0"/>
</linearGradient>
<linearGradient id="paint13_linear_1862_682" x1="50.0459" y1="85.1392" x2="134.17" y2="85.1392" gradientUnits="userSpaceOnUse">
<stop stop-color="#5B3374" stop-opacity="0"/>
<stop offset="1" stop-color="#5B3374"/>
</linearGradient>
<linearGradient id="paint14_linear_1862_682" x1="42.2422" y1="58.7896" x2="141.977" y2="58.7896" gradientUnits="userSpaceOnUse">
<stop stop-color="#5B3374" stop-opacity="0"/>
<stop offset="1" stop-color="#5B3374"/>
</linearGradient>
<linearGradient id="paint15_linear_1862_682" x1="40.2197" y1="49.7791" x2="143.998" y2="49.7791" gradientUnits="userSpaceOnUse">
<stop stop-color="#8AC9FE"/>
<stop offset="1" stop-color="#814AA0"/>
</linearGradient>
<linearGradient id="paint16_linear_1862_682" x1="79.143" y1="35.5687" x2="71.8371" y2="43.4158" gradientUnits="userSpaceOnUse">
<stop stop-color="#FEE45A"/>
<stop offset="1" stop-color="#FEA613"/>
</linearGradient>
</defs>
</svg>
