<svg width="150" height="151" viewBox="0 0 150 151" fill="none" xmlns="http://www.w3.org/2000/svg">
<g clip-path="url(#clip0_1862_733)">
<path d="M144.948 58.9292L124.688 27.8066C124.2 27.0562 123.562 26.4144 122.815 25.9211C122.068 25.4278 121.228 25.0934 120.346 24.9389L109.637 23.063C86.72 19.0483 63.2795 19.0483 40.3625 23.063L29.6537 24.9389C28.7719 25.0934 27.9312 25.4278 27.1841 25.9211C26.437 26.4144 25.7995 27.0562 25.3111 27.8066L5.05164 58.9292C4.3013 60.0819 3.93439 61.4423 4.00332 62.816C4.07225 64.1897 4.57349 65.5065 5.43546 66.5783L69.9149 146.751C72.5269 149.998 77.4725 149.998 80.0843 146.751L144.564 66.5783C145.426 65.5065 145.927 64.1897 145.996 62.816C146.065 61.4423 145.698 60.0819 144.948 58.9292Z" fill="url(#paint0_linear_1862_733)"/>
<path d="M144.95 58.9295L124.69 27.8063C124.202 27.0561 123.564 26.4144 122.817 25.9211C122.07 25.4278 121.23 25.0935 120.348 24.9389L109.639 23.063C86.722 19.0483 63.2816 19.0483 40.3646 23.063L29.6555 24.9389C28.7737 25.0934 27.9332 25.4277 27.1862 25.921C26.4392 26.4143 25.8017 27.056 25.3134 27.8063L5.05341 58.9295C4.28898 60.1043 3.92376 61.4942 4.01194 62.893H145.991C146.08 61.4942 145.714 60.1042 144.95 58.9295Z" fill="url(#paint1_linear_1862_733)"/>
<path d="M123.094 26.1268C122.289 25.5312 121.354 25.1159 120.346 24.9394L109.637 23.0635C86.7201 19.0488 63.2796 19.0488 40.3626 23.0635L29.6535 24.9394C28.6462 25.1159 27.7109 25.5312 26.9053 26.1268L29.3444 62.8935L72.8467 148.821C74.2412 149.305 75.7579 149.305 77.1523 148.821L120.655 62.8932L123.094 26.1268Z" fill="url(#paint2_linear_1862_733)"/>
<path d="M120.659 62.8918L77.1562 148.818C78.2651 148.437 79.2851 147.748 80.0886 146.75L144.567 66.5785C145.546 65.3612 146.055 63.8325 146 62.2715C146.007 62.4782 146.004 62.685 145.991 62.8918H120.659Z" fill="url(#paint3_linear_1862_733)"/>
<path d="M75.0006 20.0513C67.7062 20.0513 29.3435 62.8916 29.3435 62.8916L26.9053 26.128C27.7162 25.523 28.6571 25.1156 29.6532 24.938L40.3623 23.0636C51.7995 21.0592 63.3891 20.0513 75.0006 20.0513Z" fill="url(#paint4_linear_1862_733)"/>
<path d="M29.3439 62.8918L72.8468 148.818C71.738 148.437 70.7177 147.748 69.9145 146.75L5.43565 66.5785C4.45691 65.3612 3.94844 63.8325 4.003 62.2715C3.99623 62.4782 3.99918 62.685 4.01212 62.8918H29.3439Z" fill="url(#paint5_linear_1862_733)"/>
<path d="M29.3438 62.8932L72.8464 148.821C74.2409 149.305 75.7575 149.305 77.152 148.821L120.655 62.8932C120.655 62.8932 82.2943 20.052 74.999 20.052C67.704 20.052 29.3438 62.8932 29.3438 62.8932Z" fill="url(#paint6_linear_1862_733)"/>
<path d="M80.0847 146.751L144.564 66.5788C145.426 65.5069 145.927 64.1901 145.996 62.8163C146.065 61.4425 145.698 60.0821 144.948 58.9294L124.689 27.8067C124.2 27.0564 123.563 26.4146 122.816 25.9213C122.069 25.4279 121.228 25.0936 120.346 24.9391L109.637 23.0632C98.2004 21.0595 86.6111 20.052 75 20.052V149.187C76.8894 149.187 78.7788 148.375 80.0847 146.751Z" fill="url(#paint7_linear_1862_733)"/>
<path d="M76.5827 92.4718L76.503 92.3718C75.9271 91.6507 75.0094 91.1565 73.9697 91.008L67.7227 90.1157C54.32 88.2062 40.7144 88.2062 27.3118 90.1157L24.668 90.4933L69.9136 146.751C72.5256 149.998 77.4712 149.998 80.083 146.751L102.726 118.597L76.5827 92.4718Z" fill="url(#paint8_linear_1862_733)"/>
<path d="M88.322 107.174L76.5037 92.3725C75.9279 91.6513 75.0102 91.1572 73.9705 91.0087L67.7234 90.1166C54.3208 88.2072 40.7152 88.2072 27.3126 90.1166L21.0655 91.0087C20.0258 91.1572 19.1082 91.651 18.5323 92.3725L6.71404 107.174C5.8161 108.298 5.90639 109.766 6.93815 110.812L44.552 148.94C46.0758 150.484 48.9605 150.484 50.4843 148.94L88.0982 110.811C89.1296 109.766 89.2199 108.298 88.322 107.174Z" fill="url(#paint9_linear_1862_733)"/>
<path d="M88.3227 107.173L76.5045 92.372C75.9286 91.6508 75.0113 91.157 73.9716 91.0085L67.7245 90.1161C54.3219 88.2067 40.7162 88.2067 27.3136 90.1161L21.0665 91.0085C20.0268 91.157 19.1095 91.6508 18.5336 92.372L6.71537 107.173C6.25772 107.746 6.05831 108.408 6.10802 109.058H88.931C88.9798 108.408 88.7804 107.746 88.3227 107.173Z" fill="url(#paint10_linear_1862_733)"/>
<path d="M75.575 91.5732C75.0838 91.2798 74.5388 91.0878 73.9721 91.0085L67.725 90.1161C54.3224 88.2067 40.7168 88.2067 27.3142 90.1161L21.0671 91.0085C20.5003 91.0877 19.9552 91.2797 19.4639 91.5732L20.8868 109.059L46.2639 149.924C47.0753 150.154 47.9642 150.154 48.7756 149.924L74.1527 109.059L75.575 91.5732Z" fill="url(#paint11_linear_1862_733)"/>
<path d="M74.1527 109.058L48.7754 149.922C49.4222 149.741 50.0175 149.414 50.486 148.939L88.0995 110.811C88.6848 110.218 88.9654 109.489 88.9354 108.763C88.9394 108.861 88.9376 108.96 88.9301 109.058L74.1527 109.058Z" fill="url(#paint12_linear_1862_733)"/>
<path d="M47.52 88.6836C43.265 88.6836 20.8862 109.057 20.8862 109.057L19.4639 91.5736C19.9333 91.2889 20.4789 91.0927 21.0668 91.0077L27.3139 90.1162C34.0069 89.1615 40.7593 88.6827 47.52 88.6836Z" fill="url(#paint13_linear_1862_733)"/>
<path d="M20.8844 109.058L46.2615 149.922C45.6147 149.741 45.0194 149.414 44.5509 148.939L6.93767 110.811C6.35237 110.218 6.07178 109.489 6.10178 108.763C6.09767 108.861 6.09943 108.96 6.10708 109.058L20.8844 109.058Z" fill="url(#paint14_linear_1862_733)"/>
<path d="M20.8848 109.058L46.2618 149.924C47.0733 150.154 47.9621 150.154 48.7736 149.924L74.1507 109.058C74.1507 109.058 51.7733 88.6836 47.5177 88.6836C43.2621 88.6836 20.8848 109.058 20.8848 109.058Z" fill="url(#paint15_linear_1862_733)"/>
<path d="M50.485 148.939L88.0988 110.811C89.1303 109.766 89.2206 108.298 88.3227 107.173L76.5044 92.372C75.9286 91.6508 75.0109 91.1567 73.9712 91.0082L67.7241 90.1161C61.0313 89.1617 54.2791 88.6832 47.5186 88.6841V150.098C48.6209 150.098 49.7233 149.712 50.485 148.939Z" fill="url(#paint16_linear_1862_733)"/>
<path d="M38.8849 39.7964C35.1574 42.227 31.9855 45.4177 29.577 49.1596C29.0358 50.0005 27.787 49.9981 27.2491 49.1555C24.8544 45.4049 21.6942 42.2027 17.9755 39.7587C17.1508 39.217 17.1532 37.9852 17.9797 37.4467C21.7071 35.0161 24.8789 31.8255 27.2873 28.0837C27.8285 27.2428 29.0773 27.2449 29.6152 28.0878C32.01 31.8384 35.1703 35.0406 38.8891 37.4846C39.7138 38.0261 39.7117 39.2575 38.8849 39.7964Z" fill="url(#paint17_linear_1862_733)"/>
<path d="M141.95 32.1091C138.223 34.5397 135.051 37.7305 132.642 41.4724C132.101 42.3132 130.852 42.3109 130.314 41.4682C127.92 37.7176 124.76 34.5154 121.041 32.0715C120.216 31.5297 120.219 30.2979 121.045 29.7594C124.773 27.329 127.944 24.1383 130.353 20.3965C130.894 19.5556 132.143 19.5576 132.681 20.4006C135.075 24.1512 138.236 27.3534 141.954 29.7973C142.779 30.3388 142.777 31.5703 141.95 32.1091Z" fill="url(#paint18_linear_1862_733)"/>
<path d="M134.949 125.278C131.222 127.708 128.05 130.899 125.641 134.641C125.1 135.482 123.851 135.48 123.314 134.637C120.919 130.886 117.759 127.684 114.04 125.24C113.215 124.698 113.218 123.467 114.044 122.928C117.772 120.498 120.943 117.307 123.352 113.565C123.893 112.724 125.142 112.726 125.68 113.569C128.074 117.32 131.235 120.522 134.954 122.966C135.778 123.508 135.776 124.739 134.949 125.278Z" fill="url(#paint19_linear_1862_733)"/>
<path d="M20.8694 21.7627C18.2334 23.4815 15.9903 25.7378 14.287 28.3839C13.9044 28.9786 13.0211 28.9768 12.6408 28.381C10.9474 25.7287 8.71259 23.4642 6.08288 21.736C5.49965 21.353 5.50141 20.4818 6.08582 20.101C8.72179 18.3822 10.9648 16.1259 12.6679 13.4798C13.0505 12.8851 13.9338 12.8865 14.3141 13.4827C16.0077 16.1349 18.2426 18.3994 20.8723 20.1277C21.4555 20.5107 21.4538 21.3818 20.8694 21.7627Z" fill="url(#paint20_linear_1862_733)"/>
<path d="M48.761 8.82609C46.125 10.5449 43.8819 12.8012 42.1786 15.4473C41.796 16.042 40.9127 16.0402 40.5324 15.4443C38.839 12.7921 36.6042 10.5276 33.9745 8.79932C33.3912 8.41638 33.393 7.5452 33.9774 7.16432C36.6134 5.4456 38.8564 3.18925 40.5595 0.543146C40.9421 -0.0515596 41.8254 -0.0497949 42.2057 0.546087C43.8992 3.19829 46.134 5.46275 48.7636 7.19109C49.3471 7.57403 49.3454 8.4452 48.761 8.82609Z" fill="url(#paint21_linear_1862_733)"/>
<path d="M115.857 13.8653C113.221 15.584 110.978 17.8403 109.275 20.4864C108.893 21.0811 108.009 21.0794 107.629 20.4835C105.936 17.8312 103.701 15.5668 101.071 13.8385C100.488 13.4556 100.49 12.5844 101.074 12.2035C103.71 10.4848 105.953 8.22843 107.656 5.58232C108.039 4.98761 108.922 4.98908 109.302 5.58526C110.996 8.23746 113.231 10.5019 115.86 12.2303C116.443 12.6135 116.442 13.4844 115.857 13.8653Z" fill="url(#paint22_linear_1862_733)"/>
</g>
<defs>
<linearGradient id="paint0_linear_1862_733" x1="49.079" y1="36.3154" x2="114.074" y2="104.921" gradientUnits="userSpaceOnUse">
<stop stop-color="#65E0DB"/>
<stop offset="1" stop-color="#119786"/>
</linearGradient>
<linearGradient id="paint1_linear_1862_733" x1="68.2564" y1="28.7736" x2="82.0125" y2="97.211" gradientUnits="userSpaceOnUse">
<stop stop-color="white" stop-opacity="0"/>
<stop offset="1" stop-color="white"/>
</linearGradient>
<linearGradient id="paint2_linear_1862_733" x1="61.7226" y1="69.7771" x2="125.345" y2="100.729" gradientUnits="userSpaceOnUse">
<stop stop-color="white" stop-opacity="0"/>
<stop offset="1" stop-color="white"/>
</linearGradient>
<linearGradient id="paint3_linear_1862_733" x1="94.1401" y1="87.5777" x2="116.838" y2="110.963" gradientUnits="userSpaceOnUse">
<stop stop-color="white" stop-opacity="0"/>
<stop offset="1" stop-color="white"/>
</linearGradient>
<linearGradient id="paint4_linear_1862_733" x1="50.9897" y1="26.0095" x2="51.9782" y2="104.605" gradientUnits="userSpaceOnUse">
<stop stop-color="white" stop-opacity="0"/>
<stop offset="1" stop-color="white"/>
</linearGradient>
<linearGradient id="paint5_linear_1862_733" x1="20.6412" y1="74.238" x2="78.2698" y2="135.068" gradientUnits="userSpaceOnUse">
<stop stop-color="white" stop-opacity="0"/>
<stop offset="1" stop-color="white"/>
</linearGradient>
<linearGradient id="paint6_linear_1862_733" x1="89.2279" y1="77.2767" x2="145.285" y2="47.7008" gradientUnits="userSpaceOnUse">
<stop stop-color="white" stop-opacity="0"/>
<stop offset="1" stop-color="white"/>
</linearGradient>
<linearGradient id="paint7_linear_1862_733" x1="92.7738" y1="64.8899" x2="29.065" y2="145.702" gradientUnits="userSpaceOnUse">
<stop stop-color="white" stop-opacity="0"/>
<stop offset="1" stop-color="white"/>
</linearGradient>
<linearGradient id="paint8_linear_1862_733" x1="102.614" y1="137.162" x2="50.6088" y2="106.24" gradientUnits="userSpaceOnUse">
<stop stop-color="#119786" stop-opacity="0"/>
<stop offset="0.371" stop-color="#0E8E7D" stop-opacity="0.371"/>
<stop offset="0.969" stop-color="#077666" stop-opacity="0.969"/>
<stop offset="1" stop-color="#077565"/>
</linearGradient>
<linearGradient id="paint9_linear_1862_733" x1="34.0582" y1="93.4955" x2="67.049" y2="128.319" gradientUnits="userSpaceOnUse">
<stop stop-color="#65E0DB"/>
<stop offset="1" stop-color="#119786"/>
</linearGradient>
<linearGradient id="paint10_linear_1862_733" x1="44.2074" y1="92.3417" x2="51.3163" y2="127.708" gradientUnits="userSpaceOnUse">
<stop stop-color="white" stop-opacity="0"/>
<stop offset="1" stop-color="white"/>
</linearGradient>
<linearGradient id="paint11_linear_1862_733" x1="41.5815" y1="111.332" x2="77.5968" y2="128.853" gradientUnits="userSpaceOnUse">
<stop stop-color="white" stop-opacity="0"/>
<stop offset="1" stop-color="white"/>
</linearGradient>
<linearGradient id="paint12_linear_1862_733" x1="61.0874" y1="121.339" x2="69.7036" y2="130.216" gradientUnits="userSpaceOnUse">
<stop stop-color="white" stop-opacity="0"/>
<stop offset="1" stop-color="white"/>
</linearGradient>
<linearGradient id="paint13_linear_1862_733" x1="33.5098" y1="91.5383" x2="33.9786" y2="128.809" gradientUnits="userSpaceOnUse">
<stop stop-color="white" stop-opacity="0"/>
<stop offset="1" stop-color="white"/>
</linearGradient>
<linearGradient id="paint14_linear_1862_733" x1="16.8574" y1="113.045" x2="46.9333" y2="144.792" gradientUnits="userSpaceOnUse">
<stop stop-color="white" stop-opacity="0"/>
<stop offset="1" stop-color="white"/>
</linearGradient>
<linearGradient id="paint15_linear_1862_733" x1="55.1859" y1="115.402" x2="87.2424" y2="98.4883" gradientUnits="userSpaceOnUse">
<stop stop-color="white" stop-opacity="0"/>
<stop offset="1" stop-color="white"/>
</linearGradient>
<linearGradient id="paint16_linear_1862_733" x1="59.515" y1="110.284" x2="27.5853" y2="150.786" gradientUnits="userSpaceOnUse">
<stop stop-color="white" stop-opacity="0"/>
<stop offset="1" stop-color="white"/>
</linearGradient>
<linearGradient id="paint17_linear_1862_733" x1="24.8826" y1="33.742" x2="36.6311" y2="49.4067" gradientUnits="userSpaceOnUse">
<stop stop-color="#FFD945"/>
<stop offset="0.304" stop-color="#FFCD3E"/>
<stop offset="0.856" stop-color="#FFAD2B"/>
<stop offset="1" stop-color="#FFA325"/>
</linearGradient>
<linearGradient id="paint18_linear_1862_733" x1="127.934" y1="25.8691" x2="139.682" y2="41.5338" gradientUnits="userSpaceOnUse">
<stop stop-color="#FFD945"/>
<stop offset="0.304" stop-color="#FFCD3E"/>
<stop offset="0.856" stop-color="#FFAD2B"/>
<stop offset="1" stop-color="#FFA325"/>
</linearGradient>
<linearGradient id="paint19_linear_1862_733" x1="121.1" y1="119.05" x2="132.849" y2="134.715" gradientUnits="userSpaceOnUse">
<stop stop-color="#FFD945"/>
<stop offset="0.304" stop-color="#FFCD3E"/>
<stop offset="0.856" stop-color="#FFAD2B"/>
<stop offset="1" stop-color="#FFA325"/>
</linearGradient>
<linearGradient id="paint20_linear_1862_733" x1="10.9558" y1="17.4924" x2="19.2638" y2="28.5701" gradientUnits="userSpaceOnUse">
<stop stop-color="#FFD945"/>
<stop offset="0.304" stop-color="#FFCD3E"/>
<stop offset="0.856" stop-color="#FFAD2B"/>
<stop offset="1" stop-color="#FFA325"/>
</linearGradient>
<linearGradient id="paint21_linear_1862_733" x1="38.8239" y1="4.50579" x2="47.1321" y2="15.5831" gradientUnits="userSpaceOnUse">
<stop stop-color="#FFD945"/>
<stop offset="0.304" stop-color="#FFCD3E"/>
<stop offset="0.856" stop-color="#FFAD2B"/>
<stop offset="1" stop-color="#FFA325"/>
</linearGradient>
<linearGradient id="paint22_linear_1862_733" x1="105.929" y1="9.42438" x2="114.237" y2="20.5017" gradientUnits="userSpaceOnUse">
<stop stop-color="#FFD945"/>
<stop offset="0.304" stop-color="#FFCD3E"/>
<stop offset="0.856" stop-color="#FFAD2B"/>
<stop offset="1" stop-color="#FFA325"/>
</linearGradient>
<clipPath id="clip0_1862_733">
<rect width="150" height="150" fill="white" transform="translate(0 0.0979004)"/>
</clipPath>
</defs>
</svg>
