<svg width="580" height="840" viewBox="0 0 580 840" fill="none" xmlns="http://www.w3.org/2000/svg">
<path fill-rule="evenodd" clip-rule="evenodd" d="M0 0H70C108.66 0 140 31.3401 140 70V140H0V0V0Z" fill="#0069AB"/>
<path fill-rule="evenodd" clip-rule="evenodd" d="M140 70C140 50.67 146.834 34.1709 160.503 20.5025C174.171 6.83417 190.67 0 210 0C229.33 0 245.829 6.83417 259.497 20.5025C273.166 34.1709 280 50.67 280 70C280 89.33 273.166 105.829 259.497 119.497C245.829 133.166 229.33 140 210 140C190.67 140 174.171 133.166 160.503 119.497C146.834 105.829 140 89.33 140 70V70Z" fill="#1B1464"/>
<path fill-rule="evenodd" clip-rule="evenodd" d="M0 140H140V210C140 248.66 108.66 280 70 280H0V140V140Z" fill="#1B1464"/>
<path fill-rule="evenodd" clip-rule="evenodd" d="M140 140H280V280H210C171.34 280 140 248.66 140 210V140V140Z" fill="#20A7DB"/>
<path fill-rule="evenodd" clip-rule="evenodd" d="M70 280V280C108.66 280 140 311.34 140 350V420H0V350C-7.62939e-06 311.34 31.3401 280 70 280V280Z" fill="#20A7DB"/>
<path fill-rule="evenodd" clip-rule="evenodd" d="M210 280H280V350C280 388.66 248.66 420 210 420H140V350C140 311.34 171.34 280 210 280Z" fill="#0069AB"/>
<path fill-rule="evenodd" clip-rule="evenodd" d="M580 0H510C471.34 0 440 31.3401 440 70V140H580V0V0Z" fill="#0069AB"/>
<path fill-rule="evenodd" clip-rule="evenodd" d="M440 70C440 50.67 433.166 34.1709 419.497 20.5025C405.829 6.83417 389.33 0 370 0C350.67 0 334.171 6.83417 320.503 20.5025C306.834 34.1709 300 50.67 300 70C300 89.33 306.834 105.829 320.503 119.497C334.171 133.166 350.67 140 370 140C389.33 140 405.829 133.166 419.497 119.497C433.166 105.829 440 89.33 440 70V70Z" fill="#1B1464"/>
<path fill-rule="evenodd" clip-rule="evenodd" d="M580 140H440V210C440 248.66 471.34 280 510 280H580V140V140Z" fill="#1B1464"/>
<path fill-rule="evenodd" clip-rule="evenodd" d="M440 140H300V280H370C408.66 280 440 248.66 440 210V140V140Z" fill="#20A7DB"/>
<path fill-rule="evenodd" clip-rule="evenodd" d="M510 280V280C471.34 280 440 311.34 440 350V420H580V350C580 311.34 548.66 280 510 280V280Z" fill="#20A7DB"/>
<path fill-rule="evenodd" clip-rule="evenodd" d="M370 280H300V350C300 388.66 331.34 420 370 420H440V350C440 311.34 408.66 280 370 280Z" fill="#0069AB"/>
<path fill-rule="evenodd" clip-rule="evenodd" d="M0 420H70C108.66 420 140 451.34 140 490V560H0V420V420Z" fill="#0069AB"/>
<path fill-rule="evenodd" clip-rule="evenodd" d="M140 490C140 470.67 146.834 454.171 160.503 440.503C174.171 426.834 190.67 420 210 420C229.33 420 245.829 426.834 259.497 440.503C273.166 454.171 280 470.67 280 490C280 509.33 273.166 525.829 259.497 539.497C245.829 553.166 229.33 560 210 560C190.67 560 174.171 553.166 160.503 539.497C146.834 525.829 140 509.33 140 490V490Z" fill="#1B1464"/>
<path fill-rule="evenodd" clip-rule="evenodd" d="M0 560H140V630C140 668.66 108.66 700 70 700H0V560V560Z" fill="#1B1464"/>
<path fill-rule="evenodd" clip-rule="evenodd" d="M140 560H280V700H210C171.34 700 140 668.66 140 630V560V560Z" fill="#20A7DB"/>
<path fill-rule="evenodd" clip-rule="evenodd" d="M70 700V700C108.66 700 140 731.34 140 770V840H0V770C-7.62939e-06 731.34 31.3401 700 70 700V700Z" fill="#20A7DB"/>
<path fill-rule="evenodd" clip-rule="evenodd" d="M210 700H280V770C280 808.66 248.66 840 210 840H140V770C140 731.34 171.34 700 210 700Z" fill="#0069AB"/>
<path fill-rule="evenodd" clip-rule="evenodd" d="M580 420H510C471.34 420 440 451.34 440 490V560H580V420V420Z" fill="#0069AB"/>
<path fill-rule="evenodd" clip-rule="evenodd" d="M440 490C440 470.67 433.166 454.171 419.497 440.503C405.829 426.834 389.33 420 370 420C350.67 420 334.171 426.834 320.503 440.503C306.834 454.171 300 470.67 300 490C300 509.33 306.834 525.829 320.503 539.497C334.171 553.166 350.67 560 370 560C389.33 560 405.829 553.166 419.497 539.497C433.166 525.829 440 509.33 440 490V490Z" fill="#1B1464"/>
<path fill-rule="evenodd" clip-rule="evenodd" d="M580 560H440V630C440 668.66 471.34 700 510 700H580V560V560Z" fill="#1B1464"/>
<path fill-rule="evenodd" clip-rule="evenodd" d="M440 560H300V700H370C408.66 700 440 668.66 440 630V560V560Z" fill="#20A7DB"/>
<path fill-rule="evenodd" clip-rule="evenodd" d="M510 700V700C471.34 700 440 731.34 440 770V840H580V770C580 731.34 548.66 700 510 700V700Z" fill="#20A7DB"/>
<path fill-rule="evenodd" clip-rule="evenodd" d="M370 700H300V770C300 808.66 331.34 840 370 840H440V770C440 731.34 408.66 700 370 700Z" fill="#0069AB"/>
</svg>
