<svg width="201" height="56" viewBox="0 0 201 56" fill="none" xmlns="http://www.w3.org/2000/svg">
<path d="M4.34072 11.967V4.96958H15.1569V11.967H22.2735V20.308H15.1569V31.1681C15.1569 33.034 15.8817 34.191 17.3314 34.6388C18.5928 35.0866 20.2402 35.1333 22.2735 34.7787V43.5396C20.2967 43.8381 18.1974 43.9874 15.9759 43.9874C11.8151 43.9874 8.84039 42.9798 7.05182 40.9645C5.24442 38.9492 4.34072 35.8144 4.34072 31.5599V20.308H0.5V11.967H4.34072Z" fill="#1B1464"/>
<path d="M26.8202 43.4836V11.967H37.1563L37.6646 15.4658C39.4156 12.7974 42.6726 11.4539 47.4359 11.4352V20.5039C40.9217 20.5039 37.6646 22.9111 37.6646 27.7253V43.4836H26.8202Z" fill="#1B1464"/>
<path d="M63.0812 11.4072C65.4157 11.4072 67.4397 11.7898 69.1529 12.5548C70.885 13.3012 72.137 14.3555 72.9089 15.7177L73.4173 11.967H83.7533V43.4836H73.4173L72.9089 39.7329C72.1747 41.1138 70.9509 42.1774 69.2376 42.9238C67.5244 43.6515 65.4722 44.0154 63.0812 44.0154C58.9392 44.0154 55.4751 42.4946 52.6886 39.453C49.9022 36.4488 48.509 32.5396 48.509 27.7253C48.509 22.9297 49.9022 19.0111 52.6886 15.9696C55.4751 12.928 58.9392 11.4072 63.0812 11.4072ZM61.302 32.9594C62.5823 34.2843 64.192 34.9467 66.1312 34.9467C68.0515 34.9467 69.6613 34.2843 70.9603 32.9594C72.2594 31.6532 72.9089 29.9085 72.9089 27.7253C72.9089 25.5421 72.2594 23.7881 70.9603 22.4632C69.6613 21.157 68.0515 20.5039 66.1312 20.5039C64.1732 20.5039 62.5634 21.157 61.302 22.4632C60.003 23.7881 59.3534 25.5421 59.3534 27.7253C59.3534 29.9085 60.003 31.6532 61.302 32.9594Z" fill="#1B1464"/>
<path d="M101.997 11.4072C104.331 11.4072 106.355 11.7898 108.068 12.5548C109.801 13.3012 111.053 14.3555 111.824 15.7177V0.491211H122.669V43.4836H112.333L111.824 39.7329C111.09 41.1138 109.866 42.1774 108.153 42.9238C106.44 43.6515 104.388 44.0154 101.997 44.0154C97.8548 44.0154 94.3906 42.4946 91.6042 39.453C88.8178 36.4488 87.4246 32.5396 87.4246 27.7253C87.4246 22.9297 88.8178 19.0111 91.6042 15.9696C94.3906 12.928 97.8548 11.4072 101.997 11.4072ZM105.047 34.9467C106.967 34.9467 108.577 34.2843 109.876 32.9594C111.175 31.6532 111.824 29.9085 111.824 27.7253C111.824 25.5421 111.175 23.7881 109.876 22.4632C108.577 21.157 106.967 20.5039 105.047 20.5039C103.089 20.5039 101.479 21.157 100.218 22.4632C98.9185 23.7881 98.269 25.5421 98.269 27.7253C98.269 29.9085 98.928 31.6532 100.246 32.9594C101.545 34.2843 103.145 34.9467 105.047 34.9467Z" fill="#1B1464"/>
<path d="M150.74 15.7177L151.248 11.967H161.585V41.2444C161.585 44.2859 160.831 46.9077 159.325 49.1095C157.819 51.2741 155.805 52.8788 153.282 53.9238C150.721 54.9687 147.812 55.4912 144.555 55.4912C137.947 55.4912 132.647 53.2893 128.656 48.8856L133.655 43.2037C136.008 45.7601 139.359 47.0383 143.708 47.0383C145.647 47.0383 147.304 46.4692 148.679 45.3309C150.053 44.1927 150.74 42.6719 150.74 40.7686V38.4454C149.347 41.0018 146.071 42.28 140.912 42.28C138.898 42.28 136.996 41.9161 135.208 41.1884C133.419 40.4607 131.866 39.4344 130.548 38.1095C129.23 36.7847 128.195 35.1613 127.442 33.2393C126.707 31.3173 126.34 29.2554 126.34 27.0536C126.34 22.5565 127.743 18.8152 130.548 15.8296C133.353 12.8814 136.808 11.4072 140.912 11.4072C143.247 11.4072 145.271 11.7898 146.984 12.5548C148.716 13.3012 149.968 14.3555 150.74 15.7177ZM143.962 33.6591C145.864 33.6591 147.474 33.034 148.792 31.7838C150.091 30.515 150.74 28.9382 150.74 27.0536C150.74 25.1689 150.091 23.6015 148.792 22.3513C147.474 21.1197 145.864 20.5039 143.962 20.5039C142.098 20.5039 140.498 21.1197 139.161 22.3513C137.844 23.6015 137.185 25.1689 137.185 27.0536C137.185 28.9569 137.844 30.5336 139.161 31.7838C140.479 33.034 142.08 33.6591 143.962 33.6591Z" fill="#20A7DB"/>
<path d="M189.599 42.8958C187.509 43.6049 185.269 43.9594 182.878 43.9594C180.487 43.9594 178.246 43.6049 176.157 42.8958C171.657 41.3657 168.503 38.6133 166.696 34.6388C165.736 32.5675 165.256 30.2631 165.256 27.7253C165.256 25.2062 165.736 22.8924 166.696 20.7838C168.485 16.8466 171.638 14.0943 176.157 12.5268C178.246 11.8178 180.487 11.4632 182.878 11.4632C185.269 11.4632 187.509 11.8178 189.599 12.5268C194.118 14.0943 197.281 16.8466 199.088 20.7838C200.029 22.9111 200.5 25.2249 200.5 27.7253C200.5 30.2444 200.029 32.5489 199.088 34.6388C197.262 38.6133 194.099 41.3657 189.599 42.8958ZM178.02 32.9594C179.32 34.2843 180.939 34.9467 182.878 34.9467C184.798 34.9467 186.408 34.2843 187.707 32.9594C189.006 31.6532 189.656 29.9085 189.656 27.7253C189.656 25.5421 189.006 23.7881 187.707 22.4632C186.408 21.157 184.798 20.5039 182.878 20.5039C180.939 20.5039 179.32 21.157 178.02 22.4632C176.721 23.7881 176.072 25.5421 176.072 27.7253C176.072 29.9085 176.721 31.6532 178.02 32.9594Z" fill="#20A7DB"/>
</svg>
