<svg width="100" height="100" viewBox="0 0 100 100" fill="none" xmlns="http://www.w3.org/2000/svg">
<circle cx="50" cy="50" r="50" fill="#1B1464"/>
<path d="M81.9972 68.1829C81.6131 69.1822 81.3668 70.2609 80.82 71.1598C79.4467 73.4176 77.3429 74.5423 74.7048 74.6635C74.4543 74.6761 74.2038 74.6635 73.8741 74.6635C73.8741 75.5039 73.8741 76.3025 73.8741 77.0969C73.8699 78.8446 72.7721 80.0738 71.19 80.0947C69.608 80.1157 68.4601 78.853 68.4475 77.0844C68.4434 76.3025 68.4475 75.5248 68.4475 74.7054H30.5537C30.5537 75.5499 30.5663 76.4112 30.5537 77.2642C30.5245 78.7234 29.6604 79.7853 28.3247 80.032C26.7051 80.3331 25.1982 79.1415 25.1397 77.4858C25.1063 76.5785 25.1356 75.667 25.1356 74.7639C24.2965 74.651 23.47 74.6134 22.6853 74.421C19.325 73.6015 17.025 70.6664 17.0125 67.2087C17 64.1147 17.0083 61.0207 17.0125 57.9267C17.0166 53.5115 20.2642 50.2545 24.6597 50.2503C36.7191 50.2503 48.7743 50.2503 60.8337 50.2503H61.6894C61.6894 50.0036 61.6894 49.782 61.6894 49.5604C61.6894 46.2741 61.6769 42.992 61.6978 39.7057C61.7061 38.3552 62.6746 37.2681 63.9853 37.0507C65.2417 36.8458 66.5316 37.6026 66.9323 38.836C67.0659 39.2499 67.1076 39.7098 67.1076 40.1488C67.1201 43.2637 67.116 46.3786 67.116 49.4935V50.2461C67.5709 50.2461 67.9675 50.2461 68.3599 50.2461C70.326 50.2461 72.2962 50.2461 74.2623 50.2461C78.2111 50.2461 81.1164 52.6335 81.897 56.5052C81.9137 56.5846 81.9638 56.6557 82.0013 56.7268V68.1703L81.9972 68.1829ZM33.2503 62.4883C33.2628 60.2389 31.4429 58.3992 29.2013 58.395C26.9848 58.3908 25.1564 60.1929 25.1314 62.4047C25.1063 64.6583 26.9138 66.5105 29.1512 66.5314C31.3969 66.5481 33.2419 64.7335 33.2545 62.4883H33.2503ZM69.8167 58.395C67.5751 58.395 65.7468 60.2221 65.7468 62.4674C65.7468 64.6875 67.5543 66.5105 69.7666 66.5272C72.0124 66.5439 73.8574 64.7251 73.8657 62.4841C73.8782 60.2347 72.0583 58.395 69.8125 58.3908L69.8167 58.395ZM38.681 62.4506C38.6768 64.7126 40.4843 66.5314 42.7342 66.5314C44.9674 66.5314 46.8124 64.675 46.7957 62.4423C46.779 60.2263 44.9632 58.4076 42.7551 58.395C40.501 58.3825 38.6852 60.1887 38.681 62.4506Z" fill="white"/>
<path d="M64.9288 20.4146C70.1592 20.5358 74.9387 22.7267 78.6538 27.167C79.5137 28.1955 79.4719 29.454 78.5619 30.2191C77.6478 30.9843 76.4205 30.8087 75.5481 29.7843C70.8104 24.2068 63.1339 22.8563 56.9853 26.5314C55.5577 27.3844 54.3471 28.4924 53.2451 29.7425C52.882 30.1564 52.3226 30.5035 51.7925 30.6456C50.9743 30.863 50.1687 30.3864 49.7638 29.6672C49.3422 28.9188 49.4173 28.0659 49.985 27.3509C51.5045 25.436 53.3328 23.8807 55.47 22.7058C58.2459 21.1797 61.2346 20.4355 64.9247 20.4187L64.9288 20.4146Z" fill="#20A7DB"/>
<path d="M55.3675 34.4342C55.5136 34.0662 55.6054 33.669 55.8058 33.3387C59.6294 26.9835 69.13 26.9793 72.9786 33.3178C73.6173 34.3714 73.371 35.6048 72.3984 36.2111C71.4341 36.8132 70.2111 36.5581 69.5849 35.5254C67.214 31.6203 61.4744 31.683 59.166 35.563C58.6609 36.4118 57.7343 36.7045 56.8577 36.4243C55.9811 36.1442 55.4342 35.3874 55.3633 34.43L55.3675 34.4342Z" fill="#20A7DB"/>
</svg>
