<svg width="150" height="151" viewBox="0 0 150 151" fill="none" xmlns="http://www.w3.org/2000/svg">
<circle cx="75" cy="75.5" r="75" fill="#F4F8FC"/>
<path d="M133.786 55.0957C133.708 54.8755 133.605 54.658 133.475 54.4513C129.605 46.9151 121.723 41.7334 112.633 41.7334H24.3487C18.6118 41.7334 13.96 46.3486 13.96 52.0404V95.8349C13.96 101.527 18.6118 106.142 24.3487 106.142H31.5957C32.8026 112.172 38.1796 116.733 44.6093 116.733C51.039 116.733 56.3998 112.172 57.623 106.142H92.4019C93.6088 112.172 98.9859 116.733 105.416 116.733C111.845 116.733 117.206 112.172 118.429 106.142H125.649C131.386 106.142 136.038 101.527 136.038 95.8349V64.965C136.038 61.4345 135.221 58.0973 133.792 55.0957H133.786ZM44.5931 111.581C40.1388 111.581 36.5289 107.986 36.5289 103.581C36.5289 99.1748 40.4176 95.3248 45.0748 95.5933C49.0825 95.8242 52.3596 99.0352 52.6492 103.006C52.9901 107.661 49.2449 111.581 44.5931 111.581ZM105.397 111.581C100.766 111.581 97.0348 107.696 97.3351 103.041C97.5922 99.054 100.872 95.8134 104.891 95.5691C109.572 95.2845 113.458 98.9842 113.472 103.554C113.458 108 109.835 111.581 105.394 111.581H105.397ZM130.837 87.4878H124.569C123.36 87.4878 122.253 88.2799 121.974 89.4478C121.574 91.1284 122.867 92.64 124.499 92.64H130.837V95.8483C130.837 98.6835 128.512 101.003 125.641 101.003H118.394C117.187 94.9731 111.81 90.4116 105.38 90.4116C98.9507 90.4116 93.5899 94.9731 92.3667 101.003H57.6068C56.3998 94.9731 51.0228 90.4116 44.5931 90.4116C38.1634 90.4116 32.8026 94.9731 31.5794 101.003H24.346C21.4775 101.003 19.1503 98.6969 19.1503 95.8483V52.0538C19.1503 49.2079 21.4748 46.899 24.346 46.899H112.619C112.819 46.899 113.017 46.9016 113.215 46.9097C119.322 47.1057 124.864 50.5261 127.971 55.7481L128.469 56.5857C129.884 58.9645 130.739 61.6466 130.829 64.4066C130.834 64.5972 130.837 64.7851 130.837 64.9784V87.4878Z" fill="#1B1464"/>
<path d="M66.8705 89.5633C67.3712 89.7029 67.8096 90.025 68.1911 90.5298C68.5727 91.048 68.7648 91.6655 68.7648 92.385C68.7648 93.3354 68.4265 94.0979 67.75 94.6805C67.0681 95.2631 66.2265 95.5531 65.2279 95.5531H58.8686V84.0863H64.8166C65.8314 84.0863 66.6757 84.3547 67.3468 84.8944C68.0179 85.4394 68.3535 86.1804 68.3535 87.1174C68.3535 87.7725 68.2182 88.3094 67.9503 88.7283C67.6824 89.1471 67.3225 89.4263 66.8705 89.5633ZM64.1211 86.6046H62.17V88.5967H64.1211C64.3782 88.5967 64.5974 88.5028 64.7787 88.3121C64.96 88.1215 65.0493 87.8852 65.0493 87.5953C65.0493 87.3053 64.96 87.0771 64.7787 86.8865C64.5974 86.6986 64.3809 86.6019 64.1211 86.6019V86.6046ZM62.17 93.0347H64.5325C64.7895 93.0347 65.0114 92.9381 65.1927 92.7474C65.3741 92.5568 65.4661 92.3179 65.4661 92.036C65.4661 91.7541 65.3768 91.5178 65.1955 91.3325C65.0141 91.1473 64.795 91.0533 64.5298 91.0533H62.1673V93.0374L62.17 93.0347Z" fill="#1B1464"/>
<path d="M76.6885 90.8009L76.6966 84.0835H79.9927V90.5942C79.9927 92.2426 79.5516 93.5018 78.6694 94.377C77.7818 95.2577 76.5694 95.698 75.027 95.698C73.4845 95.698 72.2667 95.2603 71.3764 94.3878C70.4888 93.5125 70.045 92.2507 70.045 90.5968V84.0862H73.3492V90.8036C73.3492 91.4103 73.4953 91.8802 73.7876 92.2104C74.0798 92.5406 74.4938 92.7071 75.0242 92.7071C75.5546 92.7071 75.966 92.5406 76.2528 92.2104C76.5397 91.8802 76.6831 91.4103 76.6831 90.8036L76.6885 90.8009Z" fill="#1B1464"/>
<path d="M90.5951 87.3375L87.299 87.5604C87.1962 86.8301 86.7849 86.4596 86.065 86.4489C85.6727 86.4489 85.3723 86.5267 85.1612 86.6851C84.9501 86.8435 84.8473 87.061 84.8473 87.3375C84.8473 87.6141 84.9988 87.8128 85.2992 87.9604C85.4805 88.0571 85.7809 88.1698 86.1949 88.3041C86.3925 88.3631 86.8038 88.4893 87.4289 88.6799C87.6698 88.7551 88.0162 88.8786 88.4681 89.0478C89.0797 89.2921 89.6073 89.5928 90.0484 89.9445C90.3651 90.2049 90.5951 90.5029 90.7331 90.8358C90.8738 91.1688 90.9469 91.5795 90.9577 92.0628C90.9469 93.2522 90.5193 94.1543 89.675 94.7664C88.8253 95.3839 87.6617 95.6953 86.1841 95.6953C84.7066 95.6953 83.5673 95.3839 82.7013 94.7583C81.8354 94.1462 81.3835 93.2414 81.3483 92.0467L84.6525 91.8238C84.6903 92.2293 84.8419 92.538 85.1125 92.7528C85.3804 92.9649 85.7349 93.0723 86.176 93.0723C86.6171 93.0723 86.9743 92.9917 87.2314 92.828C87.4885 92.6642 87.6211 92.436 87.6265 92.1353C87.6048 91.7406 87.2828 91.4077 86.6604 91.1365C86.3816 91.0184 85.9676 90.8761 85.4183 90.7043C85.0205 90.5862 84.7499 90.5029 84.6037 90.4573C84.3034 90.3553 84.0679 90.2747 83.9029 90.2103C83.6458 90.119 83.432 90.0304 83.2669 89.9472C82.7988 89.719 82.4795 89.5095 82.309 89.3243C82.0194 89.0263 81.8273 88.739 81.7353 88.4598C81.6054 88.0651 81.5431 87.649 81.5431 87.2114C81.5431 86.4865 81.7461 85.8743 82.1547 85.3723C82.5633 84.8702 83.0991 84.5051 83.7676 84.2769C84.4278 84.054 85.1964 83.9413 86.0732 83.9413C87.3992 83.9413 88.4762 84.2285 89.2988 84.8058C90.1161 85.3911 90.5491 86.2368 90.5978 87.3402L90.5951 87.3375Z" fill="#1B1464"/>
<path d="M24.8994 54.4868H39.3933V58.7328H34.8329V73.2813H29.4731V58.7328H24.8994V54.4868Z" fill="#1B1464"/>
<path d="M41.1352 73.2813V58.5236H45.9313L46.1669 60.1621C46.9794 58.9134 48.49 58.2835 50.7009 58.2747V62.5208C47.6775 62.5208 46.1669 63.6483 46.1669 65.9013V73.2791H41.1352V73.2813Z" fill="#1B1464"/>
<path d="M57.9743 58.2615C59.0577 58.2615 59.998 58.4377 60.7973 58.7923C61.5966 59.1469 62.1758 59.6424 62.5347 60.2788L62.7703 58.5236H67.5664V73.2813H62.7703L62.5347 71.5261C62.1934 72.1735 61.6253 72.6691 60.8303 73.0126C60.0354 73.3584 59.0819 73.5302 57.9743 73.5302C56.0519 73.5302 54.4444 72.8188 53.1518 71.3939C51.8592 69.9867 51.2118 68.1565 51.2118 65.9036C51.2118 63.6506 51.8592 61.8227 53.1518 60.4C54.4444 58.9751 56.0519 58.2637 57.9743 58.2637V58.2615ZM57.1485 68.3525C57.7431 68.9736 58.4896 69.2841 59.3902 69.2841C60.2908 69.2841 61.0285 68.9736 61.6319 68.3525C62.2352 67.7403 62.5369 66.9232 62.5369 65.9014C62.5369 64.8795 62.2352 64.058 61.6319 63.437C61.0285 62.8247 60.282 62.5186 59.3902 62.5186C58.4984 62.5186 57.7343 62.8247 57.1485 63.437C56.5452 64.058 56.2435 64.8795 56.2435 65.9014C56.2435 66.9232 56.5452 67.7403 57.1485 68.3525Z" fill="#1B1464"/>
<path d="M76.0331 58.2615C77.1165 58.2615 78.059 58.4377 78.8562 58.7922C79.6555 59.1468 80.2346 59.6423 80.5936 60.2788V53.1499H85.6252V73.2813H80.8292L80.5936 71.526C80.2523 72.1735 79.6841 72.669 78.8892 73.0126C78.0943 73.3583 77.1408 73.5301 76.0331 73.5301C74.1108 73.5301 72.5033 72.8188 71.2107 71.3939C69.9181 69.9866 69.2707 68.1565 69.2707 65.9035C69.2707 63.6505 69.9181 61.8226 71.2107 60.3999C72.5033 58.975 74.1108 58.2637 76.0331 58.2637V58.2615ZM77.4491 69.2841C78.3409 69.2841 79.0874 68.9735 79.6907 68.3525C80.2941 67.7402 80.5958 66.9232 80.5958 65.9013C80.5958 64.8794 80.2941 64.058 79.6907 63.4369C79.0874 62.8247 78.3409 62.5186 77.4491 62.5186C76.5572 62.5186 75.7931 62.8247 75.2074 63.4369C74.604 64.058 74.3023 64.8794 74.3023 65.9013C74.3023 66.9232 74.6084 67.7402 75.2206 68.3525C75.8239 68.9735 76.566 69.2841 77.4491 69.2841Z" fill="#1B1464"/>
<path d="M96.9349 65.8375V62.7322H107.485V63.8863C107.485 65.7824 107.049 67.4606 106.175 68.9186C105.309 70.3787 104.114 71.5129 102.583 72.3255C101.081 73.1206 99.3858 73.5192 97.4986 73.5192C95.6115 73.5192 93.9159 73.1228 92.4141 72.3255C90.9035 71.5217 89.71 70.3853 88.8358 68.9186C87.9528 67.4408 87.5124 65.7648 87.5124 63.8863C87.5124 62.0077 87.9528 60.3251 88.8358 58.8408C89.71 57.3828 90.9013 56.2508 92.4141 55.447C93.9159 54.652 95.6115 54.2533 97.4986 54.2533C99.4981 54.2533 101.295 54.7114 102.885 55.6298C104.466 56.5482 105.651 57.8101 106.437 59.4178L101.694 61.6465C101.308 60.8691 100.742 60.2612 99.9958 59.8252C99.2493 59.3891 98.4169 59.1689 97.4986 59.1689C96.162 59.1689 95.0434 59.605 94.1449 60.4793C93.2355 61.3624 92.7819 62.4988 92.7819 63.8863C92.7819 65.2737 93.2399 66.4079 94.1581 67.28C95.0676 68.172 96.1796 68.6168 97.4986 68.6168C98.3816 68.6168 99.1986 68.3504 99.9495 67.8174C100.709 67.2844 101.295 66.6237 101.705 65.8375H96.9349Z" fill="#20A7DB"/>
<path d="M120.05 73.006C119.081 73.3385 118.039 73.5037 116.931 73.5037C115.824 73.5037 114.782 73.3385 113.813 73.006C111.726 72.2902 110.261 71.0019 109.423 69.1387C108.978 68.1697 108.753 67.0905 108.753 65.9013C108.753 64.712 108.975 63.6373 109.423 62.6507C110.253 60.8073 111.715 59.519 113.813 58.7834C114.782 58.4509 115.822 58.2857 116.931 58.2857C118.041 58.2857 119.081 58.4509 120.05 58.7834C122.146 59.5168 123.615 60.8073 124.454 62.6507C124.89 63.6461 125.11 64.7297 125.11 65.9013C125.11 67.0729 124.892 68.1609 124.454 69.1387C123.606 70.9997 122.139 72.288 120.05 73.006ZM114.677 68.3525C115.28 68.9735 116.031 69.284 116.931 69.284C117.832 69.284 118.57 68.9735 119.173 68.3525C119.777 67.7402 120.078 66.9232 120.078 65.9013C120.078 64.8794 119.777 64.058 119.173 63.4369C118.57 62.8247 117.823 62.5185 116.931 62.5185C116.04 62.5185 115.28 62.8247 114.677 63.4369C114.073 64.058 113.772 64.8794 113.772 65.9013C113.772 66.9232 114.073 67.7402 114.677 68.3525Z" fill="#20A7DB"/>
<path d="M44.6951 95.2309C40.125 95.2309 36.4202 98.9362 36.4202 103.507C36.4202 108.077 40.125 111.783 44.6951 111.783C49.2651 111.783 52.9699 108.077 52.9699 103.507C52.9699 98.9362 49.2651 95.2309 44.6951 95.2309ZM42.2074 105.876L40.9705 108.019C40.4456 107.587 39.9879 107.055 39.6283 106.432C39.2688 105.81 39.0375 105.147 38.9255 104.477H41.418C41.7373 104.492 42.0072 104.663 42.1787 104.96C42.3318 105.225 42.3421 105.582 42.2074 105.876ZM42.1787 102.054C42.0257 102.319 41.7217 102.506 41.3994 102.537H38.9255C39.0375 101.866 39.2688 101.204 39.6284 100.581C39.9879 99.9583 40.4456 99.4269 40.9705 98.9945L42.2168 101.153C42.3634 101.437 42.3502 101.757 42.1787 102.054ZM44.6951 109.358C43.976 109.358 43.287 109.227 42.6501 108.989L43.8964 106.83C44.069 106.561 44.3522 106.413 44.6951 106.413C45.0012 106.413 45.3155 106.582 45.5031 106.846L46.7401 108.989C46.1032 109.227 45.4141 109.358 44.6951 109.358ZM43.2405 103.507C43.2405 102.705 43.893 102.052 44.6951 102.052C45.4971 102.052 46.1496 102.705 46.1496 103.507C46.1496 104.309 45.4971 104.962 44.6951 104.962C43.893 104.962 43.2405 104.309 43.2405 103.507ZM45.4938 100.184C45.3212 100.453 45.038 100.601 44.6951 100.601C44.389 100.601 44.0746 100.431 43.887 100.167L42.6501 98.0247C43.287 97.7862 43.976 97.6555 44.6951 97.6555C45.4141 97.6555 46.1032 97.7862 46.7401 98.0247L45.4938 100.184ZM49.7618 106.432C49.4023 107.055 48.9446 107.587 48.4197 108.019L47.1734 105.86C47.0267 105.576 47.0399 105.257 47.2114 104.96C47.3645 104.695 47.6685 104.507 47.9908 104.477H50.4646C50.3527 105.147 50.1214 105.81 49.7618 106.432ZM47.9721 102.537C47.6528 102.522 47.3829 102.351 47.2114 102.054C47.0584 101.789 47.0481 101.432 47.1827 101.137L48.4197 98.9945C48.9446 99.4269 49.4023 99.9584 49.7618 100.581C50.1214 101.204 50.3527 101.866 50.4647 102.537H47.9721Z" fill="#20A7DB"/>
<path d="M44.6951 103.022C44.4277 103.022 44.2102 103.239 44.2102 103.507C44.2102 103.774 44.4277 103.992 44.6951 103.992C44.9624 103.992 45.1799 103.774 45.1799 103.507C45.1799 103.239 44.9624 103.022 44.6951 103.022Z" fill="#20A7DB"/>
<path d="M105.5 95.2309C100.93 95.2309 97.2255 98.9362 97.2255 103.507C97.2255 108.077 100.93 111.783 105.5 111.783C110.07 111.783 113.775 108.077 113.775 103.507C113.775 98.9362 110.07 95.2309 105.5 95.2309ZM103.013 105.876L101.776 108.019C101.251 107.587 100.793 107.055 100.434 106.432C100.074 105.81 99.8428 105.147 99.7308 104.477H102.223C102.543 104.492 102.813 104.663 102.984 104.96C103.137 105.225 103.147 105.582 103.013 105.876ZM102.984 102.054C102.831 102.319 102.527 102.506 102.205 102.537H99.7308C99.8428 101.866 100.074 101.204 100.434 100.581C100.793 99.9583 101.251 99.4269 101.776 98.9945L103.022 101.153C103.169 101.437 103.155 101.757 102.984 102.054ZM105.5 109.358C104.781 109.358 104.092 109.227 103.455 108.989L104.702 106.83C104.874 106.561 105.157 106.413 105.5 106.413C105.806 106.413 106.121 106.582 106.308 106.846L107.545 108.989C106.908 109.227 106.219 109.358 105.5 109.358ZM104.046 103.507C104.046 102.705 104.698 102.052 105.5 102.052C106.302 102.052 106.955 102.705 106.955 103.507C106.955 104.309 106.302 104.962 105.5 104.962C104.698 104.962 104.046 104.309 104.046 103.507ZM106.299 100.184C106.126 100.453 105.843 100.601 105.5 100.601C105.194 100.601 104.88 100.431 104.692 100.167L103.455 98.0247C104.092 97.7862 104.781 97.6555 105.5 97.6555C106.219 97.6555 106.908 97.7862 107.545 98.0247L106.299 100.184ZM110.567 106.432C110.208 107.055 109.75 107.587 109.225 108.019L107.979 105.86C107.832 105.576 107.845 105.257 108.017 104.96C108.17 104.695 108.474 104.507 108.796 104.477H111.27C111.158 105.147 110.927 105.81 110.567 106.432ZM108.777 102.537C108.458 102.522 108.188 102.351 108.017 102.054C107.864 101.789 107.853 101.432 107.988 101.137L109.225 98.9945C109.75 99.4269 110.208 99.9584 110.567 100.581C110.927 101.204 111.158 101.866 111.27 102.537H108.777Z" fill="#20A7DB"/>
<path d="M105.5 103.022C105.233 103.022 105.016 103.239 105.016 103.507C105.016 103.774 105.233 103.992 105.5 103.992C105.768 103.992 105.985 103.774 105.985 103.507C105.985 103.239 105.768 103.022 105.5 103.022Z" fill="#20A7DB"/>
</svg>
