<svg width="100" height="100" viewBox="0 0 100 100" fill="none" xmlns="http://www.w3.org/2000/svg">
<circle cx="50" cy="50" r="50" fill="#1B1464"/>
<path d="M47.0586 84.0751C45.7602 83.5558 45.4343 82.5834 45.5392 81.2464C46.042 74.8595 46.4785 68.4671 46.9426 62.0747C47.0973 59.9476 47.263 57.826 47.4288 55.6215C47.1138 55.6215 46.8542 55.6215 46.5945 55.6215C42.0972 55.6215 37.6054 55.6215 33.108 55.6215C31.8539 55.6215 30.9478 55.0469 30.8483 54.0027C30.7931 53.4336 30.9864 52.7651 31.2682 52.2457C33.5721 48.0302 35.9202 43.8422 38.2573 39.6488C42.4342 32.1514 46.6111 24.6595 50.7769 17.1566C51.2244 16.3499 51.7825 15.7256 52.7659 15.7146C53.9759 15.698 54.8488 16.7367 54.7494 18.0572C54.2024 25.5104 53.6444 32.9691 53.0974 40.4223C53.009 41.6378 52.9317 42.8533 52.8433 44.1572C53.1416 44.1572 53.4013 44.1572 53.6609 44.1572C58.1583 44.1572 62.6501 44.1572 67.1474 44.1572C67.8657 44.1572 68.5176 44.3063 69.0038 44.8809C69.6116 45.5992 69.6447 46.4003 69.0812 47.4224C67.2911 50.649 65.4899 53.8701 63.6998 57.0967C58.987 65.5665 54.2687 74.0307 49.5614 82.5061C49.1581 83.2298 48.6719 83.821 47.8597 84.0807H47.0586V84.0751Z" fill="#20A7DB"/>
<path d="M43.4786 22.0176C42.5615 23.664 41.6775 25.2773 40.7603 26.8685C40.6554 27.0564 40.3901 27.1724 40.1747 27.2718C34.2243 29.9791 29.9258 34.3162 27.3567 40.3274C25.6329 44.3606 25.0583 48.5762 25.6329 52.9299C26.5169 59.6924 29.6717 65.1787 35.0033 69.4164C36.9481 70.9634 39.1028 72.1623 41.4399 72.9966C41.9758 73.19 42.1471 73.433 42.0753 74.0021C41.9427 75.0795 41.8929 76.1679 41.8101 77.2563C32.937 75.0629 21.9864 65.571 21.4505 50.9243C20.9091 36.0897 31.5225 24.6254 43.4731 22.0231L43.4786 22.0176Z" fill="white"/>
<path d="M56.7663 77.7761C57.6889 76.1242 58.5564 74.544 59.4514 72.986C59.573 72.7815 59.8326 72.6213 60.0592 72.5163C65.446 70.0853 69.5124 66.251 72.1865 60.9802C74.4517 56.516 75.2639 51.7756 74.612 46.8086C73.7224 40.0184 70.529 34.5266 65.1642 30.3C63.2857 28.8193 61.2028 27.6811 58.9652 26.8247C58.7 26.7198 58.4348 26.6093 58.142 26.4932C58.2414 25.1451 58.3409 23.8247 58.4403 22.4932C68.3466 25.1562 78.6728 35.2172 78.8165 49.6374C78.9601 63.7924 68.9378 75.0081 56.7607 77.7761H56.7663Z" fill="white"/>
</svg>
