<svg width="100" height="100" viewBox="0 0 100 100" fill="none" xmlns="http://www.w3.org/2000/svg">
<circle cx="50" cy="50" r="50" fill="#1B1464"/>
<path d="M37.3931 87.057C35.9171 86.4127 35.0502 85.3584 35.1674 83.6715C35.2435 82.6114 35.7882 81.8089 36.5614 81.2994C35.4309 80.6961 34.2126 80.2216 33.2052 79.466C31.1142 77.908 30.0774 75.7233 30.013 73.111C29.9837 71.9337 30.013 70.7505 30.013 69.5205H69.5317C69.7601 73.0641 69.8128 76.5491 66.7905 79.1849C65.6835 80.1513 64.4125 80.7781 62.9189 81.1236C63.0302 81.2466 63.0946 81.3521 63.1942 81.4282C65.2676 83.0155 64.6058 86.2604 62.3566 86.934C62.298 86.9516 62.257 87.016 62.2043 87.057H37.3931Z" fill="white"/>
<path d="M30.0542 42.8237H69.5436V66.6274H30.0542V42.8237Z" fill="#20A7DB"/>
<path d="M41.739 15.728V17.5965H57.8405V15.7573C59.5567 15.7573 61.1967 15.7046 62.8309 15.7807C63.6567 15.8217 64.2659 16.6652 64.2717 17.4969C64.2776 18.3345 63.6977 19.0842 62.8543 19.2365C62.4033 19.3185 61.9347 19.3126 61.4192 19.3478V27.542C63.481 27.6533 65.326 28.3152 66.8548 29.7209C68.6178 31.3434 69.5432 33.3583 69.5842 35.7539C69.6076 37.142 69.5842 38.5302 69.5842 39.9535H30.007C30.007 39.6255 29.9953 39.2858 30.007 38.946C30.0714 37.306 29.925 35.6133 30.253 34.026C31.032 30.2481 34.0485 27.8759 38.1719 27.5303V19.2892C37.7971 19.2892 37.4281 19.3126 37.0708 19.2892C36.0341 19.2014 35.3078 18.4399 35.3195 17.4793C35.3312 16.4777 36.1102 15.7339 37.1821 15.7222C38.6639 15.7046 40.1458 15.7222 41.7273 15.7222L41.739 15.728ZM41.7566 27.5303H48.3459V24.5666C47.8832 24.5373 47.4615 24.508 47.0398 24.4787V22.6864H52.5456V24.4963C52.0829 24.5197 51.6729 24.5373 51.257 24.5549V27.5186H57.8112V20.2264H41.7566V27.5303Z" fill="white"/>
<path d="M41.8204 52.0447C43.4775 52.0447 44.9061 52.879 45.5118 54.4333H43.9461C43.5232 53.6333 42.769 53.2333 41.8204 53.2333C40.2432 53.2333 39.1004 54.3533 39.1004 56.1018C39.1004 57.8504 40.2432 58.9818 41.8204 58.9818C43.2604 58.9818 44.1632 58.1133 44.3575 56.7761H41.3747V55.7361H45.7518V56.7533C45.5118 58.5933 43.9575 60.159 41.8204 60.159C39.5804 60.159 37.7632 58.4904 37.7632 56.1018C37.7632 53.7247 39.5804 52.0447 41.8204 52.0447Z" fill="white"/>
<path d="M52.3968 60.0904L51.8254 58.4676H48.4997L47.9282 60.0904H46.5682L49.414 52.1361H50.9225L53.7682 60.0904H52.3968ZM51.4597 57.4047L50.1682 53.7133L48.8654 57.4047H51.4597Z" fill="white"/>
<path d="M60.3656 57.839C60.3656 59.0276 59.3941 60.1704 57.6227 60.1704C56.0341 60.1704 54.8113 59.3018 54.8113 57.8961H56.2056C56.2627 58.5476 56.7198 59.0733 57.6227 59.0733C58.537 59.0733 59.0513 58.5818 59.0513 57.9076C59.0513 55.9876 54.8341 57.2333 54.8341 54.3076C54.8341 52.9133 55.9427 52.0447 57.5656 52.0447C59.0856 52.0447 60.1598 52.8447 60.2741 54.2047H58.8341C58.7884 53.6676 58.3198 53.1761 57.497 53.1533C56.7427 53.1304 56.1598 53.4961 56.1598 54.2618C56.1598 56.0561 60.3656 54.9361 60.3656 57.839Z" fill="white"/>
</svg>
