<svg width="100" height="100" viewBox="0 0 100 100" fill="none" xmlns="http://www.w3.org/2000/svg">
<circle cx="50" cy="50" r="50" fill="#1B1464"/>
<path d="M35.6742 83.7298C34.6494 83.433 33.66 83.0726 32.8967 82.281C31.8861 81.2422 31.4268 79.9912 31.4268 78.5566C31.4268 76.7827 31.4268 75.0159 31.4268 73.242C31.4268 55.8637 31.4268 38.4924 31.4268 21.1141C31.4268 18.9373 32.2324 17.2129 34.2466 16.2589C34.9392 15.9267 35.7731 15.743 36.5434 15.743C45.9711 15.7076 55.4059 15.7076 64.8336 15.7288C67.8937 15.7288 69.9503 17.8985 69.9503 21.0505C69.9503 36.344 69.9503 51.6375 69.9503 66.9381C69.9503 70.5212 69.8726 74.1113 69.9715 77.6944C70.0492 80.4294 69.1305 82.8605 65.6958 83.7298H35.6742ZM35.1583 67.9769H66.1905V24.1318H35.1583V67.9769ZM50.7486 18.7465C48.5366 18.7465 46.3245 18.7465 44.1125 18.7465C43.2856 18.7465 42.9888 19.0646 42.9888 19.9197C42.9888 20.7748 43.2997 21.1282 44.0983 21.1282C48.5012 21.1282 52.9041 21.1282 57.307 21.1282C58.0915 21.1282 58.4024 20.7607 58.3953 19.8985C58.3883 19.0646 58.0915 18.7465 57.3211 18.7395C55.1303 18.7395 52.9394 18.7395 50.7486 18.7395V18.7465ZM50.6921 78.8322C52.4306 78.8322 53.8653 77.3905 53.8511 75.6661C53.837 73.9488 52.4377 72.5636 50.7203 72.5494C48.9676 72.5353 47.5401 73.9346 47.5259 75.6732C47.5118 77.3976 48.9535 78.8322 50.6921 78.8322Z" fill="white"/>
<path d="M49.2992 59.9207C48.7762 59.7087 48.6419 59.32 48.6843 58.7758C48.8893 56.1892 49.066 53.6026 49.2497 51.016C49.3133 50.1538 49.3769 49.2986 49.4476 48.4011C49.3204 48.4011 49.2144 48.4011 49.1084 48.4011C47.2921 48.4011 45.4688 48.4011 43.6525 48.4011C43.1436 48.4011 42.7761 48.1679 42.7408 47.7439C42.7196 47.5106 42.7973 47.2421 42.9104 47.0371C43.8433 45.3339 44.7903 43.6378 45.7373 41.9416C47.4264 38.9098 49.1154 35.878 50.8045 32.839C50.9883 32.5139 51.2144 32.2595 51.6102 32.2595C52.0978 32.2595 52.4512 32.6765 52.4159 33.2065C52.1968 36.2242 51.9706 39.2419 51.7445 42.2526C51.7091 42.7473 51.6809 43.2349 51.6385 43.765C51.7586 43.765 51.8646 43.765 51.9706 43.765C53.7869 43.765 55.6102 43.765 57.4265 43.765C57.7163 43.765 57.9778 43.8286 58.1757 44.0618C58.423 44.3516 58.4371 44.6767 58.2039 45.0866C57.476 46.394 56.7551 47.6944 56.0272 49.0018C54.119 52.4294 52.2109 55.857 50.3098 59.2846C50.1473 59.5744 49.9494 59.8147 49.6243 59.9207H49.2992Z" fill="#20A7DB"/>
</svg>
