<svg width="100" height="100" viewBox="0 0 100 100" fill="none" xmlns="http://www.w3.org/2000/svg">
<circle cx="50" cy="50" r="50" fill="#02A437"/>
<path d="M56.416 70L47.456 54.432H42.584V70H36.2V31.08H49.64C52.6267 31.08 55.1467 31.6027 57.2 32.648C59.2907 33.6933 60.84 35.0933 61.848 36.848C62.8933 38.6027 63.416 40.5627 63.416 42.728C63.416 45.2667 62.6693 47.5813 61.176 49.672C59.72 51.7253 57.4613 53.1253 54.4 53.872L64.032 70H56.416ZM42.584 49.336H49.64C52.0293 49.336 53.8213 48.7387 55.016 47.544C56.248 46.3493 56.864 44.744 56.864 42.728C56.864 40.712 56.2667 39.144 55.072 38.024C53.8773 36.8667 52.0667 36.288 49.64 36.288H42.584V49.336Z" fill="white"/>
</svg>
