<svg width="150" height="151" viewBox="0 0 150 151" fill="none" xmlns="http://www.w3.org/2000/svg">
<g clip-path="url(#clip0_1862_705)">
<path d="M98.0342 41.3479H44.2212C40.5433 41.3479 37.5615 38.3661 37.5615 34.6882V6.75761C37.5615 3.07967 40.5433 0.0979004 44.2212 0.0979004H98.0342C101.712 0.0979004 104.694 3.07967 104.694 6.75761V34.6882C104.694 38.3661 101.712 41.3479 98.0342 41.3479Z" fill="url(#paint0_linear_1862_705)"/>
<path d="M37.5615 13.6274V34.6883C37.5615 38.3663 40.5433 41.348 44.2212 41.348H98.0342C101.712 41.348 104.694 38.3663 104.694 34.6883V13.6274H37.5615Z" fill="url(#paint1_linear_1862_705)"/>
<path d="M65.2832 41.3479H98.0353C101.713 41.3479 104.695 38.3661 104.695 34.6882V6.75761C104.695 3.07967 101.714 0.0979004 98.0353 0.0979004H65.2832V41.3479Z" fill="url(#paint2_linear_1862_705)"/>
<path d="M98.0342 150.098H44.2212C40.5433 150.098 37.5615 147.116 37.5615 143.438V115.508C37.5615 111.83 40.5433 108.848 44.2212 108.848H98.0342C101.712 108.848 104.694 111.83 104.694 115.508V143.438C104.694 147.116 101.712 150.098 98.0342 150.098Z" fill="url(#paint3_linear_1862_705)"/>
<path d="M37.5615 122.377V143.438C37.5615 147.116 40.5433 150.098 44.2212 150.098H98.0342C101.712 150.098 104.694 147.116 104.694 143.438V122.377H37.5615Z" fill="url(#paint4_linear_1862_705)"/>
<path d="M37.5615 118.333V143.438C37.5615 147.116 40.5433 150.097 44.2212 150.097H98.0342C101.712 150.097 104.694 147.116 104.694 143.438V118.333H37.5615Z" fill="url(#paint5_linear_1862_705)"/>
<path d="M65.2832 150.098H98.0353C101.713 150.098 104.695 147.116 104.695 143.438V115.508C104.695 111.83 101.713 108.848 98.0353 108.848H65.2832V150.098Z" fill="url(#paint6_linear_1862_705)"/>
<path d="M130.834 86.8627H124.658C122.384 86.8627 120.54 85.0191 120.54 82.745V67.4509C120.54 65.1768 122.384 63.3333 124.658 63.3333H130.834C133.108 63.3333 134.952 65.1768 134.952 67.4509V82.745C134.952 85.0191 133.108 86.8627 130.834 86.8627Z" fill="url(#paint7_linear_1862_705)"/>
<path d="M130.834 86.8627H124.658C122.384 86.8627 120.54 85.0191 120.54 82.745V67.4509C120.54 65.1768 122.384 63.3333 124.658 63.3333H130.834C133.108 63.3333 134.952 65.1768 134.952 67.4509V82.745C134.952 85.0191 133.108 86.8627 130.834 86.8627Z" fill="url(#paint8_linear_1862_705)"/>
<path d="M127.211 75.0979C127.211 60.0982 121.321 46.4749 111.73 36.4117C109.915 34.5082 108.923 31.9673 108.923 29.3376C108.923 23.6373 104.302 19.0161 98.6016 19.0161H43.6563C37.956 19.0161 33.3348 23.6373 33.3348 29.3376C33.3348 31.9673 32.3422 34.5082 30.5281 36.4117C20.936 46.4749 15.0469 60.0982 15.0469 75.0979C15.0469 90.0976 20.9363 103.721 30.5278 113.784C32.3422 115.688 33.3345 118.229 33.3345 120.858C33.3345 126.558 37.9557 131.18 43.656 131.18H98.6013C104.302 131.18 108.923 126.558 108.923 120.858C108.923 118.228 109.915 115.688 111.73 113.784C121.321 103.721 127.211 90.0976 127.211 75.0979Z" fill="url(#paint9_linear_1862_705)"/>
<path d="M15.0469 75.098C15.0469 106.071 40.1557 131.18 71.1289 131.18C102.102 131.18 127.211 106.071 127.211 75.098C127.211 68.3901 126.029 61.9592 123.869 55.9968H18.3883C16.2286 61.9592 15.0469 68.3901 15.0469 75.098Z" fill="url(#paint10_linear_1862_705)"/>
<path d="M71.13 122.945C97.555 122.945 118.977 101.523 118.977 75.0982C118.977 48.6732 97.555 27.2515 71.13 27.2515C44.7049 27.2515 23.2832 48.6732 23.2832 75.0982C23.2832 101.523 44.7049 122.945 71.13 122.945Z" fill="url(#paint11_linear_1862_705)"/>
<path d="M71.13 122.945C97.555 122.945 118.977 101.523 118.977 75.0982C118.977 48.6732 97.555 27.2515 71.13 27.2515C44.7049 27.2515 23.2832 48.6732 23.2832 75.0982C23.2832 101.523 44.7049 122.945 71.13 122.945Z" fill="url(#paint12_linear_1862_705)"/>
<path d="M71.13 122.945C97.555 122.945 118.977 101.523 118.977 75.0982C118.977 48.6732 97.555 27.2515 71.13 27.2515C44.7049 27.2515 23.2832 48.6732 23.2832 75.0982C23.2832 101.523 44.7049 122.945 71.13 122.945Z" fill="url(#paint13_linear_1862_705)"/>
<path d="M71.1277 107.356C88.9436 107.356 103.386 92.9138 103.386 75.0979C103.386 57.282 88.9436 42.8394 71.1277 42.8394C53.3118 42.8394 38.8691 57.282 38.8691 75.0979C38.8691 92.9138 53.3118 107.356 71.1277 107.356Z" fill="url(#paint14_linear_1862_705)"/>
<path d="M77.1577 52.1568H65.0989C61.6066 52.1568 58.7754 49.3256 58.7754 45.8333V43.7745C58.7754 40.2821 61.6066 37.4509 65.0989 37.4509H77.1577C80.6501 37.4509 83.4813 40.2821 83.4813 43.7745V45.8333C83.4813 49.3256 80.6501 52.1568 77.1577 52.1568Z" fill="url(#paint15_linear_1862_705)"/>
<path d="M59.3846 101.636H82.8758C83.6258 101.636 84.3451 101.338 84.8754 100.808C85.4058 100.277 85.7037 99.5582 85.7037 98.8082C85.7037 97.2464 84.4375 95.9802 82.8758 95.9802H59.3846C58.6346 95.9802 57.9153 96.2782 57.3849 96.8085C56.8546 97.3388 56.5566 98.0581 56.5566 98.8082C56.5566 99.5582 56.8546 100.277 57.3849 100.808C57.9153 101.338 58.6346 101.636 59.3846 101.636Z" fill="url(#paint16_linear_1862_705)"/>
<path d="M68.6984 106.208H59.3846C58.6346 106.208 57.9153 106.505 57.3849 107.036C56.8546 107.566 56.5566 108.285 56.5566 109.035C56.5566 109.785 56.8546 110.505 57.3849 111.035C57.9153 111.565 58.6346 111.863 59.3846 111.863H68.6984C70.2602 111.863 71.5263 110.597 71.5263 109.035C71.5266 107.474 70.2605 106.208 68.6984 106.208Z" fill="url(#paint17_linear_1862_705)"/>
<path d="M82.8228 106.208H77.3328C76.5828 106.208 75.8635 106.505 75.3332 107.036C74.8028 107.566 74.5049 108.285 74.5049 109.035C74.5049 110.597 75.7711 111.863 77.3328 111.863H82.8228C83.1942 111.863 83.5619 111.79 83.905 111.648C84.2481 111.506 84.5599 111.298 84.8225 111.035C85.0851 110.773 85.2934 110.461 85.4355 110.118C85.5776 109.775 85.6508 109.407 85.6508 109.035C85.6508 108.664 85.5777 108.296 85.4356 107.953C85.2935 107.61 85.0852 107.298 84.8226 107.036C84.56 106.773 84.2482 106.565 83.9051 106.423C83.562 106.281 83.1942 106.207 82.8228 106.208Z" fill="url(#paint18_linear_1862_705)"/>
<path d="M34.4174 67.1377L33.2056 67.89C32.8295 68.1406 32.4533 68.2241 32.1609 68.2241C30.9492 68.2241 30.1133 66.9288 30.1133 65.6333C30.1133 64.7559 30.4895 63.92 31.325 63.4185L36.8412 60.0756C37.1753 59.8668 37.5933 59.783 38.053 59.783C39.39 59.783 40.9362 60.5768 40.9362 61.8306V88.4068C40.9362 89.7438 39.3068 90.4127 37.6771 90.4127C36.0474 90.4127 34.418 89.7441 34.418 88.4068V67.1377H34.4174Z" fill="url(#paint19_linear_1862_705)"/>
<path d="M47.2895 67.1377L46.0777 67.89C45.7015 68.1406 45.3254 68.2241 45.033 68.2241C43.8212 68.2241 42.9854 66.9288 42.9854 65.6333C42.9854 64.7559 43.3615 63.92 44.1971 63.4185L49.7133 60.0756C50.0474 59.8668 50.4654 59.783 50.9251 59.783C52.2621 59.783 53.8083 60.5768 53.8083 61.8306V88.4068C53.8083 89.7438 52.1789 90.4127 50.5492 90.4127C48.9195 90.4127 47.2901 89.7441 47.2901 88.4068V67.1377H47.2895Z" fill="url(#paint20_linear_1862_705)"/>
<path d="M63.8369 69.3732C63.8369 71.0864 62.3742 72.5908 60.661 72.5908C58.8225 72.5908 57.4434 71.0864 57.4434 69.3732C57.4434 67.6182 58.8225 66.1555 60.661 66.1555C62.3745 66.1555 63.8369 67.6182 63.8369 69.3732ZM63.8369 80.8226C63.8369 82.5361 62.3742 84.0402 60.661 84.0402C58.8225 84.0402 57.4434 82.5361 57.4434 80.8226C57.4434 79.0676 58.8225 77.6049 60.661 77.6049C62.3745 77.6049 63.8369 79.0676 63.8369 80.8226Z" fill="url(#paint21_linear_1862_705)"/>
<path d="M67.2646 80.6347V69.5612C67.2646 62.3738 71.7358 59.6997 77.5023 59.6997C83.2688 59.6997 87.7817 62.3741 87.7817 69.5612V80.6347C87.7817 87.8221 83.2688 90.4962 77.5023 90.4962C71.7358 90.4962 67.2646 87.8218 67.2646 80.6347ZM81.2632 69.5612C81.2632 66.6777 79.8423 65.3824 77.5023 65.3824C75.1623 65.3824 73.7832 66.6777 73.7832 69.5612V80.6347C73.7832 83.5179 75.1623 84.8132 77.5023 84.8132C79.8423 84.8132 81.2632 83.5182 81.2632 80.6347V69.5612Z" fill="url(#paint22_linear_1862_705)"/>
<path d="M91.626 80.6347V69.5612C91.626 62.3738 96.0972 59.6997 101.864 59.6997C107.63 59.6997 112.143 62.3741 112.143 69.5612V80.6347C112.143 87.8221 107.63 90.4962 101.864 90.4962C96.0972 90.4962 91.626 87.8218 91.626 80.6347ZM105.625 69.5612C105.625 66.6777 104.204 65.3824 101.864 65.3824C99.5236 65.3824 98.1448 66.6777 98.1448 69.5612V80.6347C98.1448 83.5179 99.5239 84.8132 101.864 84.8132C104.204 84.8132 105.625 83.5182 105.625 80.6347V69.5612Z" fill="url(#paint23_linear_1862_705)"/>
</g>
<defs>
<linearGradient id="paint0_linear_1862_705" x1="55.3895" y1="4.98466" x2="82.6233" y2="32.2182" gradientUnits="userSpaceOnUse">
<stop stop-color="#596C76"/>
<stop offset="0.284" stop-color="#4A5960"/>
<stop offset="0.875" stop-color="#232627"/>
<stop offset="1" stop-color="#1A1A1A"/>
</linearGradient>
<linearGradient id="paint1_linear_1862_705" x1="71.1277" y1="31.0421" x2="71.1277" y2="40.8648" gradientUnits="userSpaceOnUse">
<stop stop-color="#1A1A1A" stop-opacity="0"/>
<stop offset="0.426" stop-color="#121212" stop-opacity="0.426"/>
<stop offset="1"/>
</linearGradient>
<linearGradient id="paint2_linear_1862_705" x1="90.0429" y1="20.7229" x2="104.008" y2="20.7229" gradientUnits="userSpaceOnUse">
<stop stop-color="#1A1A1A" stop-opacity="0"/>
<stop offset="0.426" stop-color="#121212" stop-opacity="0.426"/>
<stop offset="1"/>
</linearGradient>
<linearGradient id="paint3_linear_1862_705" x1="55.3895" y1="113.735" x2="82.6233" y2="140.968" gradientUnits="userSpaceOnUse">
<stop stop-color="#596C76"/>
<stop offset="0.284" stop-color="#4A5960"/>
<stop offset="0.875" stop-color="#232627"/>
<stop offset="1" stop-color="#1A1A1A"/>
</linearGradient>
<linearGradient id="paint4_linear_1862_705" x1="71.1277" y1="139.792" x2="71.1277" y2="149.615" gradientUnits="userSpaceOnUse">
<stop stop-color="#1A1A1A" stop-opacity="0"/>
<stop offset="0.426" stop-color="#121212" stop-opacity="0.426"/>
<stop offset="1"/>
</linearGradient>
<linearGradient id="paint5_linear_1862_705" x1="71.1277" y1="133.627" x2="71.1277" y2="118.307" gradientUnits="userSpaceOnUse">
<stop stop-color="#1A1A1A" stop-opacity="0"/>
<stop offset="0.426" stop-color="#121212" stop-opacity="0.426"/>
<stop offset="1"/>
</linearGradient>
<linearGradient id="paint6_linear_1862_705" x1="90.0429" y1="129.473" x2="104.008" y2="129.473" gradientUnits="userSpaceOnUse">
<stop stop-color="#1A1A1A" stop-opacity="0"/>
<stop offset="0.426" stop-color="#121212" stop-opacity="0.426"/>
<stop offset="1"/>
</linearGradient>
<linearGradient id="paint7_linear_1862_705" x1="127.746" y1="69.2156" x2="127.746" y2="81.0391" gradientUnits="userSpaceOnUse">
<stop stop-color="#F9F5F3"/>
<stop offset="1" stop-color="#EFE2DD"/>
</linearGradient>
<linearGradient id="paint8_linear_1862_705" x1="129.658" y1="75.098" x2="135.945" y2="75.098" gradientUnits="userSpaceOnUse">
<stop stop-color="#E1D3CE" stop-opacity="0"/>
<stop offset="0.316" stop-color="#D0C4C0" stop-opacity="0.316"/>
<stop offset="0.94" stop-color="#A39C9B" stop-opacity="0.94"/>
<stop offset="1" stop-color="#9E9797"/>
</linearGradient>
<linearGradient id="paint9_linear_1862_705" x1="36.1607" y1="40.1296" x2="111.496" y2="115.465" gradientUnits="userSpaceOnUse">
<stop stop-color="#596C76"/>
<stop offset="0.284" stop-color="#4A5960"/>
<stop offset="0.875" stop-color="#232627"/>
<stop offset="1" stop-color="#1A1A1A"/>
</linearGradient>
<linearGradient id="paint10_linear_1862_705" x1="71.1286" y1="75.8077" x2="71.1286" y2="141.781" gradientUnits="userSpaceOnUse">
<stop stop-color="#1A1A1A" stop-opacity="0"/>
<stop offset="0.426" stop-color="#121212" stop-opacity="0.426"/>
<stop offset="1"/>
</linearGradient>
<linearGradient id="paint11_linear_1862_705" x1="42.6332" y1="46.6012" x2="103.43" y2="107.398" gradientUnits="userSpaceOnUse">
<stop stop-color="#A6E7F0"/>
<stop offset="0.171" stop-color="#90E2ED"/>
<stop offset="0.529" stop-color="#56D7E7"/>
<stop offset="1" stop-color="#02C7DD"/>
</linearGradient>
<linearGradient id="paint12_linear_1862_705" x1="71.13" y1="68.3335" x2="71.13" y2="23.7573" gradientUnits="userSpaceOnUse">
<stop stop-color="#0199B1" stop-opacity="0"/>
<stop offset="1" stop-color="#0199B1"/>
</linearGradient>
<linearGradient id="paint13_linear_1862_705" x1="47.9253" y1="66.435" x2="25.8664" y2="58.1997" gradientUnits="userSpaceOnUse">
<stop stop-color="#0199B1" stop-opacity="0"/>
<stop offset="1" stop-color="#0199B1"/>
</linearGradient>
<linearGradient id="paint14_linear_1862_705" x1="44.51" y1="48.4802" x2="120.814" y2="124.784" gradientUnits="userSpaceOnUse">
<stop stop-color="#0199B1" stop-opacity="0"/>
<stop offset="1" stop-color="#0199B1"/>
</linearGradient>
<linearGradient id="paint15_linear_1862_705" x1="71.1283" y1="34.2156" x2="71.1283" y2="56.2745" gradientUnits="userSpaceOnUse">
<stop stop-color="#FEF48B"/>
<stop offset="1" stop-color="#FFBF51"/>
</linearGradient>
<linearGradient id="paint16_linear_1862_705" x1="-136.736" y1="-113.095" x2="145.224" y2="174.341" gradientUnits="userSpaceOnUse">
<stop stop-color="#0199B1" stop-opacity="0"/>
<stop offset="1" stop-color="#0199B1"/>
</linearGradient>
<linearGradient id="paint17_linear_1862_705" x1="-50.4716" y1="-7.7009" x2="104.859" y2="150.646" gradientUnits="userSpaceOnUse">
<stop stop-color="#0199B1" stop-opacity="0"/>
<stop offset="1" stop-color="#0199B1"/>
</linearGradient>
<linearGradient id="paint18_linear_1862_705" x1="-9.2557" y1="17.9673" x2="111.921" y2="141.497" gradientUnits="userSpaceOnUse">
<stop stop-color="#0199B1" stop-opacity="0"/>
<stop offset="1" stop-color="#0199B1"/>
</linearGradient>
<linearGradient id="paint19_linear_1862_705" x1="33.185" y1="62.5868" x2="72.5968" y2="172.587" gradientUnits="userSpaceOnUse">
<stop stop-color="white"/>
<stop offset="1" stop-color="#EAF6FF" stop-opacity="0"/>
</linearGradient>
<linearGradient id="paint20_linear_1862_705" x1="44.5927" y1="58.4997" x2="84.0045" y2="168.5" gradientUnits="userSpaceOnUse">
<stop stop-color="white"/>
<stop offset="1" stop-color="#EAF6FF" stop-opacity="0"/>
</linearGradient>
<linearGradient id="paint21_linear_1862_705" x1="53.5431" y1="55.2929" x2="92.9548" y2="165.293" gradientUnits="userSpaceOnUse">
<stop stop-color="white"/>
<stop offset="1" stop-color="#EAF6FF" stop-opacity="0"/>
</linearGradient>
<linearGradient id="paint22_linear_1862_705" x1="68.5044" y1="49.9329" x2="107.916" y2="159.933" gradientUnits="userSpaceOnUse">
<stop stop-color="white"/>
<stop offset="1" stop-color="#EAF6FF" stop-opacity="0"/>
</linearGradient>
<linearGradient id="paint23_linear_1862_705" x1="90.0939" y1="42.1974" x2="129.506" y2="152.197" gradientUnits="userSpaceOnUse">
<stop stop-color="white"/>
<stop offset="1" stop-color="#EAF6FF" stop-opacity="0"/>
</linearGradient>
<clipPath id="clip0_1862_705">
<rect width="150" height="150" fill="white" transform="translate(0 0.0979004)"/>
</clipPath>
</defs>
</svg>
