<svg width="150" height="151" viewBox="0 0 150 151" fill="none" xmlns="http://www.w3.org/2000/svg">
<g clip-path="url(#clip0_1862_760)">
<path d="M76.3851 84.9281C75.4651 85.106 74.676 85.6128 74.2401 86.4004L70.6957 92.7992C69.3921 95.1513 67.3866 97.0551 64.9033 98.3584C68.7827 100.441 73.3927 99.7887 75.5498 96.831C76.0994 96.0775 76.6048 95.2927 77.0636 94.4807L80.1521 89.0098C80.7116 88.0189 80.576 86.8154 79.9177 85.8087C79.7206 85.6579 79.5114 85.5237 79.2921 85.4075C78.3386 84.8975 77.2966 84.7516 76.3851 84.9281Z" fill="url(#paint0_linear_1862_760)"/>
<path d="M91.7 87.8187L85.0786 94.9899C84.0972 96.0522 83.0653 97.0667 81.9865 98.0299C77.7621 101.8 71.3586 101.733 67.1895 97.901C71.1135 96.5628 74.636 94.255 77.43 91.1919L85.0847 82.7893C85.5335 82.2957 86.0759 81.8963 86.6803 81.614C87.2847 81.3318 87.9391 81.1724 88.6056 81.1452C89.267 81.1163 89.9277 81.2182 90.5497 81.4449C91.1717 81.6716 91.7429 82.0187 92.2306 82.4663L92.238 82.4728C92.7074 82.9005 92.9859 83.5081 93.0212 84.1419C93.0596 84.8121 92.9623 85.4832 92.7353 86.115C92.5083 86.7467 92.1562 87.3262 91.7 87.8187Z" fill="url(#paint1_linear_1862_760)"/>
<path d="M103.546 91.675L93.2514 98.7665C91.7258 99.817 90.1504 100.793 88.5308 101.692C82.1899 105.211 74.2093 103.32 70.0811 97.358C75.3607 96.7927 80.4121 94.9032 84.7666 91.8647L96.6996 83.5265C97.3995 83.0366 98.1897 82.6905 99.0244 82.5084C99.8591 82.3263 100.722 82.3118 101.562 82.4656C102.396 82.6162 103.193 82.9298 103.906 83.3884C104.619 83.847 105.235 84.4416 105.718 85.1383L105.725 85.1486C106.216 85.8503 106.369 86.7365 106.211 87.5783C106.058 88.4027 105.743 89.1888 105.286 89.8917C104.829 90.5946 104.238 91.2006 103.546 91.675Z" fill="url(#paint2_linear_1862_760)"/>
<path d="M70.441 105.747C78.8065 105.747 85.5881 102.758 85.5881 99.0707C85.5881 95.3837 78.8065 92.3948 70.441 92.3948C62.0755 92.3948 55.2939 95.3837 55.2939 99.0707C55.2939 102.758 62.0755 105.747 70.441 105.747Z" fill="url(#paint3_linear_1862_760)"/>
<path d="M89.2532 12.2414C89.2143 16.4314 84.949 19.3023 81.0558 17.7535C79.2182 17.0223 77.1658 16.6135 74.9999 16.6135C72.834 16.6135 70.7817 17.0223 68.944 17.7535C65.0508 19.3026 60.7852 16.4314 60.7467 12.2414C60.7463 12.2095 60.7461 12.1775 60.7461 12.1455C60.7461 5.49172 67.1279 0.0979004 74.9999 0.0979004C82.872 0.0979004 89.2537 5.49172 89.2537 12.1455L89.2532 12.2414Z" fill="url(#paint4_linear_1862_760)"/>
<path d="M142.075 69.5892C142.075 70.4839 142.049 73.8101 141.999 74.6942C141.685 80.1604 136.229 84.4592 129.605 84.4592H20.3948C13.771 84.4592 8.31422 80.1604 8.00098 74.6942C7.95039 73.8101 7.9248 70.4839 7.9248 69.5892C7.9248 38.9842 37.9583 14.175 74.9998 14.175C112.045 14.175 142.075 38.9842 142.075 69.5892Z" fill="url(#paint5_linear_1862_760)"/>
<path d="M129.605 84.4591C136.229 84.4591 141.686 80.1603 141.999 74.6941C142.049 73.81 142.075 70.4838 142.075 69.5894C142.075 38.9844 112.045 14.1753 75 14.1753V84.4594H129.605V84.4591Z" fill="url(#paint6_linear_1862_760)"/>
<path d="M7.9248 69.589C7.9248 70.4837 7.95039 73.8099 8.00098 74.694C8.31422 80.1602 13.771 84.459 20.3948 84.459H129.605C136.229 84.459 141.685 80.1602 141.999 74.694C142.049 73.8099 142.075 70.4837 142.075 69.589C142.075 59.7802 138.986 50.5687 133.574 42.5767H16.426C11.0139 50.5687 7.9248 59.7802 7.9248 69.589Z" fill="url(#paint7_linear_1862_760)"/>
<path d="M145.002 90.0668H4.99765C2.23735 90.0668 0 87.8292 0 85.0692V81.8639C0 79.1039 2.23735 76.8662 4.99765 76.8662H145.003C147.763 76.8662 150 79.1036 150 81.8639V85.0692C150 87.8292 147.763 90.0668 145.002 90.0668Z" fill="url(#paint8_linear_1862_760)"/>
<path d="M96.838 90.0666L78.3857 71.6143L59.9336 90.0666H96.838Z" fill="url(#paint9_linear_1862_760)"/>
<path d="M113.609 90.0655C104.556 103.004 90.7321 111.868 75.1585 114.713L65.1615 116.46L58.838 117.507C56.7335 117.852 54.7628 118.764 53.138 120.145L47.4556 124.701C46.0115 125.857 43.9027 125.621 42.7468 124.18L28.3056 106.148C27.9192 105.665 27.6741 105.085 27.5972 104.471C27.5204 103.857 27.6149 103.235 27.8703 102.671L31.3821 94.942C32.2115 93.1067 33.3732 91.4479 34.8027 90.0655C35.8232 89.0773 36.9821 88.2332 38.2556 87.5685C38.3968 87.492 38.5409 87.4214 38.688 87.3508C38.7115 87.342 38.7321 87.3273 38.7585 87.3185C41.2791 86.0979 49.4468 83.9126 52.6585 83.0743C53.5997 82.8302 54.5232 82.5126 55.4027 82.1008C58.402 80.6998 61.2214 78.942 63.7997 76.8655C65.6674 75.3714 67.4027 73.7067 68.985 71.9008C70.885 69.7361 73.935 69.1243 76.4674 70.2743C76.8321 70.439 77.185 70.642 77.5232 70.8802C79.5144 72.2861 80.4615 74.6155 80.2027 76.8655C80.0762 77.9567 79.6674 79.0302 78.9585 79.9685C76.2874 83.5196 73.3871 86.8925 70.2762 90.0655C68.9821 91.389 67.6497 92.6773 66.285 93.9302L66.1027 94.3008C65.4409 95.639 66.1115 96.9067 67.5909 97.1067C76.0821 98.2685 78.4203 97.8302 84.0997 96.3008C88.535 95.1037 92.6527 92.9832 96.1174 90.0655H113.609Z" fill="url(#paint10_linear_1862_760)"/>
<path d="M84.1 96.3009C79.7632 97.4689 77.3717 97.9995 72.7041 97.6683V115.142L75.1588 114.713C90.7323 111.869 104.556 103.004 113.609 90.0659H96.1176C92.6529 92.9833 88.5353 95.1039 84.1 96.3009Z" fill="url(#paint11_linear_1862_760)"/>
<path d="M51.1757 83.4663C47.4159 84.466 40.9527 86.2578 38.7577 87.3181C38.7339 87.3284 38.7112 87.3404 38.6874 87.351C38.542 87.4204 38.398 87.4927 38.2556 87.5681C35.1968 89.1634 32.8062 91.7981 31.3815 94.9404L27.8718 102.67C27.6161 103.233 27.5214 103.856 27.5982 104.47C27.675 105.084 27.9204 105.664 28.3071 106.147L42.7483 124.179C43.9042 125.622 46.0115 125.855 47.4548 124.699L53.1398 120.146C54.7641 118.764 56.7338 117.851 58.8377 117.505L65.1618 116.46L75.1595 114.712C75.4607 114.657 75.7601 114.596 76.0601 114.536L51.1757 83.4663Z" fill="url(#paint12_linear_1862_760)"/>
<path d="M55.1133 124.103L46.5692 132.647C44.898 134.318 42.1883 134.318 40.5171 132.647L17.3774 109.507C15.7062 107.836 15.7062 105.126 17.3774 103.455L25.9215 94.9109C27.5927 93.2397 30.3024 93.2397 31.9736 94.9109L55.1136 118.051C56.7845 119.722 56.7845 122.432 55.1133 124.103Z" fill="url(#paint13_linear_1862_760)"/>
<path d="M30.9043 123.035L40.5164 132.647C42.1875 134.318 44.8972 134.318 46.5684 132.647L55.1125 124.103C56.7837 122.432 56.7837 119.722 55.1125 118.051L45.5005 108.439L30.9043 123.035Z" fill="url(#paint14_linear_1862_760)"/>
<path d="M51.9209 130.618L35.3741 147.164C34.444 148.095 33.3398 148.832 32.1246 149.336C30.9093 149.839 29.6069 150.098 28.2915 150.098H4.50324C2.01618 150.098 0 148.082 0 145.594V121.659C3.33645e-06 119.003 1.05511 116.456 2.93324 114.577L19.4041 98.1038C21.2662 96.2418 24.285 96.2418 26.1471 98.1038L51.9215 123.878C53.7821 125.739 53.7821 128.756 51.9209 130.618Z" fill="url(#paint15_linear_1862_760)"/>
<path d="M51.9208 130.618L35.3741 147.164C34.444 148.095 33.3398 148.832 32.1245 149.336C30.9093 149.839 29.6068 150.098 28.2914 150.098H4.28906L41.2149 113.172L51.9211 123.879C53.782 125.739 53.782 128.756 51.9208 130.618Z" fill="url(#paint16_linear_1862_760)"/>
</g>
<defs>
<linearGradient id="paint0_linear_1862_760" x1="70.4189" y1="88.4337" x2="72.9426" y2="92.3389" gradientUnits="userSpaceOnUse">
<stop stop-color="#FFDFCF"/>
<stop offset="1" stop-color="#FFA78F"/>
</linearGradient>
<linearGradient id="paint1_linear_1862_760" x1="78.5201" y1="87.6783" x2="81.2601" y2="92.9238" gradientUnits="userSpaceOnUse">
<stop stop-color="#FFDFCF"/>
<stop offset="1" stop-color="#FFA78F"/>
</linearGradient>
<linearGradient id="paint2_linear_1862_760" x1="87.1448" y1="88.8268" x2="89.3394" y2="94.9999" gradientUnits="userSpaceOnUse">
<stop stop-color="#FFDFCF"/>
<stop offset="1" stop-color="#FFA78F"/>
</linearGradient>
<linearGradient id="paint3_linear_1862_760" x1="68.2581" y1="92.1245" x2="71.4934" y2="102.419" gradientUnits="userSpaceOnUse">
<stop stop-color="#FFDFCF"/>
<stop offset="1" stop-color="#FFA78F"/>
</linearGradient>
<linearGradient id="paint4_linear_1862_760" x1="70.8173" y1="1.73878" x2="77.4279" y2="17.5303" gradientUnits="userSpaceOnUse">
<stop stop-color="#E1D3CE"/>
<stop offset="1" stop-color="#9E9797"/>
</linearGradient>
<linearGradient id="paint5_linear_1862_760" x1="48.9777" y1="37.723" x2="91.2263" y2="79.9718" gradientUnits="userSpaceOnUse">
<stop stop-color="#E1D3CE"/>
<stop offset="1" stop-color="#9E9797"/>
</linearGradient>
<linearGradient id="paint6_linear_1862_760" x1="103.789" y1="49.1788" x2="157.046" y2="41.19" gradientUnits="userSpaceOnUse">
<stop stop-color="#433F43" stop-opacity="0"/>
<stop offset="0.301" stop-color="#3C393C" stop-opacity="0.301"/>
<stop offset="0.737" stop-color="#292729" stop-opacity="0.737"/>
<stop offset="1" stop-color="#1A1A1A"/>
</linearGradient>
<linearGradient id="paint7_linear_1862_760" x1="74.9998" y1="57.8931" x2="74.9998" y2="88.104" gradientUnits="userSpaceOnUse">
<stop stop-color="#433F43" stop-opacity="0"/>
<stop offset="0.301" stop-color="#3C393C" stop-opacity="0.301"/>
<stop offset="0.737" stop-color="#292729" stop-opacity="0.737"/>
<stop offset="1" stop-color="#1A1A1A"/>
</linearGradient>
<linearGradient id="paint8_linear_1862_760" x1="75" y1="78.28" x2="75" y2="87.848" gradientUnits="userSpaceOnUse">
<stop stop-color="#E1D3CE"/>
<stop offset="1" stop-color="#9E9797"/>
</linearGradient>
<linearGradient id="paint9_linear_1862_760" x1="82.6998" y1="90.4249" x2="69.6115" y2="81.1601" gradientUnits="userSpaceOnUse">
<stop stop-color="#433F43" stop-opacity="0"/>
<stop offset="0.301" stop-color="#3C393C" stop-opacity="0.301"/>
<stop offset="0.737" stop-color="#292729" stop-opacity="0.737"/>
<stop offset="1" stop-color="#1A1A1A"/>
</linearGradient>
<linearGradient id="paint10_linear_1862_760" x1="64.8118" y1="79.547" x2="77.7794" y2="119.447" gradientUnits="userSpaceOnUse">
<stop stop-color="#FFDFCF"/>
<stop offset="1" stop-color="#FFA78F"/>
</linearGradient>
<linearGradient id="paint11_linear_1862_760" x1="91.2888" y1="101.039" x2="94.9653" y2="86.9212" gradientUnits="userSpaceOnUse">
<stop stop-color="#F89580" stop-opacity="0"/>
<stop offset="0.26" stop-color="#F2917C" stop-opacity="0.261"/>
<stop offset="0.595" stop-color="#E2856F" stop-opacity="0.597"/>
<stop offset="0.971" stop-color="#C8725B" stop-opacity="0.974"/>
<stop offset="0.997" stop-color="#C5715A"/>
</linearGradient>
<linearGradient id="paint12_linear_1862_760" x1="54.1042" y1="103.815" x2="45.9027" y2="113.568" gradientUnits="userSpaceOnUse">
<stop stop-color="#F89580" stop-opacity="0"/>
<stop offset="0.26" stop-color="#F2917C" stop-opacity="0.261"/>
<stop offset="0.595" stop-color="#E2856F" stop-opacity="0.597"/>
<stop offset="0.971" stop-color="#C8725B" stop-opacity="0.974"/>
<stop offset="0.997" stop-color="#C5715A"/>
</linearGradient>
<linearGradient id="paint13_linear_1862_760" x1="38.0999" y1="112.436" x2="46.288" y2="106.74" gradientUnits="userSpaceOnUse">
<stop stop-color="#FFFDF1"/>
<stop offset="1" stop-color="#FFF5C6"/>
</linearGradient>
<linearGradient id="paint14_linear_1862_760" x1="43.8749" y1="121.349" x2="56.0864" y2="133.56" gradientUnits="userSpaceOnUse">
<stop stop-color="#FEA613" stop-opacity="0"/>
<stop offset="0.183" stop-color="#FC9B19" stop-opacity="0.183"/>
<stop offset="0.509" stop-color="#F57D28" stop-opacity="0.509"/>
<stop offset="0.936" stop-color="#EB4C40" stop-opacity="0.936"/>
<stop offset="1" stop-color="#E94444"/>
</linearGradient>
<linearGradient id="paint15_linear_1862_760" x1="10.8174" y1="121.931" x2="35.3082" y2="134.556" gradientUnits="userSpaceOnUse">
<stop stop-color="#554E56"/>
<stop offset="1" stop-color="#433F43"/>
</linearGradient>
<linearGradient id="paint16_linear_1862_760" x1="28.3085" y1="137.191" x2="35.4049" y2="144.288" gradientUnits="userSpaceOnUse">
<stop stop-color="#433F43" stop-opacity="0"/>
<stop offset="1" stop-color="#1A1A1A"/>
</linearGradient>
<clipPath id="clip0_1862_760">
<rect width="150" height="150" fill="white" transform="translate(0 0.0979004)"/>
</clipPath>
</defs>
</svg>
