<svg width="150" height="151" viewBox="0 0 150 151" fill="none" xmlns="http://www.w3.org/2000/svg">
<g clip-path="url(#clip0_1862_655)">
<path d="M8.88189 62.5741L6.38545 60.5801C4.50023 59.0744 3.86277 56.5736 4.87812 54.6687L8.9502 47.031L21.5287 57.0777L14.98 62.7373C13.3469 64.1488 10.7671 64.0798 8.88189 62.5741Z" fill="url(#paint0_linear_1862_655)"/>
<path d="M27.0713 77.1026L24.5749 75.1087C22.6897 73.6029 22.0522 71.1021 23.0676 69.1973L27.1396 61.5596L39.7182 71.6063L33.1695 77.2659C31.5364 78.6773 28.9566 78.6084 27.0713 77.1026Z" fill="url(#paint1_linear_1862_655)"/>
<path d="M70.5294 121.689L68.0329 119.695C66.1477 118.189 65.5102 115.689 66.5256 113.784L70.5977 106.146L83.1762 116.193L76.6275 121.852C74.9944 123.264 72.4146 123.195 70.5294 121.689Z" fill="url(#paint2_linear_1862_655)"/>
<path d="M52.6169 103.506L50.8142 100.909C49.4529 98.947 49.6452 96.4662 51.2684 95.0441L57.7774 89.3425L66.8604 102.43L58.5629 105.555C56.4936 106.335 53.9783 105.468 52.6169 103.506Z" fill="url(#paint3_linear_1862_655)"/>
<path d="M92.5409 134.435L89.5814 133.341C87.3465 132.516 85.8745 130.292 86.1019 128.085L87.0137 119.235L101.925 124.745L98.0774 132.51C97.1179 134.446 94.7758 135.261 92.5409 134.435Z" fill="url(#paint4_linear_1862_655)"/>
<path d="M111.683 140.953L108.724 139.86C106.489 139.034 105.017 136.811 105.244 134.603L106.156 125.754L121.068 131.264L117.22 139.028C116.26 140.965 113.918 141.779 111.683 140.953Z" fill="url(#paint5_linear_1862_655)"/>
<path d="M41.8008 14.3372C41.8008 14.3372 51.1603 41.3562 80.1913 38.4857C80.1913 38.4857 64.9759 52.7531 47.8355 39.0627C33.4934 27.6074 41.8008 14.3372 41.8008 14.3372Z" fill="url(#paint6_linear_1862_655)"/>
<path d="M91.7221 39.6569L100.62 69.621C106.088 88.0376 115.576 104.294 128.435 117.283C135.122 124.036 126.619 137.286 117.252 134.711L96.2514 128.94C81.7138 124.944 69.4315 116.253 60.9739 103.976L47.8938 84.9903C46.3827 82.7967 44.5789 80.8571 42.5242 79.2159L7.51494 51.2534C4.54975 48.8851 4.0765 44.2935 6.39738 40.4107C12.5685 30.0866 20.7226 20.9801 30.231 13.7937L34.7636 10.368C38.6698 7.41571 43.315 10.179 42.2644 14.83C41.0888 20.0332 41.5387 25.2001 43.5458 29.5431C49.1774 41.7304 63.5902 45.8967 77.0296 39.2225L82.8302 36.3417C86.6154 34.4619 90.6234 35.9561 91.7221 39.6569Z" fill="url(#paint7_linear_1862_655)"/>
<path d="M6.399 40.4105C4.07812 44.2933 4.55137 48.8848 7.51655 51.2532L42.5255 79.2155C44.5805 80.8569 46.3841 82.7963 47.8952 84.9899L60.9753 103.976C69.4329 116.252 81.7152 124.943 96.253 128.939L117.253 134.711C126.621 137.286 135.123 124.036 128.437 117.283C126.116 114.936 123.904 112.484 121.809 109.934L16.8851 26.1302C12.9487 30.5501 9.43777 35.3314 6.399 40.4105Z" fill="url(#paint8_linear_1862_655)"/>
<path d="M112.381 96.5381C107.428 88.2584 103.476 79.2343 100.621 69.6202L91.7233 39.6559C90.6232 35.9544 86.6167 34.4617 82.8305 36.3422L78.2042 38.6399C78.8107 39.2771 79.2793 40.0758 79.5588 41.0171L88.4566 70.9814C90.1046 76.5326 92.1187 81.8874 94.4802 87.0154C97.4962 93.565 104.384 97.4331 111.549 96.6312L112.381 96.5381Z" fill="url(#paint9_linear_1862_655)"/>
<path d="M128.436 117.282C115.576 104.293 106.089 88.0366 100.62 69.62L94.7918 49.9916L85.4947 51.032L94.1432 128.318C94.8426 128.536 95.5457 128.744 96.252 128.939L117.252 134.711C126.62 137.286 135.122 124.035 128.436 117.282Z" fill="url(#paint10_linear_1862_655)"/>
<path d="M128.434 117.282C115.574 104.293 106.087 88.0363 100.618 69.6197L97.5667 59.343L88.5532 60.3517L96.2276 128.932L96.2499 128.939L117.25 134.71C126.618 137.285 135.121 124.035 128.434 117.282Z" fill="url(#paint11_linear_1862_655)"/>
<path d="M117.251 134.711C126.619 137.286 135.121 124.036 128.435 117.283C115.575 104.294 106.088 88.0371 100.619 69.6207L100.281 68.4804L91.7994 69.4295L98.5288 129.566L117.251 134.711Z" fill="url(#paint12_linear_1862_655)"/>
<path d="M128.434 117.282C117.516 106.253 109.03 92.8684 103.369 77.8065L94.8605 78.7586L100.61 130.137L117.251 134.711C126.618 137.285 135.121 124.035 128.434 117.282Z" fill="url(#paint13_linear_1862_655)"/>
<path d="M128.435 117.282C119.749 108.509 112.604 98.2426 107.194 86.8288L98.1077 87.8456L102.911 130.77L117.251 134.711C126.619 137.286 135.122 124.036 128.435 117.282Z" fill="url(#paint14_linear_1862_655)"/>
<path d="M94.5769 52.1988L88.0504 52.9292C86.8327 53.0654 85.6659 52.2455 85.4941 51.0322C85.4517 50.7354 85.4694 50.4332 85.5461 50.1434C85.6228 49.8536 85.7568 49.5822 85.9404 49.3452C86.1239 49.1082 86.3531 48.9104 86.6145 48.7637C86.8759 48.6169 87.1641 48.5241 87.462 48.4908L94.0791 47.7504C94.6008 47.6919 95.1264 47.8188 95.5641 48.1087C96.0017 48.3986 96.3235 48.8332 96.4732 49.3364C96.8708 50.6731 95.9626 52.044 94.5769 52.1988Z" fill="url(#paint15_linear_1862_655)"/>
<path d="M85.0862 123.567C80.9789 117.706 77.441 111.455 74.4943 104.882C73.8366 103.415 74.772 101.729 76.3668 101.528L79.0673 101.188C80.4532 101.033 81.3612 99.662 80.9636 98.3253C80.814 97.8221 80.4922 97.3875 80.0545 97.0976C79.6169 96.8077 79.0912 96.6809 78.5695 96.7393L73.4255 97.3878C72.8848 97.4561 72.337 97.3372 71.8733 97.051C71.4096 96.7647 71.0578 96.3284 70.8765 95.8144L70.7914 95.5723C70.2896 94.1375 71.2355 92.6041 72.7438 92.4139L78.0112 91.7497C79.3971 91.5946 80.3051 90.224 79.9075 88.8873C79.7578 88.3841 79.436 87.9495 78.9984 87.6596C78.5607 87.3697 78.0351 87.2428 77.5134 87.3013L70.6059 88.1719C69.4154 88.3219 68.3011 87.564 67.9969 86.4036L67.933 86.1593C67.5716 84.7682 68.52 83.3756 69.9459 83.1959L76.9547 82.3122C78.3406 82.1571 79.2486 80.7864 78.851 79.4497C78.7013 78.9465 78.3795 78.512 77.9419 78.222C77.5042 77.9321 76.9786 77.8053 76.4569 77.8637L68.5528 78.8601C67.9459 78.9364 67.3328 78.7768 66.84 78.4143C66.3473 78.0519 66.0124 77.5142 65.9044 76.912L65.8602 76.6651C65.622 75.3221 66.5589 74.052 67.9125 73.8814L75.8988 72.8743C77.2847 72.7192 78.1927 71.3486 77.7951 70.0119C77.6454 69.5087 77.3236 69.0741 76.886 68.7842C76.4483 68.4943 75.9227 68.3674 75.401 68.4259L67.4525 69.4277C67.1081 69.4711 66.7585 69.4459 66.4238 69.3537C66.0891 69.2615 65.7759 69.104 65.5023 68.8904C65.2287 68.6767 65.0001 68.411 64.8295 68.1087C64.6589 67.8063 64.5498 67.4732 64.5085 67.1285C64.4334 66.5031 64.6088 65.8733 64.9965 65.3768C65.3842 64.8803 65.9526 64.5574 66.5776 64.4786L74.8428 63.4365C76.2288 63.2814 77.1368 61.9107 76.7391 60.574C76.5895 60.0709 76.2677 59.6363 75.8301 59.3464C75.3924 59.0564 74.8668 58.9296 74.3451 58.988L65.8015 60.0649C65.2196 60.138 64.6312 59.994 64.1488 59.6603C63.6665 59.3267 63.3242 58.8269 63.1873 58.2566C63.1677 58.1749 63.1477 58.0933 63.1273 58.0119C62.7843 56.6325 63.7354 55.2657 65.1458 55.0882L73.7867 53.9985C75.1726 53.8434 76.0806 52.4727 75.683 51.136C75.5334 50.6328 75.2116 50.1983 74.7739 49.9084C74.3363 49.6184 73.8106 49.4916 73.2889 49.55L62.3422 50.9298C61.3504 51.0548 60.3953 50.5433 59.9272 49.6602C57.478 45.039 54.0563 40.9343 49.8651 37.6275L49.7653 37.5482C48.4454 36.494 47.2386 35.2741 46.1775 33.8957C45.1646 32.5863 44.2802 31.135 43.5457 29.5438C42.5405 27.3734 41.9261 24.9958 41.7116 22.5097C41.4929 20.0241 41.6764 17.4319 42.2645 14.8305C43.3134 10.1792 38.6678 7.41598 34.7617 10.3695L30.2309 13.7944C25.4062 17.439 20.9301 21.5797 16.8877 26.1243C15.7686 27.3771 14.685 28.6621 13.6345 29.9774C10.9932 33.2842 8.57403 36.7722 6.39685 40.4114C4.0749 44.2941 4.54833 48.8855 7.51468 51.2548L42.5232 79.2167C44.5777 80.8577 46.3812 82.7986 47.8922 84.991L60.9723 103.975C67.3542 113.24 75.9112 120.461 85.9722 125.162C85.7356 124.6 85.4385 124.065 85.0862 123.567Z" fill="url(#paint16_linear_1862_655)"/>
<path d="M97.3524 61.5505L91.1086 62.2492C89.8909 62.3855 88.7241 61.5655 88.5523 60.3522C88.5099 60.0555 88.5276 59.7532 88.6043 59.4635C88.681 59.1737 88.815 58.9022 88.9986 58.6652C89.1821 58.4282 89.4113 58.2305 89.6727 58.0837C89.9341 57.937 90.2223 57.8442 90.5202 57.8109L96.8546 57.1021C97.3766 57.0437 97.9026 57.1707 98.3404 57.4611C98.7782 57.7514 99.1 58.1865 99.2493 58.6901C99.6456 60.0261 98.7374 61.3955 97.3524 61.5505Z" fill="url(#paint17_linear_1862_655)"/>
<path d="M100.067 70.697L94.3661 71.3349C93.1427 71.4716 91.9657 70.6488 91.7984 69.4292C91.7575 69.1331 91.7763 68.8318 91.8538 68.5431C91.9312 68.2544 92.0656 67.9841 92.2491 67.7482C92.4327 67.5122 92.6616 67.3154 92.9224 67.1694C93.1832 67.0233 93.4706 66.931 93.7677 66.8977L99.5689 66.2486C100.091 66.1902 100.617 66.3173 101.055 66.6077C101.493 66.8981 101.814 67.3333 101.964 67.837C102.36 69.1731 101.452 70.5423 100.067 70.697Z" fill="url(#paint18_linear_1862_655)"/>
<path d="M103.147 80.0145L97.4179 80.6556C96.2002 80.7919 95.0334 79.9719 94.8616 78.7586C94.8192 78.4618 94.8369 78.1596 94.9136 77.8698C94.9903 77.58 95.1243 77.3086 95.3079 77.0716C95.4914 76.8346 95.7206 76.6368 95.982 76.4901C96.2434 76.3433 96.5316 76.2506 96.8295 76.2173L102.637 75.5674C103.645 75.4546 104.605 76.0392 104.957 76.9905L104.973 77.0339C105.475 78.3881 104.582 79.8541 103.147 80.0145Z" fill="url(#paint19_linear_1862_655)"/>
<path d="M106.962 89.0378L100.664 89.7425C99.4464 89.8788 98.2797 89.0588 98.1078 87.8455C98.0655 87.5488 98.0832 87.2466 98.1598 86.9568C98.2365 86.667 98.3706 86.3955 98.5541 86.1585C98.7376 85.9215 98.9669 85.7238 99.2283 85.577C99.4896 85.4303 99.7778 85.3375 100.076 85.3042L106.425 84.5938C107.362 84.4887 108.254 85.0009 108.651 85.856L108.69 85.9394C109.321 87.2956 108.448 88.8715 106.962 89.0378Z" fill="url(#paint20_linear_1862_655)"/>
<path d="M24.419 64.7545C24.5377 64.6121 24.6602 64.475 24.7764 64.3295C33.5718 53.3176 31.775 37.2604 20.7631 28.465C19.589 27.5298 18.3352 26.6993 17.0161 25.9832C16.974 26.0302 16.9306 26.0758 16.8888 26.123C15.7697 27.3758 14.686 28.6608 13.6355 29.9761C10.9943 33.2829 8.57506 36.7709 6.39788 40.4102C4.07593 44.2929 4.54937 48.8842 7.51572 51.2535L24.419 64.7545Z" fill="url(#paint21_linear_1862_655)"/>
<path d="M75.4742 72.9272L70.5958 69.0308L67.4545 69.4267C67.11 69.4701 66.7604 69.4449 66.4257 69.3527C66.0911 69.2605 65.7779 69.103 65.5043 68.8894C65.2307 68.6757 65.002 68.41 64.8315 68.1077C64.6609 67.8053 64.5518 67.4722 64.5104 67.1275C64.4603 66.7098 64.5218 66.2862 64.6885 65.9C64.8552 65.5137 65.1212 65.1784 65.4595 64.9283L16.8834 26.1297C15.7664 27.3804 14.6846 28.6631 13.636 29.976C10.9947 33.2828 8.57552 36.7708 6.39834 40.4101C4.07639 44.2928 4.54983 48.8841 7.51618 51.2534L42.5247 79.2153C44.5792 80.8563 46.3827 82.7972 47.8937 84.9896L60.9738 103.974C67.3557 113.239 75.9127 120.459 85.9737 125.16C85.7449 124.615 85.4518 124.083 85.0883 123.567C80.9809 117.706 77.443 111.455 74.4964 104.882C73.8387 103.415 74.774 101.729 76.3689 101.528L79.0694 101.188C80.4553 101.032 81.3633 99.6618 80.9657 98.3251C80.816 97.8219 80.4942 97.3874 80.0566 97.0974C79.6189 96.8075 79.0933 96.6807 78.5716 96.7391L73.4275 97.3876C72.8869 97.4559 72.3391 97.337 71.8754 97.0508C71.4116 96.7645 71.0598 96.3282 70.8786 95.8143L70.7935 95.5721C70.2917 94.1373 71.2375 92.604 72.7454 92.4138L78.0128 91.7496C79.3987 91.5945 80.3067 90.2238 79.9091 88.8871C79.7595 88.384 79.4377 87.9494 79 87.6595C78.5624 87.3695 78.0367 87.2427 77.515 87.3012L70.6075 88.1718C69.4171 88.3218 68.3027 87.5639 67.9985 86.4034L67.9347 86.1591C67.5732 84.7681 68.5216 83.3755 69.9477 83.1955L76.9565 82.3118C78.3424 82.1567 79.2504 80.7861 78.8528 79.4494C78.7031 78.9462 78.3813 78.5116 77.9437 78.2217C77.506 77.9318 76.9804 77.8049 76.4587 77.8634L68.5547 78.8598C67.9477 78.936 67.3346 78.7764 66.8419 78.414C66.3491 78.0515 66.0142 77.5138 65.9062 76.9117L65.862 76.6648C65.6238 75.3217 66.5609 74.0518 67.9143 73.8811L75.4742 72.9272Z" fill="url(#paint22_linear_1862_655)"/>
</g>
<defs>
<linearGradient id="paint0_linear_1862_655" x1="14.9016" y1="52.4778" x2="9.3137" y2="59.4739" gradientUnits="userSpaceOnUse">
<stop stop-color="#5A5A5A"/>
<stop offset="1" stop-color="#444444"/>
</linearGradient>
<linearGradient id="paint1_linear_1862_655" x1="33.0908" y1="67.0062" x2="27.5029" y2="74.0023" gradientUnits="userSpaceOnUse">
<stop stop-color="#5A5A5A"/>
<stop offset="1" stop-color="#444444"/>
</linearGradient>
<linearGradient id="paint2_linear_1862_655" x1="76.5491" y1="111.593" x2="70.9614" y2="118.589" gradientUnits="userSpaceOnUse">
<stop stop-color="#5A5A5A"/>
<stop offset="1" stop-color="#444444"/>
</linearGradient>
<linearGradient id="paint3_linear_1862_655" x1="62.0122" y1="96.0167" x2="54.1999" y2="101.056" gradientUnits="userSpaceOnUse">
<stop stop-color="#5A5A5A"/>
<stop offset="1" stop-color="#444444"/>
</linearGradient>
<linearGradient id="paint4_linear_1862_655" x1="94.32" y1="122.299" x2="91.3977" y2="131.169" gradientUnits="userSpaceOnUse">
<stop stop-color="#5A5A5A"/>
<stop offset="1" stop-color="#444444"/>
</linearGradient>
<linearGradient id="paint5_linear_1862_655" x1="113.461" y1="128.821" x2="110.539" y2="137.691" gradientUnits="userSpaceOnUse">
<stop stop-color="#5A5A5A"/>
<stop offset="1" stop-color="#444444"/>
</linearGradient>
<linearGradient id="paint6_linear_1862_655" x1="62.0549" y1="25.0858" x2="53.7559" y2="35.4762" gradientUnits="userSpaceOnUse">
<stop stop-color="#5A5A5A"/>
<stop offset="1" stop-color="#444444"/>
</linearGradient>
<linearGradient id="paint7_linear_1862_655" x1="85.6776" y1="37.6361" x2="59.3185" y2="106.984" gradientUnits="userSpaceOnUse">
<stop stop-color="#FE93BB"/>
<stop offset="1" stop-color="#814AA0"/>
</linearGradient>
<linearGradient id="paint8_linear_1862_655" x1="66.829" y1="86.4237" x2="57.287" y2="103.631" gradientUnits="userSpaceOnUse">
<stop stop-color="#9857BD" stop-opacity="0"/>
<stop offset="1" stop-color="#5B3374"/>
</linearGradient>
<linearGradient id="paint9_linear_1862_655" x1="121.181" y1="55.3795" x2="87.8894" y2="70.9971" gradientUnits="userSpaceOnUse">
<stop stop-color="#9857BD" stop-opacity="0"/>
<stop offset="1" stop-color="#5B3374"/>
</linearGradient>
<linearGradient id="paint10_linear_1862_655" x1="105.043" y1="58.9928" x2="104.135" y2="50.8849" gradientUnits="userSpaceOnUse">
<stop stop-color="#5B3374" stop-opacity="0"/>
<stop offset="1" stop-color="#5B3374"/>
</linearGradient>
<linearGradient id="paint11_linear_1862_655" x1="107.563" y1="72.5137" x2="106.36" y2="61.764" gradientUnits="userSpaceOnUse">
<stop stop-color="#5B3374" stop-opacity="0"/>
<stop offset="1" stop-color="#5B3374"/>
</linearGradient>
<linearGradient id="paint12_linear_1862_655" x1="110.456" y1="88.4007" x2="108.445" y2="70.4267" gradientUnits="userSpaceOnUse">
<stop stop-color="#5B3374" stop-opacity="0"/>
<stop offset="1" stop-color="#5B3374"/>
</linearGradient>
<linearGradient id="paint13_linear_1862_655" x1="113.149" y1="103.459" x2="110.383" y2="78.7373" gradientUnits="userSpaceOnUse">
<stop stop-color="#5B3374" stop-opacity="0"/>
<stop offset="1" stop-color="#5B3374"/>
</linearGradient>
<linearGradient id="paint14_linear_1862_655" x1="115.073" y1="110.677" x2="112.256" y2="85.5093" gradientUnits="userSpaceOnUse">
<stop stop-color="#5B3374" stop-opacity="0"/>
<stop offset="1" stop-color="#5B3374"/>
</linearGradient>
<linearGradient id="paint15_linear_1862_655" x1="92.6779" y1="48.2684" x2="88.5797" y2="53.3993" gradientUnits="userSpaceOnUse">
<stop stop-color="#FEE97D"/>
<stop offset="1" stop-color="#FAC600"/>
</linearGradient>
<linearGradient id="paint16_linear_1862_655" x1="70.073" y1="52.19" x2="46.936" y2="81.1576" gradientUnits="userSpaceOnUse">
<stop stop-color="#5A5A5A"/>
<stop offset="1" stop-color="#444444"/>
</linearGradient>
<linearGradient id="paint17_linear_1862_655" x1="95.5588" y1="57.6493" x2="91.5504" y2="62.6678" gradientUnits="userSpaceOnUse">
<stop stop-color="#FEE97D"/>
<stop offset="1" stop-color="#FAC600"/>
</linearGradient>
<linearGradient id="paint18_linear_1862_655" x1="98.4713" y1="66.8513" x2="94.6337" y2="71.656" gradientUnits="userSpaceOnUse">
<stop stop-color="#FEE97D"/>
<stop offset="1" stop-color="#FAC600"/>
</linearGradient>
<linearGradient id="paint19_linear_1862_655" x1="101.535" y1="76.1732" x2="97.6962" y2="80.9791" gradientUnits="userSpaceOnUse">
<stop stop-color="#FEE97D"/>
<stop offset="1" stop-color="#FAC600"/>
</linearGradient>
<linearGradient id="paint20_linear_1862_655" x1="105.117" y1="85.1548" x2="101.113" y2="90.168" gradientUnits="userSpaceOnUse">
<stop stop-color="#FEE97D"/>
<stop offset="1" stop-color="#FAC600"/>
</linearGradient>
<linearGradient id="paint21_linear_1862_655" x1="22.0194" y1="24.2163" x2="17.6872" y2="47.4943" gradientUnits="userSpaceOnUse">
<stop stop-color="#838383"/>
<stop offset="1" stop-color="#5A5A5A"/>
</linearGradient>
<linearGradient id="paint22_linear_1862_655" x1="58.5267" y1="66.6485" x2="46.7551" y2="81.3865" gradientUnits="userSpaceOnUse">
<stop stop-color="#444444" stop-opacity="0"/>
<stop offset="0.06" stop-color="#414141" stop-opacity="0.06"/>
<stop offset="0.656" stop-color="#252525" stop-opacity="0.656"/>
<stop offset="1" stop-color="#1A1A1A"/>
</linearGradient>
<clipPath id="clip0_1862_655">
<rect width="150" height="150" fill="white" transform="translate(0 0.0979004)"/>
</clipPath>
</defs>
</svg>
