<svg width="917" height="100" viewBox="0 0 917 100" fill="none" xmlns="http://www.w3.org/2000/svg">
<path d="M0 15.7143C34.8651 15.7143 67.927 47.9865 101.889 45.2381C135.851 42.4897 169.816 2.33612 203.778 8.08063C237.74 13.8251 271.705 40.4912 305.667 37.9821C339.629 35.4731 373.594 3.78892 407.556 0.328395C441.517 -3.13213 475.483 21.6298 509.444 33.5523C543.406 45.4748 577.371 44.5578 611.333 34.6597C645.295 24.7616 679.26 5.88476 713.222 3.65078C747.184 1.4168 780.114 25.4103 814.076 30.9524C848.038 36.4945 883.568 15.7143 917 15.7143V100C883.038 100 849.073 100 815.111 100C781.149 100 747.184 100 713.222 100C679.26 100 645.295 100 611.333 100C577.371 100 543.406 100 509.444 100C475.483 100 441.517 100 407.556 100C373.594 100 339.629 100 305.667 100C271.705 100 237.74 100 203.778 100C169.816 100 135.851 100 101.889 100C67.927 100 33.9619 100 0 100V15.7143Z" fill="#FEF9C3"/>
</svg>
