<svg width="151" height="151" viewBox="0 0 151 151" fill="none" xmlns="http://www.w3.org/2000/svg">
<g clip-path="url(#clip0_1862_626)">
<path d="M132.359 134.615H19.2391C9.05529 134.615 0.799805 126.359 0.799805 116.175V34.2142C0.799805 24.0304 9.05529 15.7749 19.2391 15.7749H132.359C142.543 15.7749 150.798 24.0304 150.798 34.2142V116.175C150.798 126.359 142.543 134.615 132.359 134.615Z" fill="#FFD94F"/>
<path d="M132.354 15.7753H123.3C133.487 15.7753 141.745 24.0284 141.745 34.209V116.181C141.745 126.362 133.487 134.615 123.3 134.615H132.354C142.541 134.615 150.799 126.362 150.799 116.181V34.209C150.799 24.0284 142.541 15.7753 132.354 15.7753Z" fill="#FFC30A"/>
<path d="M0.799805 49.5052H150.798V58.5538H0.799805V49.5052Z" fill="#F14D3F"/>
<path d="M141.743 49.5054H150.797V58.554H141.743V49.5054Z" fill="#D53B36"/>
<path d="M105.075 15.6707H114.129V134.615H105.075V15.6707Z" fill="#F14D3F"/>
<path d="M104.773 50.3746C104.773 50.3746 89.78 29.2333 82.6492 42.4946C75.5184 55.756 104.773 55.6175 104.773 55.6175V50.3746ZM114.388 50.3746C114.388 50.3746 129.381 29.2333 136.512 42.4946C143.643 55.756 114.388 55.6175 114.388 55.6175V50.3746Z" fill="#D53B36"/>
<path d="M109.535 59.8554C109.633 59.8548 101.66 74.3605 99.1259 78.9657C98.7462 79.6557 97.8087 79.7805 97.26 79.2156L89.5581 71.2902C89.3417 71.0676 89.2225 70.7682 89.2267 70.4577C89.2308 70.1472 89.358 69.8511 89.5804 69.6344L104.884 54.7129L109.535 59.8554Z" fill="#D53B36"/>
<path d="M109.575 59.855C109.478 59.8544 117.451 74.3602 119.985 78.9654C120.364 79.6553 121.302 79.7801 121.85 79.2153L129.552 71.2899C129.769 71.0672 129.888 70.7678 129.884 70.4573C129.88 70.1469 129.752 69.8508 129.53 69.634L114.226 54.7125L109.575 59.855Z" fill="#D53B36"/>
<path d="M103.545 54.3169C103.183 54.3168 102.827 54.2268 102.508 54.055C100.772 53.1234 95.7566 50.5535 93.4205 49.8595C92.8707 49.6861 92.4111 49.3037 92.1406 48.7946C91.8702 48.2855 91.8106 47.6905 91.9748 47.1379C92.1389 46.5853 92.5136 46.1193 93.0181 45.8404C93.5226 45.5615 94.1165 45.492 94.6717 45.6469C97.9163 46.611 104.316 50.0379 104.587 50.1832C105.1 50.4588 105.483 50.9271 105.651 51.4851C105.819 52.043 105.759 52.6448 105.483 53.1582C105.295 53.5087 105.016 53.8015 104.674 54.0056C104.333 54.2096 103.943 54.3172 103.545 54.3169ZM115.614 54.3169C115.217 54.3173 114.826 54.2098 114.485 54.0058C114.144 53.8018 113.864 53.5089 113.676 53.1585C113.54 52.9043 113.455 52.6257 113.426 52.3386C113.397 52.0515 113.425 51.7616 113.508 51.4853C113.592 51.209 113.728 50.9518 113.911 50.7285C114.094 50.5051 114.319 50.3199 114.573 50.1835C114.844 50.0382 121.243 46.611 124.488 45.6472C125.046 45.4837 125.646 45.5479 126.156 45.8258C126.667 46.1038 127.047 46.5728 127.212 47.1301C127.378 47.6874 127.316 48.2876 127.039 48.7992C126.763 49.3109 126.296 49.6922 125.739 49.8597C123.403 50.5538 118.387 53.1237 116.652 54.0553C116.333 54.2269 115.976 54.3168 115.614 54.3169Z" fill="#B22828"/>
<path d="M112.062 61.7286H107.099C104.721 61.7286 102.794 59.8011 102.794 57.4237V49.7456C102.794 47.3681 104.721 45.4407 107.099 45.4407H112.062C114.44 45.4407 116.367 47.3681 116.367 49.7456V57.4237C116.367 59.8008 114.44 61.7286 112.062 61.7286Z" fill="#C63030"/>
</g>
<defs>
<clipPath id="clip0_1862_626">
<rect width="150" height="150" fill="white" transform="translate(0.799805 0.142578)"/>
</clipPath>
</defs>
</svg>
