<svg width="362" height="426" viewBox="0 0 362 426" fill="none" xmlns="http://www.w3.org/2000/svg">
<path d="M185.242 425.609C239.954 425.609 284.308 417.527 284.308 407.558C284.308 397.589 239.954 389.507 185.242 389.507C130.529 389.507 86.1758 397.589 86.1758 407.558C86.1758 417.527 130.529 425.609 185.242 425.609Z" fill="#F4E57C"/>
<path d="M326.316 322.601L52.4396 348.28L0 65.6973L318.261 94.4587L326.316 322.601Z" fill="#FFE5A2"/>
<path d="M53.0487 152.831C62.0025 271.344 46.9693 334.451 36.8369 354.831C140.41 387.204 186.158 386.948 300.27 353.662C266.592 312.067 247.585 250.134 265.26 160.623C204.787 169.814 129.771 168.073 53.0487 152.831Z" fill="#DE1B45"/>
<path d="M107.086 391.695C104.384 395.316 99.656 401.314 100.781 404.261C102.301 408.906 108.776 415.071 119.92 418.069C126.45 414.471 130.66 410.576 130.66 403.256C128.589 398.988 126.45 396.29 124.254 392.245C117.331 391.345 107.086 391.695 107.086 391.695ZM202.75 386.8C201.062 391.045 197.628 397.938 199.148 401.136C200.668 404.333 203.652 404.283 211.803 403.684C217.039 403.299 229.037 409.329 243.786 403.634C241.365 396.541 223.298 391.588 220.539 389.173C217.781 386.759 216.504 386.266 214.24 385.471C207.315 384.571 202.75 386.8 202.75 386.8Z" fill="#4B3D87"/>
<path d="M93.5783 306.079C90.3497 321.18 94.4794 330.854 100.333 351.235C91.3266 357.628 86.5978 359.577 108.889 384.801C106.835 387.147 105.118 389.447 103.204 391.645C107.144 394.991 121.554 398.138 127.127 391.045C124.763 388.897 123.397 387.867 119.697 384.801C126.002 373.713 139.737 363.273 131.385 358.509C137.448 351.06 143.526 343.259 144.915 336.449C120.147 322.862 93.5783 306.079 93.5783 306.079Z" fill="#94C9DB"/>
<path d="M93.5778 306.079C91.9436 313.726 92.1995 319.984 93.6065 326.941C103.267 333.368 119.579 342.264 140.484 346.327C142.643 342.912 144.276 339.576 144.914 336.449C120.146 322.862 93.5778 306.079 93.5778 306.079Z" fill="#6DA7C9"/>
<path d="M184.317 343.243C186.231 351.535 189.834 355.831 193.999 360.026C184.993 366.42 186.119 370.716 204.415 380.539C202.361 382.884 200.644 385.184 198.73 387.382C202.67 390.729 214.601 392.394 220.399 386.4C218.267 384.697 216.402 382.953 213.588 380.631C212.49 376.96 211.984 373.138 213.973 364.453C222.145 356.029 239.482 335.45 240.945 319.932C216.177 306.346 184.317 343.243 184.317 343.243Z" fill="#94C9DB"/>
<path d="M184.317 343.243C185.044 346.39 186.015 348.961 187.167 351.17C203.961 348.258 226.475 339.27 236.814 333.188C239.01 328.627 240.553 324.097 240.945 319.932C216.177 306.346 184.317 343.243 184.317 343.243Z" fill="#6DA7C9"/>
<path d="M84.7983 284.102C78.6062 288.497 72.88 291.917 63.6416 295.795C72.4141 304.482 120.147 346.84 173.774 353.92C206.833 345.241 254.341 319.01 265.262 304.881C254.961 296.265 252.091 294.242 246.537 286.245C193.155 287.798 84.7983 284.102 84.7983 284.102Z" fill="#EDC01F"/>
<path d="M84.7978 284.102C83.6878 284.892 82.5633 285.665 81.4248 286.423C92.4481 295.232 137.457 327.097 174.458 327.142C210.623 327.186 233.431 310.723 252.979 294.209C250.795 291.992 248.911 289.665 246.535 286.244C193.154 287.798 84.7978 284.102 84.7978 284.102Z" fill="#DBAF3E"/>
<path d="M108.779 284.832C102.444 294.003 92.7743 304.928 84.0684 313.061C85.3287 314.016 86.5985 314.96 87.8776 315.895C96.6614 305.572 106.705 288.548 108.861 284.835L108.779 284.832ZM117.541 334.633C126.924 322.831 136.942 305.28 136.942 305.28C131.061 313.95 122.025 324.34 113.595 332.47C114.894 333.198 116.209 333.92 117.541 334.633ZM167.058 313.729C167.058 313.729 167.34 339.574 171.05 353.503C171.957 353.643 172.863 353.798 173.774 353.919C174.672 353.683 175.585 353.428 176.505 353.167C172.12 341.784 168.183 325.775 167.058 313.729ZM222.074 334.473C223.376 333.803 224.664 333.127 225.942 332.446C217.73 324.452 209.056 314.464 203.344 306.079C203.344 306.079 212.884 322.717 222.074 334.473ZM228.546 298.792C228.546 298.792 238.537 309.553 248.894 318.743C249.875 318.075 250.819 317.415 251.739 316.759C243.353 311.159 234.834 304.637 228.546 298.792Z" fill="#D48911"/>
<path d="M32.7867 138.587C28.5085 158.426 55.079 181.645 61.9449 179.247C72.3445 175.307 73.9778 159.225 75.7923 152.831C69.3033 148.286 47.4615 141.538 32.7867 138.587Z" fill="#A9CEDB"/>
<path d="M239.01 170.862C226.89 183.583 219.731 201.972 218.669 206.569C217.607 211.166 253.908 258.523 291.505 265.971C299.944 267.643 331.888 263.38 335.373 241.429C338.312 222.925 314.18 186.425 307.522 184.863C273.024 176.767 266.97 163.789 263.127 159.3C251.858 160.193 239.01 170.862 239.01 170.862Z" fill="#867BD1"/>
<path d="M239.01 170.862C234.327 183.269 216.201 207.665 215.138 212.263C214.075 216.861 253.907 258.523 291.505 265.972C299.945 267.644 331.888 263.381 335.374 241.43C338.313 222.926 295.367 217.375 288.709 215.813C286.087 217.689 283.2 234.609 321.995 251.244C317.034 256.599 309.873 259.658 301.276 259.117C287.667 243.884 257.44 213.751 248.221 207.705C258.266 204.061 281.551 191.411 287.265 178.388C270.251 171.037 266.051 162.714 263.128 159.301C251.858 160.193 239.01 170.862 239.01 170.862Z" fill="#7667B5"/>
<path d="M223.978 211.562C239.239 226.754 260.117 242.31 275.66 254.418C284.1 256.09 300.942 254.114 309.205 244.482C301.482 249.006 283.86 251.893 277.202 250.33C257.967 235.398 243.437 224.768 223.978 211.562ZM234.271 157.248C249.901 169.671 270.455 188.589 290.755 192.108C297.404 197.014 301.166 199.416 297.625 211.107C296.941 202.917 293.514 199.41 288.052 195.688C262.977 191.302 248.803 170.324 234.271 157.248Z" fill="#554594"/>
<path d="M220.673 188.395C235.934 203.587 251.589 219.716 267.132 231.824C275.572 233.496 283.919 232.841 290.511 226.336C282.788 230.86 272.182 227.115 268.387 225.202C249.152 210.269 240.132 201.601 220.673 188.395Z" fill="#554594"/>
<path d="M101.799 170.613C86.6005 187.996 63.2966 230.554 60.2573 240.144C57.2181 249.734 115.575 309.816 173.345 308.625C243.316 307.182 277.76 254.529 273.707 247.037C261.828 225.075 244.03 186.771 230.858 172.385C217.686 158 101.799 170.613 101.799 170.613Z" fill="#EDC01F"/>
<path d="M101.796 170.613C98.7697 174.074 95.4223 178.532 91.9786 183.53C175.254 223.76 181.502 232.351 237.201 198.585C249.349 210.776 263.452 241.229 268.048 249.149C273.038 257.749 175.254 350.697 60.2543 240.144C57.5367 250.497 117.335 310.722 173.908 309.806C241.501 308.711 277.757 254.53 273.704 247.037C261.825 225.075 244.027 186.771 230.855 172.385C217.683 158 101.796 170.613 101.796 170.613Z" fill="#DBAF3E"/>
<path d="M112.163 171.625C96.965 189.008 78.3406 239.571 75.3014 249.161C73.7941 253.917 86.0718 272 105.872 288.857C90.819 272.512 78.2536 252.864 79.6739 249.149C98.9249 198.784 107.344 182.065 111.238 176.177C125.402 154.762 112.163 171.625 112.163 171.625Z" fill="#DBAF3E"/>
<path d="M112.163 171.625C96.965 189.008 78.3406 239.571 75.3014 249.161C73.7941 253.917 86.0718 272 105.872 288.857C90.819 272.512 78.2536 252.864 79.6739 249.149C98.9249 198.784 107.344 182.065 111.238 176.177C125.402 154.762 112.163 171.625 112.163 171.625ZM167.012 183.089C156.338 209.517 153.326 259.201 151.611 269.065C150.762 273.947 151.733 300.069 171.533 316.927C160.468 300.651 157.233 272.367 157.699 268.466C162.933 224.637 164.638 197.51 168.533 191.622C182.697 170.206 167.012 183.089 167.012 183.089ZM223.488 183.5C238.686 200.883 258.55 246.782 261.589 256.373C263.096 261.129 250.819 279.211 231.019 296.068C246.071 279.723 257.575 260.825 256.203 257.095C237.842 207.157 226.706 192.385 222.812 186.497C208.649 165.081 223.488 183.5 223.488 183.5ZM134.218 183.606C124.761 212.794 113.616 253.331 112.766 264.354C112.386 269.282 120.835 292.902 140.635 309.759C125.582 293.414 118.535 269.794 119.187 265.914C126.113 224.636 134.387 194.51 136.208 185.543C141.172 161.105 134.218 183.606 134.218 183.606Z" fill="#D48911"/>
<path d="M191.236 185.126C206.434 202.509 227.603 254.763 230.642 264.353C232.149 269.109 222.573 292.902 202.773 309.759C217.826 293.414 223.514 270.059 222.349 266.274C208.615 221.661 194.587 193.335 190.694 187.448C176.529 166.032 191.236 185.126 191.236 185.126Z" fill="#D48911"/>
<path d="M120.447 188.834C117.671 177.555 108.711 175.954 111.926 185.499C121.723 214.581 164.451 243.097 187.582 242.291C211.096 241.471 234.846 195.634 229.461 188.834C216.515 172.488 225.859 191.993 224.732 194.512C221.426 201.911 207.129 240.894 185.554 240.894C155.645 240.894 120.447 188.834 120.447 188.834Z" fill="#C75310"/>
<path d="M224.733 194.512C223.777 196.652 221.895 201.44 219.189 207.158C222.079 205.588 224.904 203.925 227.659 202.174C230.163 195.86 230.993 190.767 229.462 188.833C216.515 172.487 225.859 191.993 224.733 194.512ZM120.447 188.834C117.671 177.555 108.711 175.954 111.926 185.499C113.122 189.048 114.815 192.588 116.897 196.068C121.355 198.097 125.85 200.061 130.379 201.962C124.234 194.435 120.447 188.834 120.447 188.834Z" fill="#A33A0D"/>
<path d="M142.663 75.9597C105.287 84.6994 35.8263 128.996 32.7861 138.588C29.7469 148.178 145.815 211.774 184.993 211.774C226.422 211.774 283.594 150.641 278.208 143.841C265.262 127.495 221.469 95.0901 196.7 81.1037C179.079 71.1519 142.663 75.9597 142.663 75.9597Z" fill="#CEE9F0"/>
<path d="M142.663 75.9597C105.287 84.6994 35.8263 128.996 32.7861 138.588C29.7469 148.178 145.815 211.774 184.993 211.774C226.422 211.774 283.594 150.641 278.208 143.841C265.262 127.495 221.469 95.0901 196.7 81.1037C179.079 71.1519 142.663 75.9597 142.663 75.9597Z" fill="#CEE9F0"/>
<path d="M142.662 75.9597C134.365 77.8997 124.486 81.5926 114.104 86.2686C112.405 89.8525 115.178 97.2873 121.732 100.374C117.106 102.229 106.299 110.279 103.033 115.566C102.953 121.486 111.238 171.614 143.506 154.273C151.893 160.226 170.493 169.516 180.15 169.216C185.456 169.052 198.078 162.674 211.335 152.833C233.727 154.561 244.659 148.127 238.804 132.606C245.302 135.867 255.127 146.747 257.424 149.036C270.672 162.243 207.359 205.98 184.879 205.381C136.848 204.1 72.5841 165.5 45.6787 151.294C76.5817 172.826 154.331 211.774 184.992 211.774C226.42 211.774 283.593 150.641 278.207 143.841C265.26 127.495 221.467 95.0901 196.699 81.1037C179.077 71.1519 142.662 75.9597 142.662 75.9597Z" fill="#AEC9D6"/>
<path d="M142.662 75.9597C134.365 77.8997 124.486 81.5926 114.104 86.2686C112.405 89.8525 115.178 97.2873 121.732 100.374C117.106 102.229 106.299 110.279 103.033 115.566C102.953 121.486 111.238 171.614 143.506 154.273C151.893 160.226 170.493 169.516 180.15 169.216C185.456 169.052 198.078 162.674 211.335 152.833C233.727 154.561 244.659 148.127 238.804 132.606C245.302 135.867 255.127 146.747 257.424 149.036C270.672 162.243 207.359 205.98 184.879 205.381C136.848 204.1 72.5841 165.5 45.6787 151.294C76.5817 172.826 154.331 211.774 184.992 211.774C226.42 211.774 283.593 150.641 278.207 143.841C265.26 127.495 221.467 95.0901 196.699 81.1037C179.077 71.1519 142.662 75.9597 142.662 75.9597Z" fill="#AEC9D6"/>
<path d="M64.8024 122.661C68.7417 125.475 76.013 123.26 81.0449 117.715C86.0768 112.169 86.9626 105.392 83.0233 102.578C82.9199 102.504 82.8052 102.448 82.6977 102.382C75.9384 106.226 69.3017 110.237 62.7954 114.41C61.8215 117.839 62.4329 120.968 64.8024 122.661ZM105.998 94.3236C111.438 96.6026 117.16 95.9829 118.778 92.9406C119.957 90.7244 118.625 87.8375 115.718 85.5494C111.102 87.6003 106.546 89.7551 102.054 92.0119C103.235 92.9483 104.564 93.727 105.998 94.3236Z" fill="#54667D"/>
<path d="M105.999 94.3236C111.44 96.6026 117.162 95.9829 118.779 92.9406C119.958 90.7244 118.627 87.8375 115.72 85.5494C111.104 87.6003 106.548 89.7551 102.056 92.0119C103.237 92.9483 104.565 93.727 105.999 94.3236Z" fill="#54667D"/>
<path d="M114.099 86.2791C113.076 88.4527 113.7 92.0302 115.799 95.2005C117.16 94.748 118.219 93.9929 118.779 92.9397C119.957 90.7253 118.627 87.8393 115.723 85.5531L115.088 85.833C114.76 85.9802 114.429 86.131 114.099 86.2791ZM227.466 101.013C226.507 102.403 225.749 104.31 225.621 106.342C225.335 110.869 227.711 114.668 230.926 114.827C233.887 114.974 236.52 111.983 237.144 107.976C233.862 105.581 230.667 103.178 227.466 101.013Z" fill="#42546B"/>
<path d="M146.502 181.041C149.467 176.485 148.596 171.114 144.557 169.044C140.518 166.975 134.84 168.991 131.876 173.548C128.911 178.104 129.782 183.475 133.821 185.545C137.86 187.614 143.538 185.598 146.502 181.041Z" fill="#54667D"/>
<path d="M207.862 168.818C212.804 166.499 214.118 160.099 210.795 154.523C207.472 148.947 200.772 146.308 195.83 148.627C190.887 150.946 189.574 157.346 192.897 162.922C196.22 168.497 202.92 171.137 207.862 168.818Z" fill="#54667D"/>
<path d="M207.862 168.818C212.804 166.499 214.118 160.099 210.795 154.523C207.472 148.947 200.772 146.308 195.83 148.627C190.887 150.946 189.574 157.346 192.897 162.922C196.22 168.497 202.92 171.137 207.862 168.818Z" fill="#54667D"/>
<path d="M192.797 163.032C193.041 163.443 193.309 163.832 193.588 164.21C198.539 161.577 204.234 158.005 210.102 153.729C206.624 148.782 200.394 146.547 195.727 148.738C190.787 151.057 189.474 157.457 192.797 163.032Z" fill="#42546B"/>
<path d="M172.674 198.052C168.739 197.611 165.039 200.853 164.408 205.291C164.262 206.306 164.293 207.335 164.498 208.341C168.979 209.564 173.152 210.494 176.924 211.075C177.807 209.907 178.431 208.476 178.658 206.886C179.287 202.448 176.609 198.492 172.674 198.052Z" fill="#54667D"/>
<path d="M172.674 198.052C168.739 197.611 165.039 200.853 164.408 205.291C164.262 206.306 164.293 207.335 164.498 208.341C168.979 209.564 173.152 210.494 176.924 211.075C177.807 209.907 178.431 208.476 178.658 206.886C179.287 202.448 176.609 198.492 172.674 198.052Z" fill="#54667D"/>
<path d="M178.656 206.885C178.747 206.243 178.762 205.613 178.721 205C174.257 204.609 169.684 203.942 165.032 203.028C164.736 203.734 164.52 204.492 164.407 205.29C164.263 206.3 164.293 207.325 164.497 208.327C165.264 208.536 166.025 208.741 166.773 208.932C167.069 209.009 167.375 209.093 167.668 209.166C168.873 209.467 170.05 209.741 171.203 209.993C171.587 210.076 171.955 210.147 172.334 210.225C173.109 210.386 173.875 210.539 174.623 210.676C175.069 210.758 175.505 210.831 175.943 210.903C176.28 210.96 176.604 211.004 176.936 211.055C177.81 209.892 178.431 208.467 178.656 206.885Z" fill="#42546B"/>
<path d="M238.103 172.58C233.411 172.055 228.998 175.919 228.246 181.212C227.53 186.254 230.397 190.764 234.724 191.635C238.308 189.1 241.789 186.44 245.122 183.726C245.163 183.523 245.207 183.321 245.236 183.114C245.988 177.821 242.794 173.105 238.103 172.58Z" fill="#54667D"/>
<path d="M228.815 186.425C229.851 189.088 231.996 191.085 234.725 191.634C238.309 189.099 241.789 186.439 245.122 183.725C245.163 183.522 245.207 183.321 245.237 183.113C245.655 180.178 244.854 177.423 243.262 175.459C238.929 179.195 233.994 182.925 228.815 186.425Z" fill="#42546B"/>
<path d="M246.232 150.504C248.583 149.053 248.387 145.192 245.792 141.881C243.197 138.569 239.187 137.061 236.836 138.512C234.484 139.963 234.681 143.824 237.275 147.135C239.87 150.447 243.88 151.955 246.232 150.504Z" fill="#54667D"/>
<path d="M240.253 138.305C238.983 138.015 237.78 138.116 236.842 138.695C234.489 140.145 234.684 144.006 237.277 147.318C237.353 147.415 237.435 147.505 237.513 147.6C239.733 145.265 240.692 142.175 240.253 138.305Z" fill="#42546B"/>
<path d="M95.7548 158.52C99.1222 157.66 100.823 153.788 99.5527 149.871C98.2828 145.954 94.5234 143.475 91.1559 144.335C87.7885 145.194 86.0881 149.067 87.358 152.984C88.6279 156.901 92.3873 159.38 95.7548 158.52Z" fill="#54667D"/>
<path d="M76.0036 145.811C77.494 145.693 78.5601 144.191 78.3847 142.458C78.2093 140.724 76.859 139.415 75.3686 139.534C73.8782 139.653 72.8121 141.154 72.9875 142.888C73.1628 144.621 74.5132 145.93 76.0036 145.811Z" fill="#54667D"/>
<path d="M109.308 104.628C110.424 103.743 110.27 101.974 108.964 100.676C107.658 99.3776 105.694 99.0421 104.578 99.9265C103.462 100.811 103.616 102.58 104.922 103.879C106.228 105.177 108.192 105.512 109.308 104.628Z" fill="#54667D"/>
<path d="M259.689 149.377C260.804 147.945 260.711 146.173 259.48 145.418C258.249 144.662 256.347 145.211 255.231 146.642C254.116 148.074 254.21 149.847 255.441 150.602C256.671 151.357 258.573 150.809 259.689 149.377Z" fill="#54667D"/>
<path d="M259.442 145.533C258.216 144.781 256.327 145.323 255.21 146.741C256.189 147.761 256.962 148.576 257.423 149.035C257.875 149.487 258.232 149.977 258.51 150.497C258.957 150.227 259.344 149.886 259.652 149.492C260.767 148.061 260.674 146.288 259.442 145.533Z" fill="#42546B"/>
<path d="M190.907 173.594C192.022 172.163 191.928 170.39 190.698 169.635C189.467 168.879 187.565 169.428 186.449 170.859C185.334 172.291 185.427 174.064 186.658 174.819C187.889 175.574 189.791 175.026 190.907 173.594Z" fill="#54667D"/>
<path d="M220.899 194.351C222.458 192.968 222.065 190.378 220.023 188.565C217.98 186.752 215.061 186.404 213.502 187.787C211.944 189.17 212.337 191.76 214.379 193.573C216.422 195.385 219.341 195.734 220.899 194.351Z" fill="#54667D"/>
<path d="M220.899 194.351C222.458 192.968 222.065 190.378 220.023 188.565C217.98 186.752 215.061 186.404 213.502 187.787C211.944 189.17 212.337 191.76 214.379 193.573C216.422 195.385 219.341 195.734 220.899 194.351Z" fill="#54667D"/>
<path d="M50.1042 140.899C53.3313 138.035 53.9515 133.943 51.4893 131.758C49.0272 129.573 44.4151 130.123 41.188 132.987C37.9608 135.851 37.3407 139.943 39.8028 142.128C42.265 144.313 46.877 143.763 50.1042 140.899Z" fill="#54667D"/>
<path d="M85.0354 271.315C84.0687 274.412 83.5967 280.307 83.5967 285.433C168.332 343.044 215.295 319.502 251.546 292.688C252.48 287.649 252.255 283.403 250.856 280.381C182.286 333.826 123.013 302.184 85.0354 271.315Z" fill="#8F4417"/>
<path d="M157.545 308.648C157.545 312.278 158.025 318.926 159.217 321.566C167.13 325.016 183.638 325.621 193.53 321.445C195.253 318.231 196.309 311.335 196.31 307.917C196.31 306.83 195.214 306.352 193.667 306.637C189.547 307.398 184.416 308.008 176.896 307.878C166.671 307.702 163.845 307.635 160.289 306.863C158.868 306.555 157.545 307.028 157.545 308.648Z" fill="#BCE1EB"/>
<path d="M163.277 309.076C162.976 311.387 163.401 317.493 164.535 320.004C170.646 321.806 182.028 322.037 188.304 320.133C190.02 316.632 190.404 311.385 190.254 309.076C174.138 310.762 163.277 309.076 163.277 309.076Z" fill="#8F4417"/>
<path d="M185.814 314.363C184.836 314.622 184.436 317.148 186.428 317.366C189.341 317.684 191.329 317.3 192.466 316.958C193.975 316.504 194.179 312.762 192.414 313.099C190.393 313.484 187.788 313.839 185.814 314.363Z" fill="#DCF2F7"/>
<path d="M287.463 211.279C283.768 222.1 307.939 242.041 321.127 246.076C330.922 249.073 350.68 231.99 348.938 221.847C346.671 208.64 288.997 206.788 287.463 211.279Z" fill="#DBAF3E"/>
<path d="M296.692 172.26C291.254 181.752 280.573 196.152 279.053 200.648C277.534 205.143 295.557 227.949 317.781 237.461C332.135 243.604 361.616 212.736 355.705 200.448C349.795 188.16 330.825 168.659 327.448 163.884C313.13 166.424 296.692 172.26 296.692 172.26Z" fill="#A99FEB"/>
<path d="M296.692 172.26C296.244 173.04 295.762 173.854 295.252 174.693C306.819 183.438 324.156 179.122 328.546 172.249C342.281 183.737 346.193 196.33 349.542 203.311C350.122 204.52 331.234 241.902 314.248 232.888C303.328 227.094 297.587 221.899 286.583 213.94C293.671 222.178 305.035 232.005 317.78 237.461C332.134 243.604 361.615 212.736 355.704 200.448C349.794 188.16 330.825 168.659 327.447 163.884C313.13 166.424 296.692 172.26 296.692 172.26Z" fill="#9388DB"/>
<path d="M181.502 238.498L185.424 246.091L190.536 245.69L193.66 237.298L181.502 238.498Z" fill="#BA580D"/>
<path d="M188.628 279.538C199.534 279.538 208.375 271.692 208.375 262.014C208.375 252.336 199.534 244.49 188.628 244.49C177.721 244.49 168.88 252.336 168.88 262.014C168.88 271.692 177.721 279.538 188.628 279.538Z" fill="#D47B11"/>
<path d="M188.625 275.073C196.753 275.073 203.342 269.226 203.342 262.014C203.342 254.801 196.753 248.954 188.625 248.954C180.497 248.954 173.908 254.801 173.908 262.014C173.908 269.226 180.497 275.073 188.625 275.073Z" fill="#1774D1"/>
<path d="M196.687 254.273C197.239 253.728 197.035 252.768 196.233 252.129C195.43 251.489 194.332 251.413 193.781 251.958C193.229 252.504 193.433 253.464 194.235 254.103C195.038 254.743 196.136 254.819 196.687 254.273Z" fill="#1E91E8"/>
<path d="M189.925 273.363C182.227 273.363 175.986 267.825 175.986 260.993C175.986 255.486 180.045 250.823 185.65 249.221C178.948 250.442 173.908 255.706 173.908 262.014C173.908 269.227 180.498 275.073 188.625 275.073C195.096 275.073 200.579 271.362 202.551 266.211C200.331 270.432 195.52 273.363 189.925 273.363Z" fill="#104FB3"/>
<path d="M121.746 86.1644C125.294 92.1816 130.672 96.6323 134.894 100.079C142.547 106.327 192.337 114.716 200.077 104.724C201.935 102.326 206.156 98.4306 211.167 91.8372C237.589 57.0685 106.083 59.5992 121.746 86.1644Z" fill="#752513"/>
<path d="M121.3 99.4047C123.13 105.724 129.353 106.782 131.125 106.511C134.39 106.012 136.14 102.456 133.398 97.6173C127.352 86.9413 119.123 91.8836 121.3 99.4047Z" fill="#F5AB6C"/>
<path d="M121.894 98.5307C122.963 102.777 126.5 105.374 127.851 104.774C126.059 103.376 124.033 97.4812 129.774 100.528C125.329 92.6833 120.824 94.2844 121.894 98.5307Z" fill="#D9573D"/>
<path d="M215.38 99.4056C213.55 105.725 207.327 106.783 205.555 106.512C202.29 106.013 200.54 102.457 203.281 97.6183C209.329 86.9422 217.558 91.8845 215.38 99.4056Z" fill="#F5AB6C"/>
<path d="M214.791 98.5307C213.722 102.777 210.185 105.374 208.833 104.774C210.625 103.376 212.652 97.4812 206.91 100.528C211.355 92.6833 215.861 94.2844 214.791 98.5307Z" fill="#D9573D"/>
<path d="M136.651 81.8831C138.171 92.8617 125.897 106.967 122.858 116.558C119.819 126.148 154.507 152.336 176.742 152.336C198.428 152.336 222.948 131.855 216.188 120.951C207.297 106.611 202.212 100.176 205.484 87.2906C213.301 56.5083 132.533 52.1258 136.651 81.8831Z" fill="#F5AB6C"/>
<path d="M147.516 96.1639C144.603 97.9813 145.996 98.5992 148.318 98.4683C151.168 98.3075 161.067 100.529 163.432 101.878C165.48 97.5506 162.345 93.6923 158.154 93.317C153.402 92.8918 150.083 94.5628 147.516 96.1639Z" fill="#212133"/>
<path d="M154.344 134.816C149.376 124.672 125.753 124.655 119.36 124.355C116.32 133.945 154.485 166.416 176.719 166.416C195.35 166.416 223.38 132.896 218.992 125.553C210.931 128.65 205.174 121.084 198.864 134.504C188.427 156.703 162.434 151.334 154.344 134.816Z" fill="#B59B83"/>
<path d="M155.216 124.693C151.409 133.397 160.249 144.314 177.798 144.314C190.464 144.314 200.541 135.413 194.807 126.054C188.191 132.426 169.036 129.765 155.216 124.693Z" fill="#04070D"/>
<path d="M156.649 126.91C156.616 126.985 156.602 127.061 156.572 127.136C158.452 133.183 166.008 138.566 177.885 138.566C185.55 138.566 192.192 135.057 194.423 130.207C194.18 129.535 194.338 125.556 193.92 124.874C187.698 127.673 169.044 127.402 156.649 126.91Z" fill="#F7F7D9"/>
<path d="M177.726 135.228C169.602 135.915 163.686 136.895 160.569 139.468C164.577 142.363 170.403 144.314 177.798 144.314C184.542 144.314 190.551 141.791 193.831 138.019C190.265 135.201 184.185 134.682 177.726 135.228Z" fill="#F7F7D9"/>
<path d="M163.151 117.062C143.618 123.955 132.417 123.705 127.848 117.811C125.28 114.498 132.516 98.3295 133.787 94.9946C127.238 101.178 113.181 113.962 108.043 119.56C108.803 142.936 129.771 164.016 141.672 151.324C145.585 147.152 153.468 137.467 160.224 130.275C169.318 133.347 178.361 135.884 193.728 129.441C198.625 134.985 206.093 142.883 208.832 145.443C221.692 157.464 244.208 149.275 229.798 119.86C220.003 113.366 209.758 106.549 204.561 92.6857C203.686 99.3681 207.591 110.344 210.04 116.788C215.036 129.935 188.457 117.293 187.693 116.863C182.74 114.076 169.964 114.657 163.151 117.062Z" fill="#752513"/>
<path d="M161.068 119.06C141.535 125.953 130.32 125.553 125.752 119.659C123.183 116.346 128.163 106.311 129.434 102.976C122.884 109.16 118.248 113.412 113.11 119.011C113.87 142.387 130.125 156.255 143 144.335C148.319 139.411 152.118 134.845 158.874 127.652C167.968 130.724 178.631 134.096 193.998 127.652C198.895 133.197 202.235 136.48 204.975 139.041C217.834 151.061 237.397 146.478 227.04 120.159C218.096 115.161 212.685 112.167 208.07 103.876C209.028 108.958 210.237 111.219 212.686 117.662C217.682 130.809 190.935 120.19 190.171 119.76C184.879 129.15 173.106 131.213 161.068 119.06Z" fill="#99391C"/>
<path d="M119.346 108.476C117.912 109.825 116.506 111.156 115.177 112.431C119.26 109.874 124.137 107.285 129.943 104.792C130.091 104.379 130.239 103.97 130.39 103.565C126.606 104.937 122.896 106.62 119.346 108.476ZM136.635 154.618C136.318 147.234 137.861 136.198 145.049 121.813C144.648 121.869 144.259 121.913 143.871 121.957C137.619 132.795 134.689 145.998 133.336 155.124C134.46 155.128 135.577 154.957 136.635 154.618ZM205.42 122.704C205.052 122.676 204.671 122.634 204.28 122.578C212.223 133.716 215.983 143.085 217.604 150.276C218.487 150.492 219.366 150.636 220.24 150.709C217.217 141.99 212.448 131.214 205.42 122.704ZM165.67 116.324C160.994 121.906 157.632 128.845 155.216 135.796C156.045 134.856 156.881 133.921 157.723 132.99C159.574 127.956 162.159 122.393 165.72 116.311L165.67 116.324ZM187.693 116.862L187.685 116.858C189.442 121.715 190.702 126.197 191.551 130.296C191.977 130.135 192.411 129.961 192.847 129.786C191.832 125.468 190.436 121.204 188.535 117.271C188.251 117.14 187.97 117.004 187.693 116.862ZM176.739 122.784C177.274 126.569 177.566 130.085 177.701 133.396C178.085 133.378 178.465 133.367 178.858 133.335C178.523 129.694 177.858 126.128 176.739 122.784ZM109.646 129.764C110.447 132.644 111.535 135.456 112.897 138.165C116.437 131.541 121.272 123.995 127.501 117.104C127.226 116.228 127.257 114.963 127.493 113.47C120.977 118.429 114.754 124.337 109.646 129.764ZM234.384 135.228C234.233 132.753 233.696 129.983 232.689 126.911C225.587 121.622 217.17 116.074 208.153 111.602C208.511 112.637 208.866 113.63 209.21 114.566C220.781 121.498 228.837 128.875 234.384 135.228Z" fill="#69190C"/>
<path d="M147.162 100.964C147.391 107.172 159.493 111.019 164.404 102.501C163.208 106.972 158.537 109.835 152.119 108.121C147.87 106.986 146.968 103.775 147.162 100.964ZM148.319 90.1144C155.644 82.7341 165.375 89.4774 165.375 99.9272C165.375 94.3588 163.306 87.9036 157.927 86.5488C153.658 85.4738 150.98 86.6305 148.319 90.1144Z" fill="#DE7053"/>
<path d="M146.573 54.9735C145.278 59.6941 144.359 65.0307 143.505 68.4601C154.481 76.0276 186.82 79.1879 200.92 72.6564C200.04 67.9579 199.139 63.2624 198.218 58.5701L146.573 54.9735Z" fill="#DEA91B"/>
<path d="M174.044 68.6095C180.018 68.9139 191.501 68.7548 199.659 65.9852C207.817 63.2146 225.098 40.9366 225.323 35.0429C225.549 29.1493 143.506 19.3083 129.744 23.4546C123.933 25.2047 137.681 54.9739 145.124 61.0384C152.257 66.8521 166.944 68.2478 174.044 68.6095Z" fill="#E6274F"/>
<path d="M178.547 34.893C186.482 35.5818 225.099 40.9366 225.324 35.0429C225.549 29.1493 143.507 19.3083 129.744 23.4546C123.932 25.2047 166.836 33.8762 178.547 34.893Z" fill="#C21D49"/>
<path d="M161.435 22.1554L168.114 32.2372L169.818 68.7205L181.745 69.2439L198.699 35.1431L192.997 25.9573L161.435 22.1554Z" fill="#EDC01F"/>
<path d="M161.435 22.1554L168.114 32.2372L198.699 35.1431L192.997 25.9573L161.435 22.1554Z" fill="#F2CB41"/>
<path d="M187.589 25.3054L193.916 34.6875L180.142 69.1736L180.555 69.1918L195.922 34.8783L189.778 25.5689L187.589 25.3054ZM165.376 22.6302L171.248 32.5348L172.215 68.8256L172.777 68.8501L173.534 32.752L167.568 22.8938L165.376 22.6302Z" fill="#DBA41A"/>
<path d="M173.504 20.4565C173.504 20.4565 174.2 24.6619 174.405 26.3012C174.729 28.8981 184.433 29.7214 185.241 27.4752C186.049 25.2289 187.239 21.5061 187.239 21.5061L173.504 20.4565Z" fill="#DEA91B"/>
<path d="M172.544 18.5392C172.544 18.5392 172.717 20.2366 173.111 21.8477C174.012 25.5269 186.481 25.6541 187.437 23.4542C188.408 21.2189 188.788 19.9831 188.788 19.9831L172.544 18.5392Z" fill="#EDC01F"/>
<path d="M169.454 16.0131L172.904 20.8917C172.904 20.8917 175.289 22.3629 180.374 22.7745C186.172 23.2434 188.056 21.9776 188.056 21.9776L192.927 18.71L184.371 0.678223L169.454 16.0131Z" fill="#1774D1"/>
<path d="M186.13 19.9683L186.176 21.1059C186.176 21.1059 183.755 21.9555 180.376 22.7724C186.174 23.2413 188.058 21.9755 188.058 21.9755L192.929 18.7079L184.373 0.676147L186.13 19.9683Z" fill="#1366BA"/>
<path d="M169.454 16.0131L172.904 20.8917C172.904 20.8917 175.289 22.3629 180.374 22.7745C177.675 21.7232 175.225 20.0339 175.225 20.0339L184.37 0.678223L169.454 16.0131Z" fill="#2787E8"/>
<path d="M169.454 16.0131L172.904 20.8917C172.904 20.8917 175.289 22.3629 180.374 22.7745C186.172 23.2434 188.056 21.9776 188.056 21.9776L192.927 18.71L184.371 0.678223L191.241 17.2116L186.175 21.108L180.668 21.7232L175.226 20.0339L169.454 16.0131Z" fill="#0F45A1"/>
<path d="M168.756 147.659C174.352 149.633 180.734 149.766 186.696 147.25C184.557 150.127 180.964 155.655 177.798 155.663C174.144 155.67 168.756 147.659 168.756 147.659Z" fill="#752513"/>
<path d="M158.959 94.4584C154.256 93.766 149.28 96.801 148.32 98.4666C154.73 99.318 157.671 99.9659 163.434 101.876C164.742 97.9432 162.589 94.9936 158.959 94.4584Z" fill="#F0EED3"/>
<path d="M158.959 94.4595C157.64 94.265 156.302 94.3713 155.035 94.6512C154.362 95.2374 153.849 95.9526 153.536 96.7419C153.223 97.5312 153.118 98.3736 153.229 99.2046C156.699 99.8107 159.364 100.529 163.434 101.878C164.742 97.9442 162.589 94.9947 158.959 94.4595Z" fill="#AB4F0C"/>
<path d="M163.808 99.5292C163.761 97.1484 162.272 95.382 159.984 94.6941C159.244 94.8778 158.592 95.2708 158.127 95.8134C157.662 96.356 157.41 97.0184 157.408 97.7C157.408 98.1121 157.5 98.5202 157.677 98.9009C157.855 99.2817 158.116 99.6276 158.444 99.919C158.773 100.21 159.163 100.441 159.592 100.599C160.021 100.757 160.481 100.838 160.945 100.838C161.505 100.838 162.057 100.719 162.555 100.491C163.053 100.264 163.483 99.9338 163.808 99.5292Z" fill="#290410"/>
<path d="M157.019 98.5677C157.778 98.5677 158.394 98.0213 158.394 97.3473C158.394 96.6733 157.778 96.127 157.019 96.127C156.259 96.127 155.644 96.6733 155.644 97.3473C155.644 98.0213 156.259 98.5677 157.019 98.5677Z" fill="#F7F7E8"/>
<path d="M198.373 100.471C200.302 103.035 198.789 103.161 196.729 102.316C194.199 101.278 184.31 100.205 181.624 100.693C181.478 96.1163 185.862 93.5847 189.824 94.5543C194.316 95.6529 196.672 98.2108 198.373 100.471Z" fill="#212133"/>
<path d="M197.931 104.912C195.192 110.627 182.341 110.336 181.227 100.82C180.522 105.373 183.714 109.539 190.395 109.997C194.821 110.3 196.969 107.596 197.931 104.912ZM200.54 97.2695C196.713 88.0401 185.621 88.3645 181.369 98.1091C183.634 92.9161 187.586 88.3799 193.153 88.8406C197.572 89.205 199.478 93.1678 200.54 97.2695Z" fill="#DE7053"/>
<path d="M188.642 95.3423C185.127 94.6935 181.997 96.7044 181.626 100.693C184.944 100.602 192.148 101.299 196.731 102.315C196.518 100.499 193.196 96.1819 188.642 95.3423Z" fill="#F0EED3"/>
<path d="M189.124 95.4554C188.399 95.7393 187.744 96.1474 187.197 96.6562C186.651 97.165 186.222 97.7645 185.937 98.4205C185.61 99.1837 185.485 100.004 185.573 100.817C189.104 101.057 193.546 101.609 196.728 102.315C196.523 100.564 193.424 96.4995 189.124 95.4554Z" fill="#AB4F0C"/>
<path d="M195.838 101.019C195.908 100.859 195.951 100.696 195.989 100.534C195.241 99.3288 193.97 97.9339 192.342 96.8717C191.697 96.9162 191.078 97.1215 190.558 97.4641C190.038 97.8066 189.638 98.2725 189.403 98.8081C189.237 99.1869 189.158 99.5913 189.171 99.9975C189.184 100.404 189.289 100.803 189.478 101.173C191.418 101.391 193.391 101.671 195.143 101.996C195.433 101.719 195.675 101.393 195.838 101.019Z" fill="#290410"/>
<path d="M189.656 100.088C190.397 100.088 190.997 99.5553 190.997 98.8979C190.997 98.2405 190.397 97.7075 189.656 97.7075C188.915 97.7075 188.314 98.2405 188.314 98.8979C188.314 99.5553 188.915 100.088 189.656 100.088Z" fill="#F7F7E8"/>
<path d="M179.813 94.4588C183.059 101.426 189.438 109.416 189.438 114.076C189.438 118.736 186.483 125.328 177.448 125.628C168.413 125.928 162.334 117.536 161.068 115.588C161.913 111.692 167.317 108.654 168.414 109.348C170.483 102.438 171.75 100.902 175.93 94.9931C177.215 93.8754 178.687 93.7845 179.813 94.4588Z" fill="#F59A69"/>
<path d="M179.813 94.4592C183.059 101.427 189.438 109.417 189.438 114.077C189.438 118.736 186.483 125.329 177.448 125.629C168.413 125.929 162.334 117.537 161.068 115.589C161.913 111.692 167.317 108.655 168.414 109.349C169.512 110.044 169.547 111.168 169.319 112.142C168.726 108.631 165.29 110.531 163.138 114.952C166.402 120.821 173.032 124.305 177.28 124.093C184.542 123.731 187.04 119.346 187.328 114.077C187.695 107.364 181.797 103.788 179.813 94.4592Z" fill="#DE7053"/>
<path d="M144.988 83.791C153.995 82.5234 159.366 83.0577 166.484 86.2326C170.353 83.8019 171.324 77.8764 163.28 76.9441C155.191 76.0055 147.746 80.8887 144.988 83.791ZM202.437 89.3848C196.731 85.4548 191.282 85.9391 183.43 87.1368C180.527 83.811 181.544 77.8919 189.545 79.0795C197.591 80.2735 200.922 84.9241 202.437 89.3848Z" fill="#752513"/>
<path d="M296.034 149.791C303.978 153.548 322.751 152.961 330.111 142.418C334.798 135.704 323.355 135.799 319.342 136.135C313.259 136.645 305.082 137.64 297.005 140.914C294.409 141.966 289.426 146.665 296.034 149.791Z" fill="#DBAF3E"/>
<path d="M55.8574 157.966C60.1654 191.966 70.8364 220.477 88.8934 249.222C93.1041 255.924 136.607 257.261 149.238 238.135C172.703 202.605 158.58 189.393 151.717 188.881C133.336 187.51 104.432 179.181 93.4604 178.612C82.4003 172.769 59.51 160.293 55.8574 157.966Z" fill="#867BD1"/>
<path d="M55.8574 157.966C60.1654 191.966 70.8364 220.477 88.8934 249.222C93.1041 255.924 136.607 257.261 149.238 238.135C172.703 202.605 158.58 189.393 151.717 188.881C160.57 198.012 106.052 201.554 101.258 218.93C100.443 221.885 100.117 230.782 109.89 243.525C108.172 244.491 100.46 244.491 95.2749 242.405C88.532 235.504 70.1462 226.833 66.7558 172.323C75.7894 175.128 89.346 177.309 93.4604 178.612C82.4003 172.769 59.51 160.293 55.8574 157.966Z" fill="#7667B5"/>
<path d="M81.8468 173.506C98.1846 183.628 109.581 185.497 129.446 190.604C131.175 193.563 130.132 198.011 124.925 206.424C128.249 198.011 126.405 196.639 124.925 193.327C100.391 186.979 94.4778 182.369 81.8468 173.506ZM65.7354 168.964C77.3269 188.963 77.8676 199.705 88.1454 215.632C95.5171 219.642 103.653 221.425 112.267 217.169C103.308 219.226 92.736 214.677 89.8462 211.775C79.72 191.676 75.7909 185.423 65.7354 168.964Z" fill="#554594"/>
<path d="M60.1631 168.964C66.3552 199.404 78.0164 232.803 92.2816 246.091C100.52 248.423 110.031 247.521 116.015 242.405C108.037 246.126 98.1317 244.415 94.475 243.177C80.4197 223.844 68.0406 199.431 60.1631 168.964Z" fill="#554594"/>
<path d="M164.692 204.412C155.109 196.962 124.667 208.276 115.084 217.272C107.967 223.953 117.354 246.971 128.484 249.748C142.978 253.363 168.671 207.504 164.692 204.412Z" fill="#DBAF3E"/>
<path d="M205.268 230.829C197.766 222.518 183.064 205.083 179.075 202.001C175.087 198.918 144.241 204.08 125.308 218.121C113.08 227.189 132.608 263.755 147.66 264.046C162.713 264.337 190.557 257.048 196.852 256.287C200.151 243.665 205.268 230.829 205.268 230.829Z" fill="#A99FEB"/>
<path d="M205.269 230.828C203.821 229.216 202.383 227.597 200.956 225.971C187.208 231.713 183.888 238.26 187.813 253.723C170.354 260.087 155.813 258.055 147.265 257.882C145.785 257.852 115.202 227.164 131.46 217.151C141.913 210.714 149.615 208.215 162.325 202.604C150.944 204.936 136.168 210.068 125.31 218.12C113.082 227.188 132.61 263.753 147.662 264.045C162.715 264.336 190.559 257.046 196.854 256.286C200.152 243.664 205.269 230.828 205.269 230.828Z" fill="#9388DB"/>
<path d="M208.663 227.087C206.883 225.71 196.207 225.122 192.4 237.297C188.229 250.638 193.809 261.038 200.531 261.168C207.253 261.298 210.948 259.044 212.628 251.517C213.896 245.841 210.444 228.464 208.663 227.087Z" fill="#DBAF3E"/>
<path d="M216.13 232.195L279.612 242.406L299.139 124.173L203.126 123.877L216.13 232.195Z" fill="#D085F2"/>
<path d="M279.61 242.406L322.817 232.873L354.426 117.971L299.138 124.173L279.61 242.406Z" fill="#AD6CE0"/>
<path d="M299.139 124.173L354.428 117.971L348.381 139.949L342.515 141.326L316.175 234.339L314.579 234.678L334.308 143.255L294.441 152.619L212.48 143.461L220.842 228.591L279.612 242.406L216.13 232.195L205.382 142.669L203.126 123.877L299.139 124.173Z" fill="#9B59CF"/>
<path d="M233.633 235.863L248.909 238.136L262.115 128.355L230.302 128.637L233.633 235.863Z" fill="#F2E76A"/>
<path d="M254.471 191.965L231.639 171.649L230.962 149.859L258.742 157.067L254.471 191.965Z" fill="#FFFDA1"/>
<path d="M253.26 202.1L248.907 238.135L233.632 235.862L232.372 195.314L253.26 202.1Z" fill="#DBB651"/>
<path d="M230.302 128.637L262.115 128.355L260.222 144.095L230.598 138.147L230.302 128.637Z" fill="#D19D49"/>
<path d="M313.807 235.553L343.492 123.867L321.323 126.354L299.784 237.989L313.807 235.553Z" fill="#F2E76A"/>
<path d="M315.1 158.603L335.193 155.083L330.485 172.798L308.944 190.503L315.1 158.603Z" fill="#FFFDA1"/>
<path d="M299.784 237.988L307.545 197.765L325.964 189.814L313.807 235.553L299.784 237.988Z" fill="#DBB651"/>
<path d="M340.732 134.243L318.26 142.225L321.321 126.354L343.491 123.867L340.732 134.243Z" fill="#D19D49"/>
<path d="M197.214 133.565L304.953 138.049L308.26 115.081L193.376 118.014L197.214 133.565Z" fill="#D085F2"/>
<path d="M197.214 133.566L211.243 134.149L206.097 117.69L193.376 118.015L197.214 133.566Z" fill="#9B59CF"/>
<path d="M304.952 138.049L356.214 127.284L361.799 105.818L308.259 115.081L304.952 138.049Z" fill="#AD6CE0"/>
<path d="M308.26 115.081L361.8 105.818L245.925 109.237L193.376 118.015L308.26 115.081Z" fill="#E193F5"/>
<path d="M233.315 135.517L257.887 136.795L258.481 136.435L257.79 115.352L303.028 107.552L303.185 106.82L273.856 107.533L226.028 115.567L233.315 135.517Z" fill="#F2E76A"/>
<path d="M228.604 122.619L227.096 118.49L257.852 117.243L258.238 129.039L228.604 122.619Z" fill="#FFFDA1"/>
<path d="M230.045 126.562L258.334 131.936L258.481 136.436L257.887 136.795L233.316 135.518L230.045 126.562ZM269.989 108.183L293.759 107.708L294.19 109.076L259.463 115.064L259.239 113.837L235.249 114.019L269.989 108.183Z" fill="#DBB651"/>
<path d="M298.058 106.945L303.185 106.82L303.029 107.552L257.791 115.352L258.481 136.435L257.887 136.795L255.205 114.552L298.058 106.945Z" fill="#D19D49"/>
<path d="M351.064 128.76L327.131 133.861L326.475 133.6L322.966 112.739L218.673 113.773L216.221 114.199L216.405 113.212L237.914 109.975L353.543 106.681L351.064 128.76Z" fill="#F2E76A"/>
<path d="M351.064 128.76L327.131 133.861L326.475 133.6L322.966 112.739L218.673 113.773L216.221 114.199L216.405 113.212L237.914 109.975L353.543 106.681L351.064 128.76Z" fill="#F2E76A"/>
<path d="M352.545 115.561L325.242 126.283L323.279 114.611L353.044 111.117L352.545 115.561Z" fill="#FFFDA1"/>
<path d="M352.094 119.582L351.063 128.76L327.131 133.861L326.474 133.6L325.725 129.148L352.094 119.582Z" fill="#DBB651"/>
<path d="M322.966 112.739L218.673 113.773L216.221 114.199L216.405 113.212H216.406L325.353 111.548L327.131 133.862L326.475 133.6L322.966 112.739Z" fill="#D19D49"/>
<path d="M257.572 107.515C268.965 107.706 273.541 107.13 273.541 107.13L268.11 112.077C268.11 112.077 258.852 112.189 243.799 111.739C220.825 111.053 222.271 106.705 222.271 106.705L225.185 89.9153C225.185 89.9162 226.175 106.988 257.572 107.515Z" fill="#C9AA4C"/>
<path d="M273.54 107.129L268.109 112.076C268.109 112.076 264.641 112.117 258.523 112.047C258.606 110.615 258.511 109.095 258.275 107.523C269.14 107.679 273.54 107.129 273.54 107.129Z" fill="#CC853F"/>
<path d="M223.683 108.575C221.991 107.562 222.27 106.705 222.27 106.705L225.184 89.9153C225.184 89.9153 225.594 96.7758 233.888 101.933C229.363 102.705 225.232 104.57 223.683 108.575Z" fill="#C4903C"/>
<path d="M225.186 89.9148C225.186 89.9148 236.287 77.6031 249.632 82.0265C262.976 86.45 274.619 102.245 274.619 102.245C274.619 102.245 273.636 108.513 268.108 112.076C257.665 109.587 252.833 98.9834 240.072 96.2037C227.311 93.4241 222.271 106.705 222.271 106.705L225.186 89.9148Z" fill="#F2E76A"/>
<path d="M241.608 81.1911C244.319 80.8847 247.072 81.1717 249.628 82.0271C262.973 86.4505 274.616 102.245 274.616 102.245C274.616 102.245 273.633 108.513 268.105 112.077C260.131 110.176 255.419 103.554 247.961 99.2865C244.462 94.2851 241.975 88.0943 241.608 81.1911Z" fill="#E6C955"/>
<path d="M235.389 82.8446C236.761 86.7973 237.833 91.7115 238.428 95.9377C233.221 95.328 229.424 97.4498 226.825 99.975C227.356 96.3357 228.303 91.3825 228.113 87.2399C229.887 85.8142 232.39 84.104 235.389 82.8446Z" fill="#FFFDA1"/>
<path d="M281.938 51.6488C281.938 51.6488 269.48 83.3607 270.98 91.8205C272.481 100.28 283.779 110.158 283.779 110.158L268.246 112.084C268.246 112.084 251.766 101.095 248.752 87.7178C245.739 74.3403 250.402 56.4984 250.402 56.4984L281.938 51.6488Z" fill="#DBB651"/>
<path d="M281.938 51.6488C281.938 51.6488 277.437 63.1099 274.171 74.0904C266.391 67.2381 257.972 63.2699 249.385 61.199C249.932 58.3067 250.404 56.4975 250.404 56.4975L281.938 51.6488ZM268.248 112.083C268.248 112.083 266.52 110.929 264.086 108.922C267.949 106.174 271.041 102.586 273.768 98.5038C277.594 104.746 283.78 110.158 283.78 110.158L268.248 112.083Z" fill="#C4903C"/>
<path d="M285.984 73.5881C271.259 57.172 250.402 56.4986 250.402 56.4986L281.937 51.6499C281.937 51.6499 301.499 50.4041 319.4 65.6572C337.299 80.9102 289.388 109.464 289.388 109.464L268.246 112.084C268.246 112.083 300.71 90.0043 285.984 73.5881Z" fill="#F2E76A"/>
<path d="M276.166 65.2092C284.277 62.474 296.141 59.0338 307.527 57.7753C311.414 59.7253 315.447 62.2878 319.401 65.6562C324.722 70.1905 324.227 75.8997 320.904 81.6844C309.23 80.275 296.686 84.2959 289.202 87.3591C290.461 82.7157 289.901 77.9524 285.986 73.5881C283.148 70.4192 279.846 67.6013 276.166 65.2092Z" fill="#FFFDA1"/>
<path d="M289.388 109.463L268.247 112.083C268.247 112.083 273.111 108.768 278.219 103.761C283.732 103.095 293.688 101.717 303.813 99.4587C296.253 105.371 289.388 109.463 289.388 109.463Z" fill="#DBB651"/>
<path d="M351.555 153.512C355.225 151.895 352.633 143.589 349.674 144.837C346.714 146.086 343.476 148.022 339.78 149.363C336.591 150.521 339.487 156.067 341.823 156.404C343.868 156.699 349.321 154.497 351.555 153.512Z" fill="#F5AB6C"/>
<path d="M339.778 149.363C336.589 150.521 339.485 156.067 341.821 156.404C343.866 156.699 349.321 154.496 351.554 153.512C352.207 153.224 352.659 152.723 352.949 152.102C349.484 153.587 346.748 154.281 342.577 155.49C340.901 154.666 338.346 152.114 339.778 149.363Z" fill="#D97948"/>
<path d="M349.153 154.469C345.982 155.2 342.39 156.558 338.474 157.257C335.096 157.859 336.538 162.779 338.761 163.501C340.706 164.133 346.531 162.884 348.933 162.291C352.88 161.318 352.324 153.739 349.153 154.469Z" fill="#F5AB6C"/>
<path d="M336.967 161.607L336.896 161.595C337.399 162.677 338.058 163.275 338.755 163.502C340.701 164.134 346.525 162.885 348.927 162.292C349.63 162.119 350.273 161.73 350.738 161.078C343.159 162.978 341.164 163.129 336.967 161.607Z" fill="#D97948"/>
<path d="M348.756 162.305C345.819 162.505 342.396 163.203 338.805 163.271C335.708 163.329 336.253 167.496 338.092 168.447C339.701 169.281 345.08 168.994 347.313 168.807C350.981 168.502 351.694 162.105 348.756 162.305Z" fill="#F5AB6C"/>
<path d="M349.422 167.721C342.079 168.324 337.873 168.311 336.722 166.564C337.072 167.592 337.526 168.156 338.09 168.448C339.699 169.281 345.078 168.995 347.311 168.808C347.963 168.753 348.78 168.486 349.422 167.721Z" fill="#D97948"/>
<path d="M346.736 168.542C344.061 168.369 340.874 168.586 337.632 168.214C334.836 167.894 334.37 172.879 335.879 173.957C337.2 174.9 342.086 175.29 344.122 175.39C347.471 175.556 349.41 168.715 346.736 168.542Z" fill="#F5AB6C"/>
<path d="M345.754 174.884C339.053 174.542 335.828 173.837 335.06 172.127C335.14 172.928 335.416 173.627 335.879 173.958C337.2 174.901 342.085 175.291 344.122 175.391C344.718 175.421 345.266 175.221 345.754 174.884Z" fill="#D97948"/>
<path d="M236.175 225.216C231.82 225.009 226.12 227.114 227.368 227.918C241.696 237.139 253.222 238.167 256.682 238.463C264.126 239.099 264.529 245.948 261.394 245.764C257.856 245.557 248.296 245.826 237.029 249.886C230.152 249.174 214.68 250.356 206.397 253.051C199.111 249.242 198.265 239.336 199.928 233.083C202.608 232.06 208.991 220.894 213.194 219.675C220.016 217.697 230.612 219.338 235.972 210.724C243.169 214.353 243.02 221.876 236.175 225.216Z" fill="#F5AB6C"/>
<path d="M236.177 225.216C231.822 225.009 226.122 227.114 227.37 227.918C241.698 237.139 253.224 238.167 256.684 238.463C264.128 239.099 264.531 245.948 261.396 245.764C264.346 243.814 259.425 239.066 257.001 239.071C250.124 238.359 240.359 236.636 226.64 228.057C225.63 227.529 226.083 224.967 235.898 224.076C239.361 221.734 243.751 217.563 236.282 212.019C231.496 219.242 216.323 219.591 213.917 220.62C210.576 222.048 205.43 230.622 200.731 233.496C199.366 242.407 201.575 249.568 206.399 253.052C195.645 247.101 200.139 232.993 199.93 233.084C202.61 232.061 208.993 220.895 213.196 219.676C220.018 217.698 230.614 219.339 235.973 210.725C243.171 214.353 243.022 221.876 236.177 225.216Z" fill="#D97948"/>
</svg>
