<svg width="100" height="100" viewBox="0 0 100 100" fill="none" xmlns="http://www.w3.org/2000/svg">
<circle cx="50" cy="50" r="50" fill="#F6B4C0"/>
<path d="M64.416 42.672C64.416 44.6507 63.9493 46.5173 63.016 48.272C62.0827 50.0267 60.5893 51.464 58.536 52.584C56.4827 53.6667 53.8507 54.208 50.64 54.208H43.584V70H37.2V31.08H50.64C53.6267 31.08 56.1467 31.6027 58.2 32.648C60.2907 33.656 61.84 35.0373 62.848 36.792C63.8933 38.5467 64.416 40.5067 64.416 42.672ZM50.64 49C53.0667 49 54.8773 48.4587 56.072 47.376C57.2667 46.256 57.864 44.688 57.864 42.672C57.864 38.416 55.456 36.288 50.64 36.288H43.584V49H50.64Z" fill="white"/>
</svg>
