<svg width="100" height="100" viewBox="0 0 100 100" fill="none" xmlns="http://www.w3.org/2000/svg">
<circle cx="50" cy="50" r="50" fill="#1B1464"/>
<path d="M60.5189 15.7144C61.356 15.8973 62.2002 16.038 63.0233 16.2631C68.7567 17.8529 72.9846 23.0095 73.4207 28.9258C73.4419 29.2634 73.4207 29.6011 73.4207 29.988H69.3898C69.2843 27.2163 68.3275 24.7893 66.3507 22.8125C64.388 20.8498 61.9821 19.893 59.1611 19.7945V15.7214C59.6114 15.7214 60.0686 15.7214 60.5189 15.7214V15.7144Z" fill="#20A7DB"/>
<path d="M64.1138 63.9239C59.8718 65.9781 53.3294 66.8012 48.4824 65.8445C49.3125 59.886 47.6453 55.9676 43.3188 53.7305C39.5552 51.7818 34.5886 52.2039 30.9938 55.9816C27.9407 52.3587 25.9076 48.2433 24.9298 43.6214C23.6987 37.7614 24.2193 32.0561 26.5689 26.3228C39.1261 38.901 51.6059 51.4019 64.1067 63.9239H64.1138Z" fill="white"/>
<path d="M52.3246 34.0399C53.5908 32.8932 54.8008 31.8028 56.053 30.6702C56.9746 31.6832 57.861 32.6611 58.8037 33.6952C57.6218 34.7715 56.4751 35.8197 55.3214 36.8749C61.8075 43.361 68.2725 49.8261 74.7587 56.3122C72.6763 58.5493 70.5307 60.4627 68.1037 61.933C54.9345 48.7638 41.8005 35.6298 28.6172 22.4465C30.0523 20.0336 32.0009 17.8809 34.1536 15.876C40.2036 21.933 46.2254 27.9548 52.3175 34.0469L52.3246 34.0399Z" fill="white"/>
<path d="M46.4077 81.2715H52.9149V85.3165H24.3535V81.2926H30.8537C31.5431 77.9722 32.2325 74.701 32.9219 71.3665C36.7067 73.6246 40.4844 73.6387 44.3324 71.3665C45.0219 74.6658 45.7042 77.93 46.4007 81.2574L46.4077 81.2715Z" fill="white"/>
<path d="M44.7619 62.8056C44.776 66.2105 42.0605 68.947 38.6557 68.9681C35.279 68.9892 32.5002 66.2316 32.4932 62.8478C32.4932 59.457 35.2297 56.6923 38.6135 56.6783C41.9972 56.6642 44.7549 59.4078 44.7619 62.8056Z" fill="white"/>
<path d="M59.167 27.9756V23.9869C62.1779 23.7548 65.3717 26.6601 65.1958 30.0017H61.2212C61.0242 28.8761 60.3911 28.1445 59.167 27.9756Z" fill="#20A7DB"/>
</svg>
