<svg width="100" height="100" viewBox="0 0 100 100" fill="none" xmlns="http://www.w3.org/2000/svg">
<circle cx="50" cy="50" r="50" fill="#1B1464"/>
<path d="M86.6723 77.2286C86.3311 77.8904 85.801 78.1522 85.0531 78.1085C84.3997 78.0649 83.7317 78.1086 83.0782 78.0867C82.3666 78.0576 81.8947 77.5995 81.8656 76.9595C81.8366 76.3267 82.2722 75.774 82.9693 75.7231C83.8333 75.6649 84.7191 75.6286 85.5759 75.7522C85.968 75.8104 86.3093 76.254 86.6723 76.5231V77.2286Z" fill="white"/>
<path d="M19.1033 75.643V29.8394H45.6563V75.643H48.0742C48.0742 75.3666 48.0742 75.0975 48.0742 74.8212C48.0742 68.7339 48.0742 62.6393 48.0742 56.5521C48.0742 55.1266 48.9237 54.1084 50.1798 53.9775C51.7264 53.8175 52.8809 54.8793 52.8809 56.5157C52.8881 60.5739 52.8809 64.6321 52.8809 68.6975C52.8809 70.9884 52.8809 73.2721 52.8809 75.6793C53.1786 75.6793 53.4472 75.6793 53.7159 75.6793C61.681 75.6793 69.6462 75.6793 77.6114 75.6793C77.9381 75.6793 78.2721 75.6939 78.5843 75.7812C79.1652 75.9412 79.4339 76.3921 79.3976 76.9593C79.3613 77.5557 79.0127 77.9702 78.3883 78.0575C78.1342 78.0939 77.8728 78.0866 77.6114 78.0866C57.1139 78.0866 36.6093 78.0866 16.1118 78.0866C15.9448 78.0866 15.7851 78.0866 15.6181 78.0866C14.8194 78.0575 14.3039 77.5993 14.2894 76.9157C14.2748 76.2466 14.7976 75.7084 15.5745 75.6866C16.6128 75.6502 17.6511 75.6793 18.6822 75.6721C18.7984 75.6721 18.9073 75.6575 19.0961 75.643H19.1033ZM21.5139 43.6648C21.5139 46.5448 21.5139 49.4248 21.5139 52.2975C21.5139 54.1957 22.4506 55.1339 24.3239 55.1339C29.6969 55.1339 35.0627 55.1339 40.4357 55.1339C42.3163 55.1339 43.253 54.1884 43.253 52.2975C43.253 46.5375 43.253 40.7848 43.253 35.0248C43.253 33.1339 42.3091 32.1812 40.443 32.1812C35.07 32.1812 29.7042 32.1812 24.3311 32.1812C22.4578 32.1812 21.5212 33.1339 21.5139 35.0175C21.5139 37.8975 21.5139 40.7775 21.5139 43.6503V43.6648ZM32.3907 73.2648C34.7432 73.2648 37.103 73.2721 39.4555 73.2648C41.0311 73.2575 42.0113 72.2902 42.0186 70.7048C42.0331 67.1921 42.0331 63.6721 42.0186 60.1593C42.0186 58.5448 41.0311 57.563 39.4047 57.5557C34.7214 57.5412 30.0309 57.5412 25.3477 57.5557C23.7285 57.5557 22.7483 58.5448 22.741 60.1666C22.7265 63.6575 22.7265 67.1484 22.741 70.6393C22.741 72.3121 23.714 73.2575 25.3912 73.2648C27.722 73.2721 30.0527 73.2648 32.3834 73.2648H32.3907ZM51.6683 57.5557C51.6828 56.9012 51.1818 56.3993 50.5138 56.3848C49.8458 56.3703 49.3158 56.8575 49.294 57.4975C49.2722 58.1957 49.8313 58.7775 50.5211 58.7703C51.131 58.7703 51.6465 58.2175 51.661 57.563L51.6683 57.5557Z" fill="white"/>
<path d="M48.0662 23.7742C48.0662 24.5596 48.088 25.2942 48.0662 26.0214C48.0371 26.8724 47.5869 27.3014 46.7302 27.3596C46.5632 27.3742 46.4034 27.3596 46.2364 27.3596C37.0006 27.3596 27.7648 27.3596 18.5362 27.3596C17.055 27.3596 16.6992 27.0033 16.6992 25.5269C16.6992 24.9596 16.6992 24.3996 16.6992 23.7742H48.0734H48.0662Z" fill="white"/>
<path d="M72.1381 31.5483C72.1672 31.8465 72.2035 32.0283 72.2035 32.2029C72.2035 34.0647 72.2107 35.9265 72.2035 37.7883C72.2035 38.0065 72.1744 38.2974 72.0365 38.4429C70.5407 39.9702 69.0232 41.4756 67.375 43.1192C67.375 42.4283 67.375 41.8974 67.375 41.3665C67.375 39.8611 67.375 38.3483 67.375 36.8429C67.375 36.6174 67.3968 36.3265 67.5275 36.1883C69.0232 34.6611 70.5407 33.1556 72.1381 31.5556V31.5483Z" fill="#20A7DB"/>
<path d="M79.449 24.3269C79.449 26.2542 79.4054 28.0869 79.4708 29.9124C79.4998 30.7414 79.2384 31.316 78.6503 31.876C77.3361 33.1269 76.0872 34.4433 74.6931 35.8469C74.6641 35.5124 74.6278 35.316 74.6278 35.1269C74.6278 33.2869 74.6133 31.4469 74.6351 29.6069C74.6351 29.3305 74.7222 28.9814 74.9037 28.7924C76.2978 27.3524 77.7209 25.9414 79.1368 24.5305C79.1949 24.4724 79.2747 24.436 79.4417 24.3269H79.449Z" fill="#20A7DB"/>
<path d="M60.1211 50.3925C60.1211 48.0579 60.1211 45.9416 60.1284 43.8325C60.1284 43.687 60.2082 43.5052 60.3099 43.3961C61.7984 41.8907 63.2941 40.3998 64.8624 38.8289C64.8987 39.047 64.9423 39.1707 64.9423 39.2943C64.9423 41.2289 64.9496 43.1634 64.9423 45.0907C64.9423 45.3089 64.8915 45.5925 64.7535 45.7307C63.2723 47.2434 61.7693 48.7343 60.1211 50.3852V50.3925Z" fill="#20A7DB"/>
<path d="M52.0596 51.8035C53.9547 49.9054 55.7989 48.0654 57.7085 46.1599C57.7085 46.5599 57.7085 46.9454 57.7085 47.3308C57.7085 48.9599 57.7303 50.589 57.6867 52.2108C57.6795 52.5599 57.4907 52.9672 57.2583 53.2363C56.6484 53.949 55.9732 54.6035 55.2326 55.3672C54.7098 53.5781 53.6715 52.4145 52.0668 51.789L52.0596 51.8035Z" fill="#20A7DB"/>
<path d="M81.8945 28.6249V22.8577C82.8094 22.8577 83.4629 23.2722 83.9058 24.014C84.4068 24.8504 84.4213 25.7522 83.8404 26.5304C83.3031 27.2431 82.6206 27.854 81.8945 28.6249Z" fill="#20A7DB"/>
<path d="M40.7841 52.6979H37.2045C37.2045 51.9706 37.2045 51.2724 37.2045 50.5742C37.1899 48.3197 35.8757 46.8579 33.6612 46.7052C32.6809 46.6397 31.6789 46.6615 30.6987 46.7633C28.9924 46.9306 27.6782 48.3561 27.5911 50.0797C27.5475 50.9233 27.5838 51.7742 27.5838 52.6761H23.9824V34.647H40.7841V52.7051V52.6979Z" fill="white"/>
<path d="M34.7859 52.6971H30.0155C30.0155 51.8098 29.9574 50.9225 30.0373 50.0498C30.0809 49.5116 30.5093 49.1698 31.0611 49.148C31.9251 49.1116 32.7964 49.0898 33.6605 49.148C34.3793 49.1916 34.7496 49.6352 34.7714 50.3625C34.8004 51.1116 34.7714 51.868 34.7714 52.6971H34.7859Z" fill="white"/>
<path d="M25.209 60.0068H39.571V70.8068H25.209V60.0068ZM32.3464 64.8068C33.5009 64.8068 34.6481 64.8214 35.8026 64.8068C36.6739 64.7923 37.1749 64.3486 37.1894 63.6286C37.2039 62.9232 36.6884 62.4068 35.8389 62.3996C33.5372 62.3777 31.2282 62.3777 28.9265 62.3996C28.0843 62.4068 27.5688 62.9232 27.576 63.6214C27.5833 64.3341 28.0916 64.785 28.9556 64.7996C30.081 64.8141 31.2137 64.7996 32.3392 64.7996L32.3464 64.8068ZM32.419 66.0359C31.2645 66.0359 30.1173 66.0287 28.9629 66.0359C28.1133 66.0432 27.5905 66.5086 27.576 67.2141C27.5615 67.9196 28.0915 68.4359 28.9265 68.4359C31.2282 68.4505 33.5372 68.4505 35.8389 68.4359C36.6739 68.4359 37.2039 67.9196 37.1894 67.2141C37.1822 66.5086 36.6521 66.0432 35.8026 66.0287C34.6772 66.0141 33.5445 66.0287 32.419 66.0287V66.0359Z" fill="white"/>
</svg>
