<svg width="150" height="151" viewBox="0 0 150 151" fill="none" xmlns="http://www.w3.org/2000/svg">
<circle cx="75" cy="75.5" r="75" fill="#F4F8FC"/>
<rect width="5.65642" height="127.674" rx="2.82821" transform="matrix(0 -1 -1 0 138.776 89.7456)" fill="#1B1464"/>
<rect x="71.708" y="38.8379" width="5.65642" height="42.8272" rx="2.82821" fill="#1B1464"/>
<circle cx="74.5349" cy="85.301" r="27.07" fill="#1B1464"/>
<circle cx="74.5351" cy="85.3013" r="22.2217" fill="white"/>
<path d="M57.9711 85.301C57.9711 83.1256 58.3995 80.9715 59.232 78.9617C60.0645 76.9519 61.2847 75.1258 62.8229 73.5876C64.3611 72.0493 66.1873 70.8292 68.1971 69.9967C70.2069 69.1642 72.3609 68.7357 74.5363 68.7357C76.7117 68.7357 78.8658 69.1642 80.8756 69.9967C82.8854 70.8292 84.7115 72.0493 86.2497 73.5876C87.7879 75.1258 89.0081 76.9519 89.8406 78.9617C90.6731 80.9715 91.1016 83.1256 91.1016 85.301L74.5363 85.301L57.9711 85.301Z" fill="#20A7DB"/>
<circle cx="32.1138" cy="94.5938" r="8.08061" fill="#1B1464"/>
<circle cx="116.96" cy="94.5938" r="8.08061" fill="#1B1464"/>
<g clip-path="url(#clip0_419_4569)">
<path d="M116.961 88.1294C115.247 88.1312 113.603 88.8129 112.392 90.0248C111.18 91.2368 110.498 92.88 110.496 94.5939C110.819 103.159 123.102 103.156 123.425 94.5939C123.423 92.88 122.742 91.2368 121.53 90.0248C120.318 88.8129 118.674 88.1312 116.961 88.1294ZM116.961 99.4422C115.675 99.4408 114.443 98.9296 113.534 98.0206C112.625 97.1117 112.114 95.8793 112.112 94.5939C112.356 88.1709 121.566 88.1725 121.809 94.5939C121.808 95.8793 121.296 97.1117 120.387 98.0206C119.478 98.9296 118.246 99.4408 116.961 99.4422ZM115.259 95.6594L114.166 97.1172C113.801 96.7149 113.527 96.2379 113.364 95.7193C113.202 95.2007 113.154 94.6529 113.224 94.1139L115.029 94.8363C115.105 94.8671 115.174 94.915 115.229 94.9765C115.284 95.0381 115.325 95.1114 115.347 95.191C115.369 95.2706 115.373 95.3542 115.358 95.4355C115.343 95.5167 115.309 95.5933 115.259 95.6594ZM115.414 93.2498L113.77 92.592C114.036 92.1683 114.384 91.8017 114.793 91.5133C115.202 91.225 115.664 91.0207 116.153 90.9124V92.7493C116.153 92.8374 116.131 92.9241 116.09 93.0019C116.049 93.0796 115.989 93.1461 115.916 93.1955C115.843 93.2449 115.759 93.2757 115.672 93.2851C115.584 93.2946 115.496 93.2825 115.414 93.2498ZM120.151 92.5926L118.507 93.2471C118.426 93.2797 118.337 93.2918 118.25 93.2825C118.163 93.2732 118.079 93.2426 118.006 93.1936C117.933 93.1445 117.874 93.0784 117.832 93.001C117.791 92.9235 117.769 92.8372 117.769 92.7493V90.9124C118.257 91.0207 118.719 91.2251 119.128 91.5135C119.537 91.8019 119.885 92.1687 120.151 92.5926ZM120.732 94.5939C120.731 95.5272 120.383 96.4269 119.755 97.1172L118.662 95.6594C118.612 95.5933 118.579 95.5167 118.563 95.4355C118.548 95.3542 118.552 95.2706 118.574 95.191C118.596 95.1114 118.637 95.0381 118.692 94.9765C118.747 94.915 118.816 94.8671 118.892 94.8363L120.698 94.1139C120.719 94.273 120.73 94.4333 120.732 94.5939ZM117.392 96.6604L118.442 98.061C117.973 98.2599 117.47 98.3624 116.961 98.3624C116.452 98.3624 115.948 98.2599 115.479 98.061L116.53 96.6604C116.58 96.5935 116.645 96.5392 116.72 96.5018C116.794 96.4643 116.877 96.4449 116.961 96.4449C117.044 96.4449 117.127 96.4643 117.201 96.5018C117.276 96.5392 117.341 96.5935 117.392 96.6604Z" fill="#20A7DB"/>
</g>
<g clip-path="url(#clip1_419_4569)">
<path d="M32.1139 88.1294C30.4 88.1312 28.7568 88.8129 27.5449 90.0248C26.3329 91.2368 25.6513 92.88 25.6494 94.5939C25.9726 103.159 38.2552 103.156 38.5784 94.5939C38.5765 92.88 37.8949 91.2368 36.6829 90.0248C35.471 88.8129 33.8278 88.1312 32.1139 88.1294ZM32.1139 99.4422C30.8285 99.4408 29.5961 98.9296 28.6872 98.0206C27.7782 97.1117 27.267 95.8793 27.2655 94.5939C27.509 88.1709 36.7193 88.1725 36.9623 94.5939C36.9608 95.8793 36.4496 97.1117 35.5406 98.0206C34.6317 98.9296 33.3993 99.4408 32.1139 99.4422ZM30.4127 95.6594L29.3196 97.1172C28.9541 96.7149 28.6805 96.2379 28.5177 95.7193C28.3549 95.2007 28.3068 94.6529 28.3769 94.1139L30.1821 94.8363C30.2588 94.8671 30.3274 94.915 30.3826 94.9765C30.4378 95.0381 30.4781 95.1114 30.5004 95.191C30.5227 95.2706 30.5263 95.3542 30.5111 95.4355C30.4959 95.5167 30.4622 95.5933 30.4127 95.6594ZM30.5673 93.2498L28.9237 92.592C29.1898 92.1683 29.5374 91.8017 29.9463 91.5133C30.3552 91.225 30.8174 91.0207 31.3058 90.9124V92.7493C31.3059 92.8374 31.2843 92.9241 31.2431 93.0019C31.2019 93.0796 31.1422 93.1461 31.0693 93.1955C30.9964 93.2449 30.9126 93.2757 30.8251 93.2851C30.7375 93.2946 30.649 93.2825 30.5673 93.2498ZM35.3041 92.5926L33.6605 93.2471C33.579 93.2797 33.4907 93.2918 33.4034 93.2825C33.3161 93.2732 33.2324 93.2426 33.1596 93.1936C33.0868 93.1445 33.0271 93.0784 32.9856 93.001C32.9442 92.9235 32.9224 92.8372 32.922 92.7493V90.9124C33.4105 91.0207 33.8727 91.2251 34.2816 91.5135C34.6905 91.8019 35.0381 92.1687 35.3041 92.5926ZM35.8848 94.5939C35.8845 95.5272 35.5363 96.4269 34.9082 97.1172L33.8151 95.6594C33.7656 95.5933 33.7319 95.5167 33.7167 95.4355C33.7015 95.3542 33.7051 95.2706 33.7274 95.191C33.7497 95.1114 33.79 95.0381 33.8452 94.9765C33.9004 94.915 33.969 94.8671 34.0457 94.8363L35.8509 94.1139C35.8723 94.273 35.8836 94.4333 35.8848 94.5939ZM32.5449 96.6604L33.5953 98.061C33.1268 98.2599 32.6229 98.3624 32.1139 98.3624C31.6049 98.3624 31.101 98.2599 30.6325 98.061L31.6829 96.6604C31.7331 96.5935 31.7982 96.5392 31.873 96.5018C31.9478 96.4643 32.0303 96.4449 32.1139 96.4449C32.1975 96.4449 32.28 96.4643 32.3548 96.5018C32.4296 96.5392 32.4947 96.5935 32.5449 96.6604Z" fill="#20A7DB"/>
</g>
<defs>
<clipPath id="clip0_419_4569">
<rect width="12.929" height="12.929" fill="white" transform="translate(110.496 88.1294)"/>
</clipPath>
<clipPath id="clip1_419_4569">
<rect width="12.929" height="12.929" fill="white" transform="translate(25.6494 88.1294)"/>
</clipPath>
</defs>
</svg>
