<svg width="150" height="151" viewBox="0 0 150 151" fill="none" xmlns="http://www.w3.org/2000/svg">
<circle cx="75" cy="75.5" r="75" fill="#F4F8FC"/>
<g clip-path="url(#clip0_419_4594)">
<path d="M120.01 119.374H114.367V69.151C114.367 68.1516 113.877 67.1915 113.074 66.6036L83.72 45.3427V28.4712C83.72 26.7468 82.3092 25.3359 80.5848 25.3359C79.9381 25.3359 79.3111 25.5319 78.782 25.9042L36.9069 55.1992C36.0643 55.787 35.5744 56.7472 35.5744 57.7661V119.374H29.9897C28.2458 119.374 26.8545 120.785 26.8545 122.509C26.8545 124.233 28.2654 125.644 29.9897 125.644H120.01C121.754 125.644 123.146 124.233 123.146 122.509C123.146 120.785 121.735 119.374 120.01 119.374ZM41.8449 59.4121L77.4299 34.5065V119.374H41.8449V59.4121ZM83.72 119.374V53.1025L108.097 70.7578V119.393H83.72V119.374Z" fill="#1B1464"/>
<path d="M93.4785 70.6794H98.3185C99.0631 70.6794 99.651 71.2673 99.651 72.0119V76.8519C99.651 77.5966 99.0631 78.1844 98.3185 78.1844H93.4785C92.7339 78.1844 92.146 77.5966 92.146 76.8519V72.0119C92.146 71.2673 92.7535 70.6794 93.4785 70.6794ZM93.4785 82.8089H98.3185C99.0631 82.8089 99.651 83.3968 99.651 84.1414V88.9814C99.651 89.7261 99.0631 90.3139 98.3185 90.3139H93.4785C92.7339 90.3139 92.146 89.7261 92.146 88.9814V84.1414C92.146 83.4164 92.7535 82.8089 93.4785 82.8089ZM93.4785 94.958H98.3185C99.0631 94.958 99.651 95.5459 99.651 96.2905V101.131C99.651 101.875 99.0631 102.463 98.3185 102.463H93.4785C92.7339 102.463 92.146 101.875 92.146 101.131V96.2905C92.146 95.5459 92.7535 94.958 93.4785 94.958ZM93.4785 107.087H98.3185C99.0631 107.087 99.651 107.675 99.651 108.42V113.26C99.651 114.005 99.0631 114.592 98.3185 114.592H93.4785C92.7339 114.592 92.146 114.005 92.146 113.26V108.42C92.146 107.695 92.7535 107.087 93.4785 107.087ZM64.4383 107.087H69.2783C70.0229 107.087 70.6108 107.675 70.6108 108.42V113.26C70.6108 114.005 70.0229 114.592 69.2783 114.592H64.4383C63.6936 114.592 63.1058 114.005 63.1058 113.26V108.42C63.1058 107.695 63.7132 107.087 64.4383 107.087ZM49.9965 107.087H54.8366C55.5812 107.087 56.1691 107.675 56.1691 108.42V113.26C56.1691 114.005 55.5812 114.592 54.8366 114.592H49.9965C49.2519 114.592 48.6641 114.005 48.6641 113.26V108.42C48.6641 107.695 49.2715 107.087 49.9965 107.087ZM64.4383 94.958H69.2783C70.0229 94.958 70.6108 95.5459 70.6108 96.2905V101.131C70.6108 101.875 70.0229 102.463 69.2783 102.463H64.4383C63.6936 102.463 63.1058 101.875 63.1058 101.131V96.2905C63.1058 95.5459 63.7132 94.958 64.4383 94.958ZM49.9965 94.958H54.8366C55.5812 94.958 56.1691 95.5459 56.1691 96.2905V101.131C56.1691 101.875 55.5812 102.463 54.8366 102.463H49.9965C49.2519 102.463 48.6641 101.875 48.6641 101.131V96.2905C48.6641 95.5459 49.2715 94.958 49.9965 94.958ZM64.4383 82.8089H69.2783C70.0229 82.8089 70.6108 83.3968 70.6108 84.1414V88.9814C70.6108 89.7261 70.0229 90.3139 69.2783 90.3139H64.4383C63.6936 90.3139 63.1058 89.7261 63.1058 88.9814V84.1414C63.1058 83.4164 63.7132 82.8089 64.4383 82.8089ZM49.9965 82.8089H54.8366C55.5812 82.8089 56.1691 83.3968 56.1691 84.1414V88.9814C56.1691 89.7261 55.5812 90.3139 54.8366 90.3139H49.9965C49.2519 90.3139 48.6641 89.7261 48.6641 88.9814V84.1414C48.6641 83.4164 49.2715 82.8089 49.9965 82.8089ZM64.4383 70.6794H69.2783C70.0229 70.6794 70.6108 71.2673 70.6108 72.0119V76.8519C70.6108 77.5966 70.0229 78.1844 69.2783 78.1844H64.4383C63.6936 78.1844 63.1058 77.5966 63.1058 76.8519V72.0119C63.1058 71.2673 63.7132 70.6794 64.4383 70.6794ZM49.9965 70.6794H54.8366C55.5812 70.6794 56.1691 71.2673 56.1691 72.0119V76.8519C56.1691 77.5966 55.5812 78.1844 54.8366 78.1844H49.9965C49.2519 78.1844 48.6641 77.5966 48.6641 76.8519V72.0119C48.6641 71.2673 49.2715 70.6794 49.9965 70.6794ZM64.4383 58.5304H69.2783C70.0229 58.5304 70.6108 59.1182 70.6108 59.8628V64.7029C70.6108 65.4475 70.0229 66.0354 69.2783 66.0354H64.4383C63.6936 66.0354 63.1058 65.4475 63.1058 64.7029V59.8628C63.1058 59.1378 63.7132 58.5304 64.4383 58.5304ZM49.9965 58.5304H54.8366C55.5812 58.5304 56.1691 59.1182 56.1691 59.8628V64.7029C56.1691 65.4475 55.5812 66.0354 54.8366 66.0354H49.9965C49.2519 66.0354 48.6641 65.4475 48.6641 64.7029V59.8628C48.6641 59.1378 49.2715 58.5304 49.9965 58.5304ZM64.4383 46.4009H69.2783C70.0229 46.4009 70.6108 46.9887 70.6108 47.7334V52.5734C70.6108 53.318 70.0229 53.9059 69.2783 53.9059H64.4383C63.6936 53.9059 63.1058 53.318 63.1058 52.5734V47.7334C63.1058 46.9887 63.7132 46.4009 64.4383 46.4009Z" fill="#20A7DB"/>
</g>
<defs>
<clipPath id="clip0_419_4594">
<rect width="100.328" height="100.328" fill="white" transform="translate(24.8359 25.3359)"/>
</clipPath>
</defs>
</svg>
