<svg width="100" height="100" viewBox="0 0 100 100" fill="none" xmlns="http://www.w3.org/2000/svg">
<circle cx="50" cy="50" r="50" fill="#1B1464"/>
<path d="M81.5127 40.4765C81.2575 41.3747 81.0102 42.2652 80.7241 43.2718C75.908 40.4532 70.9294 38.3239 65.6185 36.8604C65.6881 36.5816 65.7422 36.3416 65.7963 36.1015C65.8581 35.8615 65.9123 35.6215 65.9973 35.2962C54.8884 32.3151 43.8259 32.3228 32.686 35.2962C32.8097 35.8228 32.9257 36.2951 33.0571 36.8604C27.7771 38.3239 22.7908 40.43 18.0288 43.2331C17.2866 41.6689 16.9929 40.0738 17.2171 38.4323C17.7118 34.7 19.7295 32.137 23.2315 30.7355C28.4419 28.6525 33.8224 27.1891 39.3808 26.4225C51.8812 24.688 64.0105 26.1282 75.7224 30.8594C78.9229 32.1525 80.7937 34.5839 81.3967 37.9909C81.4199 38.1148 81.474 38.2232 81.5127 38.3471V40.4842V40.4765Z" fill="#20A7DB"/>
<path d="M23.9883 61.6231C24.7691 59.153 25.4571 56.7603 26.2843 54.4141C28.1551 49.1177 31.5102 44.9441 36.1408 41.8158C37.3391 41.0105 37.8879 40.0504 37.7643 38.6179C37.687 37.7429 37.7333 36.8601 37.7643 35.9774C37.7643 35.8148 37.9034 35.5206 38.0116 35.5051C39.6969 35.2186 41.3899 34.9708 43.1061 34.7075C43.4772 36.1787 43.8251 37.5338 44.1652 38.8889C44.4744 40.1046 45.147 40.6698 46.3916 40.6853C48.3629 40.7008 50.3265 40.7008 52.2978 40.6853C53.5502 40.6776 54.2382 40.12 54.5474 38.9198C54.8644 37.7042 55.1814 36.4885 55.4597 35.265C55.5524 34.8624 55.7225 34.754 56.1013 34.8159C57.5933 35.0405 59.0776 35.265 60.5696 35.4741C60.9097 35.5206 60.9948 35.6987 60.9948 36.0316C60.9793 37.1466 61.0102 38.2539 60.9793 39.369C60.9484 40.2981 61.3195 40.9718 62.0771 41.4906C64.9606 43.4806 67.5426 45.7881 69.5062 48.7305C71.5703 51.8124 72.8149 55.2581 73.8122 58.7968C74.075 59.7182 74.2992 60.6551 74.562 61.6385H23.9883V61.6231ZM49.422 42.3036C44.6754 42.2185 40.6246 46.1443 40.5473 50.8987C40.47 55.8234 44.3044 59.8189 49.1901 59.8963C54.0372 59.9737 58.0417 56.1331 58.1267 51.3168C58.2118 46.3843 54.3542 42.3888 49.422 42.2959V42.3036Z" fill="white"/>
<path d="M49.346 72.8667C40.8655 72.8667 32.385 72.8667 23.9045 72.8667C22.3738 72.8667 21.9873 72.4718 21.9873 70.9232C21.9873 68.8867 21.9873 66.858 21.9873 64.8215C21.9873 63.5129 22.4666 63.0405 23.7731 63.0405C40.8191 63.0405 57.8574 63.0405 74.9034 63.0405C76.2099 63.0405 76.6969 63.5206 76.6969 64.8137C76.6969 66.9354 76.6969 69.0493 76.6969 71.1709C76.6969 72.4021 76.2176 72.8745 74.973 72.8745C66.4307 72.8745 57.8883 72.8745 49.346 72.8745V72.8667Z" fill="white"/>
<path d="M65.2308 38.1764C70.4644 39.6244 75.3424 41.6996 80.004 44.4485C79.6329 45.0602 79.3082 45.6797 78.9062 46.2294C78.2259 47.1586 77.0741 47.3212 75.9222 46.7947C73.317 45.61 70.704 44.464 68.0834 43.318C67.5113 43.0702 66.8928 42.9231 66.3053 42.714C65.0607 42.2881 64.45 41.1653 64.7746 39.88C64.9061 39.3379 65.0684 38.7959 65.2308 38.1687V38.1764Z" fill="white"/>
<path d="M18.6777 44.4493C23.3316 41.6927 28.2019 39.633 33.4664 38.1772C33.6442 38.9671 33.9071 39.7182 33.9766 40.4925C34.0694 41.5223 33.3814 42.3276 32.3146 42.738C29.9722 43.644 27.6375 44.5499 25.3183 45.5024C24.4293 45.8663 23.5944 46.3619 22.7363 46.7877C21.4298 47.4382 20.2702 47.1052 19.5126 45.8508C19.2421 45.4017 18.9792 44.9526 18.6855 44.4415L18.6777 44.4493Z" fill="white"/>
<path d="M49.3305 53.7331C47.8694 53.7331 46.7021 52.5716 46.6943 51.1159C46.6943 49.6679 47.8539 48.4755 49.2996 48.4522C50.7606 48.429 51.9743 49.6447 51.9666 51.1159C51.9589 52.5716 50.7916 53.7331 49.3227 53.7331H49.3305Z" fill="white"/>
<path d="M46.5936 46.7567C46.6014 47.6472 45.9133 48.3673 45.0398 48.3828C44.174 48.3983 43.4395 47.6781 43.4241 46.8032C43.4086 45.9282 44.1121 45.1926 44.9857 45.1848C45.8592 45.1693 46.5782 45.874 46.5936 46.7644V46.7567Z" fill="white"/>
<path d="M52.0743 46.8032C52.0666 45.9204 52.7623 45.2003 53.6436 45.1848C54.5172 45.1693 55.2438 45.8817 55.2516 46.7644C55.2516 47.6394 54.5481 48.3673 53.6823 48.3828C52.8164 48.3983 52.0897 47.6781 52.082 46.8032H52.0743Z" fill="white"/>
<path d="M49.3164 46.5779C48.4351 46.5624 47.7161 45.8268 47.7471 44.9518C47.7702 44.1001 48.4892 43.3954 49.3318 43.3877C50.1977 43.3877 50.9398 44.1233 50.9321 44.9905C50.9321 45.8733 50.1977 46.5857 49.3164 46.5702V46.5779Z" fill="white"/>
<path d="M43.2065 52.6953C42.3174 52.6876 41.6371 51.9674 41.6526 51.0692C41.6681 50.202 42.3484 49.5283 43.2219 49.5283C44.1187 49.5283 44.8222 50.233 44.8144 51.1234C44.8144 52.0062 44.0877 52.7108 43.2065 52.7031V52.6953Z" fill="white"/>
<path d="M55.4134 52.6959C54.5321 52.6804 53.8364 51.9603 53.8518 51.0698C53.8673 50.1871 54.594 49.5057 55.4907 49.5289C56.3565 49.5521 57.0214 50.2413 57.0136 51.1163C57.0136 52.0067 56.2947 52.7114 55.4134 52.6959Z" fill="white"/>
<path d="M43.4241 55.4059C43.4395 54.5309 44.1817 53.8108 45.0552 53.834C45.9365 53.8573 46.6168 54.5929 46.5936 55.4834C46.5704 56.3506 45.8747 57.0165 45.0011 57.0088C44.1121 57.0088 43.4086 56.2887 43.4241 55.3982V55.4059Z" fill="white"/>
<path d="M55.2444 55.4446C55.2444 56.3351 54.5254 57.032 53.6286 57.0165C52.7319 57.001 52.0516 56.2887 52.0748 55.3904C52.098 54.5387 52.8092 53.8418 53.6518 53.8418C54.5331 53.8418 55.2444 54.5697 55.2444 55.4524V55.4446Z" fill="white"/>
<path d="M49.3618 58.8279C48.5037 58.8434 47.7538 58.1077 47.7383 57.2405C47.7306 56.3965 48.4264 55.6686 49.2767 55.6299C50.1348 55.5912 50.9002 56.3113 50.9311 57.1863C50.962 58.0535 50.2353 58.8124 49.3618 58.8356V58.8279Z" fill="white"/>
</svg>
