<svg width="100" height="100" viewBox="0 0 100 100" fill="none" xmlns="http://www.w3.org/2000/svg">
<circle cx="50" cy="50" r="50" fill="#1B1464"/>
<path d="M66.0425 25.7144C66.0905 25.7464 66.1385 25.7838 66.1919 25.7999C67.8142 26.3077 68.652 27.35 68.6573 29.0176C68.6787 36.6825 68.6787 44.3474 68.6787 52.0123C68.6787 52.2208 68.636 52.4239 68.604 52.7232C68.3905 52.5255 68.2357 52.3865 68.0917 52.2422C65.0659 49.2168 62.0508 46.1701 59.0038 43.1608C56.3142 40.499 52.0238 41.0228 50.1133 44.2085C48.8112 46.3786 49.1154 49.0565 50.8871 51.0075C52.1838 52.4346 53.4913 53.8511 54.852 55.337C54.6439 55.3584 54.5052 55.3904 54.3664 55.3904C44.0191 55.4011 33.6719 55.4118 23.3192 55.4172C21.7664 55.4172 20.635 54.5887 20.1441 53.1188C20.1174 53.0333 20.064 52.9531 20.0213 52.8729C20.016 44.6842 20.0107 36.4955 20 28.3067C20.4056 27.0132 21.254 26.1633 22.5455 25.7571C37.0445 25.7464 51.5435 25.7357 66.0425 25.7197V25.7144ZM32.7113 33.1494C32.7113 32.3583 32.7166 31.5673 32.7113 30.7762C32.69 29.0283 31.548 27.8738 29.803 27.8577C28.2234 27.8417 26.6438 27.8471 25.0589 27.8577C23.2765 27.8738 22.1292 29.023 22.1186 30.8029C22.1079 32.3851 22.1079 33.9726 22.1186 35.5547C22.1346 37.3026 23.2819 38.4571 25.0269 38.4732C26.6065 38.4892 28.186 38.4838 29.771 38.4732C31.548 38.4571 32.6953 37.3026 32.7166 35.528C32.7273 34.7369 32.7166 33.9458 32.7166 33.1548L32.7113 33.1494ZM33.7412 41.6588H29.5575C29.5575 42.3591 29.5575 43.0165 29.5575 43.7114H33.7412C33.7412 43.0272 33.7412 42.3751 33.7412 41.6588ZM35.9185 41.6482V43.69C37.338 43.69 38.7094 43.69 40.0755 43.69V41.6482C38.6667 41.6482 37.3059 41.6482 35.9185 41.6482ZM27.3856 50.0774V48.0356C25.9714 48.0356 24.6 48.0356 23.2392 48.0356V50.0774C24.648 50.0774 26.0035 50.0774 27.3856 50.0774ZM46.4312 48.0142H42.2635C42.2635 48.7144 42.2635 49.3772 42.2635 50.056H46.4312C46.4312 49.3505 46.4312 48.6877 46.4312 48.0142ZM23.2125 43.706H27.3856C27.3856 42.9951 27.3856 42.3377 27.3856 41.6695H23.2125C23.2125 42.3591 23.2125 43.0058 23.2125 43.706ZM42.2581 41.6482V43.7007C43.6616 43.7007 45.0277 43.7007 46.4312 43.7007V41.6482C45.0384 41.6482 43.683 41.6482 42.2581 41.6482ZM49.6544 28.9268V32.059C50.3535 32.059 51.0152 32.059 51.6822 32.059V28.9268C50.9832 28.9268 50.3375 28.9268 49.6544 28.9268ZM53.8968 28.9268V32.059C54.6012 32.059 55.263 32.059 55.93 32.059V28.9268C55.2309 28.9268 54.5852 28.9268 53.8968 28.9268ZM60.1458 32.0537V28.9375C59.4307 28.9375 58.769 28.9375 58.1072 28.9375V32.0537C58.8063 32.0537 59.468 32.0537 60.1458 32.0537ZM62.355 32.0537H64.3882C64.3882 30.99 64.3882 29.9637 64.3882 28.9321H62.355C62.355 29.9958 62.355 31.0114 62.355 32.0537Z" fill="#20A7DB"/>
<path d="M74.2077 61.4465C74.7734 60.8799 75.2483 60.4095 75.7713 59.8857C74.4852 58.6082 73.2045 57.3361 71.8864 56.0212C72.2386 55.8715 72.5374 55.7486 72.8309 55.6256C75.7766 54.4123 77.0307 51.5526 75.9047 48.5594C74.8534 45.7853 73.7755 43.0165 72.7082 40.2477C72.6388 40.0713 72.5854 39.8896 72.5161 39.7025C72.5854 39.6972 72.6282 39.6811 72.6388 39.6918C73.9409 41.0121 75.307 42.2682 76.5184 43.6633C78.3167 45.7265 79.224 48.2013 79.24 50.938C79.2773 58.6456 79.2666 66.3479 79.272 74.0556C79.272 74.1518 79.2613 74.248 79.2506 74.4137C79.0478 74.4244 78.8451 74.4404 78.6423 74.4458C73.2418 74.4511 67.8467 74.4458 62.4463 74.4725C62.0247 74.4725 61.7899 74.3335 61.5764 73.9808C58.8869 69.5443 58.6628 65.017 61.0215 60.3774C61.411 59.6077 61.3843 59.3244 60.7867 58.667C58.0011 55.6203 55.2048 52.5843 52.4192 49.5322C50.9037 47.8752 51.1118 45.4699 52.8568 44.1924C54.2603 43.1662 56.16 43.3158 57.4514 44.588C59.1964 46.3091 60.9201 48.0516 62.6544 49.7834C66.3632 53.4983 70.0773 57.2078 73.7808 60.9226C73.9302 61.0723 74.053 61.2487 74.2077 61.4411V61.4465Z" fill="white"/>
<path d="M26.8242 62.4077C28.9695 61.5739 31.0667 60.7561 33.1639 59.949C35.101 59.2006 37.0381 58.447 38.9859 57.7147C39.3167 57.5918 39.6903 57.5169 40.0478 57.5169C45.4056 57.5009 50.7633 57.5062 56.1264 57.4849C56.6334 57.4849 57.0069 57.6025 57.3164 58.0087C57.5672 58.3401 57.8714 58.6341 58.2023 59.0029C56.7988 59.5481 55.4807 60.0666 54.1573 60.5797C47.1719 63.279 40.1759 65.9302 33.2172 68.6989C30.9706 69.5916 29.0495 68.5813 28.4145 66.5876C27.9716 65.1925 27.3792 63.8509 26.8242 62.4131V62.4077Z" fill="white"/>
<path d="M62.394 85.0078C62.394 82.2069 62.394 79.4328 62.3887 76.6213C67.9972 76.6213 73.5951 76.6106 79.2304 76.6052C79.2304 79.3793 79.2304 82.1641 79.2357 84.9917C73.6485 84.9917 68.0559 85.0024 62.394 85.0078ZM64.5125 78.7059V80.753C65.217 80.753 65.8787 80.753 66.5297 80.753V78.7059C65.8307 78.7059 65.1849 78.7059 64.5125 78.7059Z" fill="white"/>
<path d="M70.8569 41.3274C71.9669 44.2191 73.0395 46.9398 74.0481 49.6818C74.5604 51.0769 73.9307 52.6644 72.6446 53.3646C71.9775 53.7281 71.2411 53.9686 70.5527 54.2572C71.065 50.0292 70.6808 45.8387 70.7982 41.6588C70.7982 41.6053 70.8196 41.5519 70.8623 41.3274H70.8569Z" fill="white"/>
<path d="M26.0621 60.4361C25.6832 59.4473 25.3257 58.5226 24.9521 57.5444H33.2556C33.2556 57.5444 33.2769 57.6032 33.2876 57.6353C30.9022 58.56 28.5169 59.4847 26.0621 60.4361Z" fill="white"/>
<path d="M24.2583 32.1121C24.2583 31.5562 24.1942 31.0484 24.285 30.5727C24.3276 30.3536 24.6638 30.0329 24.8719 30.0275C26.5636 29.9794 28.2606 29.9954 29.9522 30.0008C30.3418 30.0008 30.5552 30.2413 30.5659 30.6262C30.5819 31.0858 30.5659 31.5509 30.5659 32.0747H28.5061C28.5061 32.8016 28.5061 33.4644 28.5061 34.1914H30.5499C30.5499 34.7847 30.6086 35.3192 30.5232 35.8377C30.4912 36.0301 30.1336 36.2973 29.9255 36.3027C28.2499 36.3401 26.5796 36.3294 24.904 36.3241C24.5198 36.3241 24.2796 36.1156 24.2636 35.7254C24.2423 35.2497 24.2583 34.7686 24.2583 34.2288H26.3288C26.3288 33.5018 26.3288 32.839 26.3288 32.1121H24.2636H24.2583Z" fill="white"/>
</svg>
