<svg width="100" height="100" viewBox="0 0 100 100" fill="none" xmlns="http://www.w3.org/2000/svg">
<circle cx="50" cy="50" r="50" fill="#1B1464"/>
<path d="M83.9088 74.663C83.4215 75.839 82.7046 76.7895 81.3555 77.007C80.836 77.0915 80.2963 77.0593 79.7647 77.0593C78.4558 77.0674 77.1469 77.0714 75.838 77.0593C74.0942 77.0432 72.7369 75.7303 72.7289 73.9905C72.7128 67.6353 72.7128 61.2801 72.7289 54.925C72.7289 53.1892 74.0861 51.8682 75.834 51.8521C77.4087 51.84 78.9834 51.8481 80.5581 51.8521C82.2093 51.8521 83.1839 52.5367 83.792 54.0994C83.8122 54.1557 83.8686 54.2 83.9088 54.2484V74.663Z" fill="white"/>
<path d="M71.6317 55.9028V73.1359H28.0234V55.9028H71.6317ZM49.743 61.0498C53.2468 61.0498 56.7465 61.0498 60.2503 61.0498C60.4275 61.0498 60.649 61.1102 60.7739 61.0256C60.9672 60.8968 61.1968 60.6833 61.225 60.4819C61.2451 60.337 60.9793 60.1114 60.794 60.0027C60.6611 59.9262 60.4477 59.9785 60.2705 59.9785C53.3112 59.9785 46.3479 59.9785 39.3886 59.9785C39.2114 59.9785 39.002 59.9262 38.8651 60.0027C38.6758 60.1074 38.4019 60.3249 38.418 60.4699C38.4382 60.6712 38.6597 60.8927 38.853 61.0256C38.9738 61.1102 39.1953 61.0498 39.3725 61.0498C42.832 61.0498 46.2875 61.0498 49.747 61.0498H49.743Z" fill="white"/>
<path d="M63.2272 32.8835C61.9385 32.8835 60.698 32.8835 59.4617 32.8835C59.071 32.8835 58.636 32.8674 58.6159 33.391C58.5958 33.9669 59.0549 33.9628 59.4657 33.9628C60.7061 33.9628 61.9425 33.9628 63.1789 33.9628C63.2997 39.4803 58.5837 46.5967 50.3518 46.8625C50.3518 46.206 50.3518 45.5495 50.3518 44.8931C50.3518 44.2688 50.3437 43.6486 50.3518 43.0244C50.3598 42.6297 50.2793 42.2713 49.8202 42.2592C49.357 42.2511 49.2684 42.6056 49.2724 43.0002C49.2805 44.0473 49.2724 45.0904 49.2724 46.1375C49.2724 46.355 49.2724 46.5765 49.2724 46.794C43.1347 46.939 36.5379 41.5987 36.4131 33.9628C37.4924 33.9628 38.5758 33.9628 39.6551 33.9628C39.8565 33.9628 40.0538 33.9588 40.2552 33.9628C40.6579 33.9749 40.9962 33.8541 40.9841 33.395C40.9721 32.9802 40.6499 32.8755 40.2713 32.8795C39.2041 32.8916 38.1408 32.8795 37.0736 32.8795C36.8561 32.8795 36.6426 32.8795 36.4252 32.8795C36.4252 26.3995 42.0151 20.1248 49.2684 20C49.2684 21.1277 49.2684 22.2553 49.2684 23.387C49.2684 23.5884 49.204 23.8179 49.2845 23.979C49.4053 24.2166 49.6268 24.4059 49.804 24.6154C49.9812 24.4059 50.3075 24.2005 50.3155 23.9831C50.3679 22.8957 50.3397 21.8043 50.3397 20.7169C50.3397 20.4793 50.3397 20.2416 50.3397 20C57.0815 20.1168 62.9534 25.7551 63.2111 32.8835H63.2272ZM50.3518 30.6483C50.3518 30.2255 50.4162 29.7905 50.3276 29.3878C50.2753 29.1542 49.9853 28.9689 49.804 28.7635C49.6309 28.977 49.3288 29.1783 49.3047 29.4079C49.2362 30.0684 49.2523 30.741 49.2885 31.4014C49.3127 31.8928 49.204 32.1747 48.6965 32.3922C47.7018 32.8231 47.2104 33.9709 47.4601 35.0059C47.7058 36.0369 48.6522 36.8263 49.7034 36.8786C50.7464 36.931 51.7613 36.2101 52.0795 35.1952C52.4097 34.1441 52.0513 32.9198 51.0807 32.5009C50.3437 32.1828 50.3115 31.7236 50.3518 31.1115C50.3639 30.9584 50.3518 30.8014 50.3518 30.6443V30.6483Z" fill="#20A7DB"/>
<path d="M15.7234 64.4373C15.7234 61.3484 15.7234 58.2594 15.7234 55.1704C15.7234 53.1366 17.0122 51.8518 19.05 51.8478C20.6006 51.8478 22.1551 51.8398 23.7057 51.8478C25.5703 51.8599 26.8993 53.1728 26.9034 55.0335C26.9114 61.3 26.9114 67.5666 26.9034 73.8291C26.9034 75.7341 25.5784 77.047 23.6734 77.055C22.0987 77.0631 20.524 77.0631 18.9493 77.055C17.0444 77.047 15.7275 75.7341 15.7194 73.8291C15.7113 70.6958 15.7194 67.5626 15.7194 64.4293L15.7234 64.4373Z" fill="white"/>
<path d="M42.5127 54.7156V46.093C47.0676 48.4249 51.5541 48.5658 56.1493 46.5763V54.7116H42.5127V54.7156Z" fill="white"/>
<path d="M51.1451 34.4544C51.1532 35.1833 50.5209 35.8317 49.808 35.8317C49.1314 35.8317 48.5072 35.2115 48.4871 34.5067C48.4629 33.7415 49.0428 33.1576 49.8201 33.1656C50.5773 33.1737 51.1411 33.7214 51.1451 34.4503V34.4544Z" fill="white"/>
</svg>
