<svg width="100" height="100" viewBox="0 0 100 100" fill="none" xmlns="http://www.w3.org/2000/svg">
<circle cx="50" cy="50" r="50" fill="#1B1464"/>
<path d="M32.4107 21.4277C33.9009 21.7173 35.1436 22.5493 36.4337 23.2707C46.1752 28.7207 55.9114 34.1706 65.6529 39.6153C65.8056 39.6996 65.953 39.7944 66.0425 39.847C63.1306 42.7589 60.2187 45.6656 57.3542 48.5354C48.4131 39.5943 39.4088 30.59 30.415 21.5962C30.5046 21.5541 30.6362 21.4909 30.7678 21.4277C31.3155 21.4277 31.8631 21.4277 32.4107 21.4277Z" fill="white"/>
<path d="M54.4321 51.5215C45.3014 60.6521 36.1023 69.8512 26.8664 79.0925C26.166 78.2289 25.8343 77.1705 25.729 76.0279C25.7079 75.812 25.7184 75.5961 25.7184 75.3802C25.7184 59.4515 25.7184 43.5229 25.7184 27.589C25.7184 26.2199 26.0502 24.972 26.8348 23.9136C36.0602 33.139 45.2646 42.3487 54.4321 51.5162V51.5215Z" fill="white"/>
<path d="M30.3584 81.3928C39.4048 72.3463 48.3933 63.3578 57.3344 54.4167C60.2147 57.2971 63.1266 60.209 66.0491 63.1314C64.759 63.8528 63.3952 64.6163 62.0366 65.3799C52.8638 70.5139 43.6911 75.6532 34.5183 80.7819C33.2282 81.5033 31.8591 81.735 30.3584 81.3928Z" fill="white"/>
<path d="M60.1719 51.4319C60.63 50.9949 61.0776 50.5841 61.5041 50.1576C64.1053 47.5616 66.7171 44.9657 69.2973 42.3486C69.6606 41.9853 69.9081 41.98 70.3293 42.2223C72.7041 43.5755 75.1053 44.8919 77.4854 46.24C80.7712 48.1093 81.7084 52.148 79.4758 55.0178C78.9492 55.6918 78.2278 56.2763 77.4907 56.7134C75.0842 58.1298 72.6199 59.4568 70.1872 60.8259C69.8976 60.9891 69.7133 61.0365 69.4342 60.7627C66.417 57.7191 63.3839 54.6966 60.3562 51.6689C60.314 51.6267 60.2825 51.5793 60.1719 51.4372V51.4319Z" fill="#20A7DB"/>
</svg>
