<svg width="150" height="151" viewBox="0 0 150 151" fill="none" xmlns="http://www.w3.org/2000/svg">
<circle cx="75" cy="75.5" r="75" fill="#F4F8FC"/>
<rect x="49.5986" y="51.0591" width="50.7987" height="21.5655" rx="10.7827" fill="#20A7DB"/>
<path d="M104.647 116.272L98.9012 109.852C104.551 107.964 109.411 104.248 112.715 99.2916C116.018 94.3348 117.577 88.419 117.145 82.4779L114.87 48.469C114.861 41.2684 111.996 34.3656 106.903 29.275C101.811 24.1844 94.9068 21.3217 87.7063 21.315H62.2903C55.1205 21.3067 48.2389 24.1365 43.149 29.1862C38.0591 34.2359 35.1747 41.0948 35.1261 48.2645L32.836 82.4779C32.4047 88.4203 33.965 94.3371 37.2706 99.2941C40.5761 104.251 45.4386 107.966 51.0903 109.852L45.3497 116.257L37.8916 124.574C37.6121 124.872 37.395 125.223 37.2531 125.606C37.1112 125.99 37.0474 126.397 37.0653 126.806C37.0833 127.214 37.1826 127.615 37.3576 127.984C37.5326 128.353 37.7796 128.684 38.0842 128.957C38.3888 129.229 38.7448 129.438 39.1312 129.571C39.5177 129.704 39.9268 129.759 40.3347 129.731C40.7425 129.704 41.1407 129.595 41.5059 129.412C41.8712 129.229 42.1961 128.974 42.4616 128.663L48.8973 121.507H101.109L107.545 128.663C107.811 128.974 108.136 129.229 108.501 129.412C108.866 129.595 109.264 129.704 109.672 129.731C110.08 129.759 110.489 129.704 110.876 129.571C111.262 129.438 111.618 129.229 111.923 128.957C112.227 128.684 112.474 128.353 112.649 127.984C112.824 127.615 112.924 127.214 112.941 126.806C112.959 126.397 112.896 125.99 112.754 125.606C112.612 125.223 112.395 124.872 112.115 124.574L104.647 116.272ZM44.5881 98.6517C42.6112 96.557 41.0907 94.0746 40.1228 91.3619C39.1549 88.6491 38.7607 85.765 38.9651 82.892L41.2603 48.469C41.267 42.8945 43.4852 37.5504 47.4279 33.6096C51.3706 29.6688 56.7158 27.4532 62.2903 27.4491H87.7063C90.4817 27.4585 93.228 28.0153 95.7879 29.0876C98.3479 30.16 100.671 31.7268 102.625 33.6983C104.578 35.6698 106.123 38.0074 107.172 40.577C108.221 43.1467 108.752 45.898 108.736 48.6734L111.026 82.8868C111.219 85.758 110.82 88.6381 109.854 91.3487C108.888 94.0593 107.376 96.5426 105.411 98.645C103.446 100.747 101.07 102.424 98.4312 103.571C95.7921 104.718 92.9455 105.31 90.0679 105.312H59.944C57.0628 105.325 54.2103 104.74 51.567 103.594C48.9238 102.447 46.5473 100.764 44.5881 98.6517ZM54.4028 115.372L58.0833 111.283C58.712 111.324 59.3101 111.472 59.9491 111.472H90.0577C90.6967 111.472 91.2999 111.324 91.9286 111.283L95.6092 115.372H54.4028ZM58.9421 77.136H91.0596C94.0017 77.132 96.8221 75.9615 98.9025 73.8811C100.983 71.8007 102.153 68.9803 102.157 66.0383V57.9974C102.153 55.0553 100.983 52.2349 98.9025 50.1546C96.8221 48.0742 94.0017 46.9037 91.0596 46.8996H58.9421C56 46.9037 53.1796 48.0742 51.0992 50.1546C49.0189 52.2349 47.8484 55.0553 47.8443 57.9974V66.0281C47.8484 68.9701 49.0189 71.7905 51.0992 73.8709C53.1796 75.9512 56 77.1218 58.9421 77.1258V77.136ZM53.9836 57.9974C53.985 56.6814 54.5083 55.4197 55.4389 54.4891C56.3695 53.5585 57.6312 53.0352 58.9472 53.0338H91.0647C92.3808 53.0352 93.6425 53.5585 94.573 54.4891C95.5036 55.4197 96.027 56.6814 96.0283 57.9974V66.0281C96.027 67.3441 95.5036 68.6058 94.573 69.5363C93.6425 70.4669 92.3808 70.9903 91.0647 70.9916H58.9421C57.6261 70.9903 56.3643 70.4669 55.4338 69.5363C54.5032 68.6058 53.9798 67.3441 53.9785 66.0281L53.9836 57.9974ZM60.174 89.4811C60.174 90.4921 59.8742 91.4804 59.3125 92.3211C58.7508 93.1617 57.9525 93.8169 57.0184 94.2038C56.0843 94.5907 55.0565 94.6919 54.0649 94.4947C53.0733 94.2974 52.1625 93.8106 51.4476 93.0957C50.7327 92.3808 50.2458 91.47 50.0486 90.4784C49.8514 89.4868 49.9526 88.4589 50.3395 87.5249C50.7264 86.5908 51.3816 85.7925 52.2222 85.2308C53.0629 84.6691 54.0512 84.3693 55.0622 84.3693C56.4179 84.3693 57.7181 84.9078 58.6768 85.8665C59.6355 86.8251 60.174 88.1254 60.174 89.4811ZM100.01 89.4811C100.01 90.4921 99.7106 91.4804 99.1489 92.3211C98.5872 93.1617 97.7889 93.8169 96.8548 94.2038C95.9208 94.5907 94.8929 94.6919 93.9013 94.4947C92.9098 94.2974 91.9989 93.8106 91.284 93.0957C90.5691 92.3808 90.0823 91.47 89.885 90.4784C89.6878 89.4868 89.789 88.4589 90.1759 87.5249C90.5628 86.5908 91.218 85.7925 92.0586 85.2308C92.8993 84.6691 93.8876 84.3693 94.8986 84.3693C95.5729 84.3645 96.2415 84.4933 96.8658 84.7481C97.4901 85.0028 98.0579 85.3786 98.5364 85.8538C99.0148 86.3289 99.3946 86.894 99.6537 87.5166C99.9128 88.1391 100.046 88.8068 100.046 89.4811H100.01ZM63.0315 37.2229C63.0315 36.4095 63.3547 35.6294 63.9299 35.0542C64.505 34.479 65.2852 34.1559 66.0986 34.1559H83.8929C84.7063 34.1559 85.4864 34.479 86.0616 35.0542C86.6368 35.6294 86.96 36.4095 86.96 37.2229C86.96 38.0364 86.6368 38.8165 86.0616 39.3917C85.4864 39.9669 84.7063 40.29 83.8929 40.29H66.0986C65.2852 40.29 64.505 39.9669 63.9299 39.3917C63.3547 38.8165 63.0315 38.0364 63.0315 37.2229Z" fill="#1B1464"/>
</svg>
