<svg width="100" height="100" viewBox="0 0 100 100" fill="none" xmlns="http://www.w3.org/2000/svg">
<circle cx="50" cy="50" r="50" fill="#1B1464"/>
<path d="M31.0097 85.0888C31.4748 84.9691 31.9446 84.8631 32.4052 84.725C36.32 83.5735 38.996 79.6357 38.4018 75.7116C38.2314 74.597 37.7616 73.4962 37.255 72.4784C35.9424 69.8163 32.2071 65.0217 29.9135 62.9077C28.8404 64.142 27.7534 65.3626 26.6941 66.6153C25.1097 68.4898 23.728 70.5025 22.5351 72.6534C19.3158 78.4658 23.6774 84.3934 28.7252 84.9921C28.7989 85.0013 28.868 85.0566 28.9417 85.0888H31.0097Z" fill="#20A7DB"/>
<path d="M58.6411 31.9758H53.1925V28.3096H62.275V24.6757H53.1695V22.8564H49.5079V24.625H40.3932V28.2958H49.4573V31.9343H44.041C44.0271 32.2199 44.0087 32.4317 44.0087 32.6482C44.0087 34.3109 43.9442 35.9735 44.0225 37.6316C44.1239 39.7272 42.6639 41.1181 40.5867 41.0997C33.1945 41.0398 26.8847 45.6455 24.6325 52.6047C23.9186 54.8109 23.762 57.0723 23.8679 59.4074H36.6764C36.6764 58.9238 36.6764 58.4448 36.6764 57.9658C36.6856 55.4419 38.1687 53.9542 40.6788 53.9542C49.1118 53.9542 57.5403 53.9542 65.9734 53.9542H66.6504V41.1457C65.9273 41.1457 65.1858 41.1457 64.4396 41.1457C63.7119 41.1457 62.9796 41.1595 62.2519 41.1457C60.0826 41.0951 58.6595 39.6489 58.6411 37.475C58.6319 35.8952 58.6411 34.3155 58.6411 32.7311C58.6411 32.51 58.6411 32.2889 58.6411 31.9711V31.9758Z" fill="white"/>
<path d="M78.7649 37.4746C77.1714 37.5345 75.5686 37.2581 74.0072 37.7233C71.8333 38.3681 70.3227 40.3209 70.2904 42.6007C70.2444 45.903 70.2352 49.2053 70.2904 52.503C70.3411 55.3263 72.6347 57.5417 75.4534 57.6015C76.545 57.6246 77.6365 57.6015 78.7695 57.6015V37.47L78.7649 37.4746Z" fill="white"/>
</svg>
