<svg width="219" height="71" viewBox="0 0 219 71" fill="none" xmlns="http://www.w3.org/2000/svg">
<path d="M80.6256 9.62016C84.8108 -1.08844 98.6381 -3.26646 107.321 6.42178C111.634 1.71308 117.523 0.755712 123.763 0.914644C130.166 1.07734 135.482 3.53469 139.858 7.75625C144.038 11.7888 146.827 16.631 149.555 21.5118C150.341 22.9206 150.987 24.4055 152.081 25.6534C153.216 26.9484 153.282 26.9211 154.547 25.7146C158.432 22.0065 162.935 19.1561 168.384 17.7069C172.868 16.5144 177.275 16.7401 181.537 18.5796C183.227 19.3094 183.217 19.299 183.589 17.6645C184.959 11.6552 188.477 6.939 194.104 3.60708C197.207 1.76949 200.644 0.818718 204.437 1.15351C208.857 1.54378 212.128 3.6654 214.617 6.81864C217.023 9.86749 218.202 13.3198 218.255 17.1266C218.323 22.0178 217.634 26.7453 215.287 31.1925C214.92 31.8875 214.758 32.5082 215.147 33.2351C217.679 37.9598 216.03 42.1231 212.748 45.8519C208.058 51.1812 201.899 54.3373 194.437 55.305C193.5 55.4263 192.525 55.7696 191.634 55.637C189.218 55.2777 188.063 56.5172 186.673 58.0501C182.122 63.0663 176.065 65.9195 169.154 67.2549C159.61 69.0982 150.015 69.2176 140.449 67.4223C135.416 66.4772 130.538 64.9876 125.789 63.1951C124.384 62.6647 123.428 62.7305 122.227 63.7443C117.154 68.0289 110.997 69.9671 104.16 70.4458C93.0995 71.2207 83.064 68.4483 73.7088 63.3033C72.2481 62.4992 71.1724 62.314 69.4432 62.9694C52.0769 69.5562 35.0772 68.5527 18.5771 60.4472C16.7179 59.5341 14.9051 58.9002 12.8042 58.7902C10.4071 58.6651 8.15246 57.9814 6.06608 56.9009C3.33963 55.4902 1.40397 53.4138 0.548155 50.6781C-0.672084 46.7753 1.70026 42.2632 5.97936 40.1811C8.07813 39.1598 10.3111 38.352 12.7495 38.4695C13.979 38.5288 14.3662 38.1206 14.5344 37.0683C15.1931 32.9596 17.7544 29.9737 21.4151 27.6528C26.2289 24.6011 31.5848 23.1312 37.4145 22.9535C38.8587 22.9093 40.239 23.2253 41.6326 23.4575C42.4647 23.5967 42.889 23.4942 43.1956 22.6591C44.6822 18.5993 47.9579 16.3677 52.4104 15.3868C54.0271 15.0304 54.0209 15.006 53.8629 13.4392C53.5181 10.0095 55.7975 6.48666 59.3767 4.82776C65.7793 1.85884 71.6173 3.02686 77.0836 6.81958C78.2687 7.64245 79.3424 8.5998 80.6256 9.62016ZM10.8593 54.089C12.1487 54.0636 12.6711 54.7868 13.3349 55.2354C15.6195 56.7805 17.8813 58.3576 20.3796 59.6093C27.6278 63.2412 35.3694 65.1559 43.6602 65.5246C57.3182 66.1321 69.5836 62.8415 80.4346 55.2392C80.7474 55.02 81.0385 54.7718 81.371 54.5827C81.7498 54.3664 82.1576 54.4097 82.4105 54.7511C82.5912 54.9965 82.5602 55.336 82.3094 55.5467C81.4979 56.2285 80.6741 56.8999 79.8276 57.5451C77.9776 58.9557 75.8819 60.0485 73.8234 61.1356C74.1579 61.8296 74.7371 61.9585 75.2037 62.1983C83.352 66.3869 92.0207 68.6769 101.466 68.3609C108.974 68.1098 115.751 66.1518 121.496 61.6463C122.591 60.7876 123.518 60.6193 124.891 61.0867C131.639 63.3795 138.553 65.1032 145.726 65.9224C154.046 66.8731 162.29 66.6568 170.405 64.6368C175.899 63.2694 180.937 61.0529 184.806 57.1153C187.951 53.915 190.133 50.1712 191.663 46.1123C191.919 45.4333 192.16 44.7487 192.441 44.0773C192.581 43.7425 192.834 43.3334 193.253 43.4293C193.817 43.5581 193.812 44.0509 193.701 44.4986C193.58 44.9895 193.464 45.4832 193.314 45.9675C192.608 48.2584 191.72 50.4853 190.497 52.5956C190.256 53.0094 189.818 53.4204 190.217 53.9367C190.314 53.9809 190.383 54.0382 190.454 54.041C190.769 54.0514 191.089 54.073 191.401 54.041C198.677 53.3009 204.852 50.554 209.802 45.6073C211.699 43.7114 213.027 41.4996 213.702 39.0187C214.64 35.5664 213.693 32.6182 210.554 30.3584C209.302 29.4565 207.941 28.7145 206.426 28.2791C203.597 27.4675 200.663 26.9992 197.851 28.0656C196.536 28.564 195.765 28.2857 194.636 27.7816C190.559 25.9581 186.253 25.1766 181.782 26.3936C177 27.6951 173.271 30.4016 170.239 33.9621C169.8 34.4774 169.6 35.2965 168.625 35.2947C168.549 35.0906 168.431 34.942 168.464 34.8301C168.565 34.4887 168.703 34.1511 168.866 33.8295C170.122 31.3486 172.164 29.4565 174.424 27.7355C179.991 23.4961 188.933 21.7037 196.219 26.1998C196.85 26.5892 197.384 26.6964 198.174 26.4584C202.882 25.044 207.191 25.8632 211.146 28.5227C211.813 28.9713 212.308 29.6963 213.453 29.812C216.823 22.2914 216.959 14.9655 212.047 7.94245C208.643 3.0767 203.06 1.62656 197.381 4.18451C191.185 6.97569 187.017 11.3835 185.447 17.642C184.691 20.6626 184.408 20.8187 181.169 20.0081C180.941 19.9507 180.706 19.9121 180.482 19.8444C176.172 18.5401 171.924 18.889 167.696 20.2027C162.961 21.6745 159.013 24.2607 155.385 27.318C153.822 28.6355 153.401 28.6534 151.768 27.4788C150.129 26.2995 148.951 24.7591 147.844 23.1811C145.717 20.1491 143.661 17.0768 141.537 14.0439C139.087 10.5436 136.105 7.47315 132.171 5.32052C126.36 2.14001 116.425 1.71401 109.368 7.39793C107.881 8.59603 107.563 8.78599 105.863 7.33962C104.182 5.90829 102.324 4.66319 100.242 3.77073C93.7788 0.999298 88.1008 2.23314 83.9776 7.45625C83.1848 8.46062 82.6769 9.58725 82.0998 10.6904C81.4639 11.9092 81.1665 11.9994 79.9907 11.1756C78.1128 9.85996 76.3062 8.46531 74.2942 7.30765C72.0478 6.01456 69.6414 5.18229 66.9944 4.96129C61.1782 4.47698 56.515 7.79196 55.8605 12.7593C55.7284 13.7636 56.4696 15.0022 55.7232 15.6577C54.95 16.3357 53.5842 16.4505 52.4827 16.8229C49.1791 17.9382 46.4785 19.6658 45.0776 22.7654C43.9575 25.2434 43.9317 25.234 40.9565 25.0751C40.72 25.0628 40.4836 25.0393 40.2472 25.029C36.1849 24.8494 32.1825 25.1578 28.3504 26.4716C22.2162 28.5763 17.3992 31.8593 15.8383 38.0999C15.3872 39.9046 15.1952 39.9422 13.0375 40.0739C10.4598 40.2309 8.0678 40.893 5.88541 42.1381C2.92463 43.8271 1.28835 47.2324 2.09668 49.9229C3.3066 53.9489 8.54887 57.3654 13.5176 57.2893C12.8383 56.125 11.3042 55.5946 10.8593 54.089Z" fill="#20A7DB"/>
<path d="M94.7337 40.7275C94.1772 39.5952 94.8204 39.0573 95.3541 38.5776C96.9326 37.1567 98.8084 36.2143 101.087 36.5247C102.194 36.6751 102.843 36.3507 103.558 35.6905C104.766 34.5771 106.29 33.9686 108.013 33.9103C109.925 33.8454 111.679 34.2141 112.571 35.9868C112.985 36.8096 113.538 36.9639 114.438 36.7325C116.382 36.235 118.385 36.1579 120.271 36.8115C121.496 37.2366 121.91 36.8764 122.36 35.9209C123.974 32.494 126.931 30.3649 130.836 29.6145C135.877 28.6458 140.594 29.6587 144.672 32.5834C146.667 34.0147 148.26 35.8269 149.453 37.8902C149.782 38.4573 150.02 39.0723 150.236 39.6836C150.287 39.8256 150.123 40.0992 149.971 40.2149C149.769 40.3673 149.498 40.2554 149.366 40.0739C149.106 39.7165 148.918 39.3159 148.655 38.9595C145.673 34.8949 141.751 32.0191 136.304 31.3392C131.194 30.7016 126.712 31.7869 123.618 35.904C122.497 37.3955 122.532 37.5131 123.781 39.0262C123.876 39.1409 123.969 39.2576 124.06 39.3751C124.256 39.6281 124.318 39.9102 124.123 40.1688C123.88 40.4895 123.548 40.34 123.294 40.1876C122.966 39.992 122.695 39.7221 122.379 39.5077C118.454 36.8426 112.809 37.9739 110.395 41.9011C110.288 42.077 110.104 42.2133 109.94 42.3845C109.449 41.1911 109.666 40.324 110.591 38.9472C110.967 38.3867 112.028 38.098 111.585 37.1792C111.138 36.2539 110.155 36.109 109.216 35.9858C107.178 35.7187 105.263 35.9444 103.723 37.3476C103.309 37.7247 102.88 37.9635 102.27 37.924C99.3173 37.736 96.6415 38.2711 94.7337 40.7275Z" fill="#20A7DB"/>
<path d="M29.0342 45.6774C29.0301 44.3928 29.7269 43.8605 30.3381 43.363C34.7741 39.7574 39.846 38.1117 45.8058 39.3342C46.1114 39.3972 46.4303 39.4527 46.7091 39.575C47.7569 40.0367 48.7986 40.9104 49.8247 40.8897C50.7415 40.8709 51.5777 39.7734 52.5481 39.3314C55.2291 38.1088 58.0113 37.9969 60.7677 39.116C62.8602 39.9652 63.6717 41.3627 63.396 43.3432C63.0326 43.4156 62.7704 43.2689 62.6486 42.9793C61.1073 39.3051 55.3199 38.9026 52.1052 41.3495C50.3264 42.7028 49.1537 43.0404 47.2893 41.6749C46.2146 40.8878 44.7053 40.5972 43.2559 40.6141C38.3078 40.6715 33.7386 41.722 30.0253 44.9344C29.8033 45.1263 29.5524 45.2909 29.0342 45.6774Z" fill="#20A7DB"/>
<path d="M179.899 54.5459C176.608 58.2954 167.628 61.552 164.061 60.2439C166.776 58.8615 169.672 58.6029 172.373 57.8383C175.059 57.0784 177.402 55.6641 179.899 54.5459Z" fill="#20A7DB"/>
<path d="M72.8526 54.1377C72.8867 55.065 72.609 55.3245 72.3065 55.553C69.64 57.5693 66.5605 58.7561 63.162 59.2809C62.6375 59.3618 61.9655 59.5715 61.7146 58.9555C61.4483 58.3 62.1368 58.0828 62.6262 57.9427C66.0515 56.9599 69.3592 55.6979 72.8526 54.1377Z" fill="#20A7DB"/>
<path d="M46.9811 58.6715C42.1156 60.0779 37.2625 59.9773 32.4229 58.6358C37.277 58.5935 42.1259 58.299 46.9811 58.6715Z" fill="#20A7DB"/>
<path d="M57.1641 56.7316C61.4659 55.2702 66.0093 54.3316 69.8393 51.9834C70.3431 52.3276 70.3203 52.6897 69.9755 52.9313C66.4067 55.4291 62.3537 56.8623 57.9074 57.3946C57.7195 57.4172 57.5027 57.2451 57.3003 57.1632C57.2539 57.0194 57.2085 56.8755 57.1641 56.7316Z" fill="#20A7DB"/>
<path d="M144.795 62.5075C139.821 62.5724 135.036 61.7531 130.44 60.0391C135.299 60.5047 140.14 61.0419 144.795 62.5075Z" fill="#20A7DB"/>
<path d="M156.149 63.3761C160.572 62.759 164.963 61.8578 169.44 61.5737C167.266 63.2322 159.332 64.2924 156.149 63.3761Z" fill="#20A7DB"/>
<path d="M101.186 61.0383C104.514 60.6168 107.854 60.1944 111.143 59.5246C111.533 59.4456 111.977 59.4287 112.044 59.9235C112.085 60.2302 111.829 60.4249 111.519 60.5538C108.339 61.8831 105.006 62.0957 101.589 61.6676C101.329 61.6356 101.253 61.4042 101.186 61.0383Z" fill="#20A7DB"/>
<path d="M153.142 61.0356C149.021 61.6197 145.036 60.9979 140.807 59.7721C142.113 59.2698 142.114 59.266 145.001 59.5953C146.327 59.7458 147.65 59.9133 148.975 60.0694C150.371 60.2331 151.769 60.3921 153.167 60.553C153.159 60.7138 153.15 60.8747 153.142 61.0356Z" fill="#20A7DB"/>
<path d="M41.0222 56.546C38.302 58.3005 30.7348 57.325 27.4375 54.9731C31.7868 55.8301 36.1402 56.658 41.0222 56.546Z" fill="#20A7DB"/>
<path d="M186.395 51.1191C185.694 53.9489 181.035 57.798 177.654 58.3971C180.874 56.2783 183.355 53.4429 186.395 51.1191Z" fill="#20A7DB"/>
<path d="M24.1338 57.7744C28.2818 58.8042 31.957 60.1584 36.3321 60.8421C33.2711 61.9734 26.2718 60.1462 24.1338 57.7744Z" fill="#20A7DB"/>
<path d="M29.0814 57.5385C25.5239 57.0589 22.527 55.5289 19.5156 53.4468C20.9909 53.4637 27.7651 56.2887 29.0814 57.5385Z" fill="#20A7DB"/>
<path d="M44.0791 61.594C47.3382 61.53 50.5117 60.7897 54.0103 60.5498C52.15 62.42 47.1782 62.9214 44.0791 61.594Z" fill="#20A7DB"/>
<path d="M118.518 59.6777C118.404 60.8824 117.747 61.0752 117.232 61.363C115.124 62.5404 112.74 63.0698 110.418 63.7441C110.026 63.8579 109.576 63.9012 109.374 63.5325C109.131 63.0915 109.586 62.8836 109.935 62.7783C112.753 61.9329 115.604 61.173 118.518 59.6777Z" fill="#20A7DB"/>
<path d="M206.013 45.0636C202.731 47.0752 202.223 47.2962 200.233 47.5661C200.98 46.6708 206.175 43.4226 208.008 42.7305C208.151 43.4142 207.841 43.9314 207.446 44.4289C206.905 44.5229 206.407 44.6959 206.013 45.0636Z" fill="#20A7DB"/>
<path d="M68 8.15393C71.6535 7.71837 74.6948 9.13792 77.5947 10.9639C74.3531 10.1944 71.2994 8.86041 68 8.15393Z" fill="#20A7DB"/>
<path d="M101.377 64.9633C98.104 65.6726 94.8552 65.3198 91.6074 64.5823C93.2014 63.6971 94.8604 64.3387 96.4874 64.3424C98.1381 64.3462 99.7878 64.3434 101.439 64.3434C101.418 64.5503 101.397 64.7573 101.377 64.9633Z" fill="#20A7DB"/>
<path d="M89.0254 60.9062C92.2112 60.9213 95.3011 61.6936 98.906 61.3559C96.7422 62.8996 92.3754 62.6315 89.0254 60.9062Z" fill="#20A7DB"/>
<path d="M178 21.4399C175.34 22.1633 172.672 21.8406 169.965 22.3176C171.258 20.5039 175.592 20.0645 178 21.4399Z" fill="#20A7DB"/>
<path d="M133.591 10.0244C136.959 10.9996 138.947 13.2463 140.29 16.0723C138.157 13.9695 136.069 11.8281 133.591 10.0244Z" fill="#20A7DB"/>
<path d="M193.081 29.3759C191.13 29.9817 189.726 29.2536 188.297 29.3054C186.895 29.3571 185.489 29.3166 183.893 29.3166C185.783 28.1229 189.811 28.1219 193.081 29.3759Z" fill="#20A7DB"/>
<path d="M39.5099 27.0275C36.6947 27.7086 33.8113 27.7603 31.0137 28.3379C33.6007 26.5421 36.5626 26.7086 39.5099 27.0275Z" fill="#20A7DB"/>
<path d="M203.602 5.52824C206.565 5.41069 208.851 6.48465 210.499 8.66925C208.276 7.47961 205.888 6.59844 203.602 5.52824Z" fill="#20A7DB"/>
<path d="M125.789 16.0571C127.14 18.2088 126.891 21.3987 125.251 23.3473C125.449 20.6558 125.62 18.3565 125.789 16.0571Z" fill="#20A7DB"/>
<path d="M130.482 57.8698C132.918 57.455 135.173 57.9667 137.34 58.9253C134.932 59.2988 132.641 58.9818 130.482 57.8698Z" fill="#20A7DB"/>
<path d="M78.5644 18.7217C79.5977 20.9843 79.5203 23.6993 78.5251 25.5445C77.9078 24.6642 77.8985 22.2849 78.5644 18.7217Z" fill="#20A7DB"/>
<path d="M129.669 15.7056C129.968 18.1168 130.434 20.5685 128.835 22.8312C128.42 21.6227 128.922 20.4434 129.06 19.266C129.2 18.0839 128.989 16.8604 129.669 15.7056Z" fill="#20A7DB"/>
<path d="M102.785 8.02217C100.428 7.34861 98.2205 6.31286 95.6768 5.74655C97.8788 4.88296 100.456 5.68352 102.785 8.02217Z" fill="#20A7DB"/>
<path d="M204.472 7.91406C207.383 8.17362 209.789 9.87012 211.082 12.6613C210.074 11.8582 209.1 11.0165 208.05 10.2614C206.968 9.48269 205.813 8.78772 204.472 7.91406Z" fill="#20A7DB"/>
<path d="M132.695 17.3345C133.333 19.4749 133.111 21.5137 131.911 23.4481C131.62 21.3595 132.265 19.3489 132.695 17.3345Z" fill="#20A7DB"/>
<path d="M193.761 52.1074C195.833 50.8139 198.107 49.939 200.553 49.4282C198.528 50.812 196.456 52.0895 193.761 52.1074Z" fill="#20A7DB"/>
<path d="M88.6478 63.7234C86.3446 63.586 84.1416 63.2022 82.5703 61.2305C84.6391 61.9031 86.708 62.5766 88.7778 63.2493C88.7345 63.4082 88.6911 63.5653 88.6478 63.7234Z" fill="#20A7DB"/>
<path d="M81.0568 25.3016C80.5004 25.0787 80.4085 24.8925 80.4198 24.6743C80.522 22.7201 80.6304 20.7669 80.9061 18.8174C81.6494 20.939 81.8156 23.0615 81.0568 25.3016Z" fill="#20A7DB"/>
<path d="M176.939 44.27C176.4 42.1635 176.417 40.4434 176.349 38.5645C177.994 40.2647 178.264 42.3327 176.939 44.27Z" fill="#20A7DB"/>
<path d="M174.093 44.4986C173.373 42.7147 173.803 41.0642 173.746 39.2925C175.164 40.8517 175.301 42.7006 174.093 44.4986Z" fill="#20A7DB"/>
<path d="M187.266 48.1484C186.036 50.1064 184.609 51.8979 181.958 53.2822C182.804 51.723 185.298 49.3033 187.266 48.1484Z" fill="#20A7DB"/>
<path d="M168.933 45.264C167.836 43.9126 167.733 42.627 168.557 40.6079C169.377 41.9725 169.495 43.4499 168.933 45.264Z" fill="#20A7DB"/>
<path d="M83.582 25.5098C83.582 23.4813 83.582 21.4538 83.582 19.4253C83.741 19.4253 83.901 19.4243 84.06 19.4243C84.7228 21.4519 84.7971 23.486 84.1302 25.5305C83.9485 25.5239 83.7648 25.5173 83.582 25.5098Z" fill="#20A7DB"/>
<path d="M55.6589 57.1737C53.4558 58.5161 51.6079 58.9216 49.4121 58.6036C50.8646 57.5811 53.1224 57.0232 55.6589 57.1737Z" fill="#20A7DB"/>
<path d="M142.654 37.1394C140.28 36.8017 138.276 36.0829 135.888 35.4404C138.247 34.8054 140.58 35.4254 142.654 37.1394Z" fill="#20A7DB"/>
<path d="M206.013 45.0635C206.408 44.6949 206.906 44.5228 207.447 44.4288C208.158 43.6125 208.965 42.9232 210.425 42.499C209.613 44.4542 208.189 45.4848 206.491 46.0707C205.661 46.3576 206.051 45.4698 206.013 45.0635Z" fill="#20A7DB"/>
<path d="M188.081 30.2256C188.004 30.7073 187.726 30.6828 187.511 30.7223C185.438 31.1033 183.306 31.0262 181.215 31.3178C183.326 30.0074 185.675 30.1231 188.081 30.2256Z" fill="#20A7DB"/>
<path d="M205.46 10.7749C208.1 11.5235 209.026 13.4316 210.612 15.3256C208.966 14.6052 207.341 13.125 205.46 10.7749Z" fill="#20A7DB"/>
<path d="M122.937 22.1352C122.099 20.3756 122.417 18.6406 123.105 16.8218C123.628 17.8506 123.625 19.3111 122.937 22.1352Z" fill="#20A7DB"/>
<path d="M17.583 54.4932C19.5135 54.8591 20.8927 55.7415 22.3215 56.7961C20.5541 57.1582 18.6701 56.2561 17.583 54.4932Z" fill="#20A7DB"/>
<path d="M139.69 34.3584C137.865 34.1213 136.041 33.8843 134.003 33.619C135.834 32.5851 137.632 32.7977 139.69 34.3584Z" fill="#20A7DB"/>
<path d="M171.176 39.8164C171.948 41.4377 172.168 43.0637 171.557 44.8853C170.737 43.7239 170.61 42.3208 171.176 39.8164Z" fill="#20A7DB"/>
<path d="M161.663 60.6128C159.759 61.5676 158.058 61.5761 156.114 60.7106C158.016 59.752 159.845 60.7059 161.663 60.6128Z" fill="#20A7DB"/>
<path d="M76.1478 20.4678C76.7032 22.6298 76.5649 23.9972 75.6327 25.5696C75.163 24.1561 75.3591 22.2085 76.1478 20.4678Z" fill="#20A7DB"/>
<path d="M153.02 63.4014C150.948 64.0702 149.481 63.7579 147.821 63.1399C149.831 62.566 150.486 62.5914 153.02 63.4014Z" fill="#20A7DB"/>
<path d="M74.3095 20.425C74.1918 21.9673 74.0741 23.5096 73.9409 25.2569C72.6391 24.5507 73.0779 23.5783 73.083 22.7686C73.0871 21.9166 73.3638 21.1059 73.818 20.3677C73.9822 20.3865 74.1463 20.4062 74.3095 20.425Z" fill="#20A7DB"/>
<path d="M134.699 24.3321C134.793 22.897 134.887 21.4619 134.981 20.0269C135.757 21.5193 136.06 22.9798 135.205 24.3641C135.036 24.3537 134.867 24.3425 134.699 24.3321Z" fill="#20A7DB"/>
<path d="M37.9785 61.5757C40.1248 60.8137 40.5842 60.8316 42.3196 61.6528C40.8608 62.5004 39.5972 62.2229 37.9785 61.5757Z" fill="#20A7DB"/>
<path d="M174.027 23.4899C175.618 22.6893 177.239 22.7721 178.871 23.4673C177.279 23.9067 175.666 23.8474 174.027 23.4899Z" fill="#20A7DB"/>
<path d="M103.648 64.5026C104.817 63.719 106.061 63.4199 107.702 63.7143C106.402 64.8479 105.089 64.9777 103.648 64.5026Z" fill="#20A7DB"/>
<path d="M135.296 13.2275C137.08 14.0316 138.039 15.4554 138.837 17.0015C137.173 16.1081 136.273 14.6391 135.296 13.2275Z" fill="#20A7DB"/>
<path d="M120.518 22.4268C119.167 21.1149 119.381 19.6986 120.171 17.8413C120.681 18.8936 120.47 19.6394 120.508 20.3391C120.548 21.0331 120.518 21.7309 120.518 22.4268Z" fill="#20A7DB"/>
<path d="M194.03 50.0858C195.111 48.7603 196.452 48.416 198.39 48.0303C197.018 49.4235 195.829 50.0378 194.03 50.0858Z" fill="#20A7DB"/>
<path d="M47.2562 43.8851C45.6602 43.8446 44.4275 43.3338 43.0576 42.7214C45.0965 42.2905 45.7035 42.457 47.2562 43.8851Z" fill="#20A7DB"/>
<path d="M72.3857 11.3034C73.9539 10.9158 75.2412 11.3354 76.7103 12.5798C74.85 12.4585 73.5884 11.9637 72.3857 11.3034Z" fill="#20A7DB"/>
<path d="M114.499 40.8768C115.943 39.8251 116.975 39.5861 118.463 40.334C117.154 40.8881 116.099 41.0536 114.499 40.8768Z" fill="#20A7DB"/>
<path d="M114.431 58.5876C115.133 57.9978 115.827 57.6713 116.56 57.4032C116.866 57.2913 117.23 57.2264 117.406 57.5124C117.641 57.8962 117.364 58.217 116.992 58.3712C116.207 58.6958 115.414 59.279 114.431 58.5876Z" fill="#20A7DB"/>
<path d="M86.0261 25.2113C85.7349 24.0179 85.9084 22.9185 85.9569 21.7139C87.1172 23.1057 87.1307 23.8308 86.0261 25.2113Z" fill="#20A7DB"/>
<path d="M181.489 29.8643C179.724 30.5388 178.467 31.0195 177.048 31.5623C178.12 30.1578 178.667 29.9339 181.489 29.8643Z" fill="#20A7DB"/>
<path d="M116.922 22.5536C116.294 21.5038 116.696 20.5791 116.771 19.4756C117.644 20.564 117.651 20.8058 116.922 22.5536Z" fill="#20A7DB"/>
<path d="M83.3936 58.7329C84.6437 58.5918 85.5408 59.1543 86.4204 59.763C85.0618 60.2343 84.1699 59.5955 83.3936 58.7329Z" fill="#20A7DB"/>
<path d="M166.393 45.5961C165.583 44.4681 165.59 43.5904 165.875 42.6055C166.734 43.6008 166.756 43.7061 166.393 45.5961Z" fill="#20A7DB"/>
<path d="M172.574 60.756C173.431 60.0514 174.281 59.503 175.816 59.5688C174.735 60.7466 173.767 61.0872 172.574 60.756Z" fill="#20A7DB"/>
<path d="M56.1289 60.8095C56.2084 60.4963 56.2012 60.3965 56.2466 60.3693C56.9548 59.9384 57.6558 59.4502 58.5869 59.7258C58.8657 59.8086 58.8812 60.1256 58.7449 60.2536C58.0377 60.9196 57.1829 61.1077 56.1289 60.8095Z" fill="#20A7DB"/>
<path d="M99.0625 7.94817C100.363 7.74782 101.266 8.28304 101.98 9.18039C100.848 9.09762 99.8584 8.71667 99.0625 7.94817Z" fill="#20A7DB"/>
<path d="M107.427 38.2768C106.48 38.7726 105.669 38.9786 104.573 38.4151C105.579 37.5515 106.402 37.5167 107.427 38.2768Z" fill="#20A7DB"/>
<path d="M137.22 24.8457C136.971 23.6463 136.967 22.8523 137.532 22.0518C138.192 23.2954 138.192 23.2954 137.22 24.8457Z" fill="#20A7DB"/>
<path d="M210.301 41.1973C210.444 40.1625 211.062 39.3789 211.903 38.251C211.955 39.8069 211.265 40.5736 210.301 41.1973Z" fill="#20A7DB"/>
<path d="M71.5863 24.9477C71.0092 24.0747 71.1021 23.4435 71.3932 22.6401C72.2738 23.3523 72.1056 23.9901 71.5863 24.9477Z" fill="#20A7DB"/>
<path d="M180.05 41.7758C179.105 40.8342 179.303 39.9885 179.167 39.0449C180.213 39.9894 180.224 39.9875 180.05 41.7758Z" fill="#20A7DB"/>
<path d="M35.0127 28.9355C35.8788 28.3692 36.8079 28.4729 37.7474 28.7056C36.8575 29.0156 35.9697 29.3586 35.0127 28.9355Z" fill="#20A7DB"/>
<path d="M143.358 20.7508C142.389 20.0895 141.871 19.5137 141.75 18.3745C142.926 18.9041 143.312 19.5561 143.358 20.7508Z" fill="#20A7DB"/>
<path d="M61.5547 43.6485C60.4046 43.672 59.842 43.3748 59.3145 42.5432C60.3458 42.5055 60.9621 42.7162 61.5547 43.6485Z" fill="#20A7DB"/>
<path d="M202.694 7.67203C201.609 7.76139 201.111 7.56481 200.818 6.92801C201.665 6.61384 202.146 6.91671 202.694 7.67203Z" fill="#20A7DB"/>
<path d="M201.955 5.36055C201.07 5.83086 200.583 5.52702 199.9 5.05388C200.75 4.61931 201.29 4.73503 201.955 5.36055Z" fill="#20A7DB"/>
<path d="M179.878 21.7576C179.851 21.4942 180.01 21.3559 180.256 21.3192C180.567 21.2741 180.879 21.307 181.078 21.5657C181.23 21.7661 181.171 21.9598 180.897 21.9984C180.528 22.0511 180.143 22.0756 179.878 21.7576Z" fill="#20A7DB"/>
<path d="M203.071 48.7422C202.759 48.6811 202.584 48.5466 202.681 48.3029C202.799 48.0103 203.102 47.904 203.414 47.8391C203.704 47.7789 203.902 47.9191 203.861 48.1599C203.791 48.5682 203.42 48.6924 203.071 48.7422Z" fill="#20A7DB"/>
<path d="M114.51 21.1997C114.883 21.6409 115.237 22.0727 114.685 22.5101C113.984 22.1141 114.498 21.6127 114.51 21.1997Z" fill="#20A7DB"/>
<path d="M57.1596 41.902C56.9789 42.1918 56.6919 42.2764 56.3719 42.1682C56.1458 42.092 55.9899 41.8446 56.1334 41.6791C56.2439 41.5521 56.5536 41.5173 56.7683 41.5304C56.9624 41.5427 57.2814 41.5615 57.1596 41.902Z" fill="#20A7DB"/>
<path d="M162.431 43.8911C162.993 44.3671 163.089 44.7453 162.824 45.1573C162.77 45.242 162.504 45.321 162.442 45.2768C161.88 44.8807 162.132 44.4339 162.431 43.8911Z" fill="#20A7DB"/>
<path d="M139.961 23.843C139.915 24.1036 140.046 24.4686 139.596 24.4987C139.333 24.5156 139.218 24.2814 139.227 24.0594C139.239 23.7716 139.298 23.4338 139.66 23.3877C139.928 23.3548 139.91 23.6596 139.961 23.843Z" fill="#20A7DB"/>
<path d="M204.303 9.70882C204.226 9.84144 204.183 10.0305 204.093 10.0521C203.762 10.1302 203.511 9.97406 203.413 9.68717C203.382 9.59593 203.487 9.37582 203.569 9.35795C203.909 9.2827 204.083 9.54609 204.303 9.70882Z" fill="#20A7DB"/>
<path d="M164.376 43.6411C164.627 44.1199 164.751 44.5734 164.338 45.0381C164.053 44.5564 163.998 44.1058 164.376 43.6411Z" fill="#20A7DB"/>
<path d="M41.2172 42.5694C41.0025 42.6231 40.796 42.7249 40.5988 42.7108C40.3387 42.6929 40.2189 42.5138 40.382 42.2877C40.5307 42.0813 40.7795 42.0531 40.9921 42.1605C41.0974 42.2142 41.1263 42.3932 41.2172 42.5694Z" fill="#20A7DB"/>
</svg>
