<svg width="146" height="46" viewBox="0 0 146 46" fill="none" xmlns="http://www.w3.org/2000/svg">
<path d="M42.9512 4.5436C42.9775 4.40554 43.0972 4.30566 43.2374 4.30566H53.0428C59.4755 4.30566 62.5474 7.60439 62.5474 12.9064C62.5474 19.3364 58.0652 23.5546 50.5929 23.5546H46.2654C46.1253 23.5546 46.0085 23.6544 45.9793 23.7896L44.493 31.3769C44.4667 31.515 44.347 31.6119 44.2068 31.6119H38.0748C37.8909 31.6119 37.7536 31.4445 37.7887 31.2653L42.9483 4.5436H42.9512ZM51.463 17.292C54.3684 17.292 55.7788 15.412 55.7788 13.2824C55.7788 11.4877 54.6166 10.5682 52.3741 10.5682H48.7533C48.6131 10.5682 48.4934 10.6681 48.4671 10.8062L47.2933 16.9424C47.2582 17.1216 47.3955 17.2891 47.5794 17.2891H51.4601L51.463 17.292Z" fill="white"/>
<path d="M67.8937 4.5436C67.92 4.40554 68.0397 4.30566 68.1799 4.30566H76.7384C84.4997 4.30566 89.7703 8.8146 89.7703 16.5811C89.7703 25.0997 83.3376 31.6119 74.2476 31.6119H63.0611C62.8801 31.6119 62.7399 31.4445 62.7749 31.2653L67.8937 4.5436ZM74.6214 25.3493C79.8511 25.3493 82.8383 21.5072 82.8383 16.8749C82.8383 12.7008 80.4731 10.5712 76.2799 10.5712H73.6987C73.5585 10.5712 73.4388 10.6711 73.4125 10.8091L70.7027 25.0057C70.6677 25.1848 70.8049 25.3523 70.9889 25.3523H74.6214V25.3493Z" fill="white"/>
<path d="M109.203 22.55L113.119 31.1978C113.206 31.3916 113.066 31.6119 112.853 31.6119H106.035C105.912 31.6119 105.804 31.5356 105.763 31.421L102.75 23.2843C102.706 23.1698 102.598 23.0934 102.478 23.0934H99.6402C99.5 23.0934 99.3832 23.1933 99.354 23.3284L97.786 31.374C97.7597 31.5121 97.64 31.609 97.4998 31.609H91.3678C91.1839 31.609 91.0466 31.4416 91.0817 31.2624L96.2413 4.54067C96.2676 4.40261 96.3873 4.30273 96.5275 4.30273H106.333C112.766 4.30273 115.837 7.3929 115.837 12.6949C115.837 17.3419 113.501 20.6377 109.373 22.1505C109.212 22.2092 109.133 22.3914 109.203 22.5471V22.55ZM100.671 16.4842C100.636 16.6634 100.773 16.8308 100.957 16.8308H104.838C107.743 16.8308 109.072 15.4121 109.072 13.3647C109.072 11.4847 107.95 10.5683 105.667 10.5683H102.046C101.906 10.5683 101.786 10.6681 101.76 10.8062L100.668 16.4842H100.671Z" fill="white"/>
<path d="M116.914 24.0955C116.914 24.0015 116.914 23.9193 116.923 23.8194C116.935 23.6696 117.063 23.5521 117.212 23.5521H123.183C123.344 23.5521 123.472 23.6843 123.472 23.8429V23.884C123.472 25.4291 124.801 26.3485 127.373 26.3485C129.49 26.3485 130.778 25.5965 130.778 24.0103C130.778 22.007 129.201 21.5458 126.792 20.7527C122.932 19.4573 119.53 18.1649 119.53 13.1125C119.53 7.51673 123.724 3.75977 129.742 3.75977C135.138 3.75977 139.246 6.76475 139.246 11.8171V12.1079C139.246 12.2695 139.115 12.3987 138.957 12.3987H133.187C133.027 12.3987 132.898 12.2665 132.898 12.1079C132.898 10.5217 131.736 9.56117 129.453 9.56117C127.461 9.56117 126.173 10.4806 126.173 11.9816C126.173 13.9849 127.917 14.4461 130.2 15.1951C134.142 16.4905 137.547 17.783 137.547 22.8765C137.547 28.5956 133.313 32.1441 127.046 32.1441C121.569 32.1441 116.92 29.4299 116.92 24.0867L116.914 24.0955Z" fill="white"/>
<path d="M41.5526 37.7344L42.595 34.7705H44.312V40.9949H43.1819V39.0973C43.1819 37.9312 43.1936 36.9031 43.217 36.0101C43.0885 36.4478 42.9308 36.9266 42.7439 37.4436L41.4825 40.992H40.5101L39.2399 37.4436C39.018 36.7973 38.8632 36.3244 38.7756 36.0277C38.799 36.9148 38.8107 37.937 38.8107 39.0973V40.9949H37.6719V34.7705H39.3888L40.4663 37.796C40.5364 37.9987 40.7145 38.5627 41.0007 39.4821C41.1876 38.8359 41.3715 38.2514 41.5526 37.7344Z" fill="white"/>
<path d="M48.5216 41.1271C47.7099 41.1271 47.0733 40.9097 46.609 40.475C46.1447 40.0402 45.9141 39.4322 45.9141 38.6508V34.7676H47.0967V38.6597C47.0967 39.1326 47.2193 39.491 47.4646 39.7348C47.7099 39.9786 48.0632 40.1019 48.5245 40.1019C48.9859 40.1019 49.3392 39.9786 49.5845 39.7348C49.8298 39.491 49.9524 39.1326 49.9524 38.6597V34.7676H51.135V38.6508C51.135 39.444 50.9043 40.0549 50.443 40.4838C49.9816 40.9127 49.3421 41.1271 48.5245 41.1271H48.5216Z" fill="white"/>
<path d="M53.9072 34.7705V39.9374H56.8739V40.9949H52.7246V34.7705H53.9072Z" fill="white"/>
<path d="M56.6904 34.7705H61.8734V35.828H59.8761V40.9949H58.6848V35.828H56.6875V34.7705H56.6904Z" fill="white"/>
<path d="M64.3174 40.9978H63.1348V34.7734H64.3174V40.9978Z" fill="white"/>
<path d="M65.585 34.7705H70.768V35.828H68.7707V40.9949H67.5793V35.828H65.582V34.7705H65.585Z" fill="white"/>
<path d="M76.9145 39.3441L76.967 40.2723C76.9729 40.569 77.0371 40.8128 77.1597 40.9978H75.9421C75.837 40.8216 75.7815 40.5748 75.7757 40.2547L75.7494 39.5732C75.7319 39.1943 75.6443 38.9299 75.4924 38.783C75.3377 38.6332 75.0924 38.5598 74.7537 38.5598H73.2119V40.9978H72.0293V34.7734H74.8559C75.5508 34.7734 76.091 34.9321 76.4765 35.2464C76.8619 35.5607 77.0546 35.9895 77.0546 36.533C77.0546 37.2791 76.7071 37.7755 76.0122 38.0193C76.3275 38.1192 76.5524 38.2748 76.6896 38.4863C76.8269 38.6978 76.8999 38.9857 76.9115 39.347L76.9145 39.3441ZM73.2119 35.7428V37.6315H74.7887C75.1216 37.6315 75.3785 37.5493 75.5625 37.3819C75.7465 37.2144 75.837 36.9765 75.837 36.6593C75.837 36.3626 75.7406 36.1335 75.5537 35.9778C75.3639 35.8192 75.0953 35.7428 74.7449 35.7428H73.2119Z" fill="white"/>
<path d="M84.0948 40.9978H82.8421L82.3515 39.6261H79.6213L79.1395 40.9978H77.9219L80.2958 34.7734H81.6799L84.0977 40.9978H84.0948ZM80.217 37.9458L79.9805 38.6185H81.9953L81.75 37.9458C81.5456 37.4259 81.2886 36.7151 80.9791 35.8133C80.7338 36.5359 80.4798 37.2467 80.217 37.9458Z" fill="white"/>
<path d="M85.2148 34.7705H87.5976C88.5962 34.7705 89.3671 35.0466 89.9102 35.6018C90.4533 36.1628 90.7249 36.9207 90.7249 37.8842C90.7249 38.8476 90.4533 39.6026 89.9102 40.1577C89.3671 40.7188 88.5962 40.9978 87.5976 40.9978H85.2148V34.7734V34.7705ZM86.3974 39.9815H87.58C88.1932 39.9815 88.6663 39.8023 88.9992 39.4439C89.3321 39.0856 89.4985 38.5657 89.4985 37.8842C89.4985 37.2027 89.3321 36.6828 88.9992 36.3244C88.6663 35.966 88.1932 35.7869 87.58 35.7869H86.3974V39.9844V39.9815Z" fill="white"/>
<path d="M96.7465 34.7705V35.828H93.333V37.2967H96.4224V38.3101H93.333V39.9374H96.729V40.9949H92.1504V34.7705H96.7465Z" fill="white"/>
<path d="M100.693 34.7705H103.435C104.13 34.7705 104.67 34.9526 105.059 35.3169C105.447 35.6811 105.64 36.1746 105.64 36.8003C105.64 37.4259 105.447 37.9106 105.059 38.2749C104.67 38.6391 104.13 38.8212 103.435 38.8212H101.876V40.9978H100.693V34.7734V34.7705ZM101.876 37.8049H103.383C103.727 37.8049 103.99 37.7197 104.174 37.5464C104.358 37.3731 104.448 37.1263 104.448 36.8003C104.448 36.4742 104.358 36.2245 104.174 36.0483C103.99 35.872 103.727 35.7869 103.383 35.7869H101.876V37.8078V37.8049Z" fill="white"/>
<path d="M109.922 37.9899L111.025 34.7734H112.252L110.018 40.9978H108.634L106.348 34.7734H107.609L108.739 37.9899C109.002 38.783 109.2 39.4292 109.335 39.9315C109.487 39.3558 109.682 38.7066 109.922 37.9899Z" fill="white"/>
<path d="M113.101 34.7705H118.284V35.828H116.286V40.9949H115.095V35.828H113.098V34.7705H113.101Z" fill="white"/>
<path d="M123.335 34.7705V39.9374H126.302V40.9949H122.152V34.7705H123.335Z" fill="white"/>
<path d="M126.122 34.7705H131.305V35.828H129.308V40.9949H128.116V35.828H126.119V34.7705H126.122Z" fill="white"/>
<path d="M132.562 34.7705H134.945C135.944 34.7705 136.715 35.0466 137.258 35.6018C137.801 36.1628 138.073 36.9207 138.073 37.8842C138.073 38.8476 137.801 39.6026 137.258 40.1577C136.715 40.7188 135.944 40.9978 134.945 40.9978H132.562V34.7734V34.7705ZM133.745 39.9815H134.928C135.541 39.9815 136.014 39.8023 136.347 39.4439C136.68 39.0856 136.846 38.5657 136.846 37.8842C136.846 37.2027 136.68 36.6828 136.347 36.3244C136.014 35.966 135.541 35.7869 134.928 35.7869H133.745V39.9844V39.9815Z" fill="white"/>
<path d="M21.6094 20.5976L34.3552 7.9873V19.1143C34.3552 22.9182 31.2892 26.0025 27.5078 26.0025V18.5326L21.6094 20.5976Z" fill="url(#paint0_linear_2200_820)"/>
<path d="M27.5076 25.9997H17.9183C17.2116 25.9997 16.5342 26.2758 16.029 26.7723L10.6562 32.0391H22.2808C23.0312 32.0391 23.7495 31.7336 24.2722 31.1931L31.616 24.6221C30.4714 25.4857 29.0493 25.9997 27.5076 25.9997Z" fill="url(#paint1_linear_2200_820)"/>
<path d="M19.5036 15.5093L6.75781 28.1197V16.9927C6.75781 13.1888 9.82381 10.1045 13.6052 10.1045V17.5744L19.5036 15.5093Z" fill="url(#paint2_linear_2200_820)"/>
<path d="M13.6045 10.1077H15.1142H23.1938C23.9005 10.1077 24.5779 9.83158 25.0831 9.33515L30.4559 4.06836H18.8313C18.0809 4.06836 17.3626 4.37385 16.8399 4.91434L9.49609 11.4853C10.6407 10.6217 12.0628 10.1077 13.6045 10.1077Z" fill="url(#paint3_linear_2200_820)"/>
<defs>
<linearGradient id="paint0_linear_2200_820" x1="27.6801" y1="10.9042" x2="29.0008" y2="25.5869" gradientUnits="userSpaceOnUse">
<stop stop-color="#3CB7E9"/>
<stop offset="1" stop-color="#546AB2"/>
</linearGradient>
<linearGradient id="paint1_linear_2200_820" x1="12.709" y1="28.9225" x2="30.5681" y2="28.1939" gradientUnits="userSpaceOnUse">
<stop stop-color="#42A5DC"/>
<stop offset="1" stop-color="#3CB7E9"/>
</linearGradient>
<linearGradient id="paint2_linear_2200_820" x1="13.43" y1="25.2028" x2="12.1122" y2="10.5201" gradientUnits="userSpaceOnUse">
<stop stop-color="#3CB7E9"/>
<stop offset="1" stop-color="#546AB2"/>
</linearGradient>
<linearGradient id="paint3_linear_2200_820" x1="28.4031" y1="7.18496" x2="10.544" y2="7.91355" gradientUnits="userSpaceOnUse">
<stop stop-color="#42A5DC"/>
<stop offset="1" stop-color="#3CB7E9"/>
</linearGradient>
</defs>
</svg>
