<svg width="36" height="36" viewBox="0 0 36 36" fill="none" xmlns="http://www.w3.org/2000/svg">
<path d="M17.8109 32.3337C25.865 32.3337 32.3942 25.8044 32.3942 17.7503C32.3942 9.69617 25.865 3.16699 17.8109 3.16699C9.75672 3.16699 3.22754 9.69617 3.22754 17.7503C3.22754 25.8044 9.75672 32.3337 17.8109 32.3337ZM19.9988 11.917C20.4764 12.5529 20.8187 13.2963 20.9827 14.1045H23.6442V16.292H20.9827C20.476 18.7882 18.2691 20.667 15.6234 20.667H15.3473L20.7717 26.0916L19.225 27.6383L11.9775 20.3909V18.4795H15.6234C17.0521 18.4795 18.2675 17.5664 18.718 16.292H11.9775V14.1045H18.718C18.2675 12.8301 17.0521 11.917 15.6234 11.917H11.9775V9.72949H23.6442V11.917H19.9988Z" fill="#20A7DB"/>
</svg>
