<svg width="300" height="83" viewBox="0 0 300 83" fill="none" xmlns="http://www.w3.org/2000/svg">
<path d="M5.76108 17.2281V6.72316H21.9853V17.2281H32.6603V29.75H21.9853V46.0536C21.9853 48.855 23.0726 50.5918 25.2471 51.2641C27.1392 51.9364 29.6103 52.0064 32.6603 51.4742V64.6264C29.695 65.0746 26.5462 65.2987 23.2138 65.2987C16.9726 65.2987 12.5106 63.786 9.82773 60.7606C7.11663 57.7351 5.76108 53.0289 5.76108 46.6419V29.75H0V17.2281H5.76108Z" fill="#1B1464"/>
<path d="M39.4804 64.5423V17.2281H54.9845L55.747 22.4806C58.3733 18.4747 63.259 16.4577 70.4038 16.4297V30.0441C60.6326 30.0441 55.747 33.6578 55.747 40.8852V64.5423H39.4804Z" fill="#1B1464"/>
<path d="M93.8718 16.3877C97.3736 16.3877 100.409 16.962 102.979 18.1105C105.578 19.231 107.456 20.8138 108.613 22.8587L109.376 17.2281H124.88V64.5423H109.376L108.613 58.9117C107.512 60.9847 105.676 62.5814 103.106 63.7019C100.537 64.7945 97.4583 65.3407 93.8718 65.3407C87.6589 65.3407 82.4626 63.0576 78.283 58.4915C74.1034 53.9814 72.0136 48.1126 72.0136 40.8852C72.0136 33.6858 74.1034 27.8031 78.283 23.2369C82.4626 18.6708 87.6589 16.3877 93.8718 16.3877ZM91.2031 48.7429C93.1234 50.7318 95.538 51.7263 98.4468 51.7263C101.327 51.7263 103.742 50.7318 105.69 48.7429C107.639 46.782 108.613 44.1628 108.613 40.8852C108.613 37.6077 107.639 34.9744 105.69 32.9855C103.742 31.0246 101.327 30.0441 98.4468 30.0441C95.5097 30.0441 93.0952 31.0246 91.2031 32.9855C89.2545 34.9744 88.2801 37.6077 88.2801 40.8852C88.2801 44.1628 89.2545 46.782 91.2031 48.7429Z" fill="#1B1464"/>
<path d="M152.245 16.3877C155.747 16.3877 158.783 16.962 161.353 18.1105C163.951 19.231 165.829 20.8138 166.987 22.8587V0H183.253V64.5423H167.749L166.987 58.9117C165.885 60.9847 164.05 62.5814 161.48 63.7019C158.91 64.7945 155.832 65.3407 152.245 65.3407C146.032 65.3407 140.836 63.0576 136.656 58.4915C132.477 53.9814 130.387 48.1126 130.387 40.8852C130.387 33.6858 132.477 27.8031 136.656 23.2369C140.836 18.6708 146.032 16.3877 152.245 16.3877ZM156.82 51.7263C159.701 51.7263 162.115 50.7318 164.064 48.7429C166.012 46.782 166.987 44.1628 166.987 40.8852C166.987 37.6077 166.012 34.9744 164.064 32.9855C162.115 31.0246 159.701 30.0441 156.82 30.0441C153.883 30.0441 151.469 31.0246 149.576 32.9855C147.628 34.9744 146.653 37.6077 146.653 40.8852C146.653 44.1628 147.642 46.782 149.619 48.7429C151.567 50.7318 153.968 51.7263 156.82 51.7263Z" fill="#1B1464"/>
<path d="M225.36 22.8587L226.123 17.2281H241.627V61.1808C241.627 65.7469 240.497 69.6828 238.238 72.9883C235.979 76.2378 232.957 78.647 229.173 80.2157C225.332 81.7844 220.969 82.5688 216.083 82.5688C206.171 82.5688 198.221 79.2633 192.234 72.6521L199.732 64.1221C203.262 67.9599 208.289 69.8788 214.812 69.8788C217.721 69.8788 220.206 69.0245 222.268 67.3156C224.329 65.6068 225.36 63.3238 225.36 60.4664V56.9788C223.27 60.8166 218.356 62.7355 210.619 62.7355C207.597 62.7355 204.745 62.1892 202.062 61.0967C199.379 60.0042 197.049 58.4635 195.072 56.4745C193.095 54.4856 191.542 52.0485 190.412 49.1631C189.311 46.2778 188.76 43.1823 188.76 39.8767C188.76 33.1256 190.864 27.5089 195.072 23.0268C199.28 18.6007 204.462 16.3877 210.619 16.3877C214.12 16.3877 217.156 16.962 219.726 18.1105C222.324 19.231 224.202 20.8138 225.36 22.8587ZM215.194 49.7934C218.046 49.7934 220.46 48.855 222.437 46.9781C224.386 45.0732 225.36 42.7061 225.36 39.8767C225.36 37.0474 224.386 34.6943 222.437 32.8174C220.46 30.9686 218.046 30.0441 215.194 30.0441C212.398 30.0441 209.997 30.9686 207.992 32.8174C206.015 34.6943 205.027 37.0474 205.027 39.8767C205.027 42.7341 206.015 45.1012 207.992 46.9781C209.969 48.855 212.369 49.7934 215.194 49.7934Z" fill="#20A7DB"/>
<path d="M283.649 63.6599C280.514 64.7244 277.153 65.2567 273.567 65.2567C269.98 65.2567 266.62 64.7244 263.485 63.6599C256.735 61.3628 252.005 57.2309 249.294 51.2641C247.854 48.1546 247.134 44.695 247.134 40.8852C247.134 37.1034 247.854 33.6298 249.294 30.4643C251.977 24.5535 256.707 20.4216 263.485 18.0685C266.62 17.004 269.98 16.4717 273.567 16.4717C277.153 16.4717 280.514 17.004 283.649 18.0685C290.426 20.4216 295.171 24.5535 297.882 30.4643C299.294 33.6578 300 37.1315 300 40.8852C300 44.667 299.294 48.1266 297.882 51.2641C295.143 57.2309 290.398 61.3628 283.649 63.6599ZM266.281 48.7429C268.229 50.7318 270.658 51.7263 273.567 51.7263C276.447 51.7263 278.862 50.7318 280.81 48.7429C282.759 46.782 283.733 44.1628 283.733 40.8852C283.733 37.6077 282.759 34.9744 280.81 32.9855C278.862 31.0246 276.447 30.0441 273.567 30.0441C270.658 30.0441 268.229 31.0246 266.281 32.9855C264.332 34.9744 263.358 37.6077 263.358 40.8852C263.358 44.1628 264.332 46.782 266.281 48.7429Z" fill="#20A7DB"/>
</svg>
